  0
SECTION
  2
HEADER
  9
$ACADVER
  1
AC1014
  9
$ACADMAINTVER
 70
     9
  9
$DWGCODEPAGE
  3
CNT
  9
$INSBASE
 10
0.0
 20
0.0
 30
0.0
  9
$EXTMIN
 10
1.000000000000000E+20
 20
1.000000000000000E+20
 30
1.000000000000000E+20
  9
$EXTMAX
 10
-1.000000000000000E+20
 20
-1.000000000000000E+20
 30
-1.000000000000000E+20
  9
$LIMMIN
 10
0.0
 20
0.0
  9
$LIMMAX
 10
12.0
 20
9.0
  9
$ORTHOMODE
 70
     0
  9
$REGENMODE
 70
     1
  9
$FILLMODE
 70
     1
  9
$QTEXTMODE
 70
     0
  9
$MIRRTEXT
 70
     1
  9
$DRAGMODE
 70
     2
  9
$LTSCALE
 40
1.0
  9
$OSMODE
 70
    37
  9
$ATTMODE
 70
     1
  9
$TEXTSIZE
 40
0.2
  9
$TRACEWID
 40
0.05
  9
$TEXTSTYLE
  7
STANDARD
  9
$CLAYER
  8
0
  9
$CELTYPE
  6
BYLAYER
  9
$CECOLOR
 62
   256
  9
$CELTSCALE
 40
1.0
  9
$DELOBJ
 70
     1
  9
$DISPSILH
 70
     0
  9
$DIMSCALE
 40
1.0
  9
$DIMASZ
 40
0.18
  9
$DIMEXO
 40
0.0625
  9
$DIMDLI
 40
0.38
  9
$DIMRND
 40
0.0
  9
$DIMDLE
 40
0.0
  9
$DIMEXE
 40
0.18
  9
$DIMTP
 40
0.0
  9
$DIMTM
 40
0.0
  9
$DIMTXT
 40
0.18
  9
$DIMCEN
 40
0.09
  9
$DIMTSZ
 40
0.0
  9
$DIMTOL
 70
     0
  9
$DIMLIM
 70
     0
  9
$DIMTIH
 70
     1
  9
$DIMTOH
 70
     1
  9
$DIMSE1
 70
     0
  9
$DIMSE2
 70
     0
  9
$DIMTAD
 70
     0
  9
$DIMZIN
 70
     0
  9
$DIMBLK
  1

  9
$DIMASO
 70
     1
  9
$DIMSHO
 70
     1
  9
$DIMPOST
  1

  9
$DIMAPOST
  1

  9
$DIMALT
 70
     0
  9
$DIMALTD
 70
     2
  9
$DIMALTF
 40
25.4
  9
$DIMLFAC
 40
1.0
  9
$DIMTOFL
 70
     0
  9
$DIMTVP
 40
0.0
  9
$DIMTIX
 70
     0
  9
$DIMSOXD
 70
     0
  9
$DIMSAH
 70
     0
  9
$DIMBLK1
  1

  9
$DIMBLK2
  1

  9
$DIMSTYLE
  2
STANDARD
  9
$DIMCLRD
 70
     0
  9
$DIMCLRE
 70
     0
  9
$DIMCLRT
 70
     0
  9
$DIMTFAC
 40
1.0
  9
$DIMGAP
 40
0.09
  9
$DIMJUST
 70
     0
  9
$DIMSD1
 70
     0
  9
$DIMSD2
 70
     0
  9
$DIMTOLJ
 70
     1
  9
$DIMTZIN
 70
     0
  9
$DIMALTZ
 70
     0
  9
$DIMALTTZ
 70
     0
  9
$DIMFIT
 70
     3
  9
$DIMUPT
 70
     0
  9
$DIMUNIT
 70
     2
  9
$DIMDEC
 70
     4
  9
$DIMTDEC
 70
     4
  9
$DIMALTU
 70
     2
  9
$DIMALTTD
 70
     2
  9
$DIMTXSTY
  7
STANDARD
  9
$DIMAUNIT
 70
     0
  9
$LUNITS
 70
     2
  9
$LUPREC
 70
     4
  9
$SKETCHINC
 40
0.1
  9
$FILLETRAD
 40
0.0
  9
$AUNITS
 70
     0
  9
$AUPREC
 70
     0
  9
$MENU
  1
.
  9
$ELEVATION
 40
0.0
  9
$PELEVATION
 40
0.0
  9
$THICKNESS
 40
0.0
  9
$LIMCHECK
 70
     0
  9
$CHAMFERA
 40
0.0
  9
$CHAMFERB
 40
0.0
  9
$CHAMFERC
 40
0.0
  9
$CHAMFERD
 40
0.0
  9
$SKPOLY
 70
     0
  9
$TDCREATE
 40
2460674.420231713
  9
$TDUPDATE
 40
2460674.420235255
  9
$TDINDWG
 40
0.0000000116
  9
$TDUSRTIMER
 40
0.0000000116
  9
$USRTIMER
 70
     1
  9
$ANGBASE
 50
0.0
  9
$ANGDIR
 70
     0
  9
$PDMODE
 70
     0
  9
$PDSIZE
 40
0.0
  9
$PLINEWID
 40
0.0
  9
$COORDS
 70
     1
  9
$SPLFRAME
 70
     0
  9
$SPLINETYPE
 70
     6
  9
$SPLINESEGS
 70
     8
  9
$ATTDIA
 70
     0
  9
$ATTREQ
 70
     1
  9
$HANDLING
 70
     1
  9
$HANDSEED
  5
2B9
  9
$SURFTAB1
 70
     6
  9
$SURFTAB2
 70
     6
  9
$SURFTYPE
 70
     6
  9
$SURFU
 70
     6
  9
$SURFV
 70
     6
  9
$UCSNAME
  2

  9
$UCSORG
 10
0.0
 20
0.0
 30
0.0
  9
$UCSXDIR
 10
1.0
 20
0.0
 30
0.0
  9
$UCSYDIR
 10
0.0
 20
1.0
 30
0.0
  9
$PUCSNAME
  2

  9
$PUCSORG
 10
0.0
 20
0.0
 30
0.0
  9
$PUCSXDIR
 10
1.0
 20
0.0
 30
0.0
  9
$PUCSYDIR
 10
0.0
 20
1.0
 30
0.0
  9
$USERI1
 70
     0
  9
$USERI2
 70
     0
  9
$USERI3
 70
     0
  9
$USERI4
 70
     0
  9
$USERI5
 70
     0
  9
$USERR1
 40
0.0
  9
$USERR2
 40
0.0
  9
$USERR3
 40
0.0
  9
$USERR4
 40
0.0
  9
$USERR5
 40
0.0
  9
$WORLDVIEW
 70
     1
  9
$SHADEDGE
 70
     3
  9
$SHADEDIF
 70
    70
  9
$TILEMODE
 70
     1
  9
$MAXACTVP
 70
    64
  9
$PINSBASE
 10
0.0
 20
0.0
 30
0.0
  9
$PLIMCHECK
 70
     0
  9
$PEXTMIN
 10
1.000000000000000E+20
 20
1.000000000000000E+20
 30
1.000000000000000E+20
  9
$PEXTMAX
 10
-1.000000000000000E+20
 20
-1.000000000000000E+20
 30
-1.000000000000000E+20
  9
$PLIMMIN
 10
0.0
 20
0.0
  9
$PLIMMAX
 10
12.0
 20
9.0
  9
$UNITMODE
 70
     0
  9
$VISRETAIN
 70
     1
  9
$PLINEGEN
 70
     0
  9
$PSLTSCALE
 70
     1
  9
$TREEDEPTH
 70
  3020
  9
$PICKSTYLE
 70
     1
  9
$CMLSTYLE
  2
STANDARD
  9
$CMLJUST
 70
     0
  9
$CMLSCALE
 40
1.0
  9
$PROXYGRAPHICS
 70
     1
  9
$MEASUREMENT
 70
     1
  0
ENDSEC
  0
SECTION
  2
CLASSES
  0
CLASS
  1
ACDBDICTIONARYWDFLT
  2
AcDbDictionaryWithDefault
  3
ObjectDBX Classes
 90
        0
280
     0
281
     0
  0
CLASS
  1
VISUALSTYLE
  2
AcDbVisualStyle
  3
ObjectDBX Classes
 90
     4095
280
     0
281
     0
  0
CLASS
  1
MATERIAL
  2
AcDbMaterial
  3
ObjectDBX Classes
 90
     1153
280
     0
281
     0
  0
CLASS
  1
SCALE
  2
AcDbScale
  3
ObjectDBX Classes
 90
     1153
280
     0
281
     0
  0
CLASS
  1
TABLESTYLE
  2
AcDbTableStyle
  3
ObjectDBX Classes
 90
     4095
280
     0
281
     0
  0
CLASS
  1
MLEADERSTYLE
  2
AcDbMLeaderStyle
  3
ACDB_MLEADERSTYLE_CLASS
 90
     4095
280
     0
281
     0
  0
CLASS
  1
SUN
  2
AcDbSun
  3
SCENEOE
 90
     1153
280
     0
281
     0
  0
CLASS
  1
DICTIONARYVAR
  2
AcDbDictionaryVar
  3
ObjectDBX Classes
 90
        0
280
     0
281
     0
  0
CLASS
  1
XRECORD
  2
AcDbXrecord
  3
ObjectDBX Classes
 90
        0
280
     0
281
     0
  0
CLASS
  1
LWPOLYLINE
  2
AcDbPolyline
  3
ObjectDBX Classes
 90
        0
280
     0
281
     1
  0
CLASS
  1
HATCH
  2
AcDbHatch
  3
ObjectDBX Classes
 90
        0
280
     0
281
     1
  0
CLASS
  1
ACDBPLACEHOLDER
  2
AcDbPlaceHolder
  3
ObjectDBX Classes
 90
        0
280
     0
281
     0
  0
CLASS
  1
LAYOUT
  2
AcDbLayout
  3
ObjectDBX Classes
 90
        0
280
     0
281
     0
  0
ENDSEC
  0
SECTION
  2
TABLES
  0
TABLE
  2
VPORT
  5
8
102
{ACAD_XDICTIONARY
360
2AE
102
}
330
0
100
AcDbSymbolTable
 70
     1
  0
VPORT
  5
29
330
8
100
AcDbSymbolTableRecord
100
AcDbViewportTableRecord
  2
*ACTIVE
 70
     0
 10
0.0
 20
0.0
 11
1.0
 21
1.0
 12
0.0
 22
0.0
 13
0.0
 23
0.0
 14
0.5
 24
0.5
 15
0.5
 25
0.5
 16
0.0
 26
0.0
 36
1.0
 17
0.0
 27
0.0
 37
-1000.0
 40
673.29583139438
 41
1.853467561521253
 42
50.0
 43
50.80000233526916
 44
3455.799239791791
 50
0.0
 51
0.0
 71
     0
 72
   100
 73
     1
 74
     3
 75
     0
 76
     0
 77
     0
 78
     0
  0
ENDTAB
  0
TABLE
  2
LTYPE
  5
5
330
0
100
AcDbSymbolTable
 70
     1
  0
LTYPE
  5
14
330
5
100
AcDbSymbolTableRecord
100
AcDbLinetypeTableRecord
  2
BYBLOCK
 70
     0
  3

 72
    65
 73
     0
 40
0.0
  0
LTYPE
  5
15
330
5
100
AcDbSymbolTableRecord
100
AcDbLinetypeTableRecord
  2
BYLAYER
 70
     0
  3

 72
    65
 73
     0
 40
0.0
  0
LTYPE
  5
16
330
5
100
AcDbSymbolTableRecord
100
AcDbLinetypeTableRecord
  2
CONTINUOUS
 70
     0
  3
Solid line
 72
    65
 73
     0
 40
0.0
  0
ENDTAB
  0
TABLE
  2
LAYER
  5
2
330
0
100
AcDbSymbolTable
 70
     3
  0
LAYER
  5
10
330
2
100
AcDbSymbolTableRecord
100
AcDbLayerTableRecord
  2
0
 70
     0
 62
     7
  6
CONTINUOUS
  0
LAYER
  5
5E
330
2
100
AcDbSymbolTableRecord
100
AcDbLayerTableRecord
  2
PROFILEEDGES
 70
     0
 62
     7
  6
CONTINUOUS
  0
LAYER
  5
5F
330
2
100
AcDbSymbolTableRecord
100
AcDbLayerTableRecord
  2
SECTIONCUTEDGES
 70
     0
 62
     7
  6
CONTINUOUS
  0
ENDTAB
  0
TABLE
  2
STYLE
  5
3
330
0
100
AcDbSymbolTable
 70
     1
  0
STYLE
  5
11
330
3
100
AcDbSymbolTableRecord
100
AcDbTextStyleTableRecord
  2
STANDARD
 70
     0
 40
0.0
 41
1.0
 50
0.0
 71
     0
 42
0.2
  3
txt
  4

  0
ENDTAB
  0
TABLE
  2
VIEW
  5
6
330
0
100
AcDbSymbolTable
 70
     0
  0
ENDTAB
  0
TABLE
  2
UCS
  5
7
330
0
100
AcDbSymbolTable
 70
     0
  0
ENDTAB
  0
TABLE
  2
APPID
  5
9
330
0
100
AcDbSymbolTable
 70
     2
  0
APPID
  5
12
330
9
100
AcDbSymbolTableRecord
100
AcDbRegAppTableRecord
  2
ACAD
 70
     0
  0
APPID
  5
2B8
330
9
100
AcDbSymbolTableRecord
100
AcDbRegAppTableRecord
  2
ACAD_MLEADERVER
 70
     0
  0
ENDTAB
  0
TABLE
  2
DIMSTYLE
  5
A
330
0
100
AcDbSymbolTable
 70
     1
  0
DIMSTYLE
105
27
330
A
100
AcDbSymbolTableRecord
100
AcDbDimStyleTableRecord
  2
STANDARD
 70
     0
  3

  4

  5

  6

  7

 40
1.0
 41
0.18
 42
0.0625
 43
0.38
 44
0.18
 45
0.0
 46
0.0
 47
0.0
 48
0.0
140
0.18
141
0.09
142
0.0
143
25.4
144
1.0
145
0.0
146
1.0
147
0.09
 71
     0
 72
     0
 73
     1
 74
     1
 75
     0
 76
     0
 77
     0
 78
     0
170
     0
171
     2
172
     0
173
     0
174
     0
175
     0
176
     0
177
     0
178
     0
270
     2
271
     4
272
     4
273
     2
274
     2
340
11
275
     0
280
     0
281
     0
282
     0
283
     1
284
     0
285
     0
286
     0
287
     3
288
     0
  0
ENDTAB
  0
TABLE
  2
BLOCK_RECORD
  5
1
330
0
100
AcDbSymbolTable
 70
     0
  0
BLOCK_RECORD
  5
1F
330
1
100
AcDbSymbolTableRecord
100
AcDbBlockTableRecord
  2
*MODEL_SPACE
  0
BLOCK_RECORD
  5
1B
330
1
100
AcDbSymbolTableRecord
100
AcDbBlockTableRecord
  2
*PAPER_SPACE
  0
ENDTAB
  0
ENDSEC
  0
SECTION
  2
BLOCKS
  0
BLOCK
  5
20
330
1F
100
AcDbEntity
  8
0
100
AcDbBlockBegin
  2
*MODEL_SPACE
 70
     0
 10
0.0
 20
0.0
 30
0.0
  3
*MODEL_SPACE
  1

  0
ENDBLK
  5
21
330
1F
100
AcDbEntity
  8
0
100
AcDbBlockEnd
  0
BLOCK
  5
1C
330
1B
100
AcDbEntity
 67
     1
  8
0
100
AcDbBlockBegin
  2
*PAPER_SPACE
 70
     0
 10
0.0
 20
0.0
 30
0.0
  3
*PAPER_SPACE
  1

  0
ENDBLK
  5
1D
330
1B
100
AcDbEntity
 67
     1
  8
0
100
AcDbBlockEnd
  0
ENDSEC
  0
SECTION
  2
ENTITIES
  0
LINE
  5
60
330
1F
100
AcDbEntity
  8
0
100
AcDbLine
 10
-371.6182473765426
 20
-50.86006758197767
 30
0.0
 11
-294.3161206683614
 21
-142.0853147659136
 31
0.0
  0
LINE
  5
61
330
1F
100
AcDbEntity
  8
0
100
AcDbLine
 10
-199.3745149812094
 20
-75.60813577615441
 30
0.0
 11
-205.8252767812093
 21
-84.21111577614907
 31
0.0
  0
LINE
  5
62
330
1F
100
AcDbEntity
  8
0
100
AcDbLine
 10
-195.0717549812109
 20
-71.3070775761531
 30
0.0
 11
-199.3745149812094
 21
-75.60813577615441
 31
0.0
  0
LINE
  5
63
330
1F
100
AcDbEntity
  8
0
100
AcDbLine
 10
-205.8252767812093
 20
-84.21111577614907
 30
0.0
 11
-207.9758185812142
 21
-89.58661937615204
 31
0.0
  0
LINE
  5
64
330
1F
100
AcDbEntity
  8
0
100
AcDbLine
 10
190.9479535150502
 20
-39.96375087573222
 30
0.0
 11
470.5887557848253
 21
-28.13726914010183
 31
0.0
  0
LINE
  5
65
330
1F
100
AcDbEntity
  8
0
100
AcDbLine
 10
-209.7220580880273
 20
-107.0453060461258
 30
0.0
 11
-211.1254264565915
 21
-96.38566498898511
 31
0.0
  0
LINE
  5
66
330
1F
100
AcDbEntity
  8
0
100
AcDbLine
 10
-211.4105715659882
 20
-119.8708392407832
 30
0.0
 11
-209.7220580880273
 21
-107.0453060461258
 31
0.0
  0
LINE
  5
67
330
1F
100
AcDbEntity
  8
0
100
AcDbLine
 10
-216.3610425967662
 20
-131.8223335434272
 30
0.0
 11
-211.4105715659882
 21
-119.8708392407832
 31
0.0
  0
LINE
  5
68
330
1F
100
AcDbEntity
  8
0
100
AcDbLine
 10
-224.2361047606456
 20
-142.0853143681001
 30
0.0
 11
-216.3610425967662
 21
-131.8223335434272
 31
0.0
  0
LINE
  5
69
330
1F
100
AcDbEntity
  8
0
100
AcDbLine
 10
-234.4990855853111
 20
-149.9603765319923
 30
0.0
 11
-224.2361047606456
 21
-142.0853143681001
 31
0.0
  0
LINE
  5
6A
330
1F
100
AcDbEntity
  8
0
100
AcDbLine
 10
-246.4505798879493
 20
-154.9108475627776
 30
0.0
 11
-234.4990855853111
 21
-149.9603765319923
 31
0.0
  0
LINE
  5
6B
330
1F
100
AcDbEntity
  8
0
100
AcDbLine
 10
-259.2761130826053
 20
-156.5993610407486
 30
0.0
 11
-246.4505798879493
 21
-154.9108475627776
 31
0.0
  0
LINE
  5
6C
330
1F
100
AcDbEntity
  8
0
100
AcDbLine
 10
-272.1016462772685
 20
-154.9108475627891
 30
0.0
 11
-259.2761130826053
 21
-156.5993610407486
 31
0.0
  0
LINE
  5
6D
330
1F
100
AcDbEntity
  8
0
100
AcDbLine
 10
-284.0531405799096
 20
-149.9603765320154
 30
0.0
 11
-272.1016462772685
 21
-154.9108475627891
 31
0.0
  0
LINE
  5
6E
330
1F
100
AcDbEntity
  8
0
100
AcDbLine
 10
190.9479538876796
 20
50.03624897625548
 30
0.0
 11
470.5887561574547
 21
61.86273071189453
 31
0.0
  0
LINE
  5
6F
330
1F
100
AcDbEntity
  8
0
100
AcDbLine
 10
570.7614356322741
 20
-13.13677216383846
 30
0.0
 11
578.5199944352984
 21
-12.06987105334587
 31
0.0
  0
LINE
  5
70
330
1F
100
AcDbEntity
  8
0
100
AcDbLine
 10
578.5199944352984
 20
-12.06987105334587
 30
0.0
 11
585.7380524312937
 21
-9.031260935849803
 31
0.0
  0
LINE
  5
71
330
1F
100
AcDbEntity
  8
0
100
AcDbLine
 10
585.7380524312937
 20
-9.031260935849803
 30
0.0
 11
591.9237108962268
 21
-4.228018069315765
 31
0.0
  0
LINE
  5
72
330
1F
100
AcDbEntity
  8
0
100
AcDbLine
 10
591.9237108962268
 20
-4.228018069315765
 30
0.0
 11
596.6554274279972
 21
2.012524482630903
 31
0.0
  0
LINE
  5
73
330
1F
100
AcDbEntity
  8
0
100
AcDbLine
 10
596.6554274279972
 20
2.012524482630903
 30
0.0
 11
599.610743364496
 21
9.26508405805519
 31
0.0
  0
LINE
  5
74
330
1F
100
AcDbEntity
  8
0
100
AcDbLine
 10
599.610743364496
 20
9.26508405805519
 30
0.0
 11
600.5882588085432
 21
17.03541070732463
 31
0.0
  0
LINE
  5
75
330
1F
100
AcDbEntity
  8
0
100
AcDbLine
 10
600.5882588085432
 20
17.03541070732463
 30
0.0
 11
599.5213576980492
 21
24.79396951035747
 31
0.0
  0
LINE
  5
76
330
1F
100
AcDbEntity
  8
0
100
AcDbLine
 10
599.5213576980492
 20
24.79396951035747
 30
0.0
 11
596.4827475805573
 21
32.01202750635134
 31
0.0
  0
LINE
  5
77
330
1F
100
AcDbEntity
  8
0
100
AcDbLine
 10
596.4827475805573
 20
32.01202750635134
 30
0.0
 11
591.6795047140233
 21
38.19768597128016
 31
0.0
  0
LINE
  5
78
330
1F
100
AcDbEntity
  8
0
100
AcDbLine
 10
591.6795047140233
 20
38.19768597128016
 30
0.0
 11
585.4389621620767
 21
42.92940250305344
 31
0.0
  0
LINE
  5
79
330
1F
100
AcDbEntity
  8
0
100
AcDbLine
 10
585.4389621620767
 20
42.92940250305344
 30
0.0
 11
578.1864025866581
 21
45.88471843955522
 31
0.0
  0
LINE
  5
7A
330
1F
100
AcDbEntity
  8
0
100
AcDbLine
 10
578.1864025866581
 20
45.88471843955522
 30
0.0
 11
570.5887561750454
 21
46.86223383339739
 31
0.0
  0
LINE
  5
7B
330
1F
100
AcDbEntity
  8
0
100
AcDbLine
 10
570.5887559658117
 20
-13.13677216383557
 30
0.0
 11
570.7614356322741
 21
-13.13677216383846
 31
0.0
  0
LINE
  5
7C
330
1F
100
AcDbEntity
  8
0
100
AcDbLine
 10
570.5887561750454
 20
46.86223383339739
 30
0.0
 11
470.5887561574547
 21
61.86273071189453
 31
0.0
  0
LINE
  5
7D
330
1F
100
AcDbEntity
  8
0
100
AcDbLine
 10
470.5887557848253
 20
-28.13726914010183
 30
0.0
 11
570.5887559658117
 21
-13.13677216383557
 31
0.0
  0
LINE
  5
7E
330
1F
100
AcDbEntity
  8
0
100
AcDbLine
 10
-182.1694185812106
 20
-61.63137937614952
 30
0.0
 11
-195.0717549812109
 21
-71.3070775761531
 31
0.0
  0
LINE
  5
7F
330
1F
100
AcDbEntity
  8
0
100
AcDbLine
 10
190.9479535150502
 20
-39.96375087573222
 30
0.0
 11
-157.4762312178645
 21
-46.71236160312097
 31
0.0
  0
LINE
  5
80
330
1F
100
AcDbEntity
  8
0
100
AcDbLine
 10
-157.4762312178645
 20
-46.71236160312097
 30
0.0
 11
-182.1694185812106
 21
-61.63137937614952
 31
0.0
  0
LINE
  5
81
330
1F
100
AcDbEntity
  8
0
100
AcDbLine
 10
-207.9758185812142
 20
-89.58661937615204
 30
0.0
 11
-210.1271985812141
 21
-93.88851577614835
 31
0.0
  0
LINE
  5
82
330
1F
100
AcDbEntity
  8
0
100
AcDbLine
 10
-210.1271985812141
 20
-93.88851577614835
 30
0.0
 11
-211.1254264565915
 21
-96.38566498898511
 31
0.0
  0
LINE
  5
83
330
1F
100
AcDbEntity
  8
0
100
AcDbLine
 10
-371.6182473765426
 20
-50.86006758197767
 30
0.0
 11
-519.9464882508433
 21
-53.72859191501183
 31
0.0
  0
LINE
  5
84
330
1F
100
AcDbEntity
  8
0
100
AcDbLine
 10
190.9479538876796
 20
50.03624897625548
 30
0.0
 11
-522.3020466457036
 21
36.22655396898057
 31
0.0
  0
LINE
  5
85
330
1F
100
AcDbEntity
  8
0
100
AcDbLine
 10
-522.3020466457036
 20
36.22655396898057
 30
0.0
 11
-524.6511507072402
 21
36.04167484234807
 31
0.0
  0
LINE
  5
86
330
1F
100
AcDbEntity
  8
0
100
AcDbLine
 10
-544.4598296035497
 20
29.027053747871
 30
0.0
 11
-546.4017724208837
 21
27.69239342682195
 31
0.0
  0
LINE
  5
87
330
1F
100
AcDbEntity
  8
0
100
AcDbLine
 10
-546.4017724208837
 20
27.69239342682195
 30
0.0
 11
-548.2712031489222
 21
26.25792877704485
 31
0.0
  0
LINE
  5
88
330
1F
100
AcDbEntity
  8
0
100
AcDbLine
 10
-548.2712031489222
 20
26.25792877704485
 30
0.0
 11
-550.0629978079744
 21
24.72759156643343
 31
0.0
  0
LINE
  5
89
330
1F
100
AcDbEntity
  8
0
100
AcDbLine
 10
-550.0629978079744
 20
24.72759156643343
 30
0.0
 11
-551.7722452134236
 21
23.10557634290607
 31
0.0
  0
LINE
  5
8A
330
1F
100
AcDbEntity
  8
0
100
AcDbLine
 10
-551.7722452134236
 20
23.10557634290607
 30
0.0
 11
-553.3942604369481
 21
21.39632893745532
 31
0.0
  0
LINE
  5
8B
330
1F
100
AcDbEntity
  8
0
100
AcDbLine
 10
-553.3942604369481
 20
21.39632893745532
 30
0.0
 11
-554.924597647561
 21
19.60453427840158
 31
0.0
  0
LINE
  5
8C
330
1F
100
AcDbEntity
  8
0
100
AcDbLine
 10
-554.924597647561
 20
19.60453427840158
 30
0.0
 11
-556.3590622973409
 21
17.73510355036477
 31
0.0
  0
LINE
  5
8D
330
1F
100
AcDbEntity
  8
0
100
AcDbLine
 10
-556.3590622973409
 20
17.73510355036477
 30
0.0
 11
-557.6937226183928
 21
15.79316073302472
 31
0.0
  0
LINE
  5
8E
330
1F
100
AcDbEntity
  8
0
100
AcDbLine
 10
-557.6937226183928
 20
15.79316073302472
 30
0.0
 11
-558.9249203995427
 21
13.78402855666653
 31
0.0
  0
LINE
  5
8F
330
1F
100
AcDbEntity
  8
0
100
AcDbLine
 10
-558.9249203995427
 20
13.78402855666653
 30
0.0
 11
-560.0492810132556
 21
11.71321391292837
 31
0.0
  0
LINE
  5
90
330
1F
100
AcDbEntity
  8
0
100
AcDbLine
 10
-560.0492810132556
 20
11.71321391292837
 30
0.0
 11
-561.0637226652431
 21
9.586392760806016
 31
0.0
  0
LINE
  5
91
330
1F
100
AcDbEntity
  8
0
100
AcDbLine
 10
-561.0637226652431
 20
9.586392760806016
 30
0.0
 11
-561.9654648414484
 21
7.409394569248215
 31
0.0
  0
LINE
  5
92
330
1F
100
AcDbEntity
  8
0
100
AcDbLine
 10
-561.9654648414484
 20
7.409394569248215
 30
0.0
 11
-562.7520359292467
 21
5.188186338975342
 31
0.0
  0
LINE
  5
93
330
1F
100
AcDbEntity
  8
0
100
AcDbLine
 10
-562.7520359292467
 20
5.188186338975342
 30
0.0
 11
-563.4212799919578
 21
2.928856247351504
 31
0.0
  0
LINE
  5
94
330
1F
100
AcDbEntity
  8
0
100
AcDbLine
 10
-563.4212799919578
 20
2.928856247351504
 30
0.0
 11
-563.9713626781295
 21
0.6375969611129544
 31
0.0
  0
LINE
  5
95
330
1F
100
AcDbEntity
  8
0
100
AcDbLine
 10
-563.9713626781295
 20
0.6375969611129544
 30
0.0
 11
-564.4007762493501
 21
-1.679311337296863
 31
0.0
  0
LINE
  5
96
330
1F
100
AcDbEntity
  8
0
100
AcDbLine
 10
-564.4007762493501
 20
-1.679311337296863
 30
0.0
 11
-564.7083437128725
 21
-4.015518163280617
 31
0.0
  0
LINE
  5
97
330
1F
100
AcDbEntity
  8
0
100
AcDbLine
 10
-564.7083437128725
 20
-4.015518163280617
 30
0.0
 11
-564.8932220476563
 21
-6.364620136318571
 31
0.0
  0
LINE
  5
98
330
1F
100
AcDbEntity
  8
0
100
AcDbLine
 10
-564.8932220476563
 20
-6.364620136318571
 30
0.0
 11
-564.9549045150349
 21
-8.72017853118008
 31
0.0
  0
LINE
  5
99
330
1F
100
AcDbEntity
  8
0
100
AcDbLine
 10
-564.9549045150349
 20
-8.72017853118008
 30
0.0
 11
-564.8932220476547
 21
-11.07573692604448
 31
0.0
  0
LINE
  5
9A
330
1F
100
AcDbEntity
  8
0
100
AcDbLine
 10
-564.8932220476547
 20
-11.07573692604448
 30
0.0
 11
-564.7083437128696
 21
-13.42483889907954
 31
0.0
  0
LINE
  5
9B
330
1F
100
AcDbEntity
  8
0
100
AcDbLine
 10
-564.7083437128696
 20
-13.42483889907954
 30
0.0
 11
-564.40077624935
 21
-15.76104572506619
 31
0.0
  0
LINE
  5
9C
330
1F
100
AcDbEntity
  8
0
100
AcDbLine
 10
-564.40077624935
 20
-15.76104572506619
 30
0.0
 11
-563.9713626781265
 21
-18.077954023476
 31
0.0
  0
LINE
  5
9D
330
1F
100
AcDbEntity
  8
0
100
AcDbLine
 10
-563.9713626781265
 20
-18.077954023476
 30
0.0
 11
-563.421279991955
 21
-20.36921330971455
 31
0.0
  0
LINE
  5
9E
330
1F
100
AcDbEntity
  8
0
100
AcDbLine
 10
-563.421279991955
 20
-20.36921330971455
 30
0.0
 11
-562.7520359292452
 21
-22.6285434013355
 31
0.0
  0
LINE
  5
9F
330
1F
100
AcDbEntity
  8
0
100
AcDbLine
 10
-562.7520359292452
 20
-22.6285434013355
 30
0.0
 11
-561.9654648414439
 21
-24.84975163161127
 31
0.0
  0
LINE
  5
A0
330
1F
100
AcDbEntity
  8
0
100
AcDbLine
 10
-561.9654648414439
 20
-24.84975163161127
 30
0.0
 11
-561.0637226652401
 21
-27.02674982315481
 31
0.0
  0
LINE
  5
A1
330
1F
100
AcDbEntity
  8
0
100
AcDbLine
 10
-561.0637226652401
 20
-27.02674982315481
 30
0.0
 11
-560.049281013257
 21
-29.15357097527427
 31
0.0
  0
LINE
  5
A2
330
1F
100
AcDbEntity
  8
0
100
AcDbLine
 10
-560.049281013257
 20
-29.15357097527427
 30
0.0
 11
-558.9249203995411
 21
-31.22438561901532
 31
0.0
  0
LINE
  5
A3
330
1F
100
AcDbEntity
  8
0
100
AcDbLine
 10
-558.9249203995411
 20
-31.22438561901532
 30
0.0
 11
-557.6937226183942
 21
-33.23351779537639
 31
0.0
  0
LINE
  5
A4
330
1F
100
AcDbEntity
  8
0
100
AcDbLine
 10
-557.6937226183942
 20
-33.23351779537639
 30
0.0
 11
-556.3590622973451
 21
-35.17546061271067
 31
0.0
  0
LINE
  5
A5
330
1F
100
AcDbEntity
  8
0
100
AcDbLine
 10
-556.3590622973451
 20
-35.17546061271067
 30
0.0
 11
-554.9245976475665
 21
-37.04489134074748
 31
0.0
  0
LINE
  5
A6
330
1F
100
AcDbEntity
  8
0
100
AcDbLine
 10
-554.9245976475665
 20
-37.04489134074748
 30
0.0
 11
-553.3942604369522
 21
-38.83668599980123
 31
0.0
  0
LINE
  5
A7
330
1F
100
AcDbEntity
  8
0
100
AcDbLine
 10
-553.3942604369522
 20
-38.83668599980123
 30
0.0
 11
-551.7722452134292
 21
-40.54593340525486
 31
0.0
  0
LINE
  5
A8
330
1F
100
AcDbEntity
  8
0
100
AcDbLine
 10
-551.7722452134292
 20
-40.54593340525486
 30
0.0
 11
-550.062997807977
 21
-42.16794862877934
 31
0.0
  0
LINE
  5
A9
330
1F
100
AcDbEntity
  8
0
100
AcDbLine
 10
-550.062997807977
 20
-42.16794862877934
 30
0.0
 11
-548.2712031489248
 21
-43.69828583939364
 31
0.0
  0
LINE
  5
AA
330
1F
100
AcDbEntity
  8
0
100
AcDbLine
 10
-548.2712031489248
 20
-43.69828583939364
 30
0.0
 11
-546.4017724208894
 21
-45.13275048917075
 31
0.0
  0
LINE
  5
AB
330
1F
100
AcDbEntity
  8
0
100
AcDbLine
 10
-546.4017724208894
 20
-45.13275048917075
 30
0.0
 11
-544.4598296035509
 21
-46.46741081022268
 31
0.0
  0
LINE
  5
AC
330
1F
100
AcDbEntity
  8
0
100
AcDbLine
 10
-544.4598296035509
 20
-46.46741081022268
 30
0.0
 11
-542.4506974271912
 21
-47.69860859137115
 31
0.0
  0
LINE
  5
AD
330
1F
100
AcDbEntity
  8
0
100
AcDbLine
 10
-542.4506974271912
 20
-47.69860859137115
 30
0.0
 11
-540.3798827834489
 21
-48.82296920508418
 31
0.0
  0
LINE
  5
AE
330
1F
100
AcDbEntity
  8
0
100
AcDbLine
 10
-540.3798827834489
 20
-48.82296920508418
 30
0.0
 11
-538.253061631328
 21
-49.8374108570731
 31
0.0
  0
LINE
  5
AF
330
1F
100
AcDbEntity
  8
0
100
AcDbLine
 10
-538.253061631328
 20
-49.8374108570731
 30
0.0
 11
-536.0760634397716
 21
-50.73915303327686
 31
0.0
  0
LINE
  5
B0
330
1F
100
AcDbEntity
  8
0
100
AcDbLine
 10
-536.0760634397716
 20
-50.73915303327686
 30
0.0
 11
-533.8548552094973
 21
-51.52572412107526
 31
0.0
  0
LINE
  5
B1
330
1F
100
AcDbEntity
  8
0
100
AcDbLine
 10
-533.8548552094973
 20
-51.52572412107526
 30
0.0
 11
-531.5955251178764
 21
-52.19496818378644
 31
0.0
  0
LINE
  5
B2
330
1F
100
AcDbEntity
  8
0
100
AcDbLine
 10
-531.5955251178764
 20
-52.19496818378644
 30
0.0
 11
-529.3042658316392
 21
-52.74505086995953
 31
0.0
  0
LINE
  5
B3
330
1F
100
AcDbEntity
  8
0
100
AcDbLine
 10
-529.3042658316392
 20
-52.74505086995953
 30
0.0
 11
-526.9873575332266
 21
-53.17446444118156
 31
0.0
  0
LINE
  5
B4
330
1F
100
AcDbEntity
  8
0
100
AcDbLine
 10
-526.9873575332266
 20
-53.17446444118156
 30
0.0
 11
-524.6511507072429
 21
-53.48203190470264
 31
0.0
  0
LINE
  5
B5
330
1F
100
AcDbEntity
  8
0
100
AcDbLine
 10
-524.6511507072429
 20
-53.48203190470264
 30
0.0
 11
-522.3020487342063
 21
-53.66691023948493
 31
0.0
  0
LINE
  5
B6
330
1F
100
AcDbEntity
  8
0
100
AcDbLine
 10
-522.3020487342063
 20
-53.66691023948493
 30
0.0
 11
-519.9464882508433
 21
-53.72859191501183
 31
0.0
  0
LINE
  5
B7
330
1F
100
AcDbEntity
  8
0
100
AcDbLine
 10
-524.6511507072402
 20
36.04167484234807
 30
0.0
 11
-526.9873575332239
 21
35.73410737882699
 31
0.0
  0
LINE
  5
B8
330
1F
100
AcDbEntity
  8
0
100
AcDbLine
 10
-526.9873575332239
 20
35.73410737882699
 30
0.0
 11
-529.3042658316365
 21
35.3046938076223
 31
0.0
  0
LINE
  5
B9
330
1F
100
AcDbEntity
  8
0
100
AcDbLine
 10
-529.3042658316365
 20
35.3046938076223
 30
0.0
 11
-531.5955251178736
 21
34.7546111214492
 31
0.0
  0
LINE
  5
BA
330
1F
100
AcDbEntity
  8
0
100
AcDbLine
 10
-531.5955251178736
 20
34.7546111214492
 30
0.0
 11
-533.854855209499
 21
34.08536705872358
 31
0.0
  0
LINE
  5
BB
330
1F
100
AcDbEntity
  8
0
100
AcDbLine
 10
-533.854855209499
 20
34.08536705872358
 30
0.0
 11
-536.0760634397674
 21
33.29879597092518
 31
0.0
  0
LINE
  5
BC
330
1F
100
AcDbEntity
  8
0
100
AcDbLine
 10
-536.0760634397674
 20
33.29879597092518
 30
0.0
 11
-538.2530616313267
 21
32.39705379472142
 31
0.0
  0
LINE
  5
BD
330
1F
100
AcDbEntity
  8
0
100
AcDbLine
 10
-538.2530616313267
 20
32.39705379472142
 30
0.0
 11
-540.3798827834476
 21
31.3826121427354
 31
0.0
  0
LINE
  5
BE
330
1F
100
AcDbEntity
  8
0
100
AcDbLine
 10
-540.3798827834476
 20
31.3826121427354
 30
0.0
 11
-542.45069742719
 21
30.25825152902235
 31
0.0
  0
LINE
  5
BF
330
1F
100
AcDbEntity
  8
0
100
AcDbLine
 10
-542.45069742719
 20
30.25825152902235
 30
0.0
 11
-544.4598296035497
 21
29.027053747871
 31
0.0
  0
LINE
  5
C0
330
1F
100
AcDbEntity
  8
0
100
AcDbLine
 10
-531.5217219950728
 20
7.589756167536403
 30
0.0
 11
-532.6312487742973
 21
6.742578430386161
 31
0.0
  0
LINE
  5
C1
330
1F
100
AcDbEntity
  8
0
100
AcDbLine
 10
-530.3558018357406
 20
8.357473546652555
 30
0.0
 11
-531.5217219950728
 21
7.589756167536403
 31
0.0
  0
LINE
  5
C2
330
1F
100
AcDbEntity
  8
0
100
AcDbLine
 10
-529.139168542118
 20
9.041990325839684
 30
0.0
 11
-530.3558018357406
 21
8.357473546652555
 31
0.0
  0
LINE
  5
C3
330
1F
100
AcDbEntity
  8
0
100
AcDbLine
 10
-527.8777494293122
 20
9.639971608151392
 30
0.0
 11
-529.139168542118
 21
9.041990325839684
 31
0.0
  0
LINE
  5
C4
330
1F
100
AcDbEntity
  8
0
100
AcDbLine
 10
-526.5776900044535
 20
10.14850408889357
 30
0.0
 11
-527.8777494293122
 21
9.639971608151392
 31
0.0
  0
LINE
  5
C5
330
1F
100
AcDbEntity
  8
0
100
AcDbLine
 10
-525.2453240263687
 20
10.56511024893135
 30
0.0
 11
-526.5776900044535
 21
10.14850408889357
 31
0.0
  0
LINE
  5
C6
330
1F
100
AcDbEntity
  8
0
100
AcDbLine
 10
-523.8871426481726
 20
10.88776042493542
 30
0.0
 11
-525.2453240263687
 21
10.56511024893135
 31
0.0
  0
LINE
  5
C7
330
1F
100
AcDbEntity
  8
0
100
AcDbLine
 10
-522.5097627930288
 20
11.11488269767995
 30
0.0
 11
-523.8871426481726
 21
10.88776042493542
 31
0.0
  0
LINE
  5
C8
330
1F
100
AcDbEntity
  8
0
100
AcDbLine
 10
-521.1198949171275
 20
11.24537055028107
 30
0.0
 11
-522.5097627930288
 21
11.11488269767995
 31
0.0
  0
LINE
  5
C9
330
1F
100
AcDbEntity
  8
0
100
AcDbLine
 10
-519.7243103170489
 20
11.27858825904151
 30
0.0
 11
-521.1198949171275
 21
11.24537055028107
 31
0.0
  0
LINE
  5
CA
330
1F
100
AcDbEntity
  8
0
100
AcDbLine
 10
-518.3298081406931
 20
11.21437399061518
 30
0.0
 11
-519.7243103170489
 21
11.27858825904151
 31
0.0
  0
LINE
  5
CB
330
1F
100
AcDbEntity
  8
0
100
AcDbLine
 10
-516.943182262482
 20
11.05304059047299
 30
0.0
 11
-518.3298081406931
 21
11.21437399061518
 31
0.0
  0
LINE
  5
CC
330
1F
100
AcDbEntity
  8
0
100
AcDbLine
 10
-515.5711881843047
 20
10.79537405871716
 30
0.0
 11
-516.943182262482
 21
11.05304059047299
 31
0.0
  0
LINE
  5
CD
330
1F
100
AcDbEntity
  8
0
100
AcDbLine
 10
-514.2205101234035
 20
10.44262972078819
 30
0.0
 11
-515.5711881843047
 21
10.79537405871716
 31
0.0
  0
LINE
  5
CE
330
1F
100
AcDbEntity
  8
0
100
AcDbLine
 10
-512.8977284475211
 20
9.996526111645368
 30
0.0
 11
-514.2205101234035
 21
10.44262972078819
 31
0.0
  0
LINE
  5
CF
330
1F
100
AcDbEntity
  8
0
100
AcDbLine
 10
-511.609287616016
 20
9.4592366032315
 30
0.0
 11
-512.8977284475211
 21
9.996526111645368
 31
0.0
  0
LINE
  5
D0
330
1F
100
AcDbEntity
  8
0
100
AcDbLine
 10
-510.3614647831051
 20
8.833378816024867
 30
0.0
 11
-511.609287616016
 21
9.4592366032315
 31
0.0
  0
LINE
  5
D1
330
1F
100
AcDbEntity
  8
0
100
AcDbLine
 10
-509.1603392162036
 20
8.122001866248763
 30
0.0
 11
-510.3614647831051
 21
8.833378816024867
 31
0.0
  0
LINE
  5
D2
330
1F
100
AcDbEntity
  8
0
100
AcDbLine
 10
-508.0117626783313
 20
7.328571510898074
 30
0.0
 11
-509.1603392162036
 21
8.122001866248763
 31
0.0
  0
LINE
  5
D3
330
1F
100
AcDbEntity
  8
0
100
AcDbLine
 10
-506.9213309189303
 20
6.456953262906892
 30
0.0
 11
-508.0117626783313
 21
7.328571510898074
 31
0.0
  0
LINE
  5
D4
330
1F
100
AcDbEntity
  8
0
100
AcDbLine
 10
-505.8943564119199
 20
5.511393558769474
 30
0.0
 11
-506.9213309189303
 21
6.456953262906892
 31
0.0
  0
LINE
  5
D5
330
1F
100
AcDbEntity
  8
0
100
AcDbLine
 10
-504.9358424738712
 20
4.496499070311767
 30
0.0
 11
-505.8943564119199
 21
5.511393558769474
 31
0.0
  0
LINE
  5
D6
330
1F
100
AcDbEntity
  8
0
100
AcDbLine
 10
-504.0504588883355
 20
3.417214261464493
 30
0.0
 11
-504.9358424738712
 21
4.496499070311767
 31
0.0
  0
LINE
  5
D7
330
1F
100
AcDbEntity
  8
0
100
AcDbLine
 10
-503.2425191551458
 20
2.278797299329437
 30
0.0
 11
-504.0504588883355
 21
3.417214261464493
 31
0.0
  0
LINE
  5
D8
330
1F
100
AcDbEntity
  8
0
100
AcDbLine
 10
-502.515959475467
 20
1.086794436913043
 30
0.0
 11
-503.2425191551458
 21
2.278797299329437
 31
0.0
  0
LINE
  5
D9
330
1F
100
AcDbEntity
  8
0
100
AcDbLine
 10
-501.8743195750286
 20
-0.1529870076570553
 30
0.0
 11
-502.515959475467
 21
1.086794436913043
 31
0.0
  0
LINE
  5
DA
330
1F
100
AcDbEntity
  8
0
100
AcDbLine
 10
-501.3207254589247
 20
-1.434506943807936
 30
0.0
 11
-501.8743195750286
 21
-0.1529870076570553
 31
0.0
  0
LINE
  5
DB
330
1F
100
AcDbEntity
  8
0
100
AcDbLine
 10
-500.8578741820435
 20
-2.751521935230597
 30
0.0
 11
-501.3207254589247
 21
-1.434506943807936
 31
0.0
  0
LINE
  5
DC
330
1F
100
AcDbEntity
  8
0
100
AcDbLine
 10
-500.4880207092788
 20
-4.097615617268219
 30
0.0
 11
-500.8578741820435
 21
-2.751521935230597
 31
0.0
  0
LINE
  5
DD
330
1F
100
AcDbEntity
  8
0
100
AcDbLine
 10
-500.2129669295716
 20
-5.466229956815472
 30
0.0
 11
-500.4880207092788
 21
-4.097615617268219
 31
0.0
  0
LINE
  5
DE
330
1F
100
AcDbEntity
  8
0
100
AcDbLine
 10
-500.0340528772939
 20
-6.850697202376693
 30
0.0
 11
-500.2129669295716
 21
-5.466229956815472
 31
0.0
  0
LINE
  5
DF
330
1F
100
AcDbEntity
  8
0
100
AcDbLine
 10
-499.952150203718
 20
-8.244272368702367
 30
0.0
 11
-500.0340528772939
 21
-6.850697202376693
 31
0.0
  0
LINE
  5
E0
330
1F
100
AcDbEntity
  8
0
100
AcDbLine
 10
-499.967657930439
 20
-9.640166097665599
 30
0.0
 11
-499.952150203718
 21
-8.244272368702367
 31
0.0
  0
LINE
  5
E1
330
1F
100
AcDbEntity
  8
0
100
AcDbLine
 10
-500.0805005053697
 20
-11.03157773532799
 30
0.0
 11
-499.967657930439
 21
-9.640166097665599
 31
0.0
  0
LINE
  5
E2
330
1F
100
AcDbEntity
  8
0
100
AcDbLine
 10
-500.2901281708289
 20
-12.41172846405847
 30
0.0
 11
-500.0805005053697
 21
-11.03157773532799
 31
0.0
  0
LINE
  5
E3
330
1F
100
AcDbEntity
  8
0
100
AcDbLine
 10
-500.5955196419048
 20
-13.77389432823367
 30
0.0
 11
-500.2901281708289
 21
-12.41172846405847
 31
0.0
  0
LINE
  5
E4
330
1F
100
AcDbEntity
  8
0
100
AcDbLine
 10
-500.995187082045
 20
-15.11143899269833
 30
0.0
 11
-500.5955196419048
 21
-13.77389432823367
 31
0.0
  0
LINE
  5
E5
330
1F
100
AcDbEntity
  8
0
100
AcDbLine
 10
-501.4871833516576
 20
-16.41784607428725
 30
0.0
 11
-500.995187082045
 21
-15.11143899269833
 31
0.0
  0
LINE
  5
E6
330
1F
100
AcDbEntity
  8
0
100
AcDbLine
 10
-502.0691114943692
 20
-17.68675088902631
 30
0.0
 11
-501.4871833516576
 21
-16.41784607428725
 31
0.0
  0
LINE
  5
E7
330
1F
100
AcDbEntity
  8
0
100
AcDbLine
 10
-502.7381364147659
 20
-18.91197146019737
 30
0.0
 11
-502.0691114943692
 21
-17.68675088902631
 31
0.0
  0
LINE
  5
E8
330
1F
100
AcDbEntity
  8
0
100
AcDbLine
 10
-503.4909986906848
 20
-20.08753863634691
 30
0.0
 11
-502.7381364147659
 21
-18.91197146019737
 31
0.0
  0
LINE
  5
E9
330
1F
100
AcDbEntity
  8
0
100
AcDbLine
 10
-504.3240304527978
 20
-21.20772517235281
 30
0.0
 11
-503.4909986906848
 21
-20.08753863634691
 31
0.0
  0
LINE
  5
EA
330
1F
100
AcDbEntity
  8
0
100
AcDbLine
 10
-505.2331732540927
 20
-22.26707363201964
 30
0.0
 11
-504.3240304527978
 21
-21.20772517235281
 31
0.0
  0
LINE
  5
EB
330
1F
100
AcDbEntity
  8
0
100
AcDbLine
 10
-506.2139978422289
 20
-23.26042297613118
 30
0.0
 11
-505.2331732540927
 21
-22.26707363201964
 31
0.0
  0
LINE
  5
EC
330
1F
100
AcDbEntity
  8
0
100
AcDbLine
 10
-508.3712525176315
 20
-25.03011144368585
 30
0.0
 11
-507.261725738407
 21
-24.18293370653561
 31
0.0
  0
LINE
  5
ED
330
1F
100
AcDbEntity
  8
0
100
AcDbLine
 10
-509.5371726769651
 20
-25.797828822802
 30
0.0
 11
-508.3712525176315
 21
-25.03011144368585
 31
0.0
  0
LINE
  5
EE
330
1F
100
AcDbEntity
  8
0
100
AcDbLine
 10
-510.7538059705892
 20
-26.48234560198624
 30
0.0
 11
-509.5371726769651
 21
-25.797828822802
 31
0.0
  0
LINE
  5
EF
330
1F
100
AcDbEntity
  8
0
100
AcDbLine
 10
-512.0152250833908
 20
-27.0803268842864
 30
0.0
 11
-510.7538059705892
 21
-26.48234560198624
 31
0.0
  0
LINE
  5
F0
330
1F
100
AcDbEntity
  8
0
100
AcDbLine
 10
-513.3152845082537
 20
-27.58885936502569
 30
0.0
 11
-512.0152250833908
 21
-27.0803268842864
 31
0.0
  0
LINE
  5
F1
330
1F
100
AcDbEntity
  8
0
100
AcDbLine
 10
-514.6476504863414
 20
-28.00546552506347
 30
0.0
 11
-513.3152845082537
 21
-27.58885936502569
 31
0.0
  0
LINE
  5
F2
330
1F
100
AcDbEntity
  8
0
100
AcDbLine
 10
-516.0058318645289
 20
-28.32811570106754
 30
0.0
 11
-514.6476504863414
 21
-28.00546552506347
 31
0.0
  0
LINE
  5
F3
330
1F
100
AcDbEntity
  8
0
100
AcDbLine
 10
-517.3832117196741
 20
-28.55523797381496
 30
0.0
 11
-516.0058318645289
 21
-28.32811570106754
 31
0.0
  0
LINE
  5
F4
330
1F
100
AcDbEntity
  8
0
100
AcDbLine
 10
-518.773079595574
 20
-28.6857258264131
 30
0.0
 11
-517.3832117196741
 21
-28.55523797381496
 31
0.0
  0
LINE
  5
F5
330
1F
100
AcDbEntity
  8
0
100
AcDbLine
 10
-520.1686641956467
 20
-28.71894353517354
 30
0.0
 11
-518.773079595574
 21
-28.6857258264131
 31
0.0
  0
LINE
  5
F6
330
1F
100
AcDbEntity
  8
0
100
AcDbLine
 10
-521.5631663720084
 20
-28.6547292667501
 30
0.0
 11
-520.1686641956467
 21
-28.71894353517354
 31
0.0
  0
LINE
  5
F7
330
1F
100
AcDbEntity
  8
0
100
AcDbLine
 10
-522.9497922502253
 20
-28.49339586660511
 30
0.0
 11
-521.5631663720084
 21
-28.6547292667501
 31
0.0
  0
LINE
  5
F8
330
1F
100
AcDbEntity
  8
0
100
AcDbLine
 10
-524.3217863283983
 20
-28.23572933484928
 30
0.0
 11
-522.9497922502253
 21
-28.49339586660511
 31
0.0
  0
LINE
  5
F9
330
1F
100
AcDbEntity
  8
0
100
AcDbLine
 10
-525.6724643893008
 20
-27.8829849969232
 30
0.0
 11
-524.3217863283983
 21
-28.23572933484928
 31
0.0
  0
LINE
  5
FA
330
1F
100
AcDbEntity
  8
0
100
AcDbLine
 10
-526.9952460651847
 20
-27.43688138778037
 30
0.0
 11
-525.6724643893008
 21
-27.8829849969232
 31
0.0
  0
LINE
  5
FB
330
1F
100
AcDbEntity
  8
0
100
AcDbLine
 10
-528.2836868966883
 20
-26.8995918793665
 30
0.0
 11
-526.9952460651847
 21
-27.43688138778037
 31
0.0
  0
LINE
  5
FC
330
1F
100
AcDbEntity
  8
0
100
AcDbLine
 10
-529.5315097295977
 20
-26.27373409217142
 30
0.0
 11
-528.2836868966883
 21
-26.8995918793665
 31
0.0
  0
LINE
  5
FD
330
1F
100
AcDbEntity
  8
0
100
AcDbLine
 10
-530.7326352965007
 20
-25.56235714239821
 30
0.0
 11
-529.5315097295977
 21
-26.27373409217142
 31
0.0
  0
LINE
  5
FE
330
1F
100
AcDbEntity
  8
0
100
AcDbLine
 10
-531.8812118343759
 20
-24.76892678704752
 30
0.0
 11
-530.7326352965007
 21
-25.56235714239821
 31
0.0
  0
LINE
  5
FF
330
1F
100
AcDbEntity
  8
0
100
AcDbLine
 10
-532.9716435937726
 20
-23.89730853905634
 30
0.0
 11
-531.8812118343759
 21
-24.76892678704752
 31
0.0
  0
LINE
  5
100
330
1F
100
AcDbEntity
  8
0
100
AcDbLine
 10
-533.9986181007829
 20
-22.95174883491603
 30
0.0
 11
-532.9716435937726
 21
-23.89730853905634
 31
0.0
  0
LINE
  5
101
330
1F
100
AcDbEntity
  8
0
100
AcDbLine
 10
-534.9571320388332
 20
-21.93685434645833
 30
0.0
 11
-533.9986181007829
 21
-22.95174883491603
 31
0.0
  0
LINE
  5
102
330
1F
100
AcDbEntity
  8
0
100
AcDbLine
 10
-535.8425156243688
 20
-20.8575695376226
 30
0.0
 11
-534.9571320388332
 21
-21.93685434645833
 31
0.0
  0
LINE
  5
103
330
1F
100
AcDbEntity
  8
0
100
AcDbLine
 10
-536.6504553575585
 20
-19.71915257549043
 30
0.0
 11
-535.8425156243688
 21
-20.8575695376226
 31
0.0
  0
LINE
  5
104
330
1F
100
AcDbEntity
  8
0
100
AcDbLine
 10
-537.3770150372359
 20
-18.52714971307404
 30
0.0
 11
-536.6504553575585
 21
-19.71915257549043
 31
0.0
  0
LINE
  5
105
330
1F
100
AcDbEntity
  8
0
100
AcDbLine
 10
-538.0186549376743
 20
-17.28736826850394
 30
0.0
 11
-537.3770150372359
 21
-18.52714971307404
 31
0.0
  0
LINE
  5
106
330
1F
100
AcDbEntity
  8
0
100
AcDbLine
 10
-538.572249053778
 20
-16.00584833234728
 30
0.0
 11
-538.0186549376743
 21
-17.28736826850394
 31
0.0
  0
LINE
  5
107
330
1F
100
AcDbEntity
  8
0
100
AcDbLine
 10
-539.0351003306592
 20
-14.68883334092751
 30
0.0
 11
-538.572249053778
 21
-16.00584833234728
 31
0.0
  0
LINE
  5
108
330
1F
100
AcDbEntity
  8
0
100
AcDbLine
 10
-539.4049538034254
 20
-13.34273965889278
 30
0.0
 11
-539.0351003306592
 21
-14.68883334092751
 31
0.0
  0
LINE
  5
109
330
1F
100
AcDbEntity
  8
0
100
AcDbLine
 10
-539.6800075831297
 20
-11.97412531934841
 30
0.0
 11
-539.4049538034254
 21
-13.34273965889278
 31
0.0
  0
LINE
  5
10A
330
1F
100
AcDbEntity
  8
0
100
AcDbLine
 10
-539.8589216354103
 20
-10.5896580737843
 30
0.0
 11
-539.6800075831297
 21
-11.97412531934841
 31
0.0
  0
LINE
  5
10B
330
1F
100
AcDbEntity
  8
0
100
AcDbLine
 10
-539.9408243089862
 20
-9.19608290745863
 30
0.0
 11
-539.8589216354103
 21
-10.5896580737843
 31
0.0
  0
LINE
  5
10C
330
1F
100
AcDbEntity
  8
0
100
AcDbLine
 10
-539.925316582268
 20
-7.800189178495397
 30
0.0
 11
-539.9408243089862
 21
-9.19608290745863
 31
0.0
  0
LINE
  5
10D
330
1F
100
AcDbEntity
  8
0
100
AcDbLine
 10
-539.8124740073345
 20
-6.408777540833001
 30
0.0
 11
-539.925316582268
 21
-7.800189178495397
 31
0.0
  0
LINE
  5
10E
330
1F
100
AcDbEntity
  8
0
100
AcDbLine
 10
-539.6028463418768
 20
-5.028626812102528
 30
0.0
 11
-539.8124740073345
 21
-6.408777540833001
 31
0.0
  0
LINE
  5
10F
330
1F
100
AcDbEntity
  8
0
100
AcDbLine
 10
-539.297454870798
 20
-3.666460947924442
 30
0.0
 11
-539.6028463418768
 21
-5.028626812102528
 31
0.0
  0
LINE
  5
110
330
1F
100
AcDbEntity
  8
0
100
AcDbLine
 10
-538.8977874306578
 20
-2.328916283451111
 30
0.0
 11
-539.297454870798
 21
-3.666460947924442
 31
0.0
  0
LINE
  5
111
330
1F
100
AcDbEntity
  8
0
100
AcDbLine
 10
-538.4057911610467
 20
-1.022509201859306
 30
0.0
 11
-538.8977874306578
 21
-2.328916283451111
 31
0.0
  0
LINE
  5
112
330
1F
100
AcDbEntity
  8
0
100
AcDbLine
 10
-537.8238630183351
 20
0.2463956128739809
 30
0.0
 11
-538.4057911610467
 21
-1.022509201859306
 31
0.0
  0
LINE
  5
113
330
1F
100
AcDbEntity
  8
0
100
AcDbLine
 10
-537.1548380979384
 20
1.471616184047922
 30
0.0
 11
-537.8238630183351
 21
0.2463956128739809
 31
0.0
  0
LINE
  5
114
330
1F
100
AcDbEntity
  8
0
100
AcDbLine
 10
-536.401975822018
 20
2.647183360197469
 30
0.0
 11
-537.1548380979384
 21
1.471616184047922
 31
0.0
  0
LINE
  5
115
330
1F
100
AcDbEntity
  8
0
100
AcDbLine
 10
-535.5689440599065
 20
3.767369896206251
 30
0.0
 11
-536.401975822018
 21
2.647183360197469
 31
0.0
  0
LINE
  5
116
330
1F
100
AcDbEntity
  8
0
100
AcDbLine
 10
-534.6598012586146
 20
4.826718355870194
 30
0.0
 11
-535.5689440599065
 21
3.767369896206251
 31
0.0
  0
LINE
  5
117
330
1F
100
AcDbEntity
  8
0
100
AcDbLine
 10
-533.6789766704768
 20
5.820067699981733
 30
0.0
 11
-534.6598012586146
 21
4.826718355870194
 31
0.0
  0
LINE
  5
118
330
1F
100
AcDbEntity
  8
0
100
AcDbLine
 10
96.90970999877834
 20
3.745299941907248
 30
0.0
 11
97.80702856136358
 21
2.675917321244399
 31
0.0
  0
LINE
  5
119
330
1F
100
AcDbEntity
  8
0
100
AcDbLine
 10
96.08917361981038
 20
4.874671379005892
 30
0.0
 11
96.90970999877834
 21
3.745299941907248
 31
0.0
  0
LINE
  5
11A
330
1F
100
AcDbEntity
  8
0
100
AcDbLine
 10
95.34941699522489
 20
6.058529448423107
 30
0.0
 11
96.08917361981038
 21
4.874671379005892
 31
0.0
  0
LINE
  5
11B
330
1F
100
AcDbEntity
  8
0
100
AcDbLine
 10
94.69404414492718
 20
7.291106512640336
 30
0.0
 11
95.34941699522489
 21
6.058529448423107
 31
0.0
  0
LINE
  5
11C
330
1F
100
AcDbEntity
  8
0
100
AcDbLine
 10
94.1262479795765
 20
8.566397580103123
 30
0.0
 11
94.69404414492718
 21
7.291106512640336
 31
0.0
  0
LINE
  5
11D
330
1F
100
AcDbEntity
  8
0
100
AcDbLine
 10
93.64879474500842
 20
9.87818956092394
 30
0.0
 11
94.1262479795765
 21
8.566397580103123
 31
0.0
  0
LINE
  5
11E
330
1F
100
AcDbEntity
  8
0
100
AcDbLine
 10
93.26401054539328
 20
11.22009153642877
 30
0.0
 11
93.64879474500842
 21
9.87818956092394
 31
0.0
  0
LINE
  5
11F
330
1F
100
AcDbEntity
  8
0
100
AcDbLine
 10
92.97377001066799
 20
12.58556589508402
 30
0.0
 11
93.26401054539328
 21
11.22009153642877
 31
0.0
  0
LINE
  5
120
330
1F
100
AcDbEntity
  8
0
100
AcDbLine
 10
92.7794871635465
 20
13.96796018306952
 30
0.0
 11
92.97377001066799
 21
12.58556589508402
 31
0.0
  0
LINE
  5
121
330
1F
100
AcDbEntity
  8
0
100
AcDbLine
 10
92.68210853052994
 20
15.3605395143704
 30
0.0
 11
92.7794871635465
 21
13.96796018306952
 31
0.0
  0
LINE
  5
122
330
1F
100
AcDbEntity
  8
0
100
AcDbLine
 10
92.68210853052994
 20
16.75651938247126
 30
0.0
 11
92.68210853052994
 21
15.3605395143704
 31
0.0
  0
LINE
  5
123
330
1F
100
AcDbEntity
  8
0
100
AcDbLine
 10
92.7794871635465
 20
18.14909871377504
 30
0.0
 11
92.68210853052994
 21
16.75651938247126
 31
0.0
  0
LINE
  5
124
330
1F
100
AcDbEntity
  8
0
100
AcDbLine
 10
92.97377001066799
 20
19.53149300176053
 30
0.0
 11
92.7794871635465
 21
18.14909871377504
 31
0.0
  0
LINE
  5
125
330
1F
100
AcDbEntity
  8
0
100
AcDbLine
 10
93.26401054539328
 20
20.89696736041578
 30
0.0
 11
92.97377001066799
 21
19.53149300176053
 31
0.0
  0
LINE
  5
126
330
1F
100
AcDbEntity
  8
0
100
AcDbLine
 10
93.64879474500842
 20
22.23886933592061
 30
0.0
 11
93.26401054539328
 21
20.89696736041578
 31
0.0
  0
LINE
  5
127
330
1F
100
AcDbEntity
  8
0
100
AcDbLine
 10
94.12624797957507
 20
23.55066131674143
 30
0.0
 11
93.64879474500842
 21
22.23886933592061
 31
0.0
  0
LINE
  5
128
330
1F
100
AcDbEntity
  8
0
100
AcDbLine
 10
94.69404414492863
 20
24.82595238420421
 30
0.0
 11
94.12624797957507
 21
23.55066131674143
 31
0.0
  0
LINE
  5
129
330
1F
100
AcDbEntity
  8
0
100
AcDbLine
 10
95.34941699522489
 20
26.05852944842145
 30
0.0
 11
94.69404414492863
 21
24.82595238420421
 31
0.0
  0
LINE
  5
12A
330
1F
100
AcDbEntity
  8
0
100
AcDbLine
 10
96.08917361981057
 20
27.24238751783577
 30
0.0
 11
95.34941699522489
 21
26.05852944842145
 31
0.0
  0
LINE
  5
12B
330
1F
100
AcDbEntity
  8
0
100
AcDbLine
 10
96.90970999877852
 20
28.37175895493442
 30
0.0
 11
96.08917361981057
 21
27.24238751783577
 31
0.0
  0
LINE
  5
12C
330
1F
100
AcDbEntity
  8
0
100
AcDbLine
 10
97.80702856136375
 20
29.44114157559997
 30
0.0
 11
96.90970999877852
 21
28.37175895493442
 31
0.0
  0
LINE
  5
12D
330
1F
100
AcDbEntity
  8
0
100
AcDbLine
 10
98.77675766173174
 20
30.44532545519491
 30
0.0
 11
97.80702856136375
 21
29.44114157559997
 31
0.0
  0
LINE
  5
12E
330
1F
100
AcDbEntity
  8
0
100
AcDbLine
 10
99.8141728771816
 20
31.37941831079906
 30
0.0
 11
98.77675766173174
 21
30.44532545519491
 31
0.0
  0
LINE
  5
12F
330
1F
100
AcDbEntity
  8
0
100
AcDbLine
 10
100.9142200250631
 20
32.23886933591825
 30
0.0
 11
99.8141728771816
 21
31.37941831079906
 31
0.0
  0
LINE
  5
130
330
1F
100
AcDbEntity
  8
0
100
AcDbLine
 10
102.0715397862482
 20
33.01949137155052
 30
0.0
 11
100.9142200250631
 21
32.23886933591825
 31
0.0
  0
LINE
  5
131
330
1F
100
AcDbEntity
  8
0
100
AcDbLine
 10
103.2804938151944
 20
33.71748130560095
 30
0.0
 11
102.0715397862482
 21
33.01949137155052
 31
0.0
  0
LINE
  5
132
330
1F
100
AcDbEntity
  8
0
100
AcDbLine
 10
104.5351922093989
 20
34.32943860126957
 30
0.0
 11
103.2804938151944
 21
33.71748130560095
 31
0.0
  0
LINE
  5
133
330
1F
100
AcDbEntity
  8
0
100
AcDbLine
 10
105.829522204399
 20
34.85238186413876
 30
0.0
 11
104.5351922093989
 21
34.32943860126957
 31
0.0
  0
LINE
  5
134
330
1F
100
AcDbEntity
  8
0
100
AcDbLine
 10
107.1571779545727
 20
35.28376336718697
 30
0.0
 11
105.829522204399
 21
34.85238186413876
 31
0.0
  0
LINE
  5
135
330
1F
100
AcDbEntity
  8
0
100
AcDbLine
 10
108.5116912545573
 20
35.62148146309686
 30
0.0
 11
107.1571779545727
 21
35.28376336718697
 31
0.0
  0
LINE
  5
136
330
1F
100
AcDbEntity
  8
0
100
AcDbLine
 10
109.8864630517121
 20
35.86389082325204
 30
0.0
 11
108.5116912545573
 21
35.62148146309686
 31
0.0
  0
LINE
  5
137
330
1F
100
AcDbEntity
  8
0
100
AcDbLine
 10
111.2747955960293
 20
36.00981045360463
 30
0.0
 11
109.8864630517121
 21
35.86389082325204
 31
0.0
  0
LINE
  5
138
330
1F
100
AcDbEntity
  8
0
100
AcDbLine
 10
112.6699250709127
 20
36.05852944840753
 30
0.0
 11
111.2747955960293
 21
36.00981045360463
 31
0.0
  0
LINE
  5
139
330
1F
100
AcDbEntity
  8
0
100
AcDbLine
 10
114.0650545457946
 20
36.00981045360463
 30
0.0
 11
112.6699250709127
 21
36.05852944840753
 31
0.0
  0
LINE
  5
13A
330
1F
100
AcDbEntity
  8
0
100
AcDbLine
 10
115.4533870901147
 20
35.86389082325204
 30
0.0
 11
114.0650545457946
 21
36.00981045360463
 31
0.0
  0
LINE
  5
13B
330
1F
100
AcDbEntity
  8
0
100
AcDbLine
 10
116.828158887268
 20
35.62148146309686
 30
0.0
 11
115.4533870901147
 21
35.86389082325204
 31
0.0
  0
LINE
  5
13C
330
1F
100
AcDbEntity
  8
0
100
AcDbLine
 10
118.1826721872525
 20
35.28376336718697
 30
0.0
 11
116.828158887268
 21
35.62148146309686
 31
0.0
  0
LINE
  5
13D
330
1F
100
AcDbEntity
  8
0
100
AcDbLine
 10
119.5103279374263
 20
34.85238186413876
 30
0.0
 11
118.1826721872525
 21
35.28376336718697
 31
0.0
  0
LINE
  5
13E
330
1F
100
AcDbEntity
  8
0
100
AcDbLine
 10
120.8046579324293
 20
34.32943860126957
 30
0.0
 11
119.5103279374263
 21
34.85238186413876
 31
0.0
  0
LINE
  5
13F
330
1F
100
AcDbEntity
  8
0
100
AcDbLine
 10
122.0593563266309
 20
33.71748130560095
 30
0.0
 11
120.8046579324293
 21
34.32943860126957
 31
0.0
  0
LINE
  5
140
330
1F
100
AcDbEntity
  8
0
100
AcDbLine
 10
123.2683103555785
 20
33.01949137155052
 30
0.0
 11
122.0593563266309
 21
33.71748130560095
 31
0.0
  0
LINE
  5
141
330
1F
100
AcDbEntity
  8
0
100
AcDbLine
 10
124.4256301167622
 20
32.23886933592114
 30
0.0
 11
123.2683103555785
 21
33.01949137155052
 31
0.0
  0
LINE
  5
142
330
1F
100
AcDbEntity
  8
0
100
AcDbLine
 10
125.5256772646437
 20
31.37941831080195
 30
0.0
 11
124.4256301167622
 21
32.23886933592114
 31
0.0
  0
LINE
  5
143
330
1F
100
AcDbEntity
  8
0
100
AcDbLine
 10
126.5630924800907
 20
30.44532545519491
 30
0.0
 11
125.5256772646437
 21
31.37941831080195
 31
0.0
  0
LINE
  5
144
330
1F
100
AcDbEntity
  8
0
100
AcDbLine
 10
127.5328215804601
 20
29.44114157559997
 30
0.0
 11
126.5630924800907
 21
30.44532545519491
 31
0.0
  0
LINE
  5
145
330
1F
100
AcDbEntity
  8
0
100
AcDbLine
 10
128.4301401430453
 20
28.37175895493433
 30
0.0
 11
127.5328215804601
 21
29.44114157559997
 31
0.0
  0
LINE
  5
146
330
1F
100
AcDbEntity
  8
0
100
AcDbLine
 10
129.2506765220133
 20
27.24238751783568
 30
0.0
 11
128.4301401430453
 21
28.37175895493433
 31
0.0
  0
LINE
  5
147
330
1F
100
AcDbEntity
  8
0
100
AcDbLine
 10
129.9904331466033
 20
26.05852944842424
 30
0.0
 11
129.2506765220133
 21
27.24238751783568
 31
0.0
  0
LINE
  5
148
330
1F
100
AcDbEntity
  8
0
100
AcDbLine
 10
130.6458059968952
 20
24.82595238420413
 30
0.0
 11
129.9904331466033
 21
26.05852944842424
 31
0.0
  0
LINE
  5
149
330
1F
100
AcDbEntity
  8
0
100
AcDbLine
 10
131.2136021622474
 20
23.55066131674134
 30
0.0
 11
130.6458059968952
 21
24.82595238420413
 31
0.0
  0
LINE
  5
14A
330
1F
100
AcDbEntity
  8
0
100
AcDbLine
 10
131.6910553968154
 20
22.23886933592052
 30
0.0
 11
131.2136021622474
 21
23.55066131674134
 31
0.0
  0
LINE
  5
14B
330
1F
100
AcDbEntity
  8
0
100
AcDbLine
 10
132.0758395964335
 20
20.89696736041569
 30
0.0
 11
131.6910553968154
 21
22.23886933592052
 31
0.0
  0
LINE
  5
14C
330
1F
100
AcDbEntity
  8
0
100
AcDbLine
 10
132.3660801311573
 20
19.53149300176044
 30
0.0
 11
132.0758395964335
 21
20.89696736041569
 31
0.0
  0
LINE
  5
14D
330
1F
100
AcDbEntity
  8
0
100
AcDbLine
 10
132.5603629782788
 20
18.14909871377494
 30
0.0
 11
132.3660801311573
 21
19.53149300176044
 31
0.0
  0
LINE
  5
14E
330
1F
100
AcDbEntity
  8
0
100
AcDbLine
 10
132.6577416112925
 20
16.75651938247406
 30
0.0
 11
132.5603629782788
 21
18.14909871377494
 31
0.0
  0
LINE
  5
14F
330
1F
100
AcDbEntity
  8
0
100
AcDbLine
 10
132.6577416112939
 20
15.3605395143732
 30
0.0
 11
132.6577416112925
 21
16.75651938247406
 31
0.0
  0
LINE
  5
150
330
1F
100
AcDbEntity
  8
0
100
AcDbLine
 10
132.5603629782759
 20
13.96796018306943
 30
0.0
 11
132.6577416112939
 21
15.3605395143732
 31
0.0
  0
LINE
  5
151
330
1F
100
AcDbEntity
  8
0
100
AcDbLine
 10
132.3660801311573
 20
12.58556589508393
 30
0.0
 11
132.5603629782759
 21
13.96796018306943
 31
0.0
  0
LINE
  5
152
330
1F
100
AcDbEntity
  8
0
100
AcDbLine
 10
132.0758395964306
 20
11.22009153642868
 30
0.0
 11
132.3660801311573
 21
12.58556589508393
 31
0.0
  0
LINE
  5
153
330
1F
100
AcDbEntity
  8
0
100
AcDbLine
 10
131.691055396814
 20
9.878189560923849
 30
0.0
 11
132.0758395964306
 21
11.22009153642868
 31
0.0
  0
LINE
  5
154
330
1F
100
AcDbEntity
  8
0
100
AcDbLine
 10
131.2136021622488
 20
8.566397580103033
 30
0.0
 11
131.691055396814
 21
9.878189560923849
 31
0.0
  0
LINE
  5
155
330
1F
100
AcDbEntity
  8
0
100
AcDbLine
 10
130.6458059968952
 20
7.291106512640247
 30
0.0
 11
131.2136021622488
 21
8.566397580103033
 31
0.0
  0
LINE
  5
156
330
1F
100
AcDbEntity
  8
0
100
AcDbLine
 10
129.9904331466004
 20
6.058529448423016
 30
0.0
 11
130.6458059968952
 21
7.291106512640247
 31
0.0
  0
LINE
  5
157
330
1F
100
AcDbEntity
  8
0
100
AcDbLine
 10
129.2506765220146
 20
4.874671379005801
 30
0.0
 11
129.9904331466004
 21
6.058529448423016
 31
0.0
  0
LINE
  5
158
330
1F
100
AcDbEntity
  8
0
100
AcDbLine
 10
128.430140143048
 20
3.745299941910046
 30
0.0
 11
129.2506765220146
 21
4.874671379005801
 31
0.0
  0
LINE
  5
159
330
1F
100
AcDbEntity
  8
0
100
AcDbLine
 10
127.5328215804599
 20
2.675917321244399
 30
0.0
 11
128.430140143048
 21
3.745299941910046
 31
0.0
  0
LINE
  5
15A
330
1F
100
AcDbEntity
  8
0
100
AcDbLine
 10
126.563092480092
 20
1.67173344164946
 30
0.0
 11
127.5328215804599
 21
2.675917321244399
 31
0.0
  0
LINE
  5
15B
330
1F
100
AcDbEntity
  8
0
100
AcDbLine
 10
125.5256772646421
 20
0.7376405860424234
 30
0.0
 11
126.563092480092
 21
1.67173344164946
 31
0.0
  0
LINE
  5
15C
330
1F
100
AcDbEntity
  8
0
100
AcDbLine
 10
124.425630116762
 20
-0.1218104390767643
 30
0.0
 11
125.5256772646421
 21
0.7376405860424234
 31
0.0
  0
LINE
  5
15D
330
1F
100
AcDbEntity
  8
0
100
AcDbLine
 10
123.2683103555769
 20
-0.9024324747061448
 30
0.0
 11
124.425630116762
 21
-0.1218104390767643
 31
0.0
  0
LINE
  5
15E
330
1F
100
AcDbEntity
  8
0
100
AcDbLine
 10
122.0593563266279
 20
-1.600422408756574
 30
0.0
 11
123.2683103555769
 21
-0.9024324747061448
 31
0.0
  0
LINE
  5
15F
330
1F
100
AcDbEntity
  8
0
100
AcDbLine
 10
120.8046579324305
 20
-2.212379704430966
 30
0.0
 11
122.0593563266279
 21
-1.600422408756574
 31
0.0
  0
LINE
  5
160
330
1F
100
AcDbEntity
  8
0
100
AcDbLine
 10
119.5103279374246
 20
-2.735322967297272
 30
0.0
 11
120.8046579324305
 21
-2.212379704430966
 31
0.0
  0
LINE
  5
161
330
1F
100
AcDbEntity
  8
0
100
AcDbLine
 10
118.1826721872538
 20
-3.166704470345487
 30
0.0
 11
119.5103279374246
 21
-2.735322967297272
 31
0.0
  0
LINE
  5
162
330
1F
100
AcDbEntity
  8
0
100
AcDbLine
 10
116.8281588872664
 20
-3.504422566255382
 30
0.0
 11
118.1826721872538
 21
-3.166704470345487
 31
0.0
  0
LINE
  5
163
330
1F
100
AcDbEntity
  8
0
100
AcDbLine
 10
115.4533870901159
 20
-3.746831926410552
 30
0.0
 11
116.8281588872664
 21
-3.504422566255382
 31
0.0
  0
LINE
  5
164
330
1F
100
AcDbEntity
  8
0
100
AcDbLine
 10
114.065054545793
 20
-3.892751556774694
 30
0.0
 11
115.4533870901159
 21
-3.746831926410552
 31
0.0
  0
LINE
  5
165
330
1F
100
AcDbEntity
  8
0
100
AcDbLine
 10
112.6699250709125
 20
-3.941470551577597
 30
0.0
 11
114.065054545793
 21
-3.892751556774694
 31
0.0
  0
LINE
  5
166
330
1F
100
AcDbEntity
  8
0
100
AcDbLine
 10
111.2747955960276
 20
-3.892751556774694
 30
0.0
 11
112.6699250709125
 21
-3.941470551577597
 31
0.0
  0
LINE
  5
167
330
1F
100
AcDbEntity
  8
0
100
AcDbLine
 10
109.886463051709
 20
-3.746831926410552
 30
0.0
 11
111.2747955960276
 21
-3.892751556774694
 31
0.0
  0
LINE
  5
168
330
1F
100
AcDbEntity
  8
0
100
AcDbLine
 10
108.5116912545557
 20
-3.504422566255382
 30
0.0
 11
109.886463051709
 21
-3.746831926410552
 31
0.0
  0
LINE
  5
169
330
1F
100
AcDbEntity
  8
0
100
AcDbLine
 10
107.1571779545711
 20
-3.166704470345487
 30
0.0
 11
108.5116912545557
 21
-3.504422566255382
 31
0.0
  0
LINE
  5
16A
330
1F
100
AcDbEntity
  8
0
100
AcDbLine
 10
105.8295222043974
 20
-2.735322967297272
 30
0.0
 11
107.1571779545711
 21
-3.166704470345487
 31
0.0
  0
LINE
  5
16B
330
1F
100
AcDbEntity
  8
0
100
AcDbLine
 10
104.5351922093959
 20
-2.212379704430966
 30
0.0
 11
105.8295222043974
 21
-2.735322967297272
 31
0.0
  0
LINE
  5
16C
330
1F
100
AcDbEntity
  8
0
100
AcDbLine
 10
103.2804938151942
 20
-1.600422408756574
 30
0.0
 11
104.5351922093959
 21
-2.212379704430966
 31
0.0
  0
LINE
  5
16D
330
1F
100
AcDbEntity
  8
0
100
AcDbLine
 10
102.0715397862495
 20
-0.9024324747061448
 30
0.0
 11
103.2804938151942
 21
-1.600422408756574
 31
0.0
  0
LINE
  5
16E
330
1F
100
AcDbEntity
  8
0
100
AcDbLine
 10
100.9142200250629
 20
-0.1218104390767643
 30
0.0
 11
102.0715397862495
 21
-0.9024324747061448
 31
0.0
  0
LINE
  5
16F
330
1F
100
AcDbEntity
  8
0
100
AcDbLine
 10
99.81417287718142
 20
0.7376405860424234
 30
0.0
 11
100.9142200250629
 21
-0.1218104390767643
 31
0.0
  0
LINE
  5
170
330
1F
100
AcDbEntity
  8
0
100
AcDbLine
 10
98.77675766173155
 20
1.67173344164946
 30
0.0
 11
99.81417287718142
 21
0.7376405860424234
 31
0.0
  0
LINE
  5
171
330
1F
100
AcDbEntity
  8
0
100
AcDbLine
 10
97.80702856136358
 20
2.675917321244399
 30
0.0
 11
98.77675766173155
 21
1.67173344164946
 31
0.0
  0
LINE
  5
172
330
1F
100
AcDbEntity
  8
0
100
AcDbLine
 10
-339.4509560962665
 20
20.79658721085233
 30
0.0
 11
-339.7854527109012
 21
21.86210036505043
 31
0.0
  0
LINE
  5
173
330
1F
100
AcDbEntity
  8
0
100
AcDbLine
 10
-339.1916007389366
 20
19.71033628883096
 30
0.0
 11
-339.4509560962665
 21
20.79658721085233
 31
0.0
  0
LINE
  5
174
330
1F
100
AcDbEntity
  8
0
100
AcDbLine
 10
-339.0086501921468
 20
18.60863970428456
 30
0.0
 11
-339.1916007389366
 21
19.71033628883096
 31
0.0
  0
LINE
  5
175
330
1F
100
AcDbEntity
  8
0
100
AcDbLine
 10
-338.9029957725651
 20
17.49686481223317
 30
0.0
 11
-339.0086501921468
 21
18.60863970428456
 31
0.0
  0
LINE
  5
176
330
1F
100
AcDbEntity
  8
0
100
AcDbLine
 10
-338.8751522179063
 20
16.38042806819887
 30
0.0
 11
-338.9029957725651
 21
17.49686481223317
 31
0.0
  0
LINE
  5
177
330
1F
100
AcDbEntity
  8
0
100
AcDbLine
 10
-338.9252551791711
 20
15.2647686397704
 30
0.0
 11
-338.8751522179063
 21
16.38042806819887
 31
0.0
  0
LINE
  5
178
330
1F
100
AcDbEntity
  8
0
100
AcDbLine
 10
-339.0530605597676
 20
14.15532190753651
 30
0.0
 11
-338.9252551791711
 21
15.2647686397704
 31
0.0
  0
LINE
  5
179
330
1F
100
AcDbEntity
  8
0
100
AcDbLine
 10
-339.2579457047264
 20
13.05749298445964
 30
0.0
 11
-339.0530605597676
 21
14.15532190753651
 31
0.0
  0
LINE
  5
17A
330
1F
100
AcDbEntity
  8
0
100
AcDbLine
 10
-339.5389124342169
 20
11.97663038269576
 30
0.0
 11
-339.2579457047264
 21
13.05749298445964
 31
0.0
  0
LINE
  5
17B
330
1F
100
AcDbEntity
  8
0
100
AcDbLine
 10
-339.8945919065778
 20
10.91799995619882
 30
0.0
 11
-339.5389124342169
 21
11.97663038269576
 31
0.0
  0
LINE
  5
17C
330
1F
100
AcDbEntity
  8
0
100
AcDbLine
 10
-340.3232512871695
 20
9.88675924598423
 30
0.0
 11
-339.8945919065778
 21
10.91799995619882
 31
0.0
  0
LINE
  5
17D
330
1F
100
AcDbEntity
  8
0
100
AcDbLine
 10
-340.8228021905829
 20
8.887932353138503
 30
0.0
 11
-340.3232512871695
 21
9.88675924598423
 31
0.0
  0
LINE
  5
17E
330
1F
100
AcDbEntity
  8
0
100
AcDbLine
 10
-341.3908108550257
 20
7.926385461884151
 30
0.0
 11
-340.8228021905829
 21
8.887932353138503
 31
0.0
  0
LINE
  5
17F
330
1F
100
AcDbEntity
  8
0
100
AcDbLine
 10
-342.0245099993864
 20
7.006803132014433
 30
0.0
 11
-341.3908108550257
 21
7.926385461884151
 31
0.0
  0
LINE
  5
180
330
1F
100
AcDbEntity
  8
0
100
AcDbLine
 10
-342.7208123051284
 20
6.133665476206796
 30
0.0
 11
-342.0245099993864
 21
7.006803132014433
 31
0.0
  0
LINE
  5
181
330
1F
100
AcDbEntity
  8
0
100
AcDbLine
 10
-343.4763254574133
 20
5.31122633335416
 30
0.0
 11
-342.7208123051284
 21
6.133665476206796
 31
0.0
  0
LINE
  5
182
330
1F
100
AcDbEntity
  8
0
100
AcDbLine
 10
-344.2873686721055
 20
4.543492544290497
 30
0.0
 11
-343.4763254574133
 21
5.31122633335416
 31
0.0
  0
LINE
  5
183
330
1F
100
AcDbEntity
  8
0
100
AcDbLine
 10
-345.1499906281875
 20
3.834204430858098
 30
0.0
 11
-344.2873686721055
 21
4.543492544290497
 31
0.0
  0
LINE
  5
184
330
1F
100
AcDbEntity
  8
0
100
AcDbLine
 10
-346.059988718202
 20
3.186817573454267
 30
0.0
 11
-345.1499906281875
 21
3.834204430858098
 31
0.0
  0
LINE
  5
185
330
1F
100
AcDbEntity
  8
0
100
AcDbLine
 10
-347.0129295229274
 20
2.604485975771139
 30
0.0
 11
-346.059988718202
 21
3.186817573454267
 31
0.0
  0
LINE
  5
186
330
1F
100
AcDbEntity
  8
0
100
AcDbLine
 10
-348.0041704105506
 20
2.090046698815821
 30
0.0
 11
-347.0129295229274
 21
2.604485975771139
 31
0.0
  0
LINE
  5
187
330
1F
100
AcDbEntity
  8
0
100
AcDbLine
 10
-349.028882155107
 20
1.646006039035536
 30
0.0
 11
-348.0041704105506
 21
2.090046698815821
 31
0.0
  0
LINE
  5
188
330
1F
100
AcDbEntity
  8
0
100
AcDbLine
 10
-350.0820724639812
 20
1.274527317890546
 30
0.0
 11
-349.028882155107
 21
1.646006039035536
 31
0.0
  0
LINE
  5
189
330
1F
100
AcDbEntity
  8
0
100
AcDbLine
 10
-351.1586102998534
 20
0.9774203423661347
 30
0.0
 11
-350.0820724639812
 21
1.274527317890546
 31
0.0
  0
LINE
  5
18A
330
1F
100
AcDbEntity
  8
0
100
AcDbLine
 10
-352.2532508786021
 20
0.7561325877862046
 30
0.0
 11
-351.1586102998534
 21
0.9774203423661347
 31
0.0
  0
LINE
  5
18B
330
1F
100
AcDbEntity
  8
0
100
AcDbLine
 10
-353.3606612213598
 20
0.6117421458417893
 30
0.0
 11
-352.2532508786021
 21
0.7561325877862046
 31
0.0
  0
LINE
  5
18C
330
1F
100
AcDbEntity
  8
0
100
AcDbLine
 10
-354.4754461362527
 20
0.5449524722581046
 30
0.0
 11
-353.3606612213598
 21
0.6117421458417893
 31
0.0
  0
LINE
  5
18D
330
1F
100
AcDbEntity
  8
0
100
AcDbLine
 10
-355.5921745032313
 20
0.5560889596096004
 30
0.0
 11
-354.4754461362527
 21
0.5449524722581046
 31
0.0
  0
LINE
  5
18E
330
1F
100
AcDbEntity
  8
0
100
AcDbLine
 10
-356.7054057339491
 20
0.6450973520457992
 30
0.0
 11
-355.5921745032313
 21
0.5560889596096004
 31
0.0
  0
LINE
  5
18F
330
1F
100
AcDbEntity
  8
0
100
AcDbLine
 10
-357.8097162777495
 20
0.8115440096292686
 30
0.0
 11
-356.7054057339491
 21
0.6450973520457992
 31
0.0
  0
LINE
  5
190
330
1F
100
AcDbEntity
  8
0
100
AcDbLine
 10
-358.899726044669
 20
1.054618020974739
 30
0.0
 11
-357.8097162777495
 21
0.8115440096292686
 31
0.0
  0
LINE
  5
191
330
1F
100
AcDbEntity
  8
0
100
AcDbLine
 10
-359.9701246166883
 20
1.373135153932448
 30
0.0
 11
-358.899726044669
 21
1.054618020974739
 31
0.0
  0
LINE
  5
192
330
1F
100
AcDbEntity
  8
0
100
AcDbLine
 10
-361.0156971195644
 20
1.765543625046452
 30
0.0
 11
-359.9701246166883
 21
1.373135153932448
 31
0.0
  0
LINE
  5
193
330
1F
100
AcDbEntity
  8
0
100
AcDbLine
 10
-362.0313496291591
 20
2.229931659694002
 30
0.0
 11
-361.0156971195644
 21
1.765543625046452
 31
0.0
  0
LINE
  5
194
330
1F
100
AcDbEntity
  8
0
100
AcDbLine
 10
-363.012133988542
 20
2.764036806045182
 30
0.0
 11
-362.0313496291591
 21
2.229931659694002
 31
0.0
  0
LINE
  5
195
330
1F
100
AcDbEntity
  8
0
100
AcDbLine
 10
-363.9532719149018
 20
3.36525695751833
 30
0.0
 11
-363.012133988542
 21
2.764036806045182
 31
0.0
  0
LINE
  5
196
330
1F
100
AcDbEntity
  8
0
100
AcDbLine
 10
-364.8501782788617
 20
4.030663029971937
 30
0.0
 11
-363.9532719149018
 21
3.36525695751833
 31
0.0
  0
LINE
  5
197
330
1F
100
AcDbEntity
  8
0
100
AcDbLine
 10
-365.698483442777
 20
4.757013231903819
 30
0.0
 11
-364.8501782788617
 21
4.030663029971937
 31
0.0
  0
LINE
  5
198
330
1F
100
AcDbEntity
  8
0
100
AcDbLine
 10
-366.4940545491589
 20
5.540768858140394
 30
0.0
 11
-365.698483442777
 21
4.757013231903819
 31
0.0
  0
LINE
  5
199
330
1F
100
AcDbEntity
  8
0
100
AcDbLine
 10
-367.2330156555465
 20
6.37811153006029
 30
0.0
 11
-366.4940545491589
 21
5.540768858140394
 31
0.0
  0
LINE
  5
19A
330
1F
100
AcDbEntity
  8
0
100
AcDbLine
 10
-367.9117666177096
 20
7.264961798330468
 30
0.0
 11
-367.2330156555465
 21
6.37811153006029
 31
0.0
  0
LINE
  5
19B
330
1F
100
AcDbEntity
  8
0
100
AcDbLine
 10
-368.5270006291906
 20
8.19699901759251
 30
0.0
 11
-367.9117666177096
 21
7.264961798330468
 31
0.0
  0
LINE
  5
19C
330
1F
100
AcDbEntity
  8
0
100
AcDbLine
 10
-369.0757203317265
 20
9.169682396198358
 30
0.0
 11
-368.5270006291906
 21
8.19699901759251
 31
0.0
  0
LINE
  5
19D
330
1F
100
AcDbEntity
  8
0
100
AcDbLine
 10
-369.5552524180864
 20
10.17827311850716
 30
0.0
 11
-369.0757203317265
 21
9.169682396198358
 31
0.0
  0
LINE
  5
19E
330
1F
100
AcDbEntity
  8
0
100
AcDbLine
 10
-369.9632606561435
 20
11.21785743189547
 30
0.0
 11
-369.5552524180864
 21
10.17827311850716
 31
0.0
  0
LINE
  5
19F
330
1F
100
AcDbEntity
  8
0
100
AcDbLine
 10
-370.2977572707782
 20
12.28337058609358
 30
0.0
 11
-369.9632606561435
 21
11.21785743189547
 31
0.0
  0
LINE
  5
1A0
330
1F
100
AcDbEntity
  8
0
100
AcDbLine
 10
-370.5571126281067
 20
13.36962150811495
 30
0.0
 11
-370.2977572707782
 21
12.28337058609358
 31
0.0
  0
LINE
  5
1A1
330
1F
100
AcDbEntity
  8
0
100
AcDbLine
 10
-370.7400631748979
 20
14.47131809266135
 30
0.0
 11
-370.5571126281067
 21
13.36962150811495
 31
0.0
  0
LINE
  5
1A2
330
1F
100
AcDbEntity
  8
0
100
AcDbLine
 10
-370.8457175944782
 20
15.58309298471273
 30
0.0
 11
-370.7400631748979
 21
14.47131809266135
 31
0.0
  0
LINE
  5
1A3
330
1F
100
AcDbEntity
  8
0
100
AcDbLine
 10
-370.8735611491369
 20
16.69952972874704
 30
0.0
 11
-370.8457175944782
 21
15.58309298471273
 31
0.0
  0
LINE
  5
1A4
330
1F
100
AcDbEntity
  8
0
100
AcDbLine
 10
-370.8234581878721
 20
17.81518915717551
 30
0.0
 11
-370.8735611491369
 21
16.69952972874704
 31
0.0
  0
LINE
  5
1A5
330
1F
100
AcDbEntity
  8
0
100
AcDbLine
 10
-370.695652807277
 20
18.9246358894094
 30
0.0
 11
-370.8234581878721
 21
17.81518915717551
 31
0.0
  0
LINE
  5
1A6
330
1F
100
AcDbEntity
  8
0
100
AcDbLine
 10
-370.4907676623168
 20
20.02246481248627
 30
0.0
 11
-370.695652807277
 21
18.9246358894094
 31
0.0
  0
LINE
  5
1A7
330
1F
100
AcDbEntity
  8
0
100
AcDbLine
 10
-370.2098009328263
 20
21.10332741424726
 30
0.0
 11
-370.4907676623168
 21
20.02246481248627
 31
0.0
  0
LINE
  5
1A8
330
1F
100
AcDbEntity
  8
0
100
AcDbLine
 10
-369.8541214604654
 20
22.16195784074709
 30
0.0
 11
-370.2098009328263
 21
21.10332741424726
 31
0.0
  0
LINE
  5
1A9
330
1F
100
AcDbEntity
  8
0
100
AcDbLine
 10
-369.4254620798737
 20
23.19319855096168
 30
0.0
 11
-369.8541214604654
 21
22.16195784074709
 31
0.0
  0
LINE
  5
1AA
330
1F
100
AcDbEntity
  8
0
100
AcDbLine
 10
-368.9259111764617
 20
24.19202544380452
 30
0.0
 11
-369.4254620798737
 21
23.19319855096168
 31
0.0
  0
LINE
  5
1AB
330
1F
100
AcDbEntity
  8
0
100
AcDbLine
 10
-368.3579025120175
 20
25.15357233506176
 30
0.0
 11
-368.9259111764617
 21
24.19202544380452
 31
0.0
  0
LINE
  5
1AC
330
1F
100
AcDbEntity
  8
0
100
AcDbLine
 10
-367.7242033676568
 20
26.07315466493147
 30
0.0
 11
-368.3579025120175
 21
25.15357233506176
 31
0.0
  0
LINE
  5
1AD
330
1F
100
AcDbEntity
  8
0
100
AcDbLine
 10
-367.0279010619149
 20
26.9462923207392
 30
0.0
 11
-367.7242033676568
 21
26.07315466493147
 31
0.0
  0
LINE
  5
1AE
330
1F
100
AcDbEntity
  8
0
100
AcDbLine
 10
-366.27238790963
 20
27.76873146359184
 30
0.0
 11
-367.0279010619149
 21
26.9462923207392
 31
0.0
  0
LINE
  5
1AF
330
1F
100
AcDbEntity
  8
0
100
AcDbLine
 10
-365.4613446949393
 20
28.5364652526555
 30
0.0
 11
-366.27238790963
 21
27.76873146359184
 31
0.0
  0
LINE
  5
1B0
330
1F
100
AcDbEntity
  8
0
100
AcDbLine
 10
-364.5987227388558
 20
29.24575336608501
 30
0.0
 11
-365.4613446949393
 21
28.5364652526555
 31
0.0
  0
LINE
  5
1B1
330
1F
100
AcDbEntity
  8
0
100
AcDbLine
 10
-363.6887246488413
 20
29.89314022349173
 30
0.0
 11
-364.5987227388558
 21
29.24575336608501
 31
0.0
  0
LINE
  5
1B2
330
1F
100
AcDbEntity
  8
0
100
AcDbLine
 10
-362.7357838441158
 20
30.47547182117486
 30
0.0
 11
-363.6887246488413
 21
29.89314022349173
 31
0.0
  0
LINE
  5
1B3
330
1F
100
AcDbEntity
  8
0
100
AcDbLine
 10
-361.7445429564926
 20
30.98991109813018
 30
0.0
 11
-362.7357838441158
 21
30.47547182117486
 31
0.0
  0
LINE
  5
1B4
330
1F
100
AcDbEntity
  8
0
100
AcDbLine
 10
-360.7198312119363
 20
31.43395175791046
 30
0.0
 11
-361.7445429564926
 21
30.98991109813018
 31
0.0
  0
LINE
  5
1B5
330
1F
100
AcDbEntity
  8
0
100
AcDbLine
 10
-359.6666409030621
 20
31.80543047905545
 30
0.0
 11
-360.7198312119363
 21
31.43395175791046
 31
0.0
  0
LINE
  5
1B6
330
1F
100
AcDbEntity
  8
0
100
AcDbLine
 10
-358.5901030671913
 20
32.10253745457986
 30
0.0
 11
-359.6666409030621
 21
31.80543047905545
 31
0.0
  0
LINE
  5
1B7
330
1F
100
AcDbEntity
  8
0
100
AcDbLine
 10
-357.4954624884412
 20
32.32382520915979
 30
0.0
 11
-358.5901030671913
 21
32.10253745457986
 31
0.0
  0
LINE
  5
1B8
330
1F
100
AcDbEntity
  8
0
100
AcDbLine
 10
-356.3880521456835
 20
32.46821565110132
 30
0.0
 11
-357.4954624884412
 21
32.32382520915979
 31
0.0
  0
LINE
  5
1B9
330
1F
100
AcDbEntity
  8
0
100
AcDbLine
 10
-355.273267230792
 20
32.535005324685
 30
0.0
 11
-356.3880521456835
 21
32.46821565110132
 31
0.0
  0
LINE
  5
1BA
330
1F
100
AcDbEntity
  8
0
100
AcDbLine
 10
-354.1565388638134
 20
32.52386883733639
 30
0.0
 11
-355.273267230792
 21
32.535005324685
 31
0.0
  0
LINE
  5
1BB
330
1F
100
AcDbEntity
  8
0
100
AcDbLine
 10
-353.0433076330942
 20
32.43486044489731
 30
0.0
 11
-354.1565388638134
 21
32.52386883733639
 31
0.0
  0
LINE
  5
1BC
330
1F
100
AcDbEntity
  8
0
100
AcDbLine
 10
-351.9389970892938
 20
32.26841378731673
 30
0.0
 11
-353.0433076330942
 21
32.43486044489731
 31
0.0
  0
LINE
  5
1BD
330
1F
100
AcDbEntity
  8
0
100
AcDbLine
 10
-350.8489873223757
 20
32.02533977597126
 30
0.0
 11
-351.9389970892938
 21
32.26841378731673
 31
0.0
  0
LINE
  5
1BE
330
1F
100
AcDbEntity
  8
0
100
AcDbLine
 10
-349.778588750355
 20
31.70682264301355
 30
0.0
 11
-350.8489873223757
 21
32.02533977597126
 31
0.0
  0
LINE
  5
1BF
330
1F
100
AcDbEntity
  8
0
100
AcDbLine
 10
-348.7330162474818
 20
31.31441417189955
 30
0.0
 11
-349.778588750355
 21
31.70682264301355
 31
0.0
  0
LINE
  5
1C0
330
1F
100
AcDbEntity
  8
0
100
AcDbLine
 10
-347.7173637378856
 20
30.85002613725199
 30
0.0
 11
-348.7330162474818
 21
31.31441417189955
 31
0.0
  0
LINE
  5
1C1
330
1F
100
AcDbEntity
  8
0
100
AcDbLine
 10
-346.7365793785028
 20
30.31592099090081
 30
0.0
 11
-347.7173637378856
 21
30.85002613725199
 31
0.0
  0
LINE
  5
1C2
330
1F
100
AcDbEntity
  8
0
100
AcDbLine
 10
-345.7954414521429
 20
29.71470083942478
 30
0.0
 11
-346.7365793785028
 21
30.31592099090081
 31
0.0
  0
LINE
  5
1C3
330
1F
100
AcDbEntity
  8
0
100
AcDbLine
 10
-344.8985350881816
 20
29.04929476697406
 30
0.0
 11
-345.7954414521429
 21
29.71470083942478
 31
0.0
  0
LINE
  5
1C4
330
1F
100
AcDbEntity
  8
0
100
AcDbLine
 10
-344.0502299242677
 20
28.32294456504218
 30
0.0
 11
-344.8985350881816
 21
29.04929476697406
 31
0.0
  0
LINE
  5
1C5
330
1F
100
AcDbEntity
  8
0
100
AcDbLine
 10
-343.254658817886
 20
27.5391889388056
 30
0.0
 11
-344.0502299242677
 21
28.32294456504218
 31
0.0
  0
LINE
  5
1C6
330
1F
100
AcDbEntity
  8
0
100
AcDbLine
 10
-342.5156977114983
 20
26.70184626688571
 30
0.0
 11
-343.254658817886
 21
27.5391889388056
 31
0.0
  0
LINE
  5
1C7
330
1F
100
AcDbEntity
  8
0
100
AcDbLine
 10
-341.8369467493351
 20
25.81499599861544
 30
0.0
 11
-342.5156977114983
 21
26.70184626688571
 31
0.0
  0
LINE
  5
1C8
330
1F
100
AcDbEntity
  8
0
100
AcDbLine
 10
-341.2217127378541
 20
24.8829587793534
 30
0.0
 11
-341.8369467493351
 21
25.81499599861544
 31
0.0
  0
LINE
  5
1C9
330
1F
100
AcDbEntity
  8
0
100
AcDbLine
 10
-340.6729930353183
 20
23.91027540074755
 30
0.0
 11
-341.2217127378541
 21
24.8829587793534
 31
0.0
  0
LINE
  5
1CA
330
1F
100
AcDbEntity
  8
0
100
AcDbLine
 10
-340.1934609489583
 20
22.90168467843874
 30
0.0
 11
-340.6729930353183
 21
23.91027540074755
 31
0.0
  0
LINE
  5
1CB
330
1F
100
AcDbEntity
  8
0
100
AcDbLine
 10
-339.7854527109012
 20
21.86210036505043
 30
0.0
 11
-340.1934609489583
 21
22.90168467843874
 31
0.0
  0
LINE
  5
1CC
330
1F
100
AcDbEntity
  8
0
100
AcDbLine
 10
-257.9030785199254
 20
-124.4913588330067
 30
0.0
 11
-256.6894480003942
 21
-124.3530831015095
 31
0.0
  0
LINE
  5
1CD
330
1F
100
AcDbEntity
  8
0
100
AcDbLine
 10
-259.1233983239398
 20
-124.5446391462985
 30
0.0
 11
-257.9030785199254
 21
-124.4913588330067
 31
0.0
  0
LINE
  5
1CE
330
1F
100
AcDbEntity
  8
0
100
AcDbLine
 10
-260.3444621370217
 20
-124.5126644650559
 30
0.0
 11
-259.1233983239398
 21
-124.5446391462985
 31
0.0
  0
LINE
  5
1CF
330
1F
100
AcDbEntity
  8
0
100
AcDbLine
 10
-261.5603210590135
 20
-124.3955905667152
 30
0.0
 11
-260.3444621370217
 21
-124.5126644650559
 31
0.0
  0
LINE
  5
1D0
330
1F
100
AcDbEntity
  8
0
100
AcDbLine
 10
-262.7650515474621
 20
-124.1939878235379
 30
0.0
 11
-261.5603210590135
 21
-124.3955905667152
 31
0.0
  0
LINE
  5
1D1
330
1F
100
AcDbEntity
  8
0
100
AcDbLine
 10
-263.9527842765307
 20
-123.9088384238243
 30
0.0
 11
-262.7650515474621
 21
-124.1939878235379
 31
0.0
  0
LINE
  5
1D2
330
1F
100
AcDbEntity
  8
0
100
AcDbLine
 10
-265.1177327317524
 20
-123.5415315867865
 30
0.0
 11
-263.9527842765307
 21
-123.9088384238243
 31
0.0
  0
LINE
  5
1D3
330
1F
100
AcDbEntity
  8
0
100
AcDbLine
 10
-266.2542214013524
 20
-123.0938567944123
 30
0.0
 11
-265.1177327317524
 21
-123.5415315867865
 31
0.0
  0
LINE
  5
1D4
330
1F
100
AcDbEntity
  8
0
100
AcDbLine
 10
-267.3567134267743
 20
-122.5679950732908
 30
0.0
 11
-266.2542214013524
 21
-123.0938567944123
 31
0.0
  0
LINE
  5
1D5
330
1F
100
AcDbEntity
  8
0
100
AcDbLine
 10
-268.4198375776895
 20
-121.9665083688674
 30
0.0
 11
-267.3567134267743
 21
-122.5679950732908
 31
0.0
  0
LINE
  5
1D6
330
1F
100
AcDbEntity
  8
0
100
AcDbLine
 10
-269.4384144201023
 20
-121.2923270639068
 30
0.0
 11
-268.4198375776895
 21
-121.9665083688674
 31
0.0
  0
LINE
  5
1D7
330
1F
100
AcDbEntity
  8
0
100
AcDbLine
 10
-270.4074815500215
 20
-120.548735701956
 30
0.0
 11
-269.4384144201023
 21
-121.2923270639068
 31
0.0
  0
LINE
  5
1D8
330
1F
100
AcDbEntity
  8
0
100
AcDbLine
 10
-271.3223177698004
 20
-119.7393569853832
 30
0.0
 11
-270.4074815500215
 21
-120.548735701956
 31
0.0
  0
LINE
  5
1D9
330
1F
100
AcDbEntity
  8
0
100
AcDbLine
 10
-272.178466089336
 20
-118.8681341259432
 30
0.0
 11
-271.3223177698004
 21
-119.7393569853832
 31
0.0
  0
LINE
  5
1DA
330
1F
100
AcDbEntity
  8
0
100
AcDbLine
 10
-272.9717554400762
 20
-117.9393116338253
 30
0.0
 11
-272.178466089336
 21
-118.8681341259432
 31
0.0
  0
LINE
  5
1DB
330
1F
100
AcDbEntity
  8
0
100
AcDbLine
 10
-273.6983209960418
 20
-116.9574146388526
 30
0.0
 11
-272.9717554400762
 21
-117.9393116338253
 31
0.0
  0
LINE
  5
1DC
330
1F
100
AcDbEntity
  8
0
100
AcDbLine
 10
-274.3546230028837
 20
-115.9272268444797
 30
0.0
 11
-273.6983209960418
 21
-116.9574146388526
 31
0.0
  0
LINE
  5
1DD
330
1F
100
AcDbEntity
  8
0
100
AcDbLine
 10
-274.9374640231917
 20
-114.8537672220899
 30
0.0
 11
-274.3546230028837
 21
-115.9272268444797
 31
0.0
  0
LINE
  5
1DE
330
1F
100
AcDbEntity
  8
0
100
AcDbLine
 10
-275.4440045141035
 20
-113.7422655590553
 30
0.0
 11
-274.9374640231917
 21
-114.8537672220899
 31
0.0
  0
LINE
  5
1DF
330
1F
100
AcDbEntity
  8
0
100
AcDbLine
 10
-275.8717766612638
 20
-112.5981369797567
 30
0.0
 11
-275.4440045141035
 21
-113.7422655590553
 31
0.0
  0
LINE
  5
1E0
330
1F
100
AcDbEntity
  8
0
100
AcDbLine
 10
-276.2186964017716
 20
-111.4269555636199
 30
0.0
 11
-275.8717766612638
 21
-112.5981369797567
 31
0.0
  0
LINE
  5
1E1
330
1F
100
AcDbEntity
  8
0
100
AcDbLine
 10
-276.4830735775244
 20
-110.2344271887801
 30
0.0
 11
-276.2186964017716
 21
-111.4269555636199
 31
0.0
  0
LINE
  5
1E2
330
1F
100
AcDbEntity
  8
0
100
AcDbLine
 10
-276.6636201694935
 20
-109.0263617336037
 30
0.0
 11
-276.4830735775244
 21
-110.2344271887801
 31
0.0
  0
LINE
  5
1E3
330
1F
100
AcDbEntity
  8
0
100
AcDbLine
 10
-276.7594565728356
 20
-107.8086447715604
 30
0.0
 11
-276.6636201694935
 21
-109.0263617336037
 31
0.0
  0
LINE
  5
1E4
330
1F
100
AcDbEntity
  8
0
100
AcDbLine
 10
-276.7701158822239
 20
-106.5872088972776
 30
0.0
 11
-276.7594565728356
 21
-107.8086447715604
 31
0.0
  0
LINE
  5
1E5
330
1F
100
AcDbEntity
  8
0
100
AcDbLine
 10
-276.6955461665777
 20
-105.3680048235632
 30
0.0
 11
-276.7701158822239
 21
-106.5872088972776
 31
0.0
  0
LINE
  5
1E6
330
1F
100
AcDbEntity
  8
0
100
AcDbLine
 10
-276.5361107220538
 20
-104.1569723901041
 30
0.0
 11
-276.6955461665777
 21
-105.3680048235632
 31
0.0
  0
LINE
  5
1E7
330
1F
100
AcDbEntity
  8
0
100
AcDbLine
 10
-276.29258630211
 20
-102.9600116251883
 30
0.0
 11
-276.5361107220538
 21
-104.1569723901041
 31
0.0
  0
LINE
  5
1E8
330
1F
100
AcDbEntity
  8
0
100
AcDbLine
 10
-275.9661593332438
 20
-101.7829540013427
 30
0.0
 11
-276.29258630211
 21
-102.9600116251883
 31
0.0
  0
LINE
  5
1E9
330
1F
100
AcDbEntity
  8
0
100
AcDbLine
 10
-275.5584201348346
 20
-100.6315340249923
 30
0.0
 11
-275.9661593332438
 21
-101.7829540013427
 31
0.0
  0
LINE
  5
1EA
330
1F
100
AcDbEntity
  8
0
100
AcDbLine
 10
-275.0713551712719
 20
-99.51136129852239
 30
0.0
 11
-275.5584201348346
 21
-100.6315340249923
 31
0.0
  0
LINE
  5
1EB
330
1F
100
AcDbEntity
  8
0
100
AcDbLine
 10
-274.507337374095
 20
-98.42789319085769
 30
0.0
 11
-275.0713551712719
 21
-99.51136129852239
 31
0.0
  0
LINE
  5
1EC
330
1F
100
AcDbEntity
  8
0
100
AcDbLine
 10
-273.8691145813225
 20
-97.3864082497076
 30
0.0
 11
-274.507337374095
 21
-98.42789319085769
 31
0.0
  0
LINE
  5
1ED
330
1F
100
AcDbEntity
  8
0
100
AcDbLine
 10
-273.159796150244
 20
-96.39198048501662
 30
0.0
 11
-273.8691145813225
 21
-97.3864082497076
 31
0.0
  0
LINE
  5
1EE
330
1F
100
AcDbEntity
  8
0
100
AcDbLine
 10
-272.3828378089556
 20
-95.44945464889238
 30
0.0
 11
-273.159796150244
 21
-96.39198048501662
 31
0.0
  0
LINE
  5
1EF
330
1F
100
AcDbEntity
  8
0
100
AcDbLine
 10
-271.5420248203949
 20
-94.5634226324721
 30
0.0
 11
-272.3828378089556
 21
-95.44945464889238
 31
0.0
  0
LINE
  5
1F0
330
1F
100
AcDbEntity
  8
0
100
AcDbLine
 10
-270.6414535409246
 20
-93.73820109466733
 30
0.0
 11
-271.5420248203949
 21
-94.5634226324721
 31
0.0
  0
LINE
  5
1F1
330
1F
100
AcDbEntity
  8
0
100
AcDbLine
 10
-269.6855114632951
 20
-92.97781043186795
 30
0.0
 11
-270.6414535409246
 21
-93.73820109466733
 31
0.0
  0
LINE
  5
1F2
330
1F
100
AcDbEntity
  8
0
100
AcDbLine
 10
-268.6788558412152
 20
-92.28595519094323
 30
0.0
 11
-269.6855114632951
 21
-92.97781043186795
 31
0.0
  0
LINE
  5
1F3
330
1F
100
AcDbEntity
  8
0
100
AcDbLine
 10
-267.6263909996883
 20
-91.66600602108679
 30
0.0
 11
-268.6788558412152
 21
-92.28595519094323
 31
0.0
  0
LINE
  5
1F4
330
1F
100
AcDbEntity
  8
0
100
AcDbLine
 10
-266.5332444416294
 20
-91.12098325233296
 30
0.0
 11
-267.6263909996883
 21
-91.66600602108679
 31
0.0
  0
LINE
  5
1F5
330
1F
100
AcDbEntity
  8
0
100
AcDbLine
 10
-265.4047418671849
 20
-90.65354218082473
 30
0.0
 11
-266.5332444416294
 21
-91.12098325233296
 31
0.0
  0
LINE
  5
1F6
330
1F
100
AcDbEntity
  8
0
100
AcDbLine
 10
-264.2463812274636
 20
-90.26596013247875
 30
0.0
 11
-265.4047418671849
 21
-90.65354218082473
 31
0.0
  0
LINE
  5
1F7
330
1F
100
AcDbEntity
  8
0
100
AcDbLine
 10
-263.0638059390618
 20
-89.96012536807312
 30
0.0
 11
-264.2463812274636
 21
-90.26596013247875
 31
0.0
  0
LINE
  5
1F8
330
1F
100
AcDbEntity
  8
0
100
AcDbLine
 10
-261.8627773899124
 20
-89.73752788384066
 30
0.0
 11
-263.0638059390618
 21
-89.96012536807312
 31
0.0
  0
LINE
  5
1F9
330
1F
100
AcDbEntity
  8
0
100
AcDbLine
 10
-260.6491468703812
 20
-89.59925215234348
 30
0.0
 11
-261.8627773899124
 21
-89.73752788384066
 31
0.0
  0
LINE
  5
1FA
330
1F
100
AcDbEntity
  8
0
100
AcDbLine
 10
-259.4288270663668
 20
-89.54597183905166
 30
0.0
 11
-260.6491468703812
 21
-89.59925215234348
 31
0.0
  0
LINE
  5
1FB
330
1F
100
AcDbEntity
  8
0
100
AcDbLine
 10
-258.2077632532848
 20
-89.57794652029136
 30
0.0
 11
-259.4288270663668
 21
-89.54597183905166
 31
0.0
  0
LINE
  5
1FC
330
1F
100
AcDbEntity
  8
0
100
AcDbLine
 10
-256.9919043312945
 20
-89.69502041863502
 30
0.0
 11
-258.2077632532848
 21
-89.57794652029136
 31
0.0
  0
LINE
  5
1FD
330
1F
100
AcDbEntity
  8
0
100
AcDbLine
 10
-255.787173842843
 20
-89.89662316181226
 30
0.0
 11
-256.9919043312945
 21
-89.69502041863502
 31
0.0
  0
LINE
  5
1FE
330
1F
100
AcDbEntity
  8
0
100
AcDbLine
 10
-254.5994411137744
 20
-90.18177256152585
 30
0.0
 11
-255.787173842843
 21
-89.89662316181226
 31
0.0
  0
LINE
  5
1FF
330
1F
100
AcDbEntity
  8
0
100
AcDbLine
 10
-253.4344926585542
 20
-90.54907939856373
 30
0.0
 11
-254.5994411137744
 21
-90.18177256152585
 31
0.0
  0
LINE
  5
200
330
1F
100
AcDbEntity
  8
0
100
AcDbLine
 10
-252.2980039889527
 20
-90.99675419093792
 30
0.0
 11
-253.4344926585542
 21
-90.54907939856373
 31
0.0
  0
LINE
  5
201
330
1F
100
AcDbEntity
  8
0
100
AcDbLine
 10
-251.1955119635322
 20
-91.52261591205936
 30
0.0
 11
-252.2980039889527
 21
-90.99675419093792
 31
0.0
  0
LINE
  5
202
330
1F
100
AcDbEntity
  8
0
100
AcDbLine
 10
-250.1323878126156
 20
-92.12410261648282
 30
0.0
 11
-251.1955119635322
 21
-91.52261591205936
 31
0.0
  0
LINE
  5
203
330
1F
100
AcDbEntity
  8
0
100
AcDbLine
 10
-249.1138109702043
 20
-92.79828392144341
 30
0.0
 11
-250.1323878126156
 21
-92.12410261648282
 31
0.0
  0
LINE
  5
204
330
1F
100
AcDbEntity
  8
0
100
AcDbLine
 10
-248.1447438402851
 20
-93.54187528339423
 30
0.0
 11
-249.1138109702043
 21
-92.79828392144341
 31
0.0
  0
LINE
  5
205
330
1F
100
AcDbEntity
  8
0
100
AcDbLine
 10
-247.2299076205062
 20
-94.35125399996414
 30
0.0
 11
-248.1447438402851
 21
-93.54187528339423
 31
0.0
  0
LINE
  5
206
330
1F
100
AcDbEntity
  8
0
100
AcDbLine
 10
-246.3737593009691
 20
-95.22247685940695
 30
0.0
 11
-247.2299076205062
 21
-94.35125399996414
 31
0.0
  0
LINE
  5
207
330
1F
100
AcDbEntity
  8
0
100
AcDbLine
 10
-245.5804699502304
 20
-96.15129935152197
 30
0.0
 11
-246.3737593009691
 21
-95.22247685940695
 31
0.0
  0
LINE
  5
208
330
1F
100
AcDbEntity
  8
0
100
AcDbLine
 10
-244.8539043942619
 20
-97.13319634649763
 30
0.0
 11
-245.5804699502304
 21
-96.15129935152197
 31
0.0
  0
LINE
  5
209
330
1F
100
AcDbEntity
  8
0
100
AcDbLine
 10
-244.1976023874213
 20
-98.16338414087052
 30
0.0
 11
-244.8539043942619
 21
-97.13319634649763
 31
0.0
  0
LINE
  5
20A
330
1F
100
AcDbEntity
  8
0
100
AcDbLine
 10
-243.6147613671134
 20
-99.2368437632603
 30
0.0
 11
-244.1976023874213
 21
-98.16338414087052
 31
0.0
  0
LINE
  5
20B
330
1F
100
AcDbEntity
  8
0
100
AcDbLine
 10
-243.1082208762016
 20
-100.3483454262921
 30
0.0
 11
-243.6147613671134
 21
-99.2368437632603
 31
0.0
  0
LINE
  5
20C
330
1F
100
AcDbEntity
  8
0
100
AcDbLine
 10
-242.6804487290413
 20
-101.4924740055935
 30
0.0
 11
-243.1082208762016
 21
-100.3483454262921
 31
0.0
  0
LINE
  5
20D
330
1F
100
AcDbEntity
  8
0
100
AcDbLine
 10
-242.3335289885335
 20
-102.6636554217303
 30
0.0
 11
-242.6804487290413
 21
-101.4924740055935
 31
0.0
  0
LINE
  5
20E
330
1F
100
AcDbEntity
  8
0
100
AcDbLine
 10
-242.0691518127821
 20
-103.8561837965701
 30
0.0
 11
-242.3335289885335
 21
-102.6636554217303
 31
0.0
  0
LINE
  5
20F
330
1F
100
AcDbEntity
  8
0
100
AcDbLine
 10
-241.8886052208116
 20
-105.0642492517436
 30
0.0
 11
-242.0691518127821
 21
-103.8561837965701
 31
0.0
  0
LINE
  5
210
330
1F
100
AcDbEntity
  8
0
100
AcDbLine
 10
-241.7927688174695
 20
-106.2819662137898
 30
0.0
 11
-241.8886052208116
 21
-105.0642492517436
 31
0.0
  0
LINE
  5
211
330
1F
100
AcDbEntity
  8
0
100
AcDbLine
 10
-241.7821095080798
 20
-107.5034020880697
 30
0.0
 11
-241.7927688174695
 21
-106.2819662137898
 31
0.0
  0
LINE
  5
212
330
1F
100
AcDbEntity
  8
0
100
AcDbLine
 10
-241.8566792237274
 20
-108.722606161787
 30
0.0
 11
-241.7821095080798
 21
-107.5034020880697
 31
0.0
  0
LINE
  5
213
330
1F
100
AcDbEntity
  8
0
100
AcDbLine
 10
-242.0161146682513
 20
-109.9336385952461
 30
0.0
 11
-241.8566792237274
 21
-108.722606161787
 31
0.0
  0
LINE
  5
214
330
1F
100
AcDbEntity
  8
0
100
AcDbLine
 10
-242.2596390881951
 20
-111.1305993601619
 30
0.0
 11
-242.0161146682513
 21
-109.9336385952461
 31
0.0
  0
LINE
  5
215
330
1F
100
AcDbEntity
  8
0
100
AcDbLine
 10
-242.5860660570613
 20
-112.3076569840075
 30
0.0
 11
-242.2596390881951
 21
-111.1305993601619
 31
0.0
  0
LINE
  5
216
330
1F
100
AcDbEntity
  8
0
100
AcDbLine
 10
-242.9938052554691
 20
-113.4590769603579
 30
0.0
 11
-242.5860660570613
 21
-112.3076569840075
 31
0.0
  0
LINE
  5
217
330
1F
100
AcDbEntity
  8
0
100
AcDbLine
 10
-243.4808702190332
 20
-114.5792496868278
 30
0.0
 11
-242.9938052554691
 21
-113.4590769603579
 31
0.0
  0
LINE
  5
218
330
1F
100
AcDbEntity
  8
0
100
AcDbLine
 10
-244.0448880162086
 20
-115.6627177944925
 30
0.0
 11
-243.4808702190332
 21
-114.5792496868278
 31
0.0
  0
LINE
  5
219
330
1F
100
AcDbEntity
  8
0
100
AcDbLine
 10
-244.6831108089826
 20
-116.7042027356426
 30
0.0
 11
-244.0448880162086
 21
-115.6627177944925
 31
0.0
  0
LINE
  5
21A
330
1F
100
AcDbEntity
  8
0
100
AcDbLine
 10
-245.3924292400611
 20
-117.6986305003336
 30
0.0
 11
-244.6831108089826
 21
-116.7042027356426
 31
0.0
  0
LINE
  5
21B
330
1F
100
AcDbEntity
  8
0
100
AcDbLine
 10
-246.1693875813495
 20
-118.6411563364578
 30
0.0
 11
-245.3924292400611
 21
-117.6986305003336
 31
0.0
  0
LINE
  5
21C
330
1F
100
AcDbEntity
  8
0
100
AcDbLine
 10
-247.0102005699117
 20
-119.5271883528781
 30
0.0
 11
-246.1693875813495
 21
-118.6411563364578
 31
0.0
  0
LINE
  5
21D
330
1F
100
AcDbEntity
  8
0
100
AcDbLine
 10
-247.9107718493819
 20
-120.35240989068
 30
0.0
 11
-247.0102005699117
 21
-119.5271883528781
 31
0.0
  0
LINE
  5
21E
330
1F
100
AcDbEntity
  8
0
100
AcDbLine
 10
-248.8667139270115
 20
-121.1128005534822
 30
0.0
 11
-247.9107718493819
 21
-120.35240989068
 31
0.0
  0
LINE
  5
21F
330
1F
100
AcDbEntity
  8
0
100
AcDbLine
 10
-249.8733695490898
 20
-121.8046557944041
 30
0.0
 11
-248.8667139270115
 21
-121.1128005534822
 31
0.0
  0
LINE
  5
220
330
1F
100
AcDbEntity
  8
0
100
AcDbLine
 10
-250.9258343906168
 20
-122.4246049642634
 30
0.0
 11
-249.8733695490898
 21
-121.8046557944041
 31
0.0
  0
LINE
  5
221
330
1F
100
AcDbEntity
  8
0
100
AcDbLine
 10
-252.0189809486771
 20
-122.9696277330172
 30
0.0
 11
-250.9258343906168
 21
-122.4246049642634
 31
0.0
  0
LINE
  5
222
330
1F
100
AcDbEntity
  8
0
100
AcDbLine
 10
-253.1474835231202
 20
-123.4370688045255
 30
0.0
 11
-252.0189809486771
 21
-122.9696277330172
 31
0.0
  0
LINE
  5
223
330
1F
100
AcDbEntity
  8
0
100
AcDbLine
 10
-254.305844162843
 20
-123.8246508528714
 30
0.0
 11
-253.1474835231202
 21
-123.4370688045255
 31
0.0
  0
LINE
  5
224
330
1F
100
AcDbEntity
  8
0
100
AcDbLine
 10
-255.4884194512447
 20
-124.1304856172771
 30
0.0
 11
-254.305844162843
 21
-123.8246508528714
 31
0.0
  0
LINE
  5
225
330
1F
100
AcDbEntity
  8
0
100
AcDbLine
 10
-256.6894480003942
 20
-124.3530831015095
 30
0.0
 11
-255.4884194512447
 21
-124.1304856172771
 31
0.0
  0
LINE
  5
226
330
1F
100
AcDbEntity
  8
0
100
AcDbLine
 10
569.9743687598102
 20
-3.130004015292315
 30
0.0
 11
570.5887561574576
 21
-3.137269288111083
 31
0.0
  0
LINE
  5
227
330
1F
100
AcDbEntity
  8
0
100
AcDbLine
 10
568.5813943339089
 20
-3.038450528610856
 30
0.0
 11
569.9743687598102
 21
-3.130004015292315
 31
0.0
  0
LINE
  5
228
330
1F
100
AcDbEntity
  8
0
100
AcDbLine
 10
567.1981995720879
 20
-2.849951077652731
 30
0.0
 11
568.5813943339089
 21
-3.038450528610856
 31
0.0
  0
LINE
  5
229
330
1F
100
AcDbEntity
  8
0
100
AcDbLine
 10
565.8315232601883
 20
-2.565424012798662
 30
0.0
 11
567.1981995720879
 21
-2.849951077652731
 31
0.0
  0
LINE
  5
22A
330
1F
100
AcDbEntity
  8
0
100
AcDbLine
 10
564.4880237078248
 20
-2.186255521307857
 30
0.0
 11
565.8315232601883
 21
-2.565424012798662
 31
0.0
  0
LINE
  5
22B
330
1F
100
AcDbEntity
  8
0
100
AcDbLine
 10
563.1742463097686
 20
-1.714292873955078
 30
0.0
 11
564.4880237078248
 21
-2.186255521307857
 31
0.0
  0
LINE
  5
22C
330
1F
100
AcDbEntity
  8
0
100
AcDbLine
 10
561.8965916574416
 20
-1.151835425316148
 30
0.0
 11
563.1742463097686
 21
-1.714292873955078
 31
0.0
  0
LINE
  5
22D
330
1F
100
AcDbEntity
  8
0
100
AcDbLine
 10
560.6612843558814
 20
-0.5016234115450465
 30
0.0
 11
561.8965916574416
 21
-1.151835425316148
 31
0.0
  0
LINE
  5
22E
330
1F
100
AcDbEntity
  8
0
100
AcDbLine
 10
559.4743426980884
 20
0.2331753997867103
 30
0.0
 11
560.6612843558814
 21
-0.5016234115450465
 31
0.0
  0
LINE
  5
22F
330
1F
100
AcDbEntity
  8
0
100
AcDbLine
 10
558.3415493445088
 20
1.048981142735493
 30
0.0
 11
559.4743426980884
 21
0.2331753997867103
 31
0.0
  0
LINE
  5
230
330
1F
100
AcDbEntity
  8
0
100
AcDbLine
 10
557.2684231504917
 20
1.941819293718622
 30
0.0
 11
558.3415493445088
 21
1.048981142735493
 31
0.0
  0
LINE
  5
231
330
1F
100
AcDbEntity
  8
0
100
AcDbLine
 10
556.2601922789855
 20
2.907340035020962
 30
0.0
 11
557.2684231504917
 21
1.941819293718622
 31
0.0
  0
LINE
  5
232
330
1F
100
AcDbEntity
  8
0
100
AcDbLine
 10
555.3217687294492
 20
3.940839446640353
 30
0.0
 11
556.2601922789855
 21
2.907340035020962
 31
0.0
  0
LINE
  5
233
330
1F
100
AcDbEntity
  8
0
100
AcDbLine
 10
554.4577244070855
 20
5.037282423328093
 30
0.0
 11
555.3217687294492
 21
3.940839446640353
 31
0.0
  0
LINE
  5
234
330
1F
100
AcDbEntity
  8
0
100
AcDbLine
 10
553.6722688489795
 20
6.191327205118755
 30
0.0
 11
554.4577244070855
 21
5.037282423328093
 31
0.0
  0
LINE
  5
235
330
1F
100
AcDbEntity
  8
0
100
AcDbLine
 10
552.9692287156561
 20
7.397351401841256
 30
0.0
 11
553.6722688489795
 21
6.191327205118755
 31
0.0
  0
LINE
  5
236
330
1F
100
AcDbEntity
  8
0
100
AcDbLine
 10
552.352029147976
 20
8.649479384834859
 30
0.0
 11
552.9692287156561
 21
7.397351401841256
 31
0.0
  0
LINE
  5
237
330
1F
100
AcDbEntity
  8
0
100
AcDbLine
 10
551.8236770801941
 20
9.941610912432001
 30
0.0
 11
552.352029147976
 21
8.649479384834859
 31
0.0
  0
LINE
  5
238
330
1F
100
AcDbEntity
  8
0
100
AcDbLine
 10
551.3867465904717
 20
11.26745084971447
 30
0.0
 11
551.8236770801941
 21
9.941610912432001
 31
0.0
  0
LINE
  5
239
330
1F
100
AcDbEntity
  8
0
100
AcDbLine
 10
551.0433663602375
 20
12.62053983777942
 30
0.0
 11
551.3867465904717
 21
11.26745084971447
 31
0.0
  0
LINE
  5
23A
330
1F
100
AcDbEntity
  8
0
100
AcDbLine
 10
550.7952093034537
 20
13.9942857630912
 30
0.0
 11
551.0433663602375
 21
12.62053983777942
 31
0.0
  0
LINE
  5
23B
330
1F
100
AcDbEntity
  8
0
100
AcDbLine
 10
550.6434844163583
 20
15.38199587358779
 30
0.0
 11
550.7952093034537
 21
13.9942857630912
 31
0.0
  0
LINE
  5
23C
330
1F
100
AcDbEntity
  8
0
100
AcDbLine
 10
550.58893088735
 20
16.77690938510666
 30
0.0
 11
550.6434844163583
 21
15.38199587358779
 31
0.0
  0
LINE
  5
23D
330
1F
100
AcDbEntity
  8
0
100
AcDbLine
 10
550.6318144957396
 20
18.17223041923142
 30
0.0
 11
550.58893088735
 21
16.77690938510666
 31
0.0
  0
LINE
  5
23E
330
1F
100
AcDbEntity
  8
0
100
AcDbLine
 10
550.7719263168931
 20
19.56116111214199
 30
0.0
 11
550.6318144957396
 21
18.17223041923142
 31
0.0
  0
LINE
  5
23F
330
1F
100
AcDbEntity
  8
0
100
AcDbLine
 10
551.0085837401068
 20
20.9369347331211
 30
0.0
 11
550.7719263168931
 21
19.56116111214199
 31
0.0
  0
LINE
  5
240
330
1F
100
AcDbEntity
  8
0
100
AcDbLine
 10
551.3406337942004
 20
22.29284865137559
 30
0.0
 11
551.0085837401068
 21
20.9369347331211
 31
0.0
  0
LINE
  5
241
330
1F
100
AcDbEntity
  8
0
100
AcDbLine
 10
551.7664587646898
 20
23.62229699059349
 30
0.0
 11
551.3406337942004
 21
22.29284865137559
 31
0.0
  0
LINE
  5
242
330
1F
100
AcDbEntity
  8
0
100
AcDbLine
 10
552.2839840751219
 20
24.91880281210165
 30
0.0
 11
551.7664587646898
 21
23.62229699059349
 31
0.0
  0
LINE
  5
243
330
1F
100
AcDbEntity
  8
0
100
AcDbLine
 10
552.8906883942059
 20
26.17604966985932
 30
0.0
 11
552.2839840751219
 21
24.91880281210165
 31
0.0
  0
LINE
  5
244
330
1F
100
AcDbEntity
  8
0
100
AcDbLine
 10
553.5836159194831
 20
27.38791238355816
 30
0.0
 11
552.8906883942059
 21
26.17604966985932
 31
0.0
  0
LINE
  5
245
330
1F
100
AcDbEntity
  8
0
100
AcDbLine
 10
554.3593907777059
 20
28.54848687987031
 30
0.0
 11
553.5836159194831
 21
27.38791238355816
 31
0.0
  0
LINE
  5
246
330
1F
100
AcDbEntity
  8
0
100
AcDbLine
 10
555.214233471745
 20
29.65211895651221
 30
0.0
 11
554.3593907777059
 21
28.54848687987031
 31
0.0
  0
LINE
  5
247
330
1F
100
AcDbEntity
  8
0
100
AcDbLine
 10
556.1439792939221
 20
30.69343182893772
 30
0.0
 11
555.214233471745
 21
29.65211895651221
 31
0.0
  0
LINE
  5
248
330
1F
100
AcDbEntity
  8
0
100
AcDbLine
 10
557.1440986160501
 20
31.66735232551187
 30
0.0
 11
556.1439792939221
 21
30.69343182893772
 31
0.0
  0
LINE
  5
249
330
1F
100
AcDbEntity
  8
0
100
AcDbLine
 10
558.209718957324
 20
32.56913560347087
 30
0.0
 11
557.1440986160501
 21
31.66735232551187
 31
0.0
  0
LINE
  5
24A
330
1F
100
AcDbEntity
  8
0
100
AcDbLine
 10
559.3356487225556
 20
33.39438826532853
 30
0.0
 11
558.209718957324
 21
32.56913560347087
 31
0.0
  0
LINE
  5
24B
330
1F
100
AcDbEntity
  8
0
100
AcDbLine
 10
560.5164024951073
 20
34.1390897630763
 30
0.0
 11
559.3356487225556
 21
33.39438826532853
 31
0.0
  0
LINE
  5
24C
330
1F
100
AcDbEntity
  8
0
100
AcDbLine
 10
561.7462277612885
 20
34.7996119858693
 30
0.0
 11
560.5164024951073
 21
34.1390897630763
 31
0.0
  0
LINE
  5
24D
330
1F
100
AcDbEntity
  8
0
100
AcDbLine
 10
563.0191329360244
 20
35.37273693583398
 30
0.0
 11
561.7462277612885
 21
34.7996119858693
 31
0.0
  0
LINE
  5
24E
330
1F
100
AcDbEntity
  8
0
100
AcDbLine
 10
564.3289165532539
 20
35.85567240582418
 30
0.0
 11
563.0191329360244
 21
35.37273693583398
 31
0.0
  0
LINE
  5
24F
330
1F
100
AcDbEntity
  8
0
100
AcDbLine
 10
565.6691974788536
 20
36.24606558277922
 30
0.0
 11
564.3289165532539
 21
35.85567240582418
 31
0.0
  0
LINE
  5
250
330
1F
100
AcDbEntity
  8
0
100
AcDbLine
 10
567.0334459988794
 20
36.54201451037773
 30
0.0
 11
565.6691974788536
 21
36.24606558277922
 31
0.0
  0
LINE
  5
251
330
1F
100
AcDbEntity
  8
0
100
AcDbLine
 10
568.4150156316766
 20
36.74207735519526
 30
0.0
 11
567.0334459988794
 21
36.54201451037773
 31
0.0
  0
LINE
  5
252
330
1F
100
AcDbEntity
  8
0
100
AcDbLine
 10
569.8071755088652
 20
36.84527943116516
 30
0.0
 11
568.4150156316766
 21
36.74207735519526
 31
0.0
  0
LINE
  5
253
330
1F
100
AcDbEntity
  8
0
100
AcDbLine
 10
570.588756157459
 20
36.86273071189137
 30
0.0
 11
569.8071755088652
 21
36.84527943116516
 31
0.0
  0
LINE
  5
254
330
1F
100
AcDbEntity
  8
0
100
AcDbLine
 10
571.2031431674659
 20
36.8511179481415
 30
0.0
 11
570.588756157459
 21
36.86273071189137
 31
0.0
  0
LINE
  5
255
330
1F
100
AcDbEntity
  8
0
100
AcDbLine
 10
572.5961175933687
 20
36.75956446146004
 30
0.0
 11
571.2031431674659
 21
36.8511179481415
 31
0.0
  0
LINE
  5
256
330
1F
100
AcDbEntity
  8
0
100
AcDbLine
 10
573.9793123551897
 20
36.57106501050191
 30
0.0
 11
572.5961175933687
 21
36.75956446146004
 31
0.0
  0
LINE
  5
257
330
1F
100
AcDbEntity
  8
0
100
AcDbLine
 10
575.3459886670893
 20
36.28653794564784
 30
0.0
 11
573.9793123551897
 21
36.57106501050191
 31
0.0
  0
LINE
  5
258
330
1F
100
AcDbEntity
  8
0
100
AcDbLine
 10
576.6894882194513
 20
35.90736945415704
 30
0.0
 11
575.3459886670893
 21
36.28653794564784
 31
0.0
  0
LINE
  5
259
330
1F
100
AcDbEntity
  8
0
100
AcDbLine
 10
578.0032656175076
 20
35.43540680680426
 30
0.0
 11
576.6894882194513
 21
35.90736945415704
 31
0.0
  0
LINE
  5
25A
330
1F
100
AcDbEntity
  8
0
100
AcDbLine
 10
579.2809202698345
 20
34.87294935816533
 30
0.0
 11
578.0032656175076
 21
35.43540680680426
 31
0.0
  0
LINE
  5
25B
330
1F
100
AcDbEntity
  8
0
100
AcDbLine
 10
580.5162275713947
 20
34.22273734439414
 30
0.0
 11
579.2809202698345
 21
34.87294935816533
 31
0.0
  0
LINE
  5
25C
330
1F
100
AcDbEntity
  8
0
100
AcDbLine
 10
581.7031692291877
 20
33.48793853306238
 30
0.0
 11
580.5162275713947
 21
34.22273734439414
 31
0.0
  0
LINE
  5
25D
330
1F
100
AcDbEntity
  8
0
100
AcDbLine
 10
582.8359625827673
 20
32.6721327901136
 30
0.0
 11
581.7031692291877
 21
33.48793853306238
 31
0.0
  0
LINE
  5
25E
330
1F
100
AcDbEntity
  8
0
100
AcDbLine
 10
583.9090887767845
 20
31.77929463913047
 30
0.0
 11
582.8359625827673
 21
32.6721327901136
 31
0.0
  0
LINE
  5
25F
330
1F
100
AcDbEntity
  8
0
100
AcDbLine
 10
584.9173196482906
 20
30.81377389782813
 30
0.0
 11
583.9090887767845
 21
31.77929463913047
 31
0.0
  0
LINE
  5
260
330
1F
100
AcDbEntity
  8
0
100
AcDbLine
 10
585.855743197827
 20
29.78027448621163
 30
0.0
 11
584.9173196482906
 21
30.81377389782813
 31
0.0
  0
LINE
  5
261
330
1F
100
AcDbEntity
  8
0
100
AcDbLine
 10
586.7197875201907
 20
28.683831509521
 30
0.0
 11
585.855743197827
 21
29.78027448621163
 31
0.0
  0
LINE
  5
262
330
1F
100
AcDbEntity
  8
0
100
AcDbLine
 10
587.5052430782966
 20
27.52978672773034
 30
0.0
 11
586.7197875201907
 21
28.683831509521
 31
0.0
  0
LINE
  5
263
330
1F
100
AcDbEntity
  8
0
100
AcDbLine
 10
588.2082832116201
 20
26.32376253100784
 30
0.0
 11
587.5052430782966
 21
27.52978672773034
 31
0.0
  0
LINE
  5
264
330
1F
100
AcDbEntity
  8
0
100
AcDbLine
 10
588.8254827793
 20
25.07163454801423
 30
0.0
 11
588.2082832116201
 21
26.32376253100784
 31
0.0
  0
LINE
  5
265
330
1F
100
AcDbEntity
  8
0
100
AcDbLine
 10
589.353834847082
 20
23.77950302041709
 30
0.0
 11
588.8254827793
 21
25.07163454801423
 31
0.0
  0
LINE
  5
266
330
1F
100
AcDbEntity
  8
0
100
AcDbLine
 10
589.7907653368044
 20
22.45366308313463
 30
0.0
 11
589.353834847082
 21
23.77950302041709
 31
0.0
  0
LINE
  5
267
330
1F
100
AcDbEntity
  8
0
100
AcDbLine
 10
590.1341455670386
 20
21.10057409506967
 30
0.0
 11
589.7907653368044
 21
22.45366308313463
 31
0.0
  0
LINE
  5
268
330
1F
100
AcDbEntity
  8
0
100
AcDbLine
 10
590.3823026238224
 20
19.72682816975789
 30
0.0
 11
590.1341455670386
 21
21.10057409506967
 31
0.0
  0
LINE
  5
269
330
1F
100
AcDbEntity
  8
0
100
AcDbLine
 10
590.5340275109178
 20
18.3391180592613
 30
0.0
 11
590.3823026238224
 21
19.72682816975789
 31
0.0
  0
LINE
  5
26A
330
1F
100
AcDbEntity
  8
0
100
AcDbLine
 10
590.5885810399261
 20
16.94420454774243
 30
0.0
 11
590.5340275109178
 21
18.3391180592613
 31
0.0
  0
LINE
  5
26B
330
1F
100
AcDbEntity
  8
0
100
AcDbLine
 10
590.5456974315365
 20
15.54888351361767
 30
0.0
 11
590.5885810399261
 21
16.94420454774243
 31
0.0
  0
LINE
  5
26C
330
1F
100
AcDbEntity
  8
0
100
AcDbLine
 10
590.4055856103831
 20
14.1599528207071
 30
0.0
 11
590.5456974315365
 21
15.54888351361767
 31
0.0
  0
LINE
  5
26D
330
1F
100
AcDbEntity
  8
0
100
AcDbLine
 10
590.1689281871694
 20
12.78417919972799
 30
0.0
 11
590.4055856103831
 21
14.1599528207071
 31
0.0
  0
LINE
  5
26E
330
1F
100
AcDbEntity
  8
0
100
AcDbLine
 10
589.8368781330759
 20
11.42826528147351
 30
0.0
 11
590.1689281871694
 21
12.78417919972799
 31
0.0
  0
LINE
  5
26F
330
1F
100
AcDbEntity
  8
0
100
AcDbLine
 10
589.4110531625863
 20
10.0988169422556
 30
0.0
 11
589.8368781330759
 21
11.42826528147351
 31
0.0
  0
LINE
  5
270
330
1F
100
AcDbEntity
  8
0
100
AcDbLine
 10
588.8935278521543
 20
8.802311120747442
 30
0.0
 11
589.4110531625863
 21
10.0988169422556
 31
0.0
  0
LINE
  5
271
330
1F
100
AcDbEntity
  8
0
100
AcDbLine
 10
588.2868235330703
 20
7.545064262989769
 30
0.0
 11
588.8935278521543
 21
8.802311120747442
 31
0.0
  0
LINE
  5
272
330
1F
100
AcDbEntity
  8
0
100
AcDbLine
 10
587.593896007793
 20
6.33320154929093
 30
0.0
 11
588.2868235330703
 21
7.545064262989769
 31
0.0
  0
LINE
  5
273
330
1F
100
AcDbEntity
  8
0
100
AcDbLine
 10
586.8181211495702
 20
5.172627052978788
 30
0.0
 11
587.593896007793
 21
6.33320154929093
 31
0.0
  0
LINE
  5
274
330
1F
100
AcDbEntity
  8
0
100
AcDbLine
 10
585.9632784555312
 20
4.068994976339769
 30
0.0
 11
586.8181211495702
 21
5.172627052978788
 31
0.0
  0
LINE
  5
275
330
1F
100
AcDbEntity
  8
0
100
AcDbLine
 10
585.033532633354
 20
3.027682103911371
 30
0.0
 11
585.9632784555312
 21
4.068994976339769
 31
0.0
  0
LINE
  5
276
330
1F
100
AcDbEntity
  8
0
100
AcDbLine
 10
584.0334133112261
 20
2.053761607337225
 30
0.0
 11
585.033532633354
 21
3.027682103911371
 31
0.0
  0
LINE
  5
277
330
1F
100
AcDbEntity
  8
0
100
AcDbLine
 10
582.9677929699521
 20
1.151978329378227
 30
0.0
 11
584.0334133112261
 21
2.053761607337225
 31
0.0
  0
LINE
  5
278
330
1F
100
AcDbEntity
  8
0
100
AcDbLine
 10
581.8418632047207
 20
0.3267256675205601
 30
0.0
 11
582.9677929699521
 21
1.151978329378227
 31
0.0
  0
LINE
  5
279
330
1F
100
AcDbEntity
  8
0
100
AcDbLine
 10
580.6611094321688
 20
-0.4179758302272091
 30
0.0
 11
581.8418632047207
 21
0.3267256675205601
 31
0.0
  0
LINE
  5
27A
330
1F
100
AcDbEntity
  8
0
100
AcDbLine
 10
579.431284165989
 20
-1.078498053020116
 30
0.0
 11
580.6611094321688
 21
-0.4179758302272091
 31
0.0
  0
LINE
  5
27B
330
1F
100
AcDbEntity
  8
0
100
AcDbLine
 10
578.1583789912531
 20
-1.651623002984792
 30
0.0
 11
579.431284165989
 21
-1.078498053020116
 31
0.0
  0
LINE
  5
27C
330
1F
100
AcDbEntity
  8
0
100
AcDbLine
 10
576.8485953740237
 20
-2.134558472974999
 30
0.0
 11
578.1583789912531
 21
-1.651623002984792
 31
0.0
  0
LINE
  5
27D
330
1F
100
AcDbEntity
  8
0
100
AcDbLine
 10
575.5083144484225
 20
-2.524951649930035
 30
0.0
 11
576.8485953740237
 21
-2.134558472974999
 31
0.0
  0
LINE
  5
27E
330
1F
100
AcDbEntity
  8
0
100
AcDbLine
 10
574.1440659283967
 20
-2.820900577528545
 30
0.0
 11
575.5083144484225
 21
-2.524951649930035
 31
0.0
  0
LINE
  5
27F
330
1F
100
AcDbEntity
  8
0
100
AcDbLine
 10
572.762496295601
 20
-3.02096342234608
 30
0.0
 11
574.1440659283967
 21
-2.820900577528545
 31
0.0
  0
LINE
  5
280
330
1F
100
AcDbEntity
  8
0
100
AcDbLine
 10
571.370336418411
 20
-3.124165498315978
 30
0.0
 11
572.762496295601
 21
-3.02096342234608
 31
0.0
  0
LINE
  5
281
330
1F
100
AcDbEntity
  8
0
100
AcDbLine
 10
570.5887561574576
 20
-3.137269288111083
 30
0.0
 11
571.370336418411
 21
-3.124165498315978
 31
0.0
  0
LINE
  5
282
330
1F
100
AcDbEntity
  8
0
100
AcDbLine
 10
-284.0531405799096
 20
-149.9603765320154
 30
0.0
 11
-294.3161206683614
 21
-142.0853147659136
 31
0.0
  0
LINE
  5
283
330
1F
100
AcDbEntity
  8
0
100
AcDbLine
 10
-533.6789766704768
 20
5.820067699981733
 30
0.0
 11
-532.6312487742973
 21
6.742578430386161
 31
0.0
  0
LINE
  5
284
330
1F
100
AcDbEntity
  8
0
100
AcDbLine
 10
-506.2139978422289
 20
-23.26042297613118
 30
0.0
 11
-507.261725738407
 21
-24.18293370653561
 31
0.0
  0
ENDSEC
  0
SECTION
  2
OBJECTS
  0
DICTIONARY
  5
C
330
0
100
AcDbDictionary
  3
ACAD_GROUP
350
D
  3
ACAD_LAYOUT
350
1A
  3
ACAD_MATERIAL
350
43
  3
ACAD_MLEADERSTYLE
350
5B
  3
ACAD_MLINESTYLE
350
17
  3
ACAD_PLOTSETTINGS
350
19
  3
ACAD_SCALELIST
350
47
  3
ACAD_VISUALSTYLE
350
2A
  3
ACDBHEADERROUNDTRIPXREC
350
285
  3
ACDBVARIABLEDICTIONARY
350
2A6
  3
DWGPROPS
350
2AD
  0
DICTIONARY
  5
2AE
330
8
100
AcDbDictionary
280
     1
  3
ACAD_XREC_ROUNDTRIP
360
2AF
  0
DICTIONARY
  5
D
102
{ACAD_REACTORS
330
C
102
}
330
C
100
AcDbDictionary
  0
DICTIONARY
  5
1A
102
{ACAD_REACTORS
330
C
102
}
330
C
100
AcDbDictionary
  0
DICTIONARY
  5
43
102
{ACAD_REACTORS
330
C
102
}
330
C
100
AcDbDictionary
  3
BYBLOCK
350
45
  3
BYLAYER
350
44
  3
GLOBAL
350
46
  0
DICTIONARY
  5
5B
102
{ACAD_REACTORS
330
C
102
}
330
C
100
AcDbDictionary
  3
STANDARD
350
5C
  0
DICTIONARY
  5
17
102
{ACAD_REACTORS
330
C
102
}
330
C
100
AcDbDictionary
  3
STANDARD
350
18
  0
DICTIONARY
  5
19
102
{ACAD_REACTORS
330
C
102
}
330
C
100
AcDbDictionary
  0
DICTIONARY
  5
47
102
{ACAD_REACTORS
330
C
102
}
330
C
100
AcDbDictionary
  3
A0
350
48
  3
A1
350
49
  3
A2
350
4A
  3
A3
350
4B
  3
A4
350
4C
  3
A5
350
4D
  3
A6
350
4E
  3
A7
350
4F
  3
A8
350
50
  3
A9
350
51
  3
B1
350
52
  3
B2
350
53
  3
B3
350
54
  3
B4
350
55
  3
B5
350
56
  3
B6
350
57
  3
B7
350
58
  0
DICTIONARY
  5
2A
102
{ACAD_REACTORS
330
C
102
}
330
C
100
AcDbDictionary
  3
2DWIREFRAME
350
2F
  3
BASIC
350
32
  3
BRIGHTEN
350
36
  3
COLORCHANGE
350
3A
  3
CONCEPTUAL
350
34
  3
DIM
350
35
  3
EDGECOLOROFF
350
3D
  3
FACEPATTERN
350
39
  3
FLAT
350
2B
  3
FLATWITHEDGES
350
2C
  3
GOURAUD
350
2D
  3
GOURAUDWITHEDGES
350
2E
  3
HIDDEN
350
31
  3
JITTEROFF
350
3B
  3
LINEPATTERN
350
38
  3
OVERHANGOFF
350
3C
  3
REALISTIC
350
33
  3
SHADED
350
42
  3
SHADED_WITH_EDGES
350
41
  3
SHADES_OF_GRAY
350
3E
  3
SKETCHY
350
3F
  3
THICKEN
350
37
  3
WIREFRAME
350
30
  3
X-RAY
350
40
  0
DICTIONARY
  5
285
102
{ACAD_REACTORS
330
C
102
}
330
C
100
AcDbDictionary
  3
CEPSNID
350
28F
  3
CEPSNTYPE
350
28E
  3
DIMSTYLEDATA
350
2A5
  3
FINGERPRINTGUID
350
290
  3
HYPERLINKBASE
350
288
  3
INSUNITS
350
28D
  3
LAYOUTDICT
350
28A
  3
LWETCUNION
350
28C
  3
PLOTSETDICT
350
28B
  3
PSVPSCALE
350
292
  3
PUCSBASE
350
295
  3
PUCSORGBACK
350
29B
  3
PUCSORGBOTTOM
350
297
  3
PUCSORGFRONT
350
29A
  3
PUCSORGLEFT
350
298
  3
PUCSORGRIGHT
350
299
  3
PUCSORGTOP
350
296
  3
PUCSORTHOREF
350
293
  3
PUCSORTHOVIEW
350
294
  3
STYLESHEET
350
289
  3
TSTACKALIGN
350
286
  3
TSTACKSIZE
350
287
  3
UCSBASE
350
29E
  3
UCSORGBACK
350
2A4
  3
UCSORGBOTTOM
350
2A0
  3
UCSORGFRONT
350
2A3
  3
UCSORGLEFT
350
2A1
  3
UCSORGRIGHT
350
2A2
  3
UCSORGTOP
350
29F
  3
UCSORTHOREF
350
29C
  3
UCSORTHOVIEW
350
29D
  3
VERSIONGUID
350
291
  0
DICTIONARY
  5
2A6
102
{ACAD_REACTORS
330
C
102
}
330
C
100
AcDbDictionary
  3
CANNOSCALE
350
2B0
  3
CMLEADERSTYLE
350
2A8
  3
CTABLESTYLE
350
2A7
  3
DIMASSOC
350
2AB
  3
HIDETEXT
350
2AC
  3
MSLTSCALE
350
2B1
  0
XRECORD
  5
2AD
102
{ACAD_REACTORS
330
C
102
}
330
C
100
AcDbXrecord
  1
DWGPROPS COOKIE
  2

  3

  4

  6

  7

  8
user
  9

300
=
301
=
302
=
303
=
304
=
305
=
306
=
307
=
308
=
309
=
 40
0.0
 41
2460674.295231713
 42
2460674.295235255
  1

 90
        0
  0
XRECORD
  5
2AF
102
{ACAD_REACTORS
330
2AE
102
}
330
2AE
100
AcDbXrecord
102
VTR_0.000_0.000_1.000_1.000_VISUALSTYLE
340
2F
102
VTR_0.000_0.000_1.000_1.000_GRIDDISPLAY
 70
     3
102
VTR_0.000_0.000_1.000_1.000_GRIDMAJOR
 70
     5
102
VTR_0.000_0.000_1.000_1.000_DEFAULTLIGHTING
280
     1
102
VTR_0.000_0.000_1.000_1.000_DEFAULTLIGHTINGTYPE
 70
     1
102
VTR_0.000_0.000_1.000_1.000_BRIGHTNESS
141
0.0
102
VTR_0.000_0.000_1.000_1.000_CONTRAST
142
0.0
  0
MATERIAL
  5
45
102
{ACAD_REACTORS
330
43
102
}
102
{ACAD_XDICTIONARY
360
2B4
102
}
330
43
100
AcDbMaterial
  1
BYBLOCK
  0
MATERIAL
  5
44
102
{ACAD_REACTORS
330
43
102
}
102
{ACAD_XDICTIONARY
360
2B2
102
}
330
43
100
AcDbMaterial
  1
BYLAYER
  0
MATERIAL
  5
46
102
{ACAD_REACTORS
330
43
102
}
102
{ACAD_XDICTIONARY
360
2B6
102
}
330
43
100
AcDbMaterial
  1
GLOBAL
  0
ACAD_PROXY_OBJECT
  5
5C
102
{ACAD_REACTORS
330
5B
102
}
330
5B
100
AcDbProxyObject
 90
      499
 91
      505
 93
      610
310
40901902A4063FBFFFFFE056BD1B81E855B9FC0AD7A3703D0AD73F4214DD185B99185C9900AD7A3703D0AC73F90141901A02B5E8DC0F42B1CFC02B5E8DC0F42B1CFE5764000000000000300FC0
340
14
340
0
340
11
340
0
 94
        0
1001
ACAD_MLEADERVER
1070
     2
  0
MLINESTYLE
  5
18
102
{ACAD_REACTORS
330
17
102
}
330
17
100
AcDbMlineStyle
  2
Standard
 70
     0
  3

 62
   256
 51
90.0
 52
90.0
 71
     2
 49
0.5
 62
   256
  6
BYLAYER
 49
-0.5
 62
   256
  6
BYLAYER
  0
ACAD_PROXY_OBJECT
  5
48
102
{ACAD_REACTORS
330
47
102
}
330
47
100
AcDbProxyObject
 90
      499
 91
      503
 93
       41
310
903313A31580
  0
ACAD_PROXY_OBJECT
  5
49
102
{ACAD_REACTORS
330
47
102
}
330
47
100
AcDbProxyObject
 90
      499
 91
      503
 93
      257
310
90E312F31323822203D2031272D3022000000000000200FC000000000000284000
  0
ACAD_PROXY_OBJECT
  5
4A
102
{ACAD_REACTORS
330
47
102
}
330
47
100
AcDbProxyObject
 90
      499
 91
      503
 93
      249
310
90D312F363422203D2031272D3022000000000000240FC000000000000284000
  0
ACAD_PROXY_OBJECT
  5
4B
102
{ACAD_REACTORS
330
47
102
}
330
47
100
AcDbProxyObject
 90
      499
 91
      503
 93
      249
310
90D312F333222203D2031272D3022000000000000280FC000000000000284000
  0
ACAD_PROXY_OBJECT
  5
4C
102
{ACAD_REACTORS
330
47
102
}
330
47
100
AcDbProxyObject
 90
      499
 91
      503
 93
      249
310
90D312F313622203D2031272D30220000000000002C0FC000000000000284000
  0
ACAD_PROXY_OBJECT
  5
4D
102
{ACAD_REACTORS
330
47
102
}
330
47
100
AcDbProxyObject
 90
      499
 91
      503
 93
      249
310
90D332F333222203D2031272D30220000000000002E0FC000000000000284000
  0
ACAD_PROXY_OBJECT
  5
4E
102
{ACAD_REACTORS
330
47
102
}
330
47
100
AcDbProxyObject
 90
      499
 91
      503
 93
      241
310
90C312F3822203D2031272D3022000000000000300FC000000000000284000
  0
ACAD_PROXY_OBJECT
  5
4F
102
{ACAD_REACTORS
330
47
102
}
330
47
100
AcDbProxyObject
 90
      499
 91
      503
 93
      249
310
90D332F313622203D2031272D3022000000000000320FC000000000000284000
  0
ACAD_PROXY_OBJECT
  5
50
102
{ACAD_REACTORS
330
47
102
}
330
47
100
AcDbProxyObject
 90
      499
 91
      503
 93
      241
310
90C312F3422203D2031272D3022000000000000340FC000000000000284000
  0
ACAD_PROXY_OBJECT
  5
51
102
{ACAD_REACTORS
330
47
102
}
330
47
100
AcDbProxyObject
 90
      499
 91
      503
 93
      241
310
90C332F3822203D2031272D3022000000000000360FC000000000000284000
  0
ACAD_PROXY_OBJECT
  5
52
102
{ACAD_REACTORS
330
47
102
}
330
47
100
AcDbProxyObject
 90
      499
 91
      503
 93
      241
310
90C312F3222203D2031272D3022000000000000380FC000000000000284000
  0
ACAD_PROXY_OBJECT
  5
53
102
{ACAD_REACTORS
330
47
102
}
330
47
100
AcDbProxyObject
 90
      499
 91
      503
 93
      241
310
90C332F3422203D2031272D30220000000000003A0FC000000000000284000
  0
ACAD_PROXY_OBJECT
  5
54
102
{ACAD_REACTORS
330
47
102
}
330
47
100
AcDbProxyObject
 90
      499
 91
      503
 93
      161
310
90A3122203D2031272D30224000000000000284000
  0
ACAD_PROXY_OBJECT
  5
55
102
{ACAD_REACTORS
330
47
102
}
330
47
100
AcDbProxyObject
 90
      499
 91
      503
 93
      257
310
90E312D312F3222203D2031272D30220000000000003E0FC000000000000284000
  0
ACAD_PROXY_OBJECT
  5
56
102
{ACAD_REACTORS
330
47
102
}
330
47
100
AcDbProxyObject
 90
      499
 91
      503
 93
      225
310
90A3322203D2031272D302200000000000002100000000000000284000
  0
ACAD_PROXY_OBJECT
  5
57
102
{ACAD_REACTORS
330
47
102
}
330
47
100
AcDbProxyObject
 90
      499
 91
      503
 93
      225
310
90A3622203D2031272D302200000000000006100000000000000284000
  0
ACAD_PROXY_OBJECT
  5
58
102
{ACAD_REACTORS
330
47
102
}
330
47
100
AcDbProxyObject
 90
      499
 91
      503
 93
      249
310
90D31272D3022203D2031272D30220000000000000A100000000000000284000
  0
ACAD_PROXY_OBJECT
  5
2F
102
{ACAD_REACTORS
330
2A
102
}
330
2A
100
AcDbProxyObject
 90
      499
 91
      501
 93
      436
310
42CC9915DA5C99599C985B595049028333333333333E33F0000000000000F90107901411070040501600405405064090741402480A0340
1001
ACAD
1000
AcDbSavedByObjectVersion
1070
     0
  0
ACAD_PROXY_OBJECT
  5
32
102
{ACAD_REACTORS
330
2A
102
}
330
2A
100
AcDbProxyObject
 90
      499
 91
      501
 93
      388
310
4150985CDA58D07406404333333333333E33F0000000000000F90107A41107004050150841D405064090741402480A0350
1001
ACAD
1000
AcDbSavedByObjectVersion
1070
     0
  0
ACAD_PROXY_OBJECT
  5
36
102
{ACAD_REACTORS
330
2A
102
}
330
2A
100
AcDbProxyObject
 90
      499
 91
      501
 93
      428
310
42109C9A59DA1D195B90C409028333333333333E33F0000000000000F9010790141107004050150841D405064090741402480A029950
1001
ACAD
1000
AcDbSavedByObjectVersion
1070
     0
  0
ACAD_PROXY_OBJECT
  5
3A
102
{ACAD_REACTORS
330
2A
102
}
330
2A
100
AcDbProxyObject
 90
      499
 91
      501
 93
      452
310
42D0DBDB1BDC90DA185B99D95104090240C333333333333E33F0000000000000F90108901411070040501508421405064090741402480A0350
1001
ACAD
1000
AcDbSavedByObjectVersion
1070
     0
  0
ACAD_PROXY_OBJECT
  5
34
102
{ACAD_REACTORS
330
2A
102
}
330
2A
100
AcDbProxyObject
 90
      499
 91
      501
 93
      500
310
4290DBDB98D95C1D1D585B10940D028333333333333E33F0000000000000F90107902409070040501000000000018199010841D405064090740C02480A0340
1001
ACAD
1000
AcDbSavedByObjectVersion
1070
     0
  0
ACAD_PROXY_OBJECT
  5
35
102
{ACAD_REACTORS
330
2A
102
}
330
2A
100
AcDbProxyObject
 90
      499
 91
      501
 93
      412
310
40D11A5B50B409028333333333333E33F0000000000000F9010790141107004050150841D405064090741402480A02677FFFFFD0
1001
ACAD
1000
AcDbSavedByObjectVersion
1070
     0
  0
ACAD_PROXY_OBJECT
  5
3D
102
{ACAD_REACTORS
330
2A
102
}
330
2A
100
AcDbProxyObject
 90
      499
 91
      501
 93
      452
310
43115919D950DBDB1BDC93D999916409028333333333333E33F0000000000000F9010790141107004050150841D405064090741402480A0350
1001
ACAD
1000
AcDbSavedByObjectVersion
1070
     0
  0
ACAD_PROXY_OBJECT
  5
39
102
{ACAD_REACTORS
330
2A
102
}
330
2A
100
AcDbProxyObject
 90
      499
 91
      501
 93
      444
310
42D19858D95C185D1D195C9B90F409028333333333333E33F0000000000000F9010790141107004050150841D405064090741402480A0350
1001
ACAD
1000
AcDbSavedByObjectVersion
1070
     0
  0
ACAD_PROXY_OBJECT
  5
2B
102
{ACAD_REACTORS
330
2A
102
}
330
2A
100
AcDbProxyObject
 90
      499
 91
      501
 93
      380
310
41119B185D240901404333333333333E33F0000000000000F9010740A907004050150841D405064090741402480A1B50
1001
ACAD
1000
AcDbSavedByObjectVersion
1070
     0
  0
ACAD_PROXY_OBJECT
  5
2C
102
{ACAD_REACTORS
330
2A
102
}
330
2A
100
AcDbProxyObject
 90
      499
 91
      501
 93
      468
310
43519B185D15DA5D1A115919D95CD0140901404333333333333E33F0000000000000F90107409019070040501600405405064090741402480A1B50
1001
ACAD
1000
AcDbSavedByObjectVersion
1070
     0
  0
ACAD_PROXY_OBJECT
  5
2D
102
{ACAD_REACTORS
330
2A
102
}
330
2A
100
AcDbProxyObject
 90
      499
 91
      501
 93
      404
310
41D1DBDD5C985D5910240902404333333333333E33F0000000000000F9010740A9070040501641D405064090741402480A1B50
1001
ACAD
1000
AcDbSavedByObjectVersion
1070
     0
  0
ACAD_PROXY_OBJECT
  5
2E
102
{ACAD_REACTORS
330
2A
102
}
330
2A
100
AcDbProxyObject
 90
      499
 91
      501
 93
      492
310
4411DBDD5C985D5915DA5D1A115919D95CD0340902404333333333333E33F0000000000000F90107409019070040501600405405064090741402480A1B50
1001
ACAD
1000
AcDbSavedByObjectVersion
1070
     0
  0
ACAD_PROXY_OBJECT
  5
31
102
{ACAD_REACTORS
330
2A
102
}
330
2A
100
AcDbProxyObject
 90
      499
 91
      501
 93
      476
310
41921A5919195B90640502408333333333333E33F0000000000000F901079024090700405020000000000001110200405405064090740C02480A0340
1001
ACAD
1000
AcDbSavedByObjectVersion
1070
     0
  0
ACAD_PROXY_OBJECT
  5
3B
102
{ACAD_REACTORS
330
2A
102
}
330
2A
100
AcDbProxyObject
 90
      499
 91
      501
 93
      428
310
42529A5D1D195C93D999914409028333333333333E33F0000000000000F9010790141107004050150A41D405064090741402480A0350
1001
ACAD
1000
AcDbSavedByObjectVersion
1070
     0
  0
ACAD_PROXY_OBJECT
  5
38
102
{ACAD_REACTORS
330
2A
102
}
330
2A
100
AcDbProxyObject
 90
      499
 91
      501
 93
      444
310
42D31A5B995C185D1D195C9B90E409028333333333333E33F0000000000000F9010790141107004050750841D405064090741402483A0350
1001
ACAD
1000
AcDbSavedByObjectVersion
1070
     0
  0
ACAD_PROXY_OBJECT
  5
3C
102
{ACAD_REACTORS
330
2A
102
}
330
2A
100
AcDbProxyObject
 90
      499
 91
      501
 93
      444
310
42D3DD995C9A185B99D3D999915409028333333333333E33F0000000000000F9010790141107004050150941D405064090741402480A0350
1001
ACAD
1000
AcDbSavedByObjectVersion
1070
     0
  0
ACAD_PROXY_OBJECT
  5
33
102
{ACAD_REACTORS
330
2A
102
}
330
2A
100
AcDbProxyObject
 90
      499
 91
      501
 93
      428
310
425499585B1A5CDD1A58D08409038333333333333E33F0000000000000F9010740A907004050150800405405064090740C02480A1B40
1001
ACAD
1000
AcDbSavedByObjectVersion
1070
     0
  0
ACAD_PROXY_OBJECT
  5
42
102
{ACAD_REACTORS
330
2A
102
}
330
2A
100
AcDbProxyObject
 90
      499
 91
      501
 93
      420
310
4194DA1859195911B40902404333333333333E33F0000000000000F9010740A41107004050150800405405064090840C02480A0B40
1001
ACAD
1000
AcDbSavedByObjectVersion
1070
     0
  0
ACAD_PROXY_OBJECT
  5
41
102
{ACAD_REACTORS
330
2A
102
}
330
2A
100
AcDbProxyObject
 90
      499
 91
      501
 93
      516
310
4454DA18591959081DDA5D1A08195919D95CD1A40902404333333333333E33F0000000000000F901074090142907004050250800405405064090740C02480A0B40
1001
ACAD
1000
AcDbSavedByObjectVersion
1070
     0
  0
ACAD_PROXY_OBJECT
  5
3E
102
{ACAD_REACTORS
330
2A
102
}
330
2A
100
AcDbProxyObject
 90
      499
 91
      501
 93
      532
310
4394DA1859195CC81BD98811DC985E5174090240C333333333333E33F0000000000000F901079024090741D01000000000000111010841D405064090740C02480A0340
1001
ACAD
1000
AcDbSavedByObjectVersion
1070
     0
  0
ACAD_PROXY_OBJECT
  5
3F
102
{ACAD_REACTORS
330
2A
102
}
330
2A
100
AcDbProxyObject
 90
      499
 91
      501
 93
      476
310
41D4DAD95D18DA1E51840502408333333333333E33F0000000000000F901079024090741D01000000000000111010B41D405064090741802480A0340
1001
ACAD
1000
AcDbSavedByObjectVersion
1070
     0
  0
ACAD_PROXY_OBJECT
  5
37
102
{ACAD_REACTORS
330
2A
102
}
330
2A
100
AcDbProxyObject
 90
      499
 91
      501
 93
      412
310
41D51A1A58DAD95B90D409028333333333333E33F0000000000000F9010790141107004050150C41D405064090741402480A0350
1001
ACAD
1000
AcDbSavedByObjectVersion
1070
     0
  0
ACAD_PROXY_OBJECT
  5
30
102
{ACAD_REACTORS
330
2A
102
}
330
2A
100
AcDbProxyObject
 90
      499
 91
      501
 93
      420
310
4255DA5C99599C985B595059028333333333333E33F0000000000000F90107901411070040501600405405064090740C02480A0340
1001
ACAD
1000
AcDbSavedByObjectVersion
1070
     0
  0
ACAD_PROXY_OBJECT
  5
40
102
{ACAD_REACTORS
330
2A
102
}
330
2A
100
AcDbProxyObject
 90
      499
 91
      501
 93
      404
310
41560B54985E51940902404000000000000E03F0000000000000F9010740501907004050150841D405064090740C02480A1B40
1001
ACAD
1000
AcDbSavedByObjectVersion
1070
     0
  0
XRECORD
  5
28F
102
{ACAD_REACTORS
330
285
102
}
330
285
100
AcDbXrecord
340
0
  0
XRECORD
  5
28E
102
{ACAD_REACTORS
330
285
102
}
330
285
100
AcDbXrecord
 90
        0
  0
XRECORD
  5
2A5
102
{ACAD_REACTORS
330
285
102
}
330
285
100
AcDbXrecord
1000
DSTYLE
1002
{
1070
   171
 70
     2
1070
   143
 40
25.4
1070
   274
 70
     2
1070
    41
 40
0.18
1070
   141
 40
0.09
1070
   271
 70
     4
1070
    43
 40
0.38
1070
   278
 70
    46
1070
    44
 40
0.18
1070
    42
 40
0.0625
1070
   147
 40
0.09
1070
    77
 70
     0
1070
   272
 70
     4
1070
    73
 70
     1
1070
   172
 70
     0
1070
    74
 70
     1
1070
   283
 70
     1
1070
   340
340
11
1070
   140
 40
0.18
1070
   284
 70
     0
1070
    78
 70
     0
1002
}
  0
XRECORD
  5
290
102
{ACAD_REACTORS
330
285
102
}
330
285
100
AcDbXrecord
  1
{4610f337-b027-bf47-b926-8c5059704b2c}
  0
XRECORD
  5
288
102
{ACAD_REACTORS
330
285
102
}
330
285
100
AcDbXrecord
  1

  0
XRECORD
  5
28D
102
{ACAD_REACTORS
330
285
102
}
330
285
100
AcDbXrecord
 90
        4
  0
XRECORD
  5
28A
102
{ACAD_REACTORS
330
285
102
}
330
285
100
AcDbXrecord
340
1A
  0
XRECORD
  5
28C
102
{ACAD_REACTORS
330
285
102
}
330
285
100
AcDbXrecord
 90
    10781
  0
XRECORD
  5
28B
102
{ACAD_REACTORS
330
285
102
}
330
285
100
AcDbXrecord
340
19
  0
XRECORD
  5
292
102
{ACAD_REACTORS
330
285
102
}
330
285
100
AcDbXrecord
 40
0.0
  0
XRECORD
  5
295
102
{ACAD_REACTORS
330
285
102
}
330
285
100
AcDbXrecord
340
0
  0
XRECORD
  5
29B
102
{ACAD_REACTORS
330
285
102
}
330
285
100
AcDbXrecord
 10
0.0
 20
0.0
 30
0.0
  0
XRECORD
  5
297
102
{ACAD_REACTORS
330
285
102
}
330
285
100
AcDbXrecord
 10
0.0
 20
0.0
 30
0.0
  0
XRECORD
  5
29A
102
{ACAD_REACTORS
330
285
102
}
330
285
100
AcDbXrecord
 10
0.0
 20
0.0
 30
0.0
  0
XRECORD
  5
298
102
{ACAD_REACTORS
330
285
102
}
330
285
100
AcDbXrecord
 10
0.0
 20
0.0
 30
0.0
  0
XRECORD
  5
299
102
{ACAD_REACTORS
330
285
102
}
330
285
100
AcDbXrecord
 10
0.0
 20
0.0
 30
0.0
  0
XRECORD
  5
296
102
{ACAD_REACTORS
330
285
102
}
330
285
100
AcDbXrecord
 10
0.0
 20
0.0
 30
0.0
  0
XRECORD
  5
293
102
{ACAD_REACTORS
330
285
102
}
330
285
100
AcDbXrecord
340
0
  0
XRECORD
  5
294
102
{ACAD_REACTORS
330
285
102
}
330
285
100
AcDbXrecord
 70
     0
  0
XRECORD
  5
289
102
{ACAD_REACTORS
330
285
102
}
330
285
100
AcDbXrecord
  1

  0
XRECORD
  5
286
102
{ACAD_REACTORS
330
285
102
}
330
285
100
AcDbXrecord
 90
        1
  0
XRECORD
  5
287
102
{ACAD_REACTORS
330
285
102
}
330
285
100
AcDbXrecord
 90
       70
  0
XRECORD
  5
29E
102
{ACAD_REACTORS
330
285
102
}
330
285
100
AcDbXrecord
340
0
  0
XRECORD
  5
2A4
102
{ACAD_REACTORS
330
285
102
}
330
285
100
AcDbXrecord
 10
0.0
 20
0.0
 30
0.0
  0
XRECORD
  5
2A0
102
{ACAD_REACTORS
330
285
102
}
330
285
100
AcDbXrecord
 10
0.0
 20
0.0
 30
0.0
  0
XRECORD
  5
2A3
102
{ACAD_REACTORS
330
285
102
}
330
285
100
AcDbXrecord
 10
0.0
 20
0.0
 30
0.0
  0
XRECORD
  5
2A1
102
{ACAD_REACTORS
330
285
102
}
330
285
100
AcDbXrecord
 10
0.0
 20
0.0
 30
0.0
  0
XRECORD
  5
2A2
102
{ACAD_REACTORS
330
285
102
}
330
285
100
AcDbXrecord
 10
0.0
 20
0.0
 30
0.0
  0
XRECORD
  5
29F
102
{ACAD_REACTORS
330
285
102
}
330
285
100
AcDbXrecord
 10
0.0
 20
0.0
 30
0.0
  0
XRECORD
  5
29C
102
{ACAD_REACTORS
330
285
102
}
330
285
100
AcDbXrecord
340
0
  0
XRECORD
  5
29D
102
{ACAD_REACTORS
330
285
102
}
330
285
100
AcDbXrecord
 70
     0
  0
XRECORD
  5
291
102
{ACAD_REACTORS
330
285
102
}
330
285
100
AcDbXrecord
  1
{FAEB1C32-E019-11D5-929B-00C0DF256EC4}
  0
DICTIONARYVAR
  5
2B0
102
{ACAD_REACTORS
330
2A6
102
}
330
2A6
100
DictionaryVariables
280
     0
  1
1:1
  0
DICTIONARYVAR
  5
2A8
102
{ACAD_REACTORS
330
2A6
102
}
330
2A6
100
DictionaryVariables
280
     0
  1
Standard
  0
DICTIONARYVAR
  5
2A7
102
{ACAD_REACTORS
330
2A6
102
}
330
2A6
100
DictionaryVariables
280
     0
  1
Standard
  0
DICTIONARYVAR
  5
2AB
102
{ACAD_REACTORS
330
2A6
102
}
330
2A6
100
DictionaryVariables
280
     0
  1
2
  0
DICTIONARYVAR
  5
2AC
102
{ACAD_REACTORS
330
2A6
102
}
330
2A6
100
DictionaryVariables
280
     0
  1
1
  0
DICTIONARYVAR
  5
2B1
102
{ACAD_REACTORS
330
2A6
102
}
330
2A6
100
DictionaryVariables
280
     0
  1
1
  0
DICTIONARY
  5
2B4
330
45
100
AcDbDictionary
280
     1
  3
ACAD_XREC_ROUNDTRIP
360
2B5
  0
DICTIONARY
  5
2B2
330
44
100
AcDbDictionary
280
     1
  3
ACAD_XREC_ROUNDTRIP
360
2B3
  0
DICTIONARY
  5
2B6
330
46
100
AcDbDictionary
280
     1
  3
ACAD_XREC_ROUNDTRIP
360
2B7
  0
XRECORD
  5
2B5
102
{ACAD_REACTORS
330
2B4
102
}
330
2B4
100
AcDbXrecord
102
MATERIAL
148
0.0
149
0.0
149
0.0
 93
        0
 94
      127
282
     0
 72
     1
 77
     1
171
     1
175
     1
179
     1
273
     0
  0
XRECORD
  5
2B3
102
{ACAD_REACTORS
330
2B2
102
}
330
2B2
100
AcDbXrecord
102
MATERIAL
148
0.0
149
0.0
149
0.0
 93
        0
 94
      127
282
     0
 72
     1
 77
     1
171
     1
175
     1
179
     1
273
     0
  0
XRECORD
  5
2B7
102
{ACAD_REACTORS
330
2B6
102
}
330
2B6
100
AcDbXrecord
102
MATERIAL
148
0.0
149
0.0
149
0.0
 93
        0
 94
      127
282
     0
 72
     1
 77
     1
171
     1
175
     1
179
     1
273
     0
  0
ENDSEC
  0
EOF
