  0
SECTION
  2
HEADER
  9
$ACADVER
  1
AC1014
  9
$ACADMAINTVER
 70
     9
  9
$DWGCODEPAGE
  3
CNT
  9
$INSBASE
 10
0.0
 20
0.0
 30
0.0
  9
$EXTMIN
 10
1.000000000000000E+20
 20
1.000000000000000E+20
 30
1.000000000000000E+20
  9
$EXTMAX
 10
-1.000000000000000E+20
 20
-1.000000000000000E+20
 30
-1.000000000000000E+20
  9
$LIMMIN
 10
0.0
 20
0.0
  9
$LIMMAX
 10
12.0
 20
9.0
  9
$ORTHOMODE
 70
     0
  9
$REGENMODE
 70
     1
  9
$FILLMODE
 70
     1
  9
$QTEXTMODE
 70
     0
  9
$MIRRTEXT
 70
     1
  9
$DRAGMODE
 70
     2
  9
$LTSCALE
 40
1.0
  9
$OSMODE
 70
    37
  9
$ATTMODE
 70
     1
  9
$TEXTSIZE
 40
0.2
  9
$TRACEWID
 40
0.05
  9
$TEXTSTYLE
  7
STANDARD
  9
$CLAYER
  8
0
  9
$CELTYPE
  6
BYLAYER
  9
$CECOLOR
 62
   256
  9
$CELTSCALE
 40
1.0
  9
$DELOBJ
 70
     1
  9
$DISPSILH
 70
     0
  9
$DIMSCALE
 40
1.0
  9
$DIMASZ
 40
0.18
  9
$DIMEXO
 40
0.0625
  9
$DIMDLI
 40
0.38
  9
$DIMRND
 40
0.0
  9
$DIMDLE
 40
0.0
  9
$DIMEXE
 40
0.18
  9
$DIMTP
 40
0.0
  9
$DIMTM
 40
0.0
  9
$DIMTXT
 40
0.18
  9
$DIMCEN
 40
0.09
  9
$DIMTSZ
 40
0.0
  9
$DIMTOL
 70
     0
  9
$DIMLIM
 70
     0
  9
$DIMTIH
 70
     1
  9
$DIMTOH
 70
     1
  9
$DIMSE1
 70
     0
  9
$DIMSE2
 70
     0
  9
$DIMTAD
 70
     0
  9
$DIMZIN
 70
     0
  9
$DIMBLK
  1

  9
$DIMASO
 70
     1
  9
$DIMSHO
 70
     1
  9
$DIMPOST
  1

  9
$DIMAPOST
  1

  9
$DIMALT
 70
     0
  9
$DIMALTD
 70
     2
  9
$DIMALTF
 40
25.4
  9
$DIMLFAC
 40
1.0
  9
$DIMTOFL
 70
     0
  9
$DIMTVP
 40
0.0
  9
$DIMTIX
 70
     0
  9
$DIMSOXD
 70
     0
  9
$DIMSAH
 70
     0
  9
$DIMBLK1
  1

  9
$DIMBLK2
  1

  9
$DIMSTYLE
  2
STANDARD
  9
$DIMCLRD
 70
     0
  9
$DIMCLRE
 70
     0
  9
$DIMCLRT
 70
     0
  9
$DIMTFAC
 40
1.0
  9
$DIMGAP
 40
0.09
  9
$DIMJUST
 70
     0
  9
$DIMSD1
 70
     0
  9
$DIMSD2
 70
     0
  9
$DIMTOLJ
 70
     1
  9
$DIMTZIN
 70
     0
  9
$DIMALTZ
 70
     0
  9
$DIMALTTZ
 70
     0
  9
$DIMFIT
 70
     3
  9
$DIMUPT
 70
     0
  9
$DIMUNIT
 70
     2
  9
$DIMDEC
 70
     4
  9
$DIMTDEC
 70
     4
  9
$DIMALTU
 70
     2
  9
$DIMALTTD
 70
     2
  9
$DIMTXSTY
  7
STANDARD
  9
$DIMAUNIT
 70
     0
  9
$LUNITS
 70
     2
  9
$LUPREC
 70
     4
  9
$SKETCHINC
 40
0.1
  9
$FILLETRAD
 40
0.0
  9
$AUNITS
 70
     0
  9
$AUPREC
 70
     0
  9
$MENU
  1
.
  9
$ELEVATION
 40
0.0
  9
$PELEVATION
 40
0.0
  9
$THICKNESS
 40
0.0
  9
$LIMCHECK
 70
     0
  9
$CHAMFERA
 40
0.0
  9
$CHAMFERB
 40
0.0
  9
$CHAMFERC
 40
0.0
  9
$CHAMFERD
 40
0.0
  9
$SKPOLY
 70
     0
  9
$TDCREATE
 40
2460703.975887882
  9
$TDUPDATE
 40
2460703.975890891
  9
$TDINDWG
 40
0.0000000116
  9
$TDUSRTIMER
 40
0.0000000116
  9
$USRTIMER
 70
     1
  9
$ANGBASE
 50
0.0
  9
$ANGDIR
 70
     0
  9
$PDMODE
 70
     0
  9
$PDSIZE
 40
0.0
  9
$PLINEWID
 40
0.0
  9
$COORDS
 70
     1
  9
$SPLFRAME
 70
     0
  9
$SPLINETYPE
 70
     6
  9
$SPLINESEGS
 70
     8
  9
$ATTDIA
 70
     0
  9
$ATTREQ
 70
     1
  9
$HANDLING
 70
     1
  9
$HANDSEED
  5
1CC
  9
$SURFTAB1
 70
     6
  9
$SURFTAB2
 70
     6
  9
$SURFTYPE
 70
     6
  9
$SURFU
 70
     6
  9
$SURFV
 70
     6
  9
$UCSNAME
  2

  9
$UCSORG
 10
0.0
 20
0.0
 30
0.0
  9
$UCSXDIR
 10
1.0
 20
0.0
 30
0.0
  9
$UCSYDIR
 10
0.0
 20
1.0
 30
0.0
  9
$PUCSNAME
  2

  9
$PUCSORG
 10
0.0
 20
0.0
 30
0.0
  9
$PUCSXDIR
 10
1.0
 20
0.0
 30
0.0
  9
$PUCSYDIR
 10
0.0
 20
1.0
 30
0.0
  9
$USERI1
 70
     0
  9
$USERI2
 70
     0
  9
$USERI3
 70
     0
  9
$USERI4
 70
     0
  9
$USERI5
 70
     0
  9
$USERR1
 40
0.0
  9
$USERR2
 40
0.0
  9
$USERR3
 40
0.0
  9
$USERR4
 40
0.0
  9
$USERR5
 40
0.0
  9
$WORLDVIEW
 70
     1
  9
$SHADEDGE
 70
     3
  9
$SHADEDIF
 70
    70
  9
$TILEMODE
 70
     1
  9
$MAXACTVP
 70
    64
  9
$PINSBASE
 10
0.0
 20
0.0
 30
0.0
  9
$PLIMCHECK
 70
     0
  9
$PEXTMIN
 10
1.000000000000000E+20
 20
1.000000000000000E+20
 30
1.000000000000000E+20
  9
$PEXTMAX
 10
-1.000000000000000E+20
 20
-1.000000000000000E+20
 30
-1.000000000000000E+20
  9
$PLIMMIN
 10
0.0
 20
0.0
  9
$PLIMMAX
 10
12.0
 20
9.0
  9
$UNITMODE
 70
     0
  9
$VISRETAIN
 70
     1
  9
$PLINEGEN
 70
     0
  9
$PSLTSCALE
 70
     1
  9
$TREEDEPTH
 70
  3020
  9
$PICKSTYLE
 70
     1
  9
$CMLSTYLE
  2
STANDARD
  9
$CMLJUST
 70
     0
  9
$CMLSCALE
 40
1.0
  9
$PROXYGRAPHICS
 70
     1
  9
$MEASUREMENT
 70
     1
  0
ENDSEC
  0
SECTION
  2
CLASSES
  0
CLASS
  1
ACDBDICTIONARYWDFLT
  2
AcDbDictionaryWithDefault
  3
ObjectDBX Classes
 90
        0
280
     0
281
     0
  0
CLASS
  1
VISUALSTYLE
  2
AcDbVisualStyle
  3
ObjectDBX Classes
 90
     4095
280
     0
281
     0
  0
CLASS
  1
MATERIAL
  2
AcDbMaterial
  3
ObjectDBX Classes
 90
     1153
280
     0
281
     0
  0
CLASS
  1
SCALE
  2
AcDbScale
  3
ObjectDBX Classes
 90
     1153
280
     0
281
     0
  0
CLASS
  1
TABLESTYLE
  2
AcDbTableStyle
  3
ObjectDBX Classes
 90
     4095
280
     0
281
     0
  0
CLASS
  1
MLEADERSTYLE
  2
AcDbMLeaderStyle
  3
ACDB_MLEADERSTYLE_CLASS
 90
     4095
280
     0
281
     0
  0
CLASS
  1
SUN
  2
AcDbSun
  3
SCENEOE
 90
     1153
280
     0
281
     0
  0
CLASS
  1
DICTIONARYVAR
  2
AcDbDictionaryVar
  3
ObjectDBX Classes
 90
        0
280
     0
281
     0
  0
CLASS
  1
XRECORD
  2
AcDbXrecord
  3
ObjectDBX Classes
 90
        0
280
     0
281
     0
  0
CLASS
  1
LWPOLYLINE
  2
AcDbPolyline
  3
ObjectDBX Classes
 90
        0
280
     0
281
     1
  0
CLASS
  1
HATCH
  2
AcDbHatch
  3
ObjectDBX Classes
 90
        0
280
     0
281
     1
  0
CLASS
  1
ACDBPLACEHOLDER
  2
AcDbPlaceHolder
  3
ObjectDBX Classes
 90
        0
280
     0
281
     0
  0
CLASS
  1
LAYOUT
  2
AcDbLayout
  3
ObjectDBX Classes
 90
        0
280
     0
281
     0
  0
ENDSEC
  0
SECTION
  2
TABLES
  0
TABLE
  2
VPORT
  5
8
102
{ACAD_XDICTIONARY
360
1C1
102
}
330
0
100
AcDbSymbolTable
 70
     1
  0
VPORT
  5
29
330
8
100
AcDbSymbolTableRecord
100
AcDbViewportTableRecord
  2
*ACTIVE
 70
     0
 10
0.0
 20
0.0
 11
1.0
 21
1.0
 12
0.0
 22
0.0
 13
0.0
 23
0.0
 14
0.5
 24
0.5
 15
0.5
 25
0.5
 16
0.0
 26
0.0
 36
1.0
 17
0.0
 27
0.0
 37
-1000.0
 40
188.9877267009123
 41
1.859708193041526
 42
50.0
 43
5378.69089718209
 44
26640.12732379731
 50
0.0
 51
0.0
 71
     0
 72
   100
 73
     1
 74
     3
 75
     0
 76
     0
 77
     0
 78
     0
  0
ENDTAB
  0
TABLE
  2
LTYPE
  5
5
330
0
100
AcDbSymbolTable
 70
     1
  0
LTYPE
  5
14
330
5
100
AcDbSymbolTableRecord
100
AcDbLinetypeTableRecord
  2
BYBLOCK
 70
     0
  3

 72
    65
 73
     0
 40
0.0
  0
LTYPE
  5
15
330
5
100
AcDbSymbolTableRecord
100
AcDbLinetypeTableRecord
  2
BYLAYER
 70
     0
  3

 72
    65
 73
     0
 40
0.0
  0
LTYPE
  5
16
330
5
100
AcDbSymbolTableRecord
100
AcDbLinetypeTableRecord
  2
CONTINUOUS
 70
     0
  3
Solid line
 72
    65
 73
     0
 40
0.0
  0
ENDTAB
  0
TABLE
  2
LAYER
  5
2
330
0
100
AcDbSymbolTable
 70
     3
  0
LAYER
  5
10
330
2
100
AcDbSymbolTableRecord
100
AcDbLayerTableRecord
  2
0
 70
     0
 62
     7
  6
CONTINUOUS
  0
LAYER
  5
5E
330
2
100
AcDbSymbolTableRecord
100
AcDbLayerTableRecord
  2
PROFILEEDGES
 70
     0
 62
     7
  6
CONTINUOUS
  0
LAYER
  5
5F
330
2
100
AcDbSymbolTableRecord
100
AcDbLayerTableRecord
  2
SECTIONCUTEDGES
 70
     0
 62
     7
  6
CONTINUOUS
  0
ENDTAB
  0
TABLE
  2
STYLE
  5
3
330
0
100
AcDbSymbolTable
 70
     1
  0
STYLE
  5
11
330
3
100
AcDbSymbolTableRecord
100
AcDbTextStyleTableRecord
  2
STANDARD
 70
     0
 40
0.0
 41
1.0
 50
0.0
 71
     0
 42
0.2
  3
txt
  4

  0
ENDTAB
  0
TABLE
  2
VIEW
  5
6
330
0
100
AcDbSymbolTable
 70
     0
  0
ENDTAB
  0
TABLE
  2
UCS
  5
7
330
0
100
AcDbSymbolTable
 70
     0
  0
ENDTAB
  0
TABLE
  2
APPID
  5
9
330
0
100
AcDbSymbolTable
 70
     2
  0
APPID
  5
12
330
9
100
AcDbSymbolTableRecord
100
AcDbRegAppTableRecord
  2
ACAD
 70
     0
  0
APPID
  5
1CB
330
9
100
AcDbSymbolTableRecord
100
AcDbRegAppTableRecord
  2
ACAD_MLEADERVER
 70
     0
  0
ENDTAB
  0
TABLE
  2
DIMSTYLE
  5
A
330
0
100
AcDbSymbolTable
 70
     1
  0
DIMSTYLE
105
27
330
A
100
AcDbSymbolTableRecord
100
AcDbDimStyleTableRecord
  2
STANDARD
 70
     0
  3

  4

  5

  6

  7

 40
1.0
 41
0.18
 42
0.0625
 43
0.38
 44
0.18
 45
0.0
 46
0.0
 47
0.0
 48
0.0
140
0.18
141
0.09
142
0.0
143
25.4
144
1.0
145
0.0
146
1.0
147
0.09
 71
     0
 72
     0
 73
     1
 74
     1
 75
     0
 76
     0
 77
     0
 78
     0
170
     0
171
     2
172
     0
173
     0
174
     0
175
     0
176
     0
177
     0
178
     0
270
     2
271
     4
272
     4
273
     2
274
     2
340
11
275
     0
280
     0
281
     0
282
     0
283
     1
284
     0
285
     0
286
     0
287
     3
288
     0
  0
ENDTAB
  0
TABLE
  2
BLOCK_RECORD
  5
1
330
0
100
AcDbSymbolTable
 70
     0
  0
BLOCK_RECORD
  5
1F
330
1
100
AcDbSymbolTableRecord
100
AcDbBlockTableRecord
  2
*MODEL_SPACE
  0
BLOCK_RECORD
  5
1B
330
1
100
AcDbSymbolTableRecord
100
AcDbBlockTableRecord
  2
*PAPER_SPACE
  0
ENDTAB
  0
ENDSEC
  0
SECTION
  2
BLOCKS
  0
BLOCK
  5
20
330
1F
100
AcDbEntity
  8
0
100
AcDbBlockBegin
  2
*MODEL_SPACE
 70
     0
 10
0.0
 20
0.0
 30
0.0
  3
*MODEL_SPACE
  1

  0
ENDBLK
  5
21
330
1F
100
AcDbEntity
  8
0
100
AcDbBlockEnd
  0
BLOCK
  5
1C
330
1B
100
AcDbEntity
 67
     1
  8
0
100
AcDbBlockBegin
  2
*PAPER_SPACE
 70
     0
 10
0.0
 20
0.0
 30
0.0
  3
*PAPER_SPACE
  1

  0
ENDBLK
  5
1D
330
1B
100
AcDbEntity
 67
     1
  8
0
100
AcDbBlockEnd
  0
ENDSEC
  0
SECTION
  2
ENTITIES
  0
LINE
  5
60
330
1F
100
AcDbEntity
  8
0
100
AcDbLine
 10
65.45966145362252
 20
-15.75412890612979
 30
0.0
 11
64.22131648597427
 21
-16.71934847978997
 31
0.0
  0
LINE
  5
61
330
1F
100
AcDbEntity
  8
0
100
AcDbLine
 10
64.22131648597427
 20
-16.71934847978997
 30
0.0
 11
62.8888623828782
 21
-17.54983818316953
 31
0.0
  0
LINE
  5
62
330
1F
100
AcDbEntity
  8
0
100
AcDbLine
 10
62.8888623828782
 20
-17.54983818316953
 30
0.0
 11
61.47689779032189
 21
-18.23649899728711
 31
0.0
  0
LINE
  5
63
330
1F
100
AcDbEntity
  8
0
100
AcDbLine
 10
61.47689779032189
 20
-18.23649899728711
 30
0.0
 11
60.00089248785437
 21
-18.7718077225702
 31
0.0
  0
LINE
  5
64
330
1F
100
AcDbEntity
  8
0
100
AcDbLine
 10
60.00089248785437
 20
-18.7718077225702
 30
0.0
 11
58.47701789844256
 21
-19.14989940460406
 31
0.0
  0
LINE
  5
65
330
1F
100
AcDbEntity
  8
0
100
AcDbLine
 10
58.47701789844256
 20
-19.14989940460406
 30
0.0
 11
56.92196991098091
 21
-19.36663159179956
 31
0.0
  0
LINE
  5
66
330
1F
100
AcDbEntity
  8
0
100
AcDbLine
 10
56.92196991098091
 20
-19.36663159179956
 30
0.0
 11
55.35278595663318
 21
-19.41962972095966
 31
0.0
  0
LINE
  5
67
330
1F
100
AcDbEntity
  8
0
100
AcDbLine
 10
55.35278595663318
 20
-19.41962972095966
 30
0.0
 11
53.78665834317661
 21
-19.3083131334907
 31
0.0
  0
LINE
  5
68
330
1F
100
AcDbEntity
  8
0
100
AcDbLine
 10
53.78665834317661
 20
-19.3083131334907
 30
0.0
 11
52.24074589247741
 21
-19.03390143721948
 31
0.0
  0
LINE
  5
69
330
1F
100
AcDbEntity
  8
0
100
AcDbLine
 10
52.24074589247741
 20
-19.03390143721948
 30
0.0
 11
50.7319859448482
 21
-18.59940114411471
 31
0.0
  0
LINE
  5
6A
330
1F
100
AcDbEntity
  8
0
100
AcDbLine
 10
50.7319859448482
 20
-18.59940114411471
 30
0.0
 11
49.2769087900045
 21
-18.00957273031266
 31
0.0
  0
LINE
  5
6B
330
1F
100
AcDbEntity
  8
0
100
AcDbLine
 10
49.2769087900045
 20
-18.00957273031266
 30
0.0
 11
47.89145655774815
 21
-17.27087847934448
 31
0.0
  0
LINE
  5
6C
330
1F
100
AcDbEntity
  8
0
100
AcDbLine
 10
47.89145655774815
 20
-17.27087847934448
 30
0.0
 11
46.59080855266093
 21
-16.39141168000548
 31
0.0
  0
LINE
  5
6D
330
1F
100
AcDbEntity
  8
0
100
AcDbLine
 10
46.59080855266093
 20
-16.39141168000548
 30
0.0
 11
45.38921494646482
 21
-15.38080795458949
 31
0.0
  0
LINE
  5
6E
330
1F
100
AcDbEntity
  8
0
100
AcDbLine
 10
45.38921494646482
 20
-15.38080795458949
 30
0.0
 11
44.29984065015846
 21
-14.25013968899459
 31
0.0
  0
LINE
  5
6F
330
1F
100
AcDbEntity
  8
0
100
AcDbLine
 10
44.29984065015846
 20
-14.25013968899459
 30
0.0
 11
43.33462107649812
 21
-13.01179472134618
 31
0.0
  0
LINE
  5
70
330
1F
100
AcDbEntity
  8
0
100
AcDbLine
 10
43.33462107649812
 20
-13.01179472134618
 30
0.0
 11
42.50413137311842
 21
-11.67934061825016
 31
0.0
  0
LINE
  5
71
330
1F
100
AcDbEntity
  8
0
100
AcDbLine
 10
42.50413137311842
 20
-11.67934061825016
 30
0.0
 11
41.81747055900092
 21
-10.267376025694
 31
0.0
  0
LINE
  5
72
330
1F
100
AcDbEntity
  8
0
100
AcDbLine
 10
41.81747055900092
 20
-10.267376025694
 30
0.0
 11
41.28216183371791
 21
-8.791370723226322
 31
0.0
  0
LINE
  5
73
330
1F
100
AcDbEntity
  8
0
100
AcDbLine
 10
41.28216183371791
 20
-8.791370723226322
 30
0.0
 11
40.90407015168363
 21
-7.267496133814946
 31
0.0
  0
LINE
  5
74
330
1F
100
AcDbEntity
  8
0
100
AcDbLine
 10
40.90407015168363
 20
-7.267496133814946
 30
0.0
 11
40.68733796448817
 21
-5.712448146352705
 31
0.0
  0
LINE
  5
75
330
1F
100
AcDbEntity
  8
0
100
AcDbLine
 10
40.68733796448817
 20
-5.712448146352705
 30
0.0
 11
40.63433983532862
 21
-4.143264192004967
 31
0.0
  0
LINE
  5
76
330
1F
100
AcDbEntity
  8
0
100
AcDbLine
 10
40.63433983532862
 20
-4.143264192004967
 30
0.0
 11
40.74565642279699
 21
-2.577136578548398
 31
0.0
  0
LINE
  5
77
330
1F
100
AcDbEntity
  8
0
100
AcDbLine
 10
40.74565642279699
 20
-2.577136578548398
 30
0.0
 11
41.02006811906839
 21
-1.031224127849311
 31
0.0
  0
LINE
  5
78
330
1F
100
AcDbEntity
  8
0
100
AcDbLine
 10
41.02006811906839
 20
-1.031224127849311
 30
0.0
 11
41.45456841217312
 21
0.4775358197794534
 31
0.0
  0
LINE
  5
79
330
1F
100
AcDbEntity
  8
0
100
AcDbLine
 10
41.45456841217312
 20
0.4775358197794534
 30
0.0
 11
42.04439682597516
 21
1.932612974623363
 31
0.0
  0
LINE
  5
7A
330
1F
100
AcDbEntity
  8
0
100
AcDbLine
 10
42.04439682597516
 20
1.932612974623363
 30
0.0
 11
42.78309107694318
 21
3.318065206879484
 31
0.0
  0
LINE
  5
7B
330
1F
100
AcDbEntity
  8
0
100
AcDbLine
 10
42.78309107694318
 20
3.318065206879484
 30
0.0
 11
43.66255787628226
 21
4.618713211966682
 31
0.0
  0
LINE
  5
7C
330
1F
100
AcDbEntity
  8
0
100
AcDbLine
 10
43.66255787628226
 20
4.618713211966682
 30
0.0
 11
44.67316160169845
 21
5.820306818163147
 31
0.0
  0
LINE
  5
7D
330
1F
100
AcDbEntity
  8
0
100
AcDbLine
 10
44.67316160169845
 20
5.820306818163147
 30
0.0
 11
45.80382986729337
 21
6.909681114469752
 31
0.0
  0
LINE
  5
7E
330
1F
100
AcDbEntity
  8
0
100
AcDbLine
 10
45.80382986729337
 20
6.909681114469752
 30
0.0
 11
47.04217483494162
 21
7.874900688129929
 31
0.0
  0
LINE
  5
7F
330
1F
100
AcDbEntity
  8
0
100
AcDbLine
 10
47.04217483494162
 20
7.874900688129929
 30
0.0
 11
48.37462893803769
 21
8.705390391509496
 31
0.0
  0
LINE
  5
80
330
1F
100
AcDbEntity
  8
0
100
AcDbLine
 10
48.37462893803769
 20
8.705390391509496
 30
0.0
 11
49.786593530594
 21
9.39205120562707
 31
0.0
  0
LINE
  5
81
330
1F
100
AcDbEntity
  8
0
100
AcDbLine
 10
49.786593530594
 20
9.39205120562707
 30
0.0
 11
51.26259883306152
 21
9.927359930910164
 31
0.0
  0
LINE
  5
82
330
1F
100
AcDbEntity
  8
0
100
AcDbLine
 10
51.26259883306152
 20
9.927359930910164
 30
0.0
 11
52.78647342247334
 21
10.30545161294403
 31
0.0
  0
LINE
  5
83
330
1F
100
AcDbEntity
  8
0
100
AcDbLine
 10
52.78647342247334
 20
10.30545161294403
 30
0.0
 11
54.34152140993498
 21
10.52218380013953
 31
0.0
  0
LINE
  5
84
330
1F
100
AcDbEntity
  8
0
100
AcDbLine
 10
54.34152140993498
 20
10.52218380013953
 30
0.0
 11
55.91070536428271
 21
10.57518192929963
 31
0.0
  0
LINE
  5
85
330
1F
100
AcDbEntity
  8
0
100
AcDbLine
 10
55.91070536428271
 20
10.57518192929963
 30
0.0
 11
57.47683297773929
 21
10.46386534183066
 31
0.0
  0
LINE
  5
86
330
1F
100
AcDbEntity
  8
0
100
AcDbLine
 10
57.47683297773929
 20
10.46386534183066
 30
0.0
 11
59.02274542843848
 21
10.18945364555945
 31
0.0
  0
LINE
  5
87
330
1F
100
AcDbEntity
  8
0
100
AcDbLine
 10
59.02274542843848
 20
10.18945364555945
 30
0.0
 11
60.53150537606769
 21
9.754953352454681
 31
0.0
  0
LINE
  5
88
330
1F
100
AcDbEntity
  8
0
100
AcDbLine
 10
60.53150537606769
 20
9.754953352454681
 30
0.0
 11
61.98658253091139
 21
9.165124938652628
 31
0.0
  0
LINE
  5
89
330
1F
100
AcDbEntity
  8
0
100
AcDbLine
 10
61.98658253091139
 20
9.165124938652628
 30
0.0
 11
63.37203476316774
 21
8.426430687684448
 31
0.0
  0
LINE
  5
8A
330
1F
100
AcDbEntity
  8
0
100
AcDbLine
 10
63.37203476316774
 20
8.426430687684448
 30
0.0
 11
64.67268276825496
 21
7.54696388834545
 31
0.0
  0
LINE
  5
8B
330
1F
100
AcDbEntity
  8
0
100
AcDbLine
 10
64.67268276825496
 20
7.54696388834545
 30
0.0
 11
65.87427637445107
 21
6.536360162929464
 31
0.0
  0
LINE
  5
8C
330
1F
100
AcDbEntity
  8
0
100
AcDbLine
 10
65.87427637445107
 20
6.536360162929464
 30
0.0
 11
66.96365067075743
 21
5.405691897334555
 31
0.0
  0
LINE
  5
8D
330
1F
100
AcDbEntity
  8
0
100
AcDbLine
 10
66.96365067075743
 20
5.405691897334555
 30
0.0
 11
67.92887024441777
 21
4.167346929686149
 31
0.0
  0
LINE
  5
8E
330
1F
100
AcDbEntity
  8
0
100
AcDbLine
 10
67.92887024441777
 20
4.167346929686149
 30
0.0
 11
68.75935994779748
 21
2.834892826590136
 31
0.0
  0
LINE
  5
8F
330
1F
100
AcDbEntity
  8
0
100
AcDbLine
 10
68.75935994779748
 20
2.834892826590136
 30
0.0
 11
69.44602076191497
 21
1.422928234033964
 31
0.0
  0
LINE
  5
90
330
1F
100
AcDbEntity
  8
0
100
AcDbLine
 10
69.44602076191497
 20
1.422928234033964
 30
0.0
 11
69.98132948719798
 21
-0.0530770684337067
 31
0.0
  0
LINE
  5
91
330
1F
100
AcDbEntity
  8
0
100
AcDbLine
 10
69.98132948719798
 20
-0.0530770684337067
 30
0.0
 11
70.35942116923226
 21
-1.576951657845082
 31
0.0
  0
LINE
  5
92
330
1F
100
AcDbEntity
  8
0
100
AcDbLine
 10
70.35942116923226
 20
-1.576951657845082
 30
0.0
 11
70.57615335642772
 21
-3.131999645307323
 31
0.0
  0
LINE
  5
93
330
1F
100
AcDbEntity
  8
0
100
AcDbLine
 10
70.57615335642772
 20
-3.131999645307323
 30
0.0
 11
70.62915148558727
 21
-4.701183599655061
 31
0.0
  0
LINE
  5
94
330
1F
100
AcDbEntity
  8
0
100
AcDbLine
 10
70.62915148558727
 20
-4.701183599655061
 30
0.0
 11
70.5178348981189
 21
-6.267311213111625
 31
0.0
  0
LINE
  5
95
330
1F
100
AcDbEntity
  8
0
100
AcDbLine
 10
70.5178348981189
 20
-6.267311213111625
 30
0.0
 11
70.2434232018475
 21
-7.813223663810724
 31
0.0
  0
LINE
  5
96
330
1F
100
AcDbEntity
  8
0
100
AcDbLine
 10
70.2434232018475
 20
-7.813223663810724
 30
0.0
 11
69.80892290874277
 21
-9.321983611439482
 31
0.0
  0
LINE
  5
97
330
1F
100
AcDbEntity
  8
0
100
AcDbLine
 10
69.80892290874277
 20
-9.321983611439482
 30
0.0
 11
69.21909449494073
 21
-10.77706076628339
 31
0.0
  0
LINE
  5
98
330
1F
100
AcDbEntity
  8
0
100
AcDbLine
 10
69.21909449494073
 20
-10.77706076628339
 30
0.0
 11
68.48040024397271
 21
-12.16251299853952
 31
0.0
  0
LINE
  5
99
330
1F
100
AcDbEntity
  8
0
100
AcDbLine
 10
68.48040024397271
 20
-12.16251299853952
 30
0.0
 11
67.60093344463363
 21
-13.46316100362672
 31
0.0
  0
LINE
  5
9A
330
1F
100
AcDbEntity
  8
0
100
AcDbLine
 10
67.60093344463363
 20
-13.46316100362672
 30
0.0
 11
66.59032971921744
 21
-14.66475460982318
 31
0.0
  0
LINE
  5
9B
330
1F
100
AcDbEntity
  8
0
100
AcDbLine
 10
66.59032971921744
 20
-14.66475460982318
 30
0.0
 11
65.45966145362252
 21
-15.75412890612979
 31
0.0
  0
LINE
  5
9C
330
1F
100
AcDbEntity
  8
0
100
AcDbLine
 10
12.11356512622813
 20
-14.0745718876644
 30
0.0
 11
11.04172141532097
 21
-15.22187225969686
 31
0.0
  0
LINE
  5
9D
330
1F
100
AcDbEntity
  8
0
100
AcDbLine
 10
11.04172141532097
 20
-15.22187225969686
 30
0.0
 11
9.855823831615936
 21
-16.25084942428307
 31
0.0
  0
LINE
  5
9E
330
1F
100
AcDbEntity
  8
0
100
AcDbLine
 10
9.855823831615936
 20
-16.25084942428307
 30
0.0
 11
8.568865317205786
 21
-17.15022969228054
 31
0.0
  0
LINE
  5
9F
330
1F
100
AcDbEntity
  8
0
100
AcDbLine
 10
8.568865317205786
 20
-17.15022969228054
 30
0.0
 11
7.194946058886682
 21
-17.91015926526564
 31
0.0
  0
LINE
  5
A0
330
1F
100
AcDbEntity
  8
0
100
AcDbLine
 10
7.194946058886682
 20
-17.91015926526564
 30
0.0
 11
5.749119003564294
 21
-18.52231219581127
 31
0.0
  0
LINE
  5
A1
330
1F
100
AcDbEntity
  8
0
100
AcDbLine
 10
5.749119003564294
 20
-18.52231219581127
 30
0.0
 11
4.247224935016379
 21
-18.97998160830915
 31
0.0
  0
LINE
  5
A2
330
1F
100
AcDbEntity
  8
0
100
AcDbLine
 10
4.247224935016379
 20
-18.97998160830915
 30
0.0
 11
2.705718918948236
 21
-19.27815318090244
 31
0.0
  0
LINE
  5
A3
330
1F
100
AcDbEntity
  8
0
100
AcDbLine
 10
2.705718918948236
 20
-19.27815318090244
 30
0.0
 11
1.141490017852794
 21
-19.41356008344542
 31
0.0
  0
LINE
  5
A4
330
1F
100
AcDbEntity
  8
0
100
AcDbLine
 10
1.141490017852794
 20
-19.41356008344542
 30
0.0
 11
-0.4283237490927035
 21
-19.3847187695781
 31
0.0
  0
LINE
  5
A5
330
1F
100
AcDbEntity
  8
0
100
AcDbLine
 10
-0.4283237490927035
 20
-19.3847187695781
 30
0.0
 11
-1.98652317375321
 21
-19.19194523077065
 31
0.0
  0
LINE
  5
A6
330
1F
100
AcDbEntity
  8
0
100
AcDbLine
 10
-1.98652317375321
 20
-19.19194523077065
 30
0.0
 11
-3.516036297158195
 21
-18.8373515342547
 31
0.0
  0
LINE
  5
A7
330
1F
100
AcDbEntity
  8
0
100
AcDbLine
 10
-3.516036297158195
 20
-18.8373515342547
 30
0.0
 11
-5.000105453456364
 21
-18.32482268277278
 31
0.0
  0
LINE
  5
A8
330
1F
100
AcDbEntity
  8
0
100
AcDbLine
 10
-5.000105453456364
 20
-18.32482268277278
 30
0.0
 11
-6.422470870409944
 21
-17.65997404967528
 31
0.0
  0
LINE
  5
A9
330
1F
100
AcDbEntity
  8
0
100
AcDbLine
 10
-6.422470870409944
 20
-17.65997404967528
 30
0.0
 11
-7.767548814861322
 21
-16.85008985571494
 31
0.0
  0
LINE
  5
AA
330
1F
100
AcDbEntity
  8
0
100
AcDbLine
 10
-7.767548814861322
 20
-16.85008985571494
 30
0.0
 11
-9.020602331376272
 21
-15.90404336159996
 31
0.0
  0
LINE
  5
AB
330
1F
100
AcDbEntity
  8
0
100
AcDbLine
 10
-9.020602331376272
 20
-15.90404336159996
 30
0.0
 11
-10.16790270340859
 21
-14.83219965069281
 31
0.0
  0
LINE
  5
AC
330
1F
100
AcDbEntity
  8
0
100
AcDbLine
 10
-10.16790270340859
 20
-14.83219965069281
 30
0.0
 11
-11.19687986799496
 21
-13.64630206698791
 31
0.0
  0
LINE
  5
AD
330
1F
100
AcDbEntity
  8
0
100
AcDbLine
 10
-11.19687986799496
 20
-13.64630206698791
 30
0.0
 11
-12.09626013599262
 21
-12.35934355257734
 31
0.0
  0
LINE
  5
AE
330
1F
100
AcDbEntity
  8
0
100
AcDbLine
 10
-12.09626013599262
 20
-12.35934355257734
 30
0.0
 11
-12.85618970897778
 21
-10.98542429425839
 31
0.0
  0
LINE
  5
AF
330
1F
100
AcDbEntity
  8
0
100
AcDbLine
 10
-12.85618970897778
 20
-10.98542429425839
 30
0.0
 11
-13.46834263952315
 21
-9.53959723893627
 31
0.0
  0
LINE
  5
B0
330
1F
100
AcDbEntity
  8
0
100
AcDbLine
 10
-13.46834263952315
 20
-9.53959723893627
 30
0.0
 11
-13.92601205202098
 21
-8.037703170387864
 31
0.0
  0
LINE
  5
B1
330
1F
100
AcDbEntity
  8
0
100
AcDbLine
 10
-13.92601205202098
 20
-8.037703170387864
 30
0.0
 11
-14.22418362461412
 21
-6.496197154319726
 31
0.0
  0
LINE
  5
B2
330
1F
100
AcDbEntity
  8
0
100
AcDbLine
 10
-14.22418362461412
 20
-6.496197154319726
 30
0.0
 11
-14.35959052715755
 21
-4.931968253224764
 31
0.0
  0
LINE
  5
B3
330
1F
100
AcDbEntity
  8
0
100
AcDbLine
 10
-14.35959052715755
 20
-4.931968253224764
 30
0.0
 11
-14.33074921328982
 21
-3.362154486279323
 31
0.0
  0
LINE
  5
B4
330
1F
100
AcDbEntity
  8
0
100
AcDbLine
 10
-14.33074921328982
 20
-3.362154486279323
 30
0.0
 11
-14.13797567448238
 21
-1.80395506161871
 31
0.0
  0
LINE
  5
B5
330
1F
100
AcDbEntity
  8
0
100
AcDbLine
 10
-14.13797567448238
 20
-1.80395506161871
 30
0.0
 11
-13.78338197796679
 21
-0.2744419382136856
 31
0.0
  0
LINE
  5
B6
330
1F
100
AcDbEntity
  8
0
100
AcDbLine
 10
-13.78338197796679
 20
-0.2744419382136856
 30
0.0
 11
-13.27085312648429
 21
1.209627218084518
 31
0.0
  0
LINE
  5
B7
330
1F
100
AcDbEntity
  8
0
100
AcDbLine
 10
-13.27085312648429
 20
1.209627218084518
 30
0.0
 11
-12.60600449338723
 21
2.631992635038052
 31
0.0
  0
LINE
  5
B8
330
1F
100
AcDbEntity
  8
0
100
AcDbLine
 10
-12.60600449338723
 20
2.631992635038052
 30
0.0
 11
-11.79612029942689
 21
3.97707057948969
 31
0.0
  0
LINE
  5
B9
330
1F
100
AcDbEntity
  8
0
100
AcDbLine
 10
-11.79612029942689
 20
3.97707057948969
 30
0.0
 11
-10.85007380531176
 21
5.230124096004364
 31
0.0
  0
LINE
  5
BA
330
1F
100
AcDbEntity
  8
0
100
AcDbLine
 10
-10.85007380531176
 20
5.230124096004364
 30
0.0
 11
-9.778230094404602
 21
6.377424468036816
 31
0.0
  0
LINE
  5
BB
330
1F
100
AcDbEntity
  8
0
100
AcDbLine
 10
-9.778230094404602
 20
6.377424468036816
 30
0.0
 11
-8.592332510699572
 21
7.40640163262304
 31
0.0
  0
LINE
  5
BC
330
1F
100
AcDbEntity
  8
0
100
AcDbLine
 10
-8.592332510699572
 20
7.40640163262304
 30
0.0
 11
-7.305373996289421
 21
8.305781900620504
 31
0.0
  0
LINE
  5
BD
330
1F
100
AcDbEntity
  8
0
100
AcDbLine
 10
-7.305373996289421
 20
8.305781900620504
 30
0.0
 11
-5.931454737970318
 21
9.065711473605607
 31
0.0
  0
LINE
  5
BE
330
1F
100
AcDbEntity
  8
0
100
AcDbLine
 10
-5.931454737970318
 20
9.065711473605607
 30
0.0
 11
-4.48562768264793
 21
9.67786440415124
 31
0.0
  0
LINE
  5
BF
330
1F
100
AcDbEntity
  8
0
100
AcDbLine
 10
-4.48562768264793
 20
9.67786440415124
 30
0.0
 11
-2.983733614100015
 21
10.13553381664911
 31
0.0
  0
LINE
  5
C0
330
1F
100
AcDbEntity
  8
0
100
AcDbLine
 10
-2.983733614100015
 20
10.13553381664911
 30
0.0
 11
-1.442227598031872
 21
10.43370538924241
 31
0.0
  0
LINE
  5
C1
330
1F
100
AcDbEntity
  8
0
100
AcDbLine
 10
-1.442227598031872
 20
10.43370538924241
 30
0.0
 11
0.1220013030635698
 21
10.56911229178538
 31
0.0
  0
LINE
  5
C2
330
1F
100
AcDbEntity
  8
0
100
AcDbLine
 10
0.1220013030635698
 20
10.56911229178538
 30
0.0
 11
1.691815070009068
 21
10.54027097791807
 31
0.0
  0
LINE
  5
C3
330
1F
100
AcDbEntity
  8
0
100
AcDbLine
 10
1.691815070009068
 20
10.54027097791807
 30
0.0
 11
3.250014494669574
 21
10.34749743911062
 31
0.0
  0
LINE
  5
C4
330
1F
100
AcDbEntity
  8
0
100
AcDbLine
 10
3.250014494669574
 20
10.34749743911062
 30
0.0
 11
4.779527618074559
 21
9.992903742594674
 31
0.0
  0
LINE
  5
C5
330
1F
100
AcDbEntity
  8
0
100
AcDbLine
 10
4.779527618074559
 20
9.992903742594674
 30
0.0
 11
6.263596774372729
 21
9.48037489111275
 31
0.0
  0
LINE
  5
C6
330
1F
100
AcDbEntity
  8
0
100
AcDbLine
 10
6.263596774372729
 20
9.48037489111275
 30
0.0
 11
7.685962191326308
 21
8.815526258015252
 31
0.0
  0
LINE
  5
C7
330
1F
100
AcDbEntity
  8
0
100
AcDbLine
 10
7.685962191326308
 20
8.815526258015252
 30
0.0
 11
9.031040135777687
 21
8.005642064054918
 31
0.0
  0
LINE
  5
C8
330
1F
100
AcDbEntity
  8
0
100
AcDbLine
 10
9.031040135777687
 20
8.005642064054918
 30
0.0
 11
10.28409365229264
 21
7.059595569939927
 31
0.0
  0
LINE
  5
C9
330
1F
100
AcDbEntity
  8
0
100
AcDbLine
 10
10.28409365229264
 20
7.059595569939927
 30
0.0
 11
11.43139402432496
 21
5.987751859032779
 31
0.0
  0
LINE
  5
CA
330
1F
100
AcDbEntity
  8
0
100
AcDbLine
 10
11.43139402432496
 20
5.987751859032779
 30
0.0
 11
12.46037118891132
 21
4.801854275327877
 31
0.0
  0
LINE
  5
CB
330
1F
100
AcDbEntity
  8
0
100
AcDbLine
 10
12.46037118891132
 20
4.801854275327877
 30
0.0
 11
13.35975145690899
 21
3.51489576091731
 31
0.0
  0
LINE
  5
CC
330
1F
100
AcDbEntity
  8
0
100
AcDbLine
 10
13.35975145690899
 20
3.51489576091731
 30
0.0
 11
14.11968102989414
 21
2.140976502598359
 31
0.0
  0
LINE
  5
CD
330
1F
100
AcDbEntity
  8
0
100
AcDbLine
 10
14.11968102989414
 20
2.140976502598359
 30
0.0
 11
14.73183396043952
 21
0.6951494472762473
 31
0.0
  0
LINE
  5
CE
330
1F
100
AcDbEntity
  8
0
100
AcDbLine
 10
14.73183396043952
 20
0.6951494472762473
 30
0.0
 11
15.18950337293734
 21
-0.8067446212721697
 31
0.0
  0
LINE
  5
CF
330
1F
100
AcDbEntity
  8
0
100
AcDbLine
 10
15.18950337293734
 20
-0.8067446212721697
 30
0.0
 11
15.48767494553048
 21
-2.348250637340302
 31
0.0
  0
LINE
  5
D0
330
1F
100
AcDbEntity
  8
0
100
AcDbLine
 10
15.48767494553048
 20
-2.348250637340302
 30
0.0
 11
15.62308184807391
 21
-3.912479538435258
 31
0.0
  0
LINE
  5
D1
330
1F
100
AcDbEntity
  8
0
100
AcDbLine
 10
15.62308184807391
 20
-3.912479538435258
 30
0.0
 11
15.59424053420619
 21
-5.482293305380711
 31
0.0
  0
LINE
  5
D2
330
1F
100
AcDbEntity
  8
0
100
AcDbLine
 10
15.59424053420619
 20
-5.482293305380711
 30
0.0
 11
15.40146699539875
 21
-7.040492730041325
 31
0.0
  0
LINE
  5
D3
330
1F
100
AcDbEntity
  8
0
100
AcDbLine
 10
15.40146699539875
 20
-7.040492730041325
 30
0.0
 11
15.04687329888316
 21
-8.570005853446343
 31
0.0
  0
LINE
  5
D4
330
1F
100
AcDbEntity
  8
0
100
AcDbLine
 10
15.04687329888316
 20
-8.570005853446343
 30
0.0
 11
14.53434444740066
 21
-10.05407500974455
 31
0.0
  0
LINE
  5
D5
330
1F
100
AcDbEntity
  8
0
100
AcDbLine
 10
14.53434444740066
 20
-10.05407500974455
 30
0.0
 11
13.8694958143036
 21
-11.47644042669809
 31
0.0
  0
LINE
  5
D6
330
1F
100
AcDbEntity
  8
0
100
AcDbLine
 10
13.8694958143036
 20
-11.47644042669809
 30
0.0
 11
13.05961162034326
 21
-12.82151837114972
 31
0.0
  0
LINE
  5
D7
330
1F
100
AcDbEntity
  8
0
100
AcDbLine
 10
13.05961162034326
 20
-12.82151837114972
 30
0.0
 11
12.11356512622813
 21
-14.0745718876644
 31
0.0
  0
LINE
  5
D8
330
1F
100
AcDbEntity
  8
0
100
AcDbLine
 10
-41.73955149655288
 20
-12.51641097690813
 30
0.0
 11
-42.65480578907602
 21
-13.79212907441067
 31
0.0
  0
LINE
  5
D9
330
1F
100
AcDbEntity
  8
0
100
AcDbLine
 10
-42.65480578907602
 20
-13.79212907441067
 30
0.0
 11
-43.69839507511418
 21
-14.96518852999796
 31
0.0
  0
LINE
  5
DA
330
1F
100
AcDbEntity
  8
0
100
AcDbLine
 10
-43.69839507511418
 20
-14.96518852999796
 30
0.0
 11
-44.85888557206519
 21
-16.02273705879612
 31
0.0
  0
LINE
  5
DB
330
1F
100
AcDbEntity
  8
0
100
AcDbLine
 10
-44.85888557206519
 20
-16.02273705879612
 30
0.0
 11
-46.12356270319647
 21
-16.95318793781739
 31
0.0
  0
LINE
  5
DC
330
1F
100
AcDbEntity
  8
0
100
AcDbLine
 10
-46.12356270319647
 20
-16.95318793781739
 30
0.0
 11
-47.47857040120777
 21
-17.74634695252183
 31
0.0
  0
LINE
  5
DD
330
1F
100
AcDbEntity
  8
0
100
AcDbLine
 10
-47.47857040120777
 20
-17.74634695252183
 30
0.0
 11
-48.90906291820677
 21
-18.39352408676515
 31
0.0
  0
LINE
  5
DE
330
1F
100
AcDbEntity
  8
0
100
AcDbLine
 10
-48.90906291820677
 20
-18.39352408676515
 30
0.0
 11
-50.39936747882677
 21
-18.88762873243406
 31
0.0
  0
LINE
  5
DF
330
1F
100
AcDbEntity
  8
0
100
AcDbLine
 10
-50.39936747882677
 20
-18.88762873243406
 30
0.0
 11
-51.93315599443567
 21
-19.22324737563256
 31
0.0
  0
LINE
  5
E0
330
1F
100
AcDbEntity
  8
0
100
AcDbLine
 10
-51.93315599443567
 20
-19.22324737563256
 30
0.0
 11
-53.49362395709127
 21
-19.39670290827307
 31
0.0
  0
LINE
  5
E1
330
1F
100
AcDbEntity
  8
0
100
AcDbLine
 10
-53.49362395709127
 20
-19.39670290827307
 30
0.0
 11
-55.06367455324452
 21
-19.40609491524206
 31
0.0
  0
LINE
  5
E2
330
1F
100
AcDbEntity
  8
0
100
AcDbLine
 10
-55.06367455324452
 20
-19.40609491524206
 30
0.0
 11
-56.62610598001074
 21
-19.25132049574577
 31
0.0
  0
LINE
  5
E3
330
1F
100
AcDbEntity
  8
0
100
AcDbLine
 10
-56.62610598001074
 20
-19.25132049574577
 30
0.0
 11
-58.16379991171799
 21
-18.93407539071285
 31
0.0
  0
LINE
  5
E4
330
1F
100
AcDbEntity
  8
0
100
AcDbLine
 10
-58.16379991171799
 20
-18.93407539071285
 30
0.0
 11
-59.65990905186794
 21
-18.45783540390183
 31
0.0
  0
LINE
  5
E5
330
1F
100
AcDbEntity
  8
0
100
AcDbLine
 10
-59.65990905186794
 20
-18.45783540390183
 30
0.0
 11
-61.09804171563901
 21
-17.82781832026784
 31
0.0
  0
LINE
  5
E6
330
1F
100
AcDbEntity
  8
0
100
AcDbLine
 10
-61.09804171563901
 20
-17.82781832026784
 30
0.0
 11
-62.46244142061974
 21
-17.05092673881873
 31
0.0
  0
LINE
  5
E7
330
1F
100
AcDbEntity
  8
0
100
AcDbLine
 10
-62.46244142061974
 20
-17.05092673881873
 30
0.0
 11
-63.73815951812247
 21
-16.13567244629586
 31
0.0
  0
LINE
  5
E8
330
1F
100
AcDbEntity
  8
0
100
AcDbLine
 10
-63.73815951812247
 20
-16.13567244629586
 30
0.0
 11
-64.91121897370942
 21
-15.0920831602574
 31
0.0
  0
LINE
  5
E9
330
1F
100
AcDbEntity
  8
0
100
AcDbLine
 10
-64.91121897370942
 20
-15.0920831602574
 30
0.0
 11
-65.96876750250736
 21
-13.93159266330628
 31
0.0
  0
LINE
  5
EA
330
1F
100
AcDbEntity
  8
0
100
AcDbLine
 10
-65.96876750250736
 20
-13.93159266330628
 30
0.0
 11
-66.89921838152917
 21
-12.66691553217533
 31
0.0
  0
LINE
  5
EB
330
1F
100
AcDbEntity
  8
0
100
AcDbLine
 10
-66.89921838152917
 20
-12.66691553217533
 30
0.0
 11
-67.69237739623323
 21
-11.31190783416395
 31
0.0
  0
LINE
  5
EC
330
1F
100
AcDbEntity
  8
0
100
AcDbLine
 10
-67.69237739623323
 20
-11.31190783416395
 30
0.0
 11
-68.33955453047703
 21
-9.881415317165127
 31
0.0
  0
LINE
  5
ED
330
1F
100
AcDbEntity
  8
0
100
AcDbLine
 10
-68.33955453047703
 20
-9.881415317165127
 30
0.0
 11
-68.83365917614539
 21
-8.391110756544906
 31
0.0
  0
LINE
  5
EE
330
1F
100
AcDbEntity
  8
0
100
AcDbLine
 10
-68.83365917614539
 20
-8.391110756544906
 30
0.0
 11
-69.16927781934433
 21
-6.857322240935725
 31
0.0
  0
LINE
  5
EF
330
1F
100
AcDbEntity
  8
0
100
AcDbLine
 10
-69.16927781934433
 20
-6.857322240935725
 30
0.0
 11
-69.34273335198485
 21
-5.29685427828047
 31
0.0
  0
LINE
  5
F0
330
1F
100
AcDbEntity
  8
0
100
AcDbLine
 10
-69.34273335198485
 20
-5.29685427828047
 30
0.0
 11
-69.35212535895356
 21
-3.726803682126922
 31
0.0
  0
LINE
  5
F1
330
1F
100
AcDbEntity
  8
0
100
AcDbLine
 10
-69.35212535895356
 20
-3.726803682126922
 30
0.0
 11
-69.19735093945728
 21
-2.164372255360735
 31
0.0
  0
LINE
  5
F2
330
1F
100
AcDbEntity
  8
0
100
AcDbLine
 10
-69.19735093945728
 20
-2.164372255360735
 30
0.0
 11
-68.88010583442424
 21
-0.626678323653358
 31
0.0
  0
LINE
  5
F3
330
1F
100
AcDbEntity
  8
0
100
AcDbLine
 10
-68.88010583442424
 20
-0.626678323653358
 30
0.0
 11
-68.40386584761328
 21
0.8694308164962663
 31
0.0
  0
LINE
  5
F4
330
1F
100
AcDbEntity
  8
0
100
AcDbLine
 10
-68.40386584761328
 20
0.8694308164962663
 30
0.0
 11
-67.77384876397947
 21
2.307563480267719
 31
0.0
  0
LINE
  5
F5
330
1F
100
AcDbEntity
  8
0
100
AcDbLine
 10
-67.77384876397947
 20
2.307563480267719
 30
0.0
 11
-66.9969571825303
 21
3.671963185248093
 31
0.0
  0
LINE
  5
F6
330
1F
100
AcDbEntity
  8
0
100
AcDbLine
 10
-66.9969571825303
 20
3.671963185248093
 30
0.0
 11
-66.08170289000715
 21
4.947681282750628
 31
0.0
  0
LINE
  5
F7
330
1F
100
AcDbEntity
  8
0
100
AcDbLine
 10
-66.08170289000715
 20
4.947681282750628
 30
0.0
 11
-65.03811360396898
 21
6.120740738337923
 31
0.0
  0
LINE
  5
F8
330
1F
100
AcDbEntity
  8
0
100
AcDbLine
 10
-65.03811360396898
 20
6.120740738337923
 30
0.0
 11
-63.87762310701797
 21
7.178289267136089
 31
0.0
  0
LINE
  5
F9
330
1F
100
AcDbEntity
  8
0
100
AcDbLine
 10
-63.87762310701797
 20
7.178289267136089
 30
0.0
 11
-62.6129459758867
 21
8.108740146157352
 31
0.0
  0
LINE
  5
FA
330
1F
100
AcDbEntity
  8
0
100
AcDbLine
 10
-62.6129459758867
 20
8.108740146157352
 30
0.0
 11
-61.2579382778754
 21
8.901899160861795
 31
0.0
  0
LINE
  5
FB
330
1F
100
AcDbEntity
  8
0
100
AcDbLine
 10
-61.2579382778754
 20
8.901899160861795
 30
0.0
 11
-59.82744576087639
 21
9.549076295105115
 31
0.0
  0
LINE
  5
FC
330
1F
100
AcDbEntity
  8
0
100
AcDbLine
 10
-59.82744576087639
 20
9.549076295105115
 30
0.0
 11
-58.3371412002564
 21
10.04318094077403
 31
0.0
  0
LINE
  5
FD
330
1F
100
AcDbEntity
  8
0
100
AcDbLine
 10
-58.3371412002564
 20
10.04318094077403
 30
0.0
 11
-56.80335268464749
 21
10.37879958397253
 31
0.0
  0
LINE
  5
FE
330
1F
100
AcDbEntity
  8
0
100
AcDbLine
 10
-56.80335268464749
 20
10.37879958397253
 30
0.0
 11
-55.24288472199189
 21
10.55225511661303
 31
0.0
  0
LINE
  5
FF
330
1F
100
AcDbEntity
  8
0
100
AcDbLine
 10
-55.24288472199189
 20
10.55225511661303
 30
0.0
 11
-53.67283412583865
 21
10.56164712358203
 31
0.0
  0
LINE
  5
100
330
1F
100
AcDbEntity
  8
0
100
AcDbLine
 10
-53.67283412583865
 20
10.56164712358203
 30
0.0
 11
-52.11040269907242
 21
10.40687270408574
 31
0.0
  0
LINE
  5
101
330
1F
100
AcDbEntity
  8
0
100
AcDbLine
 10
-52.11040269907242
 20
10.40687270408574
 30
0.0
 11
-50.57270876736517
 21
10.08962759905282
 31
0.0
  0
LINE
  5
102
330
1F
100
AcDbEntity
  8
0
100
AcDbLine
 10
-50.57270876736517
 20
10.08962759905282
 30
0.0
 11
-49.07659962721522
 21
9.613387612241796
 31
0.0
  0
LINE
  5
103
330
1F
100
AcDbEntity
  8
0
100
AcDbLine
 10
-49.07659962721522
 20
9.613387612241796
 30
0.0
 11
-47.63846696344415
 21
8.98337052860781
 31
0.0
  0
LINE
  5
104
330
1F
100
AcDbEntity
  8
0
100
AcDbLine
 10
-47.63846696344415
 20
8.98337052860781
 30
0.0
 11
-46.27406725846343
 21
8.206478947158695
 31
0.0
  0
LINE
  5
105
330
1F
100
AcDbEntity
  8
0
100
AcDbLine
 10
-46.27406725846343
 20
8.206478947158695
 30
0.0
 11
-44.99834916096069
 21
7.291224654635833
 31
0.0
  0
LINE
  5
106
330
1F
100
AcDbEntity
  8
0
100
AcDbLine
 10
-44.99834916096069
 20
7.291224654635833
 30
0.0
 11
-43.82528970537374
 21
6.247635368597373
 31
0.0
  0
LINE
  5
107
330
1F
100
AcDbEntity
  8
0
100
AcDbLine
 10
-43.82528970537374
 20
6.247635368597373
 30
0.0
 11
-42.7677411765758
 21
5.087144871646241
 31
0.0
  0
LINE
  5
108
330
1F
100
AcDbEntity
  8
0
100
AcDbLine
 10
-42.7677411765758
 20
5.087144871646241
 30
0.0
 11
-41.83729029755401
 21
3.822467740515303
 31
0.0
  0
LINE
  5
109
330
1F
100
AcDbEntity
  8
0
100
AcDbLine
 10
-41.83729029755401
 20
3.822467740515303
 30
0.0
 11
-41.04413128284994
 21
2.467460042503921
 31
0.0
  0
LINE
  5
10A
330
1F
100
AcDbEntity
  8
0
100
AcDbLine
 10
-41.04413128284994
 20
2.467460042503921
 30
0.0
 11
-40.39695414860614
 21
1.036967525505092
 31
0.0
  0
LINE
  5
10B
330
1F
100
AcDbEntity
  8
0
100
AcDbLine
 10
-40.39695414860614
 20
1.036967525505092
 30
0.0
 11
-39.90284950293777
 21
-0.4533370351151231
 31
0.0
  0
LINE
  5
10C
330
1F
100
AcDbEntity
  8
0
100
AcDbLine
 10
-39.90284950293777
 20
-0.4533370351151231
 30
0.0
 11
-39.56723085973883
 21
-1.987125550724304
 31
0.0
  0
LINE
  5
10D
330
1F
100
AcDbEntity
  8
0
100
AcDbLine
 10
-39.56723085973883
 20
-1.987125550724304
 30
0.0
 11
-39.39377532709832
 21
-3.547593513379565
 31
0.0
  0
LINE
  5
10E
330
1F
100
AcDbEntity
  8
0
100
AcDbLine
 10
-39.39377532709832
 20
-3.547593513379565
 30
0.0
 11
-39.38438332012961
 21
-5.117644109533112
 31
0.0
  0
LINE
  5
10F
330
1F
100
AcDbEntity
  8
0
100
AcDbLine
 10
-39.38438332012961
 20
-5.117644109533112
 30
0.0
 11
-39.53915773962588
 21
-6.680075536299288
 31
0.0
  0
LINE
  5
110
330
1F
100
AcDbEntity
  8
0
100
AcDbLine
 10
-39.53915773962588
 20
-6.680075536299288
 30
0.0
 11
-39.85640284465893
 21
-8.217769468006676
 31
0.0
  0
LINE
  5
111
330
1F
100
AcDbEntity
  8
0
100
AcDbLine
 10
-39.85640284465893
 20
-8.217769468006676
 30
0.0
 11
-40.33264283146989
 21
-9.7138786081563
 31
0.0
  0
LINE
  5
112
330
1F
100
AcDbEntity
  8
0
100
AcDbLine
 10
-40.33264283146989
 20
-9.7138786081563
 30
0.0
 11
-40.9626599151037
 21
-11.15201127192774
 31
0.0
  0
LINE
  5
113
330
1F
100
AcDbEntity
  8
0
100
AcDbLine
 10
-40.9626599151037
 20
-11.15201127192774
 30
0.0
 11
-41.73955149655288
 21
-12.51641097690813
 31
0.0
  0
LINE
  5
114
330
1F
100
AcDbEntity
  8
0
100
AcDbLine
 10
95.63174627083289
 20
-34.42222389582756
 30
0.0
 11
-94.36825494991653
 21
-34.42222389582756
 31
0.0
  0
LINE
  5
115
330
1F
100
AcDbEntity
  8
0
100
AcDbLine
 10
95.63174627083289
 20
-34.42222389582756
 30
0.0
 11
95.63174627083289
 21
-38.42222389582753
 31
0.0
  0
LINE
  5
116
330
1F
100
AcDbEntity
  8
0
100
AcDbLine
 10
110.6317474915831
 20
-38.42222389582753
 30
0.0
 11
95.63174627083289
 21
-38.42222389582753
 31
0.0
  0
LINE
  5
117
330
1F
100
AcDbEntity
  8
0
100
AcDbLine
 10
110.6317474915831
 20
25.57777610416998
 30
0.0
 11
110.6317474915831
 21
-38.42222389582753
 31
0.0
  0
LINE
  5
118
330
1F
100
AcDbEntity
  8
0
100
AcDbLine
 10
95.63174590642933
 20
25.57777610416998
 30
0.0
 11
110.6317474915831
 21
25.57777610416998
 31
0.0
  0
LINE
  5
119
330
1F
100
AcDbEntity
  8
0
100
AcDbLine
 10
95.63174590642933
 20
29.57777610417243
 30
0.0
 11
95.63174590642933
 21
25.57777610416998
 31
0.0
  0
LINE
  5
11A
330
1F
100
AcDbEntity
  8
0
100
AcDbLine
 10
-94.3682553143201
 20
29.57777610417243
 30
0.0
 11
95.63174590642933
 21
29.57777610417243
 31
0.0
  0
LINE
  5
11B
330
1F
100
AcDbEntity
  8
0
100
AcDbLine
 10
-94.3682553143201
 20
29.57777610417243
 30
0.0
 11
-94.3682553143201
 21
25.57777610416826
 31
0.0
  0
LINE
  5
11C
330
1F
100
AcDbEntity
  8
0
100
AcDbLine
 10
-109.3682549499182
 20
25.57777610416826
 30
0.0
 11
-94.3682553143201
 21
25.57777610416826
 31
0.0
  0
LINE
  5
11D
330
1F
100
AcDbEntity
  8
0
100
AcDbLine
 10
-109.3682549499182
 20
-38.42222389582753
 30
0.0
 11
-109.3682549499182
 21
25.57777610416826
 31
0.0
  0
LINE
  5
11E
330
1F
100
AcDbEntity
  8
0
100
AcDbLine
 10
-94.36825494991653
 20
-38.42222389582753
 30
0.0
 11
-109.3682549499182
 21
-38.42222389582753
 31
0.0
  0
LINE
  5
11F
330
1F
100
AcDbEntity
  8
0
100
AcDbLine
 10
-94.36825494991653
 20
-34.42222389582756
 30
0.0
 11
-94.36825494991653
 21
-38.42222389582753
 31
0.0
  0
LINE
  5
120
330
1F
100
AcDbEntity
  8
0
100
AcDbLine
 10
66.59032971921744
 20
-14.66475460982316
 30
0.0
 11
65.45966145362252
 21
-15.75412890612979
 31
0.0
  0
LINE
  5
121
330
1F
100
AcDbEntity
  8
0
100
AcDbLine
 10
67.60093344463363
 20
-13.46316100362669
 30
0.0
 11
66.59032971921744
 21
-14.66475460982316
 31
0.0
  0
LINE
  5
122
330
1F
100
AcDbEntity
  8
0
100
AcDbLine
 10
69.21909449494073
 20
-10.77706076628333
 30
0.0
 11
68.48040024397271
 21
-12.16251299853946
 31
0.0
  0
LINE
  5
123
330
1F
100
AcDbEntity
  8
0
100
AcDbLine
 10
68.48040024397271
 20
-12.16251299853946
 30
0.0
 11
67.60093344463363
 21
-13.46316100362669
 31
0.0
  0
LINE
  5
124
330
1F
100
AcDbEntity
  8
0
100
AcDbLine
 10
70.2434232018475
 20
-7.813223663810621
 30
0.0
 11
69.80892290874277
 21
-9.321983611439414
 31
0.0
  0
LINE
  5
125
330
1F
100
AcDbEntity
  8
0
100
AcDbLine
 10
70.5178348981189
 20
-6.267311213111523
 30
0.0
 11
70.2434232018475
 21
-7.813223663810621
 31
0.0
  0
LINE
  5
126
330
1F
100
AcDbEntity
  8
0
100
AcDbLine
 10
70.35942116923226
 20
-1.576951657844941
 30
0.0
 11
70.57615335642772
 21
-3.131999645307182
 31
0.0
  0
LINE
  5
127
330
1F
100
AcDbEntity
  8
0
100
AcDbLine
 10
70.57615335642772
 20
-3.131999645307182
 30
0.0
 11
70.629151485588
 21
-4.701183599654948
 31
0.0
  0
LINE
  5
128
330
1F
100
AcDbEntity
  8
0
100
AcDbLine
 10
69.80892290874277
 20
-9.321983611439414
 30
0.0
 11
69.21909449494073
 21
-10.77706076628333
 31
0.0
  0
LINE
  5
129
330
1F
100
AcDbEntity
  8
0
100
AcDbLine
 10
70.629151485588
 20
-4.701183599654948
 30
0.0
 11
70.5178348981189
 21
-6.267311213111523
 31
0.0
  0
LINE
  5
12A
330
1F
100
AcDbEntity
  8
0
100
AcDbLine
 10
65.45966145362252
 20
-15.75412890612979
 30
0.0
 11
64.22131648597427
 21
-16.71934847979
 31
0.0
  0
LINE
  5
12B
330
1F
100
AcDbEntity
  8
0
100
AcDbLine
 10
-48.90906291820677
 20
-18.39352408676517
 30
0.0
 11
-50.39936747882677
 21
-18.88762873243408
 31
0.0
  0
LINE
  5
12C
330
1F
100
AcDbEntity
  8
0
100
AcDbLine
 10
-50.39936747882677
 20
-18.88762873243408
 30
0.0
 11
-51.93315599443567
 21
-19.22324737563259
 31
0.0
  0
LINE
  5
12D
330
1F
100
AcDbEntity
  8
0
100
AcDbLine
 10
-51.93315599443567
 20
-19.22324737563259
 30
0.0
 11
-53.49362395709127
 21
-19.39670290827309
 31
0.0
  0
LINE
  5
12E
330
1F
100
AcDbEntity
  8
0
100
AcDbLine
 10
-58.16379991171799
 20
-18.93407539071287
 30
0.0
 11
-59.65990905186794
 21
-18.45783540390185
 31
0.0
  0
LINE
  5
12F
330
1F
100
AcDbEntity
  8
0
100
AcDbLine
 10
-56.62610598001074
 20
-19.2513204957458
 30
0.0
 11
-58.16379991171799
 21
-18.93407539071287
 31
0.0
  0
LINE
  5
130
330
1F
100
AcDbEntity
  8
0
100
AcDbLine
 10
-55.06367455324452
 20
-19.40609491524208
 30
0.0
 11
-56.62610598001074
 21
-19.2513204957458
 31
0.0
  0
LINE
  5
131
330
1F
100
AcDbEntity
  8
0
100
AcDbLine
 10
-63.73815951812247
 20
-16.13567244629589
 30
0.0
 11
-64.91121897370942
 21
-15.09208316025742
 31
0.0
  0
LINE
  5
132
330
1F
100
AcDbEntity
  8
0
100
AcDbLine
 10
-64.91121897370942
 20
-15.09208316025742
 30
0.0
 11
-65.96876750250736
 21
-13.9315926633063
 31
0.0
  0
LINE
  5
133
330
1F
100
AcDbEntity
  8
0
100
AcDbLine
 10
-66.89921838152917
 20
-12.66691553217535
 30
0.0
 11
-67.69237739623323
 21
-11.31190783416397
 31
0.0
  0
LINE
  5
134
330
1F
100
AcDbEntity
  8
0
100
AcDbLine
 10
-65.96876750250736
 20
-13.9315926633063
 30
0.0
 11
-66.89921838152917
 21
-12.66691553217535
 31
0.0
  0
LINE
  5
135
330
1F
100
AcDbEntity
  8
0
100
AcDbLine
 10
-62.46244142061974
 20
-17.05092673881875
 30
0.0
 11
-63.73815951812247
 21
-16.13567244629589
 31
0.0
  0
LINE
  5
136
330
1F
100
AcDbEntity
  8
0
100
AcDbLine
 10
-43.69839507511418
 20
-14.96518852999797
 30
0.0
 11
-44.85888557206519
 21
-16.02273705879614
 31
0.0
  0
LINE
  5
137
330
1F
100
AcDbEntity
  8
0
100
AcDbLine
 10
-44.85888557206519
 20
-16.02273705879614
 30
0.0
 11
-46.12356270319647
 21
-16.95318793781741
 31
0.0
  0
LINE
  5
138
330
1F
100
AcDbEntity
  8
0
100
AcDbLine
 10
-46.12356270319647
 20
-16.95318793781741
 30
0.0
 11
-47.47857040120777
 21
-17.74634695252184
 31
0.0
  0
LINE
  5
139
330
1F
100
AcDbEntity
  8
0
100
AcDbLine
 10
-47.47857040120777
 20
-17.74634695252184
 30
0.0
 11
-48.90906291820677
 21
-18.39352408676517
 31
0.0
  0
LINE
  5
13A
330
1F
100
AcDbEntity
  8
0
100
AcDbLine
 10
-67.69237739623323
 20
-11.31190783416397
 30
0.0
 11
-68.33955453047703
 21
-9.881415317165137
 31
0.0
  0
LINE
  5
13B
330
1F
100
AcDbEntity
  8
0
100
AcDbLine
 10
-53.49362395709127
 20
-19.39670290827309
 30
0.0
 11
-55.06367455324452
 21
-19.40609491524208
 31
0.0
  0
LINE
  5
13C
330
1F
100
AcDbEntity
  8
0
100
AcDbLine
 10
-61.09804171563901
 20
-17.82781832026786
 30
0.0
 11
-62.46244142061974
 21
-17.05092673881875
 31
0.0
  0
LINE
  5
13D
330
1F
100
AcDbEntity
  8
0
100
AcDbLine
 10
-59.65990905186794
 20
-18.45783540390185
 30
0.0
 11
-61.09804171563901
 21
-17.82781832026786
 31
0.0
  0
LINE
  5
13E
330
1F
100
AcDbEntity
  8
0
100
AcDbLine
 10
-68.33955453047703
 20
-9.881415317165137
 30
0.0
 11
-68.83365917614539
 21
-8.391110756544917
 31
0.0
  0
LINE
  5
13F
330
1F
100
AcDbEntity
  8
0
100
AcDbLine
 10
-68.83365917614539
 20
-8.391110756544917
 30
0.0
 11
-69.16927781934433
 21
-6.85732224093573
 31
0.0
  0
LINE
  5
140
330
1F
100
AcDbEntity
  8
0
100
AcDbLine
 10
-69.16927781934433
 20
-6.85732224093573
 30
0.0
 11
-69.34273335198485
 21
-5.296854278280481
 31
0.0
  0
LINE
  5
141
330
1F
100
AcDbEntity
  8
0
100
AcDbLine
 10
-69.34273335198485
 20
-5.296854278280481
 30
0.0
 11
-69.35212535895356
 21
-3.726803682126922
 31
0.0
  0
LINE
  5
142
330
1F
100
AcDbEntity
  8
0
100
AcDbLine
 10
-69.35212535895356
 20
-3.726803682126922
 30
0.0
 11
-69.19735093945728
 21
-2.164372255360735
 31
0.0
  0
LINE
  5
143
330
1F
100
AcDbEntity
  8
0
100
AcDbLine
 10
-69.19735093945728
 20
-2.164372255360735
 30
0.0
 11
-68.88010583442424
 21
-0.6266783236533638
 31
0.0
  0
LINE
  5
144
330
1F
100
AcDbEntity
  8
0
100
AcDbLine
 10
-68.88010583442424
 20
-0.6266783236533636
 30
0.0
 11
-68.40386584761328
 21
0.869430816496272
 31
0.0
  0
LINE
  5
145
330
1F
100
AcDbEntity
  8
0
100
AcDbLine
 10
-68.40386584761328
 20
0.869430816496272
 30
0.0
 11
-67.77384876397947
 21
2.307563480267724
 31
0.0
  0
LINE
  5
146
330
1F
100
AcDbEntity
  8
0
100
AcDbLine
 10
-67.77384876397947
 20
2.307563480267724
 30
0.0
 11
-66.9969571825303
 21
3.671963185248093
 31
0.0
  0
LINE
  5
147
330
1F
100
AcDbEntity
  8
0
100
AcDbLine
 10
-66.9969571825303
 20
3.671963185248093
 30
0.0
 11
-66.08170289000715
 21
4.947681282750639
 31
0.0
  0
LINE
  5
148
330
1F
100
AcDbEntity
  8
0
100
AcDbLine
 10
-66.08170289000715
 20
4.947681282750639
 30
0.0
 11
-65.03811360396898
 21
6.12074073833794
 31
0.0
  0
LINE
  5
149
330
1F
100
AcDbEntity
  8
0
100
AcDbLine
 10
42.04439682597516
 20
1.932612974623301
 30
0.0
 11
42.78309107694318
 21
3.318065206879433
 31
0.0
  0
LINE
  5
14A
330
1F
100
AcDbEntity
  8
0
100
AcDbLine
 10
44.67316160169845
 20
5.82030681816313
 30
0.0
 11
45.80382986729337
 21
6.909681114469758
 31
0.0
  0
LINE
  5
14B
330
1F
100
AcDbEntity
  8
0
100
AcDbLine
 10
40.74565642279699
 20
-2.57713657854851
 30
0.0
 11
41.02006811906839
 21
-1.031224127849407
 31
0.0
  0
LINE
  5
14C
330
1F
100
AcDbEntity
  8
0
100
AcDbLine
 10
42.50413137311842
 20
-11.67934061825032
 30
0.0
 11
41.81747055900092
 21
-10.26737602569416
 31
0.0
  0
LINE
  5
14D
330
1F
100
AcDbEntity
  8
0
100
AcDbLine
 10
41.45456841217312
 20
0.47753581977938
 30
0.0
 11
42.04439682597516
 21
1.932612974623301
 31
0.0
  0
LINE
  5
14E
330
1F
100
AcDbEntity
  8
0
100
AcDbLine
 10
40.68733796448817
 20
-5.712448146352841
 30
0.0
 11
40.63433983532789
 21
-4.143264192005086
 31
0.0
  0
LINE
  5
14F
330
1F
100
AcDbEntity
  8
0
100
AcDbLine
 10
41.28216183371791
 20
-8.791370723226473
 30
0.0
 11
40.90407015168363
 21
-7.267496133815087
 31
0.0
  0
LINE
  5
150
330
1F
100
AcDbEntity
  8
0
100
AcDbLine
 10
43.33462107649812
 20
-13.01179472134634
 30
0.0
 11
42.50413137311842
 21
-11.67934061825032
 31
0.0
  0
LINE
  5
151
330
1F
100
AcDbEntity
  8
0
100
AcDbLine
 10
41.81747055900092
 20
-10.26737602569416
 30
0.0
 11
41.28216183371791
 21
-8.791370723226473
 31
0.0
  0
LINE
  5
152
330
1F
100
AcDbEntity
  8
0
100
AcDbLine
 10
43.66255787628226
 20
4.618713211966659
 30
0.0
 11
44.67316160169845
 21
5.82030681816313
 31
0.0
  0
LINE
  5
153
330
1F
100
AcDbEntity
  8
0
100
AcDbLine
 10
40.90407015168363
 20
-7.267496133815087
 30
0.0
 11
40.68733796448817
 21
-5.712448146352841
 31
0.0
  0
LINE
  5
154
330
1F
100
AcDbEntity
  8
0
100
AcDbLine
 10
41.02006811906839
 20
-1.031224127849407
 30
0.0
 11
41.45456841217312
 21
0.47753581977938
 31
0.0
  0
LINE
  5
155
330
1F
100
AcDbEntity
  8
0
100
AcDbLine
 10
42.78309107694318
 20
3.318065206879433
 30
0.0
 11
43.66255787628226
 21
4.618713211966659
 31
0.0
  0
LINE
  5
156
330
1F
100
AcDbEntity
  8
0
100
AcDbLine
 10
40.63433983532789
 20
-4.143264192005086
 30
0.0
 11
40.74565642279699
 21
-2.57713657854851
 31
0.0
  0
LINE
  5
157
330
1F
100
AcDbEntity
  8
0
100
AcDbLine
 10
46.59080855266093
 20
-16.39141168000565
 30
0.0
 11
45.38921494646482
 21
-15.38080795458966
 31
0.0
  0
LINE
  5
158
330
1F
100
AcDbEntity
  8
0
100
AcDbLine
 10
44.29984065015846
 20
-14.25013968899476
 30
0.0
 11
43.33462107649812
 21
-13.01179472134634
 31
0.0
  0
LINE
  5
159
330
1F
100
AcDbEntity
  8
0
100
AcDbLine
 10
45.38921494646482
 20
-15.38080795458966
 30
0.0
 11
44.29984065015846
 21
-14.25013968899476
 31
0.0
  0
LINE
  5
15A
330
1F
100
AcDbEntity
  8
0
100
AcDbLine
 10
69.44602076191497
 20
1.422928234034128
 30
0.0
 11
69.98132948719798
 21
-0.0530770684335601
 31
0.0
  0
LINE
  5
15B
330
1F
100
AcDbEntity
  8
0
100
AcDbLine
 10
69.98132948719798
 20
-0.0530770684335601
 30
0.0
 11
70.35942116923226
 21
-1.576951657844941
 31
0.0
  0
LINE
  5
15C
330
1F
100
AcDbEntity
  8
0
100
AcDbLine
 10
67.92887024441777
 20
4.167346929686312
 30
0.0
 11
68.75935994779748
 21
2.834892826590289
 31
0.0
  0
LINE
  5
15D
330
1F
100
AcDbEntity
  8
0
100
AcDbLine
 10
51.26259883306152
 20
9.927359930910239
 30
0.0
 11
52.78647342247261
 21
10.30545161294412
 31
0.0
  0
LINE
  5
15E
330
1F
100
AcDbEntity
  8
0
100
AcDbLine
 10
49.786593530594
 20
9.392051205627126
 30
0.0
 11
51.26259883306152
 21
9.927359930910239
 31
0.0
  0
LINE
  5
15F
330
1F
100
AcDbEntity
  8
0
100
AcDbLine
 10
66.96365067075743
 20
5.405691897334735
 30
0.0
 11
67.92887024441777
 21
4.167346929686312
 31
0.0
  0
LINE
  5
160
330
1F
100
AcDbEntity
  8
0
100
AcDbLine
 10
54.34152140993498
 20
10.52218380013963
 30
0.0
 11
55.91070536428271
 21
10.57518192929974
 31
0.0
  0
LINE
  5
161
330
1F
100
AcDbEntity
  8
0
100
AcDbLine
 10
55.91070536428271
 20
10.57518192929974
 30
0.0
 11
57.47683297773929
 21
10.46386534183079
 31
0.0
  0
LINE
  5
162
330
1F
100
AcDbEntity
  8
0
100
AcDbLine
 10
64.67268276825496
 20
7.546963888345614
 30
0.0
 11
65.87427637445107
 21
6.536360162929627
 31
0.0
  0
LINE
  5
163
330
1F
100
AcDbEntity
  8
0
100
AcDbLine
 10
59.02274542843848
 20
10.18945364555959
 30
0.0
 11
60.53150537606769
 21
9.754953352454828
 31
0.0
  0
LINE
  5
164
330
1F
100
AcDbEntity
  8
0
100
AcDbLine
 10
45.80382986729337
 20
6.909681114469758
 30
0.0
 11
47.04217483494162
 21
7.874900688129963
 31
0.0
  0
LINE
  5
165
330
1F
100
AcDbEntity
  8
0
100
AcDbLine
 10
65.87427637445107
 20
6.536360162929627
 30
0.0
 11
66.96365067075743
 21
5.405691897334735
 31
0.0
  0
LINE
  5
166
330
1F
100
AcDbEntity
  8
0
100
AcDbLine
 10
60.53150537606769
 20
9.754953352454828
 30
0.0
 11
61.98658253091139
 21
9.16512493865278
 31
0.0
  0
LINE
  5
167
330
1F
100
AcDbEntity
  8
0
100
AcDbLine
 10
68.75935994779748
 20
2.834892826590289
 30
0.0
 11
69.44602076191497
 21
1.422928234034128
 31
0.0
  0
LINE
  5
168
330
1F
100
AcDbEntity
  8
0
100
AcDbLine
 10
61.98658253091139
 20
9.16512493865278
 30
0.0
 11
63.37203476316774
 21
8.426430687684611
 31
0.0
  0
LINE
  5
169
330
1F
100
AcDbEntity
  8
0
100
AcDbLine
 10
48.37462893803769
 20
8.705390391509543
 30
0.0
 11
49.786593530594
 21
9.392051205627126
 31
0.0
  0
LINE
  5
16A
330
1F
100
AcDbEntity
  8
0
100
AcDbLine
 10
52.78647342247261
 20
10.30545161294412
 30
0.0
 11
54.34152140993498
 21
10.52218380013963
 31
0.0
  0
LINE
  5
16B
330
1F
100
AcDbEntity
  8
0
100
AcDbLine
 10
47.04217483494162
 20
7.874900688129963
 30
0.0
 11
48.37462893803769
 21
8.705390391509543
 31
0.0
  0
LINE
  5
16C
330
1F
100
AcDbEntity
  8
0
100
AcDbLine
 10
63.37203476316774
 20
8.426430687684611
 30
0.0
 11
64.67268276825496
 21
7.546963888345614
 31
0.0
  0
LINE
  5
16D
330
1F
100
AcDbEntity
  8
0
100
AcDbLine
 10
57.47683297773929
 20
10.46386534183079
 30
0.0
 11
59.02274542843848
 21
10.18945364555959
 31
0.0
  0
LINE
  5
16E
330
1F
100
AcDbEntity
  8
0
100
AcDbLine
 10
-63.87762310701797
 20
7.1782892671361
 30
0.0
 11
-62.6129459758867
 21
8.10874014615737
 31
0.0
  0
LINE
  5
16F
330
1F
100
AcDbEntity
  8
0
100
AcDbLine
 10
-56.80335268464749
 20
10.37879958397255
 30
0.0
 11
-55.24288472199189
 21
10.55225511661306
 31
0.0
  0
LINE
  5
170
330
1F
100
AcDbEntity
  8
0
100
AcDbLine
 10
-58.3371412002564
 20
10.04318094077404
 30
0.0
 11
-56.80335268464749
 21
10.37879958397255
 31
0.0
  0
LINE
  5
171
330
1F
100
AcDbEntity
  8
0
100
AcDbLine
 10
-59.82744576087639
 20
9.549076295105133
 30
0.0
 11
-58.3371412002564
 21
10.04318094077404
 31
0.0
  0
LINE
  5
172
330
1F
100
AcDbEntity
  8
0
100
AcDbLine
 10
-61.2579382778754
 20
8.901899160861813
 30
0.0
 11
-59.82744576087639
 21
9.549076295105133
 31
0.0
  0
LINE
  5
173
330
1F
100
AcDbEntity
  8
0
100
AcDbLine
 10
-62.6129459758867
 20
8.10874014615737
 30
0.0
 11
-61.2579382778754
 21
8.901899160861813
 31
0.0
  0
LINE
  5
174
330
1F
100
AcDbEntity
  8
0
100
AcDbLine
 10
-43.82528970537374
 20
6.247635368597384
 30
0.0
 11
-42.7677411765758
 21
5.087144871646264
 31
0.0
  0
LINE
  5
175
330
1F
100
AcDbEntity
  8
0
100
AcDbLine
 10
-55.24288472199189
 20
10.55225511661306
 30
0.0
 11
-53.67283412583865
 21
10.56164712358205
 31
0.0
  0
LINE
  5
176
330
1F
100
AcDbEntity
  8
0
100
AcDbLine
 10
-53.67283412583865
 20
10.56164712358205
 30
0.0
 11
-52.11040269907242
 21
10.40687270408577
 31
0.0
  0
LINE
  5
177
330
1F
100
AcDbEntity
  8
0
100
AcDbLine
 10
-41.83729029755401
 20
3.822467740515326
 30
0.0
 11
-41.04413128284994
 21
2.467460042503933
 31
0.0
  0
LINE
  5
178
330
1F
100
AcDbEntity
  8
0
100
AcDbLine
 10
-50.57270876736517
 20
10.08962759905284
 30
0.0
 11
-49.07659962721522
 21
9.61338761224182
 31
0.0
  0
LINE
  5
179
330
1F
100
AcDbEntity
  8
0
100
AcDbLine
 10
-41.04413128284994
 20
2.467460042503933
 30
0.0
 11
-40.39695414860614
 21
1.036967525505109
 31
0.0
  0
LINE
  5
17A
330
1F
100
AcDbEntity
  8
0
100
AcDbLine
 10
-52.11040269907242
 20
10.40687270408577
 30
0.0
 11
-50.57270876736517
 21
10.08962759905284
 31
0.0
  0
LINE
  5
17B
330
1F
100
AcDbEntity
  8
0
100
AcDbLine
 10
-42.7677411765758
 20
5.087144871646264
 30
0.0
 11
-41.83729029755401
 21
3.822467740515326
 31
0.0
  0
LINE
  5
17C
330
1F
100
AcDbEntity
  8
0
100
AcDbLine
 10
-49.07659962721522
 20
9.61338761224182
 30
0.0
 11
-47.63846696344415
 21
8.983370528607828
 31
0.0
  0
LINE
  5
17D
330
1F
100
AcDbEntity
  8
0
100
AcDbLine
 10
-47.63846696344415
 20
8.983370528607828
 30
0.0
 11
-46.27406725846343
 21
8.206478947158718
 31
0.0
  0
LINE
  5
17E
330
1F
100
AcDbEntity
  8
0
100
AcDbLine
 10
-44.99834916096069
 20
7.291224654635855
 30
0.0
 11
-43.82528970537374
 21
6.247635368597384
 31
0.0
  0
LINE
  5
17F
330
1F
100
AcDbEntity
  8
0
100
AcDbLine
 10
-65.03811360396898
 20
6.12074073833794
 30
0.0
 11
-63.87762310701797
 21
7.1782892671361
 31
0.0
  0
LINE
  5
180
330
1F
100
AcDbEntity
  8
0
100
AcDbLine
 10
-46.27406725846343
 20
8.206478947158718
 30
0.0
 11
-44.99834916096069
 21
7.291224654635855
 31
0.0
  0
LINE
  5
181
330
1F
100
AcDbEntity
  8
0
100
AcDbLine
 10
-40.39695414860614
 20
1.036967525505109
 30
0.0
 11
-39.90284950293777
 21
-0.4533370351151118
 31
0.0
  0
LINE
  5
182
330
1F
100
AcDbEntity
  8
0
100
AcDbLine
 10
47.89145655774815
 20
-17.27087847934464
 30
0.0
 11
46.59080855266093
 21
-16.39141168000565
 31
0.0
  0
LINE
  5
183
330
1F
100
AcDbEntity
  8
0
100
AcDbLine
 10
52.24074589247741
 20
-19.03390143721963
 30
0.0
 11
50.7319859448482
 21
-18.59940114411486
 31
0.0
  0
LINE
  5
184
330
1F
100
AcDbEntity
  8
0
100
AcDbLine
 10
49.2769087900045
 20
-18.00957273031282
 30
0.0
 11
47.89145655774815
 21
-17.27087847934464
 31
0.0
  0
LINE
  5
185
330
1F
100
AcDbEntity
  8
0
100
AcDbLine
 10
50.7319859448482
 20
-18.59940114411486
 30
0.0
 11
49.2769087900045
 21
-18.00957273031282
 31
0.0
  0
LINE
  5
186
330
1F
100
AcDbEntity
  8
0
100
AcDbLine
 10
60.00089248785437
 20
-18.77180772257028
 30
0.0
 11
58.47701789844328
 21
-19.14989940460416
 31
0.0
  0
LINE
  5
187
330
1F
100
AcDbEntity
  8
0
100
AcDbLine
 10
61.47689779032189
 20
-18.23649899728716
 30
0.0
 11
60.00089248785437
 21
-18.77180772257028
 31
0.0
  0
LINE
  5
188
330
1F
100
AcDbEntity
  8
0
100
AcDbLine
 10
53.78665834317661
 20
-19.30831313349083
 30
0.0
 11
52.24074589247741
 21
-19.03390143721963
 31
0.0
  0
LINE
  5
189
330
1F
100
AcDbEntity
  8
0
100
AcDbLine
 10
62.8888623828782
 20
-17.54983818316958
 30
0.0
 11
61.47689779032189
 21
-18.23649899728716
 31
0.0
  0
LINE
  5
18A
330
1F
100
AcDbEntity
  8
0
100
AcDbLine
 10
55.35278595663318
 20
-19.41962972095977
 30
0.0
 11
53.78665834317661
 21
-19.30831313349083
 31
0.0
  0
LINE
  5
18B
330
1F
100
AcDbEntity
  8
0
100
AcDbLine
 10
-39.85640284465893
 20
-8.21776946800667
 30
0.0
 11
-40.33264283146989
 21
-9.7138786081563
 31
0.0
  0
LINE
  5
18C
330
1F
100
AcDbEntity
  8
0
100
AcDbLine
 10
-39.53915773962588
 20
-6.6800755362993
 30
0.0
 11
-39.85640284465893
 21
-8.21776946800667
 31
0.0
  0
LINE
  5
18D
330
1F
100
AcDbEntity
  8
0
100
AcDbLine
 10
-42.65480578907602
 20
-13.79212907441067
 30
0.0
 11
-43.69839507511418
 21
-14.96518852999797
 31
0.0
  0
LINE
  5
18E
330
1F
100
AcDbEntity
  8
0
100
AcDbLine
 10
-39.38438332012961
 20
-5.1176441095331
 30
0.0
 11
-39.53915773962588
 21
-6.6800755362993
 31
0.0
  0
LINE
  5
18F
330
1F
100
AcDbEntity
  8
0
100
AcDbLine
 10
-39.56723085973883
 20
-1.987125550724304
 30
0.0
 11
-39.39377532709832
 21
-3.547593513379553
 31
0.0
  0
LINE
  5
190
330
1F
100
AcDbEntity
  8
0
100
AcDbLine
 10
-39.90284950293777
 20
-0.4533370351151118
 30
0.0
 11
-39.56723085973883
 21
-1.987125550724304
 31
0.0
  0
LINE
  5
191
330
1F
100
AcDbEntity
  8
0
100
AcDbLine
 10
-39.39377532709832
 20
-3.547593513379553
 30
0.0
 11
-39.38438332012961
 21
-5.1176441095331
 31
0.0
  0
LINE
  5
192
330
1F
100
AcDbEntity
  8
0
100
AcDbLine
 10
-40.33264283146989
 20
-9.7138786081563
 30
0.0
 11
-40.9626599151037
 21
-11.15201127192775
 31
0.0
  0
LINE
  5
193
330
1F
100
AcDbEntity
  8
0
100
AcDbLine
 10
56.92196991098091
 20
-19.36663159179966
 30
0.0
 11
55.35278595663318
 21
-19.41962972095977
 31
0.0
  0
LINE
  5
194
330
1F
100
AcDbEntity
  8
0
100
AcDbLine
 10
-40.9626599151037
 20
-11.15201127192775
 30
0.0
 11
-41.73955149655288
 21
-12.51641097690813
 31
0.0
  0
LINE
  5
195
330
1F
100
AcDbEntity
  8
0
100
AcDbLine
 10
64.22131648597427
 20
-16.71934847979
 30
0.0
 11
62.8888623828782
 21
-17.54983818316958
 31
0.0
  0
LINE
  5
196
330
1F
100
AcDbEntity
  8
0
100
AcDbLine
 10
-41.73955149655288
 20
-12.51641097690813
 30
0.0
 11
-42.65480578907602
 21
-13.79212907441067
 31
0.0
  0
LINE
  5
197
330
1F
100
AcDbEntity
  8
0
100
AcDbLine
 10
58.47701789844328
 20
-19.14989940460416
 30
0.0
 11
56.92196991098091
 21
-19.36663159179966
 31
0.0
  0
ENDSEC
  0
SECTION
  2
OBJECTS
  0
DICTIONARY
  5
C
330
0
100
AcDbDictionary
  3
ACAD_GROUP
350
D
  3
ACAD_LAYOUT
350
1A
  3
ACAD_MATERIAL
350
43
  3
ACAD_MLEADERSTYLE
350
5B
  3
ACAD_MLINESTYLE
350
17
  3
ACAD_PLOTSETTINGS
350
19
  3
ACAD_SCALELIST
350
47
  3
ACAD_VISUALSTYLE
350
2A
  3
ACDBHEADERROUNDTRIPXREC
350
198
  3
ACDBVARIABLEDICTIONARY
350
1B9
  3
DWGPROPS
350
1C0
  0
DICTIONARY
  5
1C1
330
8
100
AcDbDictionary
280
     1
  3
ACAD_XREC_ROUNDTRIP
360
1C2
  0
DICTIONARY
  5
D
102
{ACAD_REACTORS
330
C
102
}
330
C
100
AcDbDictionary
  0
DICTIONARY
  5
1A
102
{ACAD_REACTORS
330
C
102
}
330
C
100
AcDbDictionary
  0
DICTIONARY
  5
43
102
{ACAD_REACTORS
330
C
102
}
330
C
100
AcDbDictionary
  3
BYBLOCK
350
45
  3
BYLAYER
350
44
  3
GLOBAL
350
46
  0
DICTIONARY
  5
5B
102
{ACAD_REACTORS
330
C
102
}
330
C
100
AcDbDictionary
  3
STANDARD
350
5C
  0
DICTIONARY
  5
17
102
{ACAD_REACTORS
330
C
102
}
330
C
100
AcDbDictionary
  3
STANDARD
350
18
  0
DICTIONARY
  5
19
102
{ACAD_REACTORS
330
C
102
}
330
C
100
AcDbDictionary
  0
DICTIONARY
  5
47
102
{ACAD_REACTORS
330
C
102
}
330
C
100
AcDbDictionary
  3
A0
350
48
  3
A1
350
49
  3
A2
350
4A
  3
A3
350
4B
  3
A4
350
4C
  3
A5
350
4D
  3
A6
350
4E
  3
A7
350
4F
  3
A8
350
50
  3
A9
350
51
  3
B1
350
52
  3
B2
350
53
  3
B3
350
54
  3
B4
350
55
  3
B5
350
56
  3
B6
350
57
  3
B7
350
58
  0
DICTIONARY
  5
2A
102
{ACAD_REACTORS
330
C
102
}
330
C
100
AcDbDictionary
  3
2DWIREFRAME
350
2F
  3
BASIC
350
32
  3
BRIGHTEN
350
36
  3
COLORCHANGE
350
3A
  3
CONCEPTUAL
350
34
  3
DIM
350
35
  3
EDGECOLOROFF
350
3D
  3
FACEPATTERN
350
39
  3
FLAT
350
2B
  3
FLATWITHEDGES
350
2C
  3
GOURAUD
350
2D
  3
GOURAUDWITHEDGES
350
2E
  3
HIDDEN
350
31
  3
JITTEROFF
350
3B
  3
LINEPATTERN
350
38
  3
OVERHANGOFF
350
3C
  3
REALISTIC
350
33
  3
SHADED
350
42
  3
SHADED_WITH_EDGES
350
41
  3
SHADES_OF_GRAY
350
3E
  3
SKETCHY
350
3F
  3
THICKEN
350
37
  3
WIREFRAME
350
30
  3
X-RAY
350
40
  0
DICTIONARY
  5
198
102
{ACAD_REACTORS
330
C
102
}
330
C
100
AcDbDictionary
  3
CEPSNID
350
1A2
  3
CEPSNTYPE
350
1A1
  3
DIMSTYLEDATA
350
1B8
  3
FINGERPRINTGUID
350
1A3
  3
HYPERLINKBASE
350
19B
  3
INSUNITS
350
1A0
  3
LAYOUTDICT
350
19D
  3
LWETCUNION
350
19F
  3
PLOTSETDICT
350
19E
  3
PSVPSCALE
350
1A5
  3
PUCSBASE
350
1A8
  3
PUCSORGBACK
350
1AE
  3
PUCSORGBOTTOM
350
1AA
  3
PUCSORGFRONT
350
1AD
  3
PUCSORGLEFT
350
1AB
  3
PUCSORGRIGHT
350
1AC
  3
PUCSORGTOP
350
1A9
  3
PUCSORTHOREF
350
1A6
  3
PUCSORTHOVIEW
350
1A7
  3
STYLESHEET
350
19C
  3
TSTACKALIGN
350
199
  3
TSTACKSIZE
350
19A
  3
UCSBASE
350
1B1
  3
UCSORGBACK
350
1B7
  3
UCSORGBOTTOM
350
1B3
  3
UCSORGFRONT
350
1B6
  3
UCSORGLEFT
350
1B4
  3
UCSORGRIGHT
350
1B5
  3
UCSORGTOP
350
1B2
  3
UCSORTHOREF
350
1AF
  3
UCSORTHOVIEW
350
1B0
  3
VERSIONGUID
350
1A4
  0
DICTIONARY
  5
1B9
102
{ACAD_REACTORS
330
C
102
}
330
C
100
AcDbDictionary
  3
CANNOSCALE
350
1C3
  3
CMLEADERSTYLE
350
1BB
  3
CTABLESTYLE
350
1BA
  3
DIMASSOC
350
1BE
  3
HIDETEXT
350
1BF
  3
MSLTSCALE
350
1C4
  0
XRECORD
  5
1C0
102
{ACAD_REACTORS
330
C
102
}
330
C
100
AcDbXrecord
  1
DWGPROPS COOKIE
  2

  3

  4

  6

  7

  8
user
  9

300
=
301
=
302
=
303
=
304
=
305
=
306
=
307
=
308
=
309
=
 40
0.0
 41
2460703.850887882
 42
2460703.850890891
  1

 90
        0
  0
XRECORD
  5
1C2
102
{ACAD_REACTORS
330
1C1
102
}
330
1C1
100
AcDbXrecord
102
VTR_0.000_0.000_1.000_1.000_VISUALSTYLE
340
2F
102
VTR_0.000_0.000_1.000_1.000_GRIDDISPLAY
 70
     3
102
VTR_0.000_0.000_1.000_1.000_GRIDMAJOR
 70
     5
102
VTR_0.000_0.000_1.000_1.000_DEFAULTLIGHTING
280
     1
102
VTR_0.000_0.000_1.000_1.000_DEFAULTLIGHTINGTYPE
 70
     1
102
VTR_0.000_0.000_1.000_1.000_BRIGHTNESS
141
0.0
102
VTR_0.000_0.000_1.000_1.000_CONTRAST
142
0.0
  0
MATERIAL
  5
45
102
{ACAD_REACTORS
330
43
102
}
102
{ACAD_XDICTIONARY
360
1C7
102
}
330
43
100
AcDbMaterial
  1
BYBLOCK
  0
MATERIAL
  5
44
102
{ACAD_REACTORS
330
43
102
}
102
{ACAD_XDICTIONARY
360
1C5
102
}
330
43
100
AcDbMaterial
  1
BYLAYER
  0
MATERIAL
  5
46
102
{ACAD_REACTORS
330
43
102
}
102
{ACAD_XDICTIONARY
360
1C9
102
}
330
43
100
AcDbMaterial
  1
GLOBAL
  0
ACAD_PROXY_OBJECT
  5
5C
102
{ACAD_REACTORS
330
5B
102
}
330
5B
100
AcDbProxyObject
 90
      499
 91
      505
 93
      610
310
40901902A4063FBFFFFFE056BD1B81E855B9FC0AD7A3703D0AD73F4214DD185B99185C9900AD7A3703D0AC73F90141901A02B5E8DC0F42B1CFC02B5E8DC0F42B1CFE5764000000000000300FC0
340
14
340
0
340
11
340
0
 94
        0
1001
ACAD_MLEADERVER
1070
     2
  0
MLINESTYLE
  5
18
102
{ACAD_REACTORS
330
17
102
}
330
17
100
AcDbMlineStyle
  2
Standard
 70
     0
  3

 62
   256
 51
90.0
 52
90.0
 71
     2
 49
0.5
 62
   256
  6
BYLAYER
 49
-0.5
 62
   256
  6
BYLAYER
  0
ACAD_PROXY_OBJECT
  5
48
102
{ACAD_REACTORS
330
47
102
}
330
47
100
AcDbProxyObject
 90
      499
 91
      503
 93
       41
310
903313A31580
  0
ACAD_PROXY_OBJECT
  5
49
102
{ACAD_REACTORS
330
47
102
}
330
47
100
AcDbProxyObject
 90
      499
 91
      503
 93
      257
310
90E312F31323822203D2031272D3022000000000000200FC000000000000284000
  0
ACAD_PROXY_OBJECT
  5
4A
102
{ACAD_REACTORS
330
47
102
}
330
47
100
AcDbProxyObject
 90
      499
 91
      503
 93
      249
310
90D312F363422203D2031272D3022000000000000240FC000000000000284000
  0
ACAD_PROXY_OBJECT
  5
4B
102
{ACAD_REACTORS
330
47
102
}
330
47
100
AcDbProxyObject
 90
      499
 91
      503
 93
      249
310
90D312F333222203D2031272D3022000000000000280FC000000000000284000
  0
ACAD_PROXY_OBJECT
  5
4C
102
{ACAD_REACTORS
330
47
102
}
330
47
100
AcDbProxyObject
 90
      499
 91
      503
 93
      249
310
90D312F313622203D2031272D30220000000000002C0FC000000000000284000
  0
ACAD_PROXY_OBJECT
  5
4D
102
{ACAD_REACTORS
330
47
102
}
330
47
100
AcDbProxyObject
 90
      499
 91
      503
 93
      249
310
90D332F333222203D2031272D30220000000000002E0FC000000000000284000
  0
ACAD_PROXY_OBJECT
  5
4E
102
{ACAD_REACTORS
330
47
102
}
330
47
100
AcDbProxyObject
 90
      499
 91
      503
 93
      241
310
90C312F3822203D2031272D3022000000000000300FC000000000000284000
  0
ACAD_PROXY_OBJECT
  5
4F
102
{ACAD_REACTORS
330
47
102
}
330
47
100
AcDbProxyObject
 90
      499
 91
      503
 93
      249
310
90D332F313622203D2031272D3022000000000000320FC000000000000284000
  0
ACAD_PROXY_OBJECT
  5
50
102
{ACAD_REACTORS
330
47
102
}
330
47
100
AcDbProxyObject
 90
      499
 91
      503
 93
      241
310
90C312F3422203D2031272D3022000000000000340FC000000000000284000
  0
ACAD_PROXY_OBJECT
  5
51
102
{ACAD_REACTORS
330
47
102
}
330
47
100
AcDbProxyObject
 90
      499
 91
      503
 93
      241
310
90C332F3822203D2031272D3022000000000000360FC000000000000284000
  0
ACAD_PROXY_OBJECT
  5
52
102
{ACAD_REACTORS
330
47
102
}
330
47
100
AcDbProxyObject
 90
      499
 91
      503
 93
      241
310
90C312F3222203D2031272D3022000000000000380FC000000000000284000
  0
ACAD_PROXY_OBJECT
  5
53
102
{ACAD_REACTORS
330
47
102
}
330
47
100
AcDbProxyObject
 90
      499
 91
      503
 93
      241
310
90C332F3422203D2031272D30220000000000003A0FC000000000000284000
  0
ACAD_PROXY_OBJECT
  5
54
102
{ACAD_REACTORS
330
47
102
}
330
47
100
AcDbProxyObject
 90
      499
 91
      503
 93
      161
310
90A3122203D2031272D30224000000000000284000
  0
ACAD_PROXY_OBJECT
  5
55
102
{ACAD_REACTORS
330
47
102
}
330
47
100
AcDbProxyObject
 90
      499
 91
      503
 93
      257
310
90E312D312F3222203D2031272D30220000000000003E0FC000000000000284000
  0
ACAD_PROXY_OBJECT
  5
56
102
{ACAD_REACTORS
330
47
102
}
330
47
100
AcDbProxyObject
 90
      499
 91
      503
 93
      225
310
90A3322203D2031272D302200000000000002100000000000000284000
  0
ACAD_PROXY_OBJECT
  5
57
102
{ACAD_REACTORS
330
47
102
}
330
47
100
AcDbProxyObject
 90
      499
 91
      503
 93
      225
310
90A3622203D2031272D302200000000000006100000000000000284000
  0
ACAD_PROXY_OBJECT
  5
58
102
{ACAD_REACTORS
330
47
102
}
330
47
100
AcDbProxyObject
 90
      499
 91
      503
 93
      249
310
90D31272D3022203D2031272D30220000000000000A100000000000000284000
  0
ACAD_PROXY_OBJECT
  5
2F
102
{ACAD_REACTORS
330
2A
102
}
330
2A
100
AcDbProxyObject
 90
      499
 91
      501
 93
      436
310
42CC9915DA5C99599C985B595049028333333333333E33F0000000000000F90107901411070040501600405405064090741402480A0340
1001
ACAD
1000
AcDbSavedByObjectVersion
1070
     0
  0
ACAD_PROXY_OBJECT
  5
32
102
{ACAD_REACTORS
330
2A
102
}
330
2A
100
AcDbProxyObject
 90
      499
 91
      501
 93
      388
310
4150985CDA58D07406404333333333333E33F0000000000000F90107A41107004050150841D405064090741402480A0350
1001
ACAD
1000
AcDbSavedByObjectVersion
1070
     0
  0
ACAD_PROXY_OBJECT
  5
36
102
{ACAD_REACTORS
330
2A
102
}
330
2A
100
AcDbProxyObject
 90
      499
 91
      501
 93
      428
310
42109C9A59DA1D195B90C409028333333333333E33F0000000000000F9010790141107004050150841D405064090741402480A029950
1001
ACAD
1000
AcDbSavedByObjectVersion
1070
     0
  0
ACAD_PROXY_OBJECT
  5
3A
102
{ACAD_REACTORS
330
2A
102
}
330
2A
100
AcDbProxyObject
 90
      499
 91
      501
 93
      452
310
42D0DBDB1BDC90DA185B99D95104090240C333333333333E33F0000000000000F90108901411070040501508421405064090741402480A0350
1001
ACAD
1000
AcDbSavedByObjectVersion
1070
     0
  0
ACAD_PROXY_OBJECT
  5
34
102
{ACAD_REACTORS
330
2A
102
}
330
2A
100
AcDbProxyObject
 90
      499
 91
      501
 93
      500
310
4290DBDB98D95C1D1D585B10940D028333333333333E33F0000000000000F90107902409070040501000000000018199010841D405064090740C02480A0340
1001
ACAD
1000
AcDbSavedByObjectVersion
1070
     0
  0
ACAD_PROXY_OBJECT
  5
35
102
{ACAD_REACTORS
330
2A
102
}
330
2A
100
AcDbProxyObject
 90
      499
 91
      501
 93
      412
310
40D11A5B50B409028333333333333E33F0000000000000F9010790141107004050150841D405064090741402480A02677FFFFFD0
1001
ACAD
1000
AcDbSavedByObjectVersion
1070
     0
  0
ACAD_PROXY_OBJECT
  5
3D
102
{ACAD_REACTORS
330
2A
102
}
330
2A
100
AcDbProxyObject
 90
      499
 91
      501
 93
      452
310
43115919D950DBDB1BDC93D999916409028333333333333E33F0000000000000F9010790141107004050150841D405064090741402480A0350
1001
ACAD
1000
AcDbSavedByObjectVersion
1070
     0
  0
ACAD_PROXY_OBJECT
  5
39
102
{ACAD_REACTORS
330
2A
102
}
330
2A
100
AcDbProxyObject
 90
      499
 91
      501
 93
      444
310
42D19858D95C185D1D195C9B90F409028333333333333E33F0000000000000F9010790141107004050150841D405064090741402480A0350
1001
ACAD
1000
AcDbSavedByObjectVersion
1070
     0
  0
ACAD_PROXY_OBJECT
  5
2B
102
{ACAD_REACTORS
330
2A
102
}
330
2A
100
AcDbProxyObject
 90
      499
 91
      501
 93
      380
310
41119B185D240901404333333333333E33F0000000000000F9010740A907004050150841D405064090741402480A1B50
1001
ACAD
1000
AcDbSavedByObjectVersion
1070
     0
  0
ACAD_PROXY_OBJECT
  5
2C
102
{ACAD_REACTORS
330
2A
102
}
330
2A
100
AcDbProxyObject
 90
      499
 91
      501
 93
      468
310
43519B185D15DA5D1A115919D95CD0140901404333333333333E33F0000000000000F90107409019070040501600405405064090741402480A1B50
1001
ACAD
1000
AcDbSavedByObjectVersion
1070
     0
  0
ACAD_PROXY_OBJECT
  5
2D
102
{ACAD_REACTORS
330
2A
102
}
330
2A
100
AcDbProxyObject
 90
      499
 91
      501
 93
      404
310
41D1DBDD5C985D5910240902404333333333333E33F0000000000000F9010740A9070040501641D405064090741402480A1B50
1001
ACAD
1000
AcDbSavedByObjectVersion
1070
     0
  0
ACAD_PROXY_OBJECT
  5
2E
102
{ACAD_REACTORS
330
2A
102
}
330
2A
100
AcDbProxyObject
 90
      499
 91
      501
 93
      492
310
4411DBDD5C985D5915DA5D1A115919D95CD0340902404333333333333E33F0000000000000F90107409019070040501600405405064090741402480A1B50
1001
ACAD
1000
AcDbSavedByObjectVersion
1070
     0
  0
ACAD_PROXY_OBJECT
  5
31
102
{ACAD_REACTORS
330
2A
102
}
330
2A
100
AcDbProxyObject
 90
      499
 91
      501
 93
      476
310
41921A5919195B90640502408333333333333E33F0000000000000F901079024090700405020000000000001110200405405064090740C02480A0340
1001
ACAD
1000
AcDbSavedByObjectVersion
1070
     0
  0
ACAD_PROXY_OBJECT
  5
3B
102
{ACAD_REACTORS
330
2A
102
}
330
2A
100
AcDbProxyObject
 90
      499
 91
      501
 93
      428
310
42529A5D1D195C93D999914409028333333333333E33F0000000000000F9010790141107004050150A41D405064090741402480A0350
1001
ACAD
1000
AcDbSavedByObjectVersion
1070
     0
  0
ACAD_PROXY_OBJECT
  5
38
102
{ACAD_REACTORS
330
2A
102
}
330
2A
100
AcDbProxyObject
 90
      499
 91
      501
 93
      444
310
42D31A5B995C185D1D195C9B90E409028333333333333E33F0000000000000F9010790141107004050750841D405064090741402483A0350
1001
ACAD
1000
AcDbSavedByObjectVersion
1070
     0
  0
ACAD_PROXY_OBJECT
  5
3C
102
{ACAD_REACTORS
330
2A
102
}
330
2A
100
AcDbProxyObject
 90
      499
 91
      501
 93
      444
310
42D3DD995C9A185B99D3D999915409028333333333333E33F0000000000000F9010790141107004050150941D405064090741402480A0350
1001
ACAD
1000
AcDbSavedByObjectVersion
1070
     0
  0
ACAD_PROXY_OBJECT
  5
33
102
{ACAD_REACTORS
330
2A
102
}
330
2A
100
AcDbProxyObject
 90
      499
 91
      501
 93
      428
310
425499585B1A5CDD1A58D08409038333333333333E33F0000000000000F9010740A907004050150800405405064090740C02480A1B40
1001
ACAD
1000
AcDbSavedByObjectVersion
1070
     0
  0
ACAD_PROXY_OBJECT
  5
42
102
{ACAD_REACTORS
330
2A
102
}
330
2A
100
AcDbProxyObject
 90
      499
 91
      501
 93
      420
310
4194DA1859195911B40902404333333333333E33F0000000000000F9010740A41107004050150800405405064090840C02480A0B40
1001
ACAD
1000
AcDbSavedByObjectVersion
1070
     0
  0
ACAD_PROXY_OBJECT
  5
41
102
{ACAD_REACTORS
330
2A
102
}
330
2A
100
AcDbProxyObject
 90
      499
 91
      501
 93
      516
310
4454DA18591959081DDA5D1A08195919D95CD1A40902404333333333333E33F0000000000000F901074090142907004050250800405405064090740C02480A0B40
1001
ACAD
1000
AcDbSavedByObjectVersion
1070
     0
  0
ACAD_PROXY_OBJECT
  5
3E
102
{ACAD_REACTORS
330
2A
102
}
330
2A
100
AcDbProxyObject
 90
      499
 91
      501
 93
      532
310
4394DA1859195CC81BD98811DC985E5174090240C333333333333E33F0000000000000F901079024090741D01000000000000111010841D405064090740C02480A0340
1001
ACAD
1000
AcDbSavedByObjectVersion
1070
     0
  0
ACAD_PROXY_OBJECT
  5
3F
102
{ACAD_REACTORS
330
2A
102
}
330
2A
100
AcDbProxyObject
 90
      499
 91
      501
 93
      476
310
41D4DAD95D18DA1E51840502408333333333333E33F0000000000000F901079024090741D01000000000000111010B41D405064090741802480A0340
1001
ACAD
1000
AcDbSavedByObjectVersion
1070
     0
  0
ACAD_PROXY_OBJECT
  5
37
102
{ACAD_REACTORS
330
2A
102
}
330
2A
100
AcDbProxyObject
 90
      499
 91
      501
 93
      412
310
41D51A1A58DAD95B90D409028333333333333E33F0000000000000F9010790141107004050150C41D405064090741402480A0350
1001
ACAD
1000
AcDbSavedByObjectVersion
1070
     0
  0
ACAD_PROXY_OBJECT
  5
30
102
{ACAD_REACTORS
330
2A
102
}
330
2A
100
AcDbProxyObject
 90
      499
 91
      501
 93
      420
310
4255DA5C99599C985B595059028333333333333E33F0000000000000F90107901411070040501600405405064090740C02480A0340
1001
ACAD
1000
AcDbSavedByObjectVersion
1070
     0
  0
ACAD_PROXY_OBJECT
  5
40
102
{ACAD_REACTORS
330
2A
102
}
330
2A
100
AcDbProxyObject
 90
      499
 91
      501
 93
      404
310
41560B54985E51940902404000000000000E03F0000000000000F9010740501907004050150841D405064090740C02480A1B40
1001
ACAD
1000
AcDbSavedByObjectVersion
1070
     0
  0
XRECORD
  5
1A2
102
{ACAD_REACTORS
330
198
102
}
330
198
100
AcDbXrecord
340
0
  0
XRECORD
  5
1A1
102
{ACAD_REACTORS
330
198
102
}
330
198
100
AcDbXrecord
 90
        0
  0
XRECORD
  5
1B8
102
{ACAD_REACTORS
330
198
102
}
330
198
100
AcDbXrecord
1000
DSTYLE
1002
{
1070
   171
 70
     2
1070
   143
 40
25.4
1070
   274
 70
     2
1070
    41
 40
0.18
1070
   141
 40
0.09
1070
   271
 70
     4
1070
    43
 40
0.38
1070
   278
 70
    46
1070
    44
 40
0.18
1070
    42
 40
0.0625
1070
   147
 40
0.09
1070
    77
 70
     0
1070
   272
 70
     4
1070
    73
 70
     1
1070
   172
 70
     0
1070
    74
 70
     1
1070
   283
 70
     1
1070
   340
340
11
1070
   140
 40
0.18
1070
   284
 70
     0
1070
    78
 70
     0
1002
}
  0
XRECORD
  5
1A3
102
{ACAD_REACTORS
330
198
102
}
330
198
100
AcDbXrecord
  1
{be7c95bf-cc57-5a45-815e-5bb1e666888b}
  0
XRECORD
  5
19B
102
{ACAD_REACTORS
330
198
102
}
330
198
100
AcDbXrecord
  1

  0
XRECORD
  5
1A0
102
{ACAD_REACTORS
330
198
102
}
330
198
100
AcDbXrecord
 90
        4
  0
XRECORD
  5
19D
102
{ACAD_REACTORS
330
198
102
}
330
198
100
AcDbXrecord
340
1A
  0
XRECORD
  5
19F
102
{ACAD_REACTORS
330
198
102
}
330
198
100
AcDbXrecord
 90
    10781
  0
XRECORD
  5
19E
102
{ACAD_REACTORS
330
198
102
}
330
198
100
AcDbXrecord
340
19
  0
XRECORD
  5
1A5
102
{ACAD_REACTORS
330
198
102
}
330
198
100
AcDbXrecord
 40
0.0
  0
XRECORD
  5
1A8
102
{ACAD_REACTORS
330
198
102
}
330
198
100
AcDbXrecord
340
0
  0
XRECORD
  5
1AE
102
{ACAD_REACTORS
330
198
102
}
330
198
100
AcDbXrecord
 10
0.0
 20
0.0
 30
0.0
  0
XRECORD
  5
1AA
102
{ACAD_REACTORS
330
198
102
}
330
198
100
AcDbXrecord
 10
0.0
 20
0.0
 30
0.0
  0
XRECORD
  5
1AD
102
{ACAD_REACTORS
330
198
102
}
330
198
100
AcDbXrecord
 10
0.0
 20
0.0
 30
0.0
  0
XRECORD
  5
1AB
102
{ACAD_REACTORS
330
198
102
}
330
198
100
AcDbXrecord
 10
0.0
 20
0.0
 30
0.0
  0
XRECORD
  5
1AC
102
{ACAD_REACTORS
330
198
102
}
330
198
100
AcDbXrecord
 10
0.0
 20
0.0
 30
0.0
  0
XRECORD
  5
1A9
102
{ACAD_REACTORS
330
198
102
}
330
198
100
AcDbXrecord
 10
0.0
 20
0.0
 30
0.0
  0
XRECORD
  5
1A6
102
{ACAD_REACTORS
330
198
102
}
330
198
100
AcDbXrecord
340
0
  0
XRECORD
  5
1A7
102
{ACAD_REACTORS
330
198
102
}
330
198
100
AcDbXrecord
 70
     0
  0
XRECORD
  5
19C
102
{ACAD_REACTORS
330
198
102
}
330
198
100
AcDbXrecord
  1

  0
XRECORD
  5
199
102
{ACAD_REACTORS
330
198
102
}
330
198
100
AcDbXrecord
 90
        1
  0
XRECORD
  5
19A
102
{ACAD_REACTORS
330
198
102
}
330
198
100
AcDbXrecord
 90
       70
  0
XRECORD
  5
1B1
102
{ACAD_REACTORS
330
198
102
}
330
198
100
AcDbXrecord
340
0
  0
XRECORD
  5
1B7
102
{ACAD_REACTORS
330
198
102
}
330
198
100
AcDbXrecord
 10
0.0
 20
0.0
 30
0.0
  0
XRECORD
  5
1B3
102
{ACAD_REACTORS
330
198
102
}
330
198
100
AcDbXrecord
 10
0.0
 20
0.0
 30
0.0
  0
XRECORD
  5
1B6
102
{ACAD_REACTORS
330
198
102
}
330
198
100
AcDbXrecord
 10
0.0
 20
0.0
 30
0.0
  0
XRECORD
  5
1B4
102
{ACAD_REACTORS
330
198
102
}
330
198
100
AcDbXrecord
 10
0.0
 20
0.0
 30
0.0
  0
XRECORD
  5
1B5
102
{ACAD_REACTORS
330
198
102
}
330
198
100
AcDbXrecord
 10
0.0
 20
0.0
 30
0.0
  0
XRECORD
  5
1B2
102
{ACAD_REACTORS
330
198
102
}
330
198
100
AcDbXrecord
 10
0.0
 20
0.0
 30
0.0
  0
XRECORD
  5
1AF
102
{ACAD_REACTORS
330
198
102
}
330
198
100
AcDbXrecord
340
0
  0
XRECORD
  5
1B0
102
{ACAD_REACTORS
330
198
102
}
330
198
100
AcDbXrecord
 70
     0
  0
XRECORD
  5
1A4
102
{ACAD_REACTORS
330
198
102
}
330
198
100
AcDbXrecord
  1
{FAEB1C32-E019-11D5-929B-00C0DF256EC4}
  0
DICTIONARYVAR
  5
1C3
102
{ACAD_REACTORS
330
1B9
102
}
330
1B9
100
DictionaryVariables
280
     0
  1
1:1
  0
DICTIONARYVAR
  5
1BB
102
{ACAD_REACTORS
330
1B9
102
}
330
1B9
100
DictionaryVariables
280
     0
  1
Standard
  0
DICTIONARYVAR
  5
1BA
102
{ACAD_REACTORS
330
1B9
102
}
330
1B9
100
DictionaryVariables
280
     0
  1
Standard
  0
DICTIONARYVAR
  5
1BE
102
{ACAD_REACTORS
330
1B9
102
}
330
1B9
100
DictionaryVariables
280
     0
  1
2
  0
DICTIONARYVAR
  5
1BF
102
{ACAD_REACTORS
330
1B9
102
}
330
1B9
100
DictionaryVariables
280
     0
  1
1
  0
DICTIONARYVAR
  5
1C4
102
{ACAD_REACTORS
330
1B9
102
}
330
1B9
100
DictionaryVariables
280
     0
  1
1
  0
DICTIONARY
  5
1C7
330
45
100
AcDbDictionary
280
     1
  3
ACAD_XREC_ROUNDTRIP
360
1C8
  0
DICTIONARY
  5
1C5
330
44
100
AcDbDictionary
280
     1
  3
ACAD_XREC_ROUNDTRIP
360
1C6
  0
DICTIONARY
  5
1C9
330
46
100
AcDbDictionary
280
     1
  3
ACAD_XREC_ROUNDTRIP
360
1CA
  0
XRECORD
  5
1C8
102
{ACAD_REACTORS
330
1C7
102
}
330
1C7
100
AcDbXrecord
102
MATERIAL
148
0.0
149
0.0
149
0.0
 93
        0
 94
      127
282
     0
 72
     1
 77
     1
171
     1
175
     1
179
     1
273
     0
  0
XRECORD
  5
1C6
102
{ACAD_REACTORS
330
1C5
102
}
330
1C5
100
AcDbXrecord
102
MATERIAL
148
0.0
149
0.0
149
0.0
 93
        0
 94
      127
282
     0
 72
     1
 77
     1
171
     1
175
     1
179
     1
273
     0
  0
XRECORD
  5
1CA
102
{ACAD_REACTORS
330
1C9
102
}
330
1C9
100
AcDbXrecord
102
MATERIAL
148
0.0
149
0.0
149
0.0
 93
        0
 94
      127
282
     0
 72
     1
 77
     1
171
     1
175
     1
179
     1
273
     0
  0
ENDSEC
  0
EOF
