  0
SECTION
  2
HEADER
  9
$ACADVER
  1
AC1014
  9
$ACADMAINTVER
 70
     9
  9
$DWGCODEPAGE
  3
CNT
  9
$INSBASE
 10
0.0
 20
0.0
 30
0.0
  9
$EXTMIN
 10
1.000000000000000E+20
 20
1.000000000000000E+20
 30
1.000000000000000E+20
  9
$EXTMAX
 10
-1.000000000000000E+20
 20
-1.000000000000000E+20
 30
-1.000000000000000E+20
  9
$LIMMIN
 10
0.0
 20
0.0
  9
$LIMMAX
 10
12.0
 20
9.0
  9
$ORTHOMODE
 70
     0
  9
$REGENMODE
 70
     1
  9
$FILLMODE
 70
     1
  9
$QTEXTMODE
 70
     0
  9
$MIRRTEXT
 70
     1
  9
$DRAGMODE
 70
     2
  9
$LTSCALE
 40
1.0
  9
$OSMODE
 70
    37
  9
$ATTMODE
 70
     1
  9
$TEXTSIZE
 40
0.2
  9
$TRACEWID
 40
0.05
  9
$TEXTSTYLE
  7
STANDARD
  9
$CLAYER
  8
0
  9
$CELTYPE
  6
BYLAYER
  9
$CECOLOR
 62
   256
  9
$CELTSCALE
 40
1.0
  9
$DELOBJ
 70
     1
  9
$DISPSILH
 70
     0
  9
$DIMSCALE
 40
1.0
  9
$DIMASZ
 40
0.18
  9
$DIMEXO
 40
0.0625
  9
$DIMDLI
 40
0.38
  9
$DIMRND
 40
0.0
  9
$DIMDLE
 40
0.0
  9
$DIMEXE
 40
0.18
  9
$DIMTP
 40
0.0
  9
$DIMTM
 40
0.0
  9
$DIMTXT
 40
0.18
  9
$DIMCEN
 40
0.09
  9
$DIMTSZ
 40
0.0
  9
$DIMTOL
 70
     0
  9
$DIMLIM
 70
     0
  9
$DIMTIH
 70
     1
  9
$DIMTOH
 70
     1
  9
$DIMSE1
 70
     0
  9
$DIMSE2
 70
     0
  9
$DIMTAD
 70
     0
  9
$DIMZIN
 70
     0
  9
$DIMBLK
  1

  9
$DIMASO
 70
     1
  9
$DIMSHO
 70
     1
  9
$DIMPOST
  1

  9
$DIMAPOST
  1

  9
$DIMALT
 70
     0
  9
$DIMALTD
 70
     2
  9
$DIMALTF
 40
25.4
  9
$DIMLFAC
 40
1.0
  9
$DIMTOFL
 70
     0
  9
$DIMTVP
 40
0.0
  9
$DIMTIX
 70
     0
  9
$DIMSOXD
 70
     0
  9
$DIMSAH
 70
     0
  9
$DIMBLK1
  1

  9
$DIMBLK2
  1

  9
$DIMSTYLE
  2
STANDARD
  9
$DIMCLRD
 70
     0
  9
$DIMCLRE
 70
     0
  9
$DIMCLRT
 70
     0
  9
$DIMTFAC
 40
1.0
  9
$DIMGAP
 40
0.09
  9
$DIMJUST
 70
     0
  9
$DIMSD1
 70
     0
  9
$DIMSD2
 70
     0
  9
$DIMTOLJ
 70
     1
  9
$DIMTZIN
 70
     0
  9
$DIMALTZ
 70
     0
  9
$DIMALTTZ
 70
     0
  9
$DIMFIT
 70
     3
  9
$DIMUPT
 70
     0
  9
$DIMUNIT
 70
     2
  9
$DIMDEC
 70
     4
  9
$DIMTDEC
 70
     4
  9
$DIMALTU
 70
     2
  9
$DIMALTTD
 70
     2
  9
$DIMTXSTY
  7
STANDARD
  9
$DIMAUNIT
 70
     0
  9
$LUNITS
 70
     2
  9
$LUPREC
 70
     4
  9
$SKETCHINC
 40
0.1
  9
$FILLETRAD
 40
0.0
  9
$AUNITS
 70
     0
  9
$AUPREC
 70
     0
  9
$MENU
  1
.
  9
$ELEVATION
 40
0.0
  9
$PELEVATION
 40
0.0
  9
$THICKNESS
 40
0.0
  9
$LIMCHECK
 70
     0
  9
$CHAMFERA
 40
0.0
  9
$CHAMFERB
 40
0.0
  9
$CHAMFERC
 40
0.0
  9
$CHAMFERD
 40
0.0
  9
$SKPOLY
 70
     0
  9
$TDCREATE
 40
2460674.430360706
  9
$TDUPDATE
 40
2460674.43036331
  9
$TDINDWG
 40
0.0000000116
  9
$TDUSRTIMER
 40
0.0000000116
  9
$USRTIMER
 70
     1
  9
$ANGBASE
 50
0.0
  9
$ANGDIR
 70
     0
  9
$PDMODE
 70
     0
  9
$PDSIZE
 40
0.0
  9
$PLINEWID
 40
0.0
  9
$COORDS
 70
     1
  9
$SPLFRAME
 70
     0
  9
$SPLINETYPE
 70
     6
  9
$SPLINESEGS
 70
     8
  9
$ATTDIA
 70
     0
  9
$ATTREQ
 70
     1
  9
$HANDLING
 70
     1
  9
$HANDSEED
  5
235
  9
$SURFTAB1
 70
     6
  9
$SURFTAB2
 70
     6
  9
$SURFTYPE
 70
     6
  9
$SURFU
 70
     6
  9
$SURFV
 70
     6
  9
$UCSNAME
  2

  9
$UCSORG
 10
0.0
 20
0.0
 30
0.0
  9
$UCSXDIR
 10
1.0
 20
0.0
 30
0.0
  9
$UCSYDIR
 10
0.0
 20
1.0
 30
0.0
  9
$PUCSNAME
  2

  9
$PUCSORG
 10
0.0
 20
0.0
 30
0.0
  9
$PUCSXDIR
 10
1.0
 20
0.0
 30
0.0
  9
$PUCSYDIR
 10
0.0
 20
1.0
 30
0.0
  9
$USERI1
 70
     0
  9
$USERI2
 70
     0
  9
$USERI3
 70
     0
  9
$USERI4
 70
     0
  9
$USERI5
 70
     0
  9
$USERR1
 40
0.0
  9
$USERR2
 40
0.0
  9
$USERR3
 40
0.0
  9
$USERR4
 40
0.0
  9
$USERR5
 40
0.0
  9
$WORLDVIEW
 70
     1
  9
$SHADEDGE
 70
     3
  9
$SHADEDIF
 70
    70
  9
$TILEMODE
 70
     1
  9
$MAXACTVP
 70
    64
  9
$PINSBASE
 10
0.0
 20
0.0
 30
0.0
  9
$PLIMCHECK
 70
     0
  9
$PEXTMIN
 10
1.000000000000000E+20
 20
1.000000000000000E+20
 30
1.000000000000000E+20
  9
$PEXTMAX
 10
-1.000000000000000E+20
 20
-1.000000000000000E+20
 30
-1.000000000000000E+20
  9
$PLIMMIN
 10
0.0
 20
0.0
  9
$PLIMMAX
 10
12.0
 20
9.0
  9
$UNITMODE
 70
     0
  9
$VISRETAIN
 70
     1
  9
$PLINEGEN
 70
     0
  9
$PSLTSCALE
 70
     1
  9
$TREEDEPTH
 70
  3020
  9
$PICKSTYLE
 70
     1
  9
$CMLSTYLE
  2
STANDARD
  9
$CMLJUST
 70
     0
  9
$CMLSCALE
 40
1.0
  9
$PROXYGRAPHICS
 70
     1
  9
$MEASUREMENT
 70
     1
  0
ENDSEC
  0
SECTION
  2
CLASSES
  0
CLASS
  1
ACDBDICTIONARYWDFLT
  2
AcDbDictionaryWithDefault
  3
ObjectDBX Classes
 90
        0
280
     0
281
     0
  0
CLASS
  1
VISUALSTYLE
  2
AcDbVisualStyle
  3
ObjectDBX Classes
 90
     4095
280
     0
281
     0
  0
CLASS
  1
MATERIAL
  2
AcDbMaterial
  3
ObjectDBX Classes
 90
     1153
280
     0
281
     0
  0
CLASS
  1
SCALE
  2
AcDbScale
  3
ObjectDBX Classes
 90
     1153
280
     0
281
     0
  0
CLASS
  1
TABLESTYLE
  2
AcDbTableStyle
  3
ObjectDBX Classes
 90
     4095
280
     0
281
     0
  0
CLASS
  1
MLEADERSTYLE
  2
AcDbMLeaderStyle
  3
ACDB_MLEADERSTYLE_CLASS
 90
     4095
280
     0
281
     0
  0
CLASS
  1
SUN
  2
AcDbSun
  3
SCENEOE
 90
     1153
280
     0
281
     0
  0
CLASS
  1
DICTIONARYVAR
  2
AcDbDictionaryVar
  3
ObjectDBX Classes
 90
        0
280
     0
281
     0
  0
CLASS
  1
XRECORD
  2
AcDbXrecord
  3
ObjectDBX Classes
 90
        0
280
     0
281
     0
  0
CLASS
  1
LWPOLYLINE
  2
AcDbPolyline
  3
ObjectDBX Classes
 90
        0
280
     0
281
     1
  0
CLASS
  1
HATCH
  2
AcDbHatch
  3
ObjectDBX Classes
 90
        0
280
     0
281
     1
  0
CLASS
  1
ACDBPLACEHOLDER
  2
AcDbPlaceHolder
  3
ObjectDBX Classes
 90
        0
280
     0
281
     0
  0
CLASS
  1
LAYOUT
  2
AcDbLayout
  3
ObjectDBX Classes
 90
        0
280
     0
281
     0
  0
ENDSEC
  0
SECTION
  2
TABLES
  0
TABLE
  2
VPORT
  5
8
102
{ACAD_XDICTIONARY
360
22A
102
}
330
0
100
AcDbSymbolTable
 70
     1
  0
VPORT
  5
29
330
8
100
AcDbSymbolTableRecord
100
AcDbViewportTableRecord
  2
*ACTIVE
 70
     0
 10
0.0
 20
0.0
 11
1.0
 21
1.0
 12
0.0
 22
0.0
 13
0.0
 23
0.0
 14
0.5
 24
0.5
 15
0.5
 25
0.5
 16
0.0
 26
0.0
 36
1.0
 17
0.0
 27
0.0
 37
-1000.0
 40
1067.566842993617
 41
1.853467561521253
 42
50.0
 43
13621.56550450701
 44
19619.31468341212
 50
0.0
 51
0.0
 71
     0
 72
   100
 73
     1
 74
     3
 75
     0
 76
     0
 77
     0
 78
     0
  0
ENDTAB
  0
TABLE
  2
LTYPE
  5
5
330
0
100
AcDbSymbolTable
 70
     1
  0
LTYPE
  5
14
330
5
100
AcDbSymbolTableRecord
100
AcDbLinetypeTableRecord
  2
BYBLOCK
 70
     0
  3

 72
    65
 73
     0
 40
0.0
  0
LTYPE
  5
15
330
5
100
AcDbSymbolTableRecord
100
AcDbLinetypeTableRecord
  2
BYLAYER
 70
     0
  3

 72
    65
 73
     0
 40
0.0
  0
LTYPE
  5
16
330
5
100
AcDbSymbolTableRecord
100
AcDbLinetypeTableRecord
  2
CONTINUOUS
 70
     0
  3
Solid line
 72
    65
 73
     0
 40
0.0
  0
ENDTAB
  0
TABLE
  2
LAYER
  5
2
330
0
100
AcDbSymbolTable
 70
     3
  0
LAYER
  5
10
330
2
100
AcDbSymbolTableRecord
100
AcDbLayerTableRecord
  2
0
 70
     0
 62
     7
  6
CONTINUOUS
  0
LAYER
  5
5E
330
2
100
AcDbSymbolTableRecord
100
AcDbLayerTableRecord
  2
PROFILEEDGES
 70
     0
 62
     7
  6
CONTINUOUS
  0
LAYER
  5
5F
330
2
100
AcDbSymbolTableRecord
100
AcDbLayerTableRecord
  2
SECTIONCUTEDGES
 70
     0
 62
     7
  6
CONTINUOUS
  0
ENDTAB
  0
TABLE
  2
STYLE
  5
3
330
0
100
AcDbSymbolTable
 70
     1
  0
STYLE
  5
11
330
3
100
AcDbSymbolTableRecord
100
AcDbTextStyleTableRecord
  2
STANDARD
 70
     0
 40
0.0
 41
1.0
 50
0.0
 71
     0
 42
0.2
  3
txt
  4

  0
ENDTAB
  0
TABLE
  2
VIEW
  5
6
330
0
100
AcDbSymbolTable
 70
     0
  0
ENDTAB
  0
TABLE
  2
UCS
  5
7
330
0
100
AcDbSymbolTable
 70
     0
  0
ENDTAB
  0
TABLE
  2
APPID
  5
9
330
0
100
AcDbSymbolTable
 70
     2
  0
APPID
  5
12
330
9
100
AcDbSymbolTableRecord
100
AcDbRegAppTableRecord
  2
ACAD
 70
     0
  0
APPID
  5
234
330
9
100
AcDbSymbolTableRecord
100
AcDbRegAppTableRecord
  2
ACAD_MLEADERVER
 70
     0
  0
ENDTAB
  0
TABLE
  2
DIMSTYLE
  5
A
330
0
100
AcDbSymbolTable
 70
     1
  0
DIMSTYLE
105
27
330
A
100
AcDbSymbolTableRecord
100
AcDbDimStyleTableRecord
  2
STANDARD
 70
     0
  3

  4

  5

  6

  7

 40
1.0
 41
0.18
 42
0.0625
 43
0.38
 44
0.18
 45
0.0
 46
0.0
 47
0.0
 48
0.0
140
0.18
141
0.09
142
0.0
143
25.4
144
1.0
145
0.0
146
1.0
147
0.09
 71
     0
 72
     0
 73
     1
 74
     1
 75
     0
 76
     0
 77
     0
 78
     0
170
     0
171
     2
172
     0
173
     0
174
     0
175
     0
176
     0
177
     0
178
     0
270
     2
271
     4
272
     4
273
     2
274
     2
340
11
275
     0
280
     0
281
     0
282
     0
283
     1
284
     0
285
     0
286
     0
287
     3
288
     0
  0
ENDTAB
  0
TABLE
  2
BLOCK_RECORD
  5
1
330
0
100
AcDbSymbolTable
 70
     0
  0
BLOCK_RECORD
  5
1F
330
1
100
AcDbSymbolTableRecord
100
AcDbBlockTableRecord
  2
*MODEL_SPACE
  0
BLOCK_RECORD
  5
1B
330
1
100
AcDbSymbolTableRecord
100
AcDbBlockTableRecord
  2
*PAPER_SPACE
  0
ENDTAB
  0
ENDSEC
  0
SECTION
  2
BLOCKS
  0
BLOCK
  5
20
330
1F
100
AcDbEntity
  8
0
100
AcDbBlockBegin
  2
*MODEL_SPACE
 70
     0
 10
0.0
 20
0.0
 30
0.0
  3
*MODEL_SPACE
  1

  0
ENDBLK
  5
21
330
1F
100
AcDbEntity
  8
0
100
AcDbBlockEnd
  0
BLOCK
  5
1C
330
1B
100
AcDbEntity
 67
     1
  8
0
100
AcDbBlockBegin
  2
*PAPER_SPACE
 70
     0
 10
0.0
 20
0.0
 30
0.0
  3
*PAPER_SPACE
  1

  0
ENDBLK
  5
1D
330
1B
100
AcDbEntity
 67
     1
  8
0
100
AcDbBlockEnd
  0
ENDSEC
  0
SECTION
  2
ENTITIES
  0
LINE
  5
60
330
1F
100
AcDbEntity
  8
0
100
AcDbLine
 10
-154.6969826636654
 20
-485.1968882430602
 30
0.0
 11
-154.6969826636654
 21
107.275891756939
 31
0.0
  0
LINE
  5
61
330
1F
100
AcDbEntity
  8
0
100
AcDbLine
 10
-9.535982663665315
 20
-485.1968882430602
 30
0.0
 11
-154.6969826636654
 21
-485.1968882430602
 31
0.0
  0
LINE
  5
62
330
1F
100
AcDbEntity
  8
0
100
AcDbLine
 10
-203.0839826636654
 20
453.5109117569345
 30
0.0
 11
-212.7613826636654
 21
452.4364917569342
 31
0.0
  0
LINE
  5
63
330
1F
100
AcDbEntity
  8
0
100
AcDbLine
 10
-212.7613826636654
 20
452.4364917569342
 30
0.0
 11
-212.7613826636654
 21
455.6622917569345
 31
0.0
  0
LINE
  5
64
330
1F
100
AcDbEntity
  8
0
100
AcDbLine
 10
-211.1572591887576
 20
459.9784045813867
 30
0.0
 11
-212.7613826636654
 21
455.6622917569345
 31
0.0
  0
LINE
  5
65
330
1F
100
AcDbEntity
  8
0
100
AcDbLine
 10
-171.9014186636651
 20
487.9202917569528
 30
0.0
 11
-176.4719711942004
 21
487.3616401644753
 31
0.0
  0
LINE
  5
66
330
1F
100
AcDbEntity
  8
0
100
AcDbLine
 10
-176.4719711942004
 20
487.3616401644753
 30
0.0
 11
-180.964530578008
 21
486.3522085327629
 31
0.0
  0
LINE
  5
67
330
1F
100
AcDbEntity
  8
0
100
AcDbLine
 10
-180.964530578008
 20
486.3522085327629
 30
0.0
 11
-185.334750715264
 21
484.9019609718029
 31
0.0
  0
LINE
  5
68
330
1F
100
AcDbEntity
  8
0
100
AcDbLine
 10
-185.334750715264
 20
484.9019609718029
 30
0.0
 11
-189.5394931181027
 21
483.0252128901698
 31
0.0
  0
LINE
  5
69
330
1F
100
AcDbEntity
  8
0
100
AcDbLine
 10
-189.5394931181027
 20
483.0252128901698
 30
0.0
 11
-193.5372527310749
 21
480.7404896874541
 31
0.0
  0
LINE
  5
6A
330
1F
100
AcDbEntity
  8
0
100
AcDbLine
 10
-193.5372527310749
 20
480.7404896874541
 30
0.0
 11
-197.2885676279765
 21
478.0703438898589
 31
0.0
  0
LINE
  5
6B
330
1F
100
AcDbEntity
  8
0
100
AcDbLine
 10
-197.2885676279765
 20
478.0703438898589
 30
0.0
 11
-200.7564085409279
 21
475.0411325339772
 31
0.0
  0
LINE
  5
6C
330
1F
100
AcDbEntity
  8
0
100
AcDbLine
 10
-200.7564085409279
 20
475.0411325339772
 30
0.0
 11
-203.9065443766556
 21
471.682756996221
 31
0.0
  0
LINE
  5
6D
330
1F
100
AcDbEntity
  8
0
100
AcDbLine
 10
-203.9065443766556
 20
471.682756996221
 30
0.0
 11
-206.707880111968
 21
468.028367836015
 31
0.0
  0
LINE
  5
6E
330
1F
100
AcDbEntity
  8
0
100
AcDbLine
 10
-206.707880111968
 20
468.028367836015
 30
0.0
 11
-209.1327637330455
 21
464.1140375663059
 31
0.0
  0
LINE
  5
6F
330
1F
100
AcDbEntity
  8
0
100
AcDbLine
 10
-209.1327637330455
 20
464.1140375663059
 30
0.0
 11
-211.1572591887576
 21
459.9784045813867
 31
0.0
  0
LINE
  5
70
330
1F
100
AcDbEntity
  8
0
100
AcDbLine
 10
-45.0197826636651
 20
487.9202917569373
 30
0.0
 11
-171.9014186636651
 21
487.9202917569528
 31
0.0
  0
LINE
  5
71
330
1F
100
AcDbEntity
  8
0
100
AcDbLine
 10
-40.27097709622866
 20
487.2087440099897
 30
0.0
 11
-45.0197826636651
 21
487.9202917569373
 31
0.0
  0
LINE
  5
72
330
1F
100
AcDbEntity
  8
0
100
AcDbLine
 10
-9.535982663665315
 20
449.2106917569354
 30
0.0
 11
-9.83268484156411
 21
454.0033342776258
 31
0.0
  0
LINE
  5
73
330
1F
100
AcDbEntity
  8
0
100
AcDbLine
 10
-9.83268484156411
 20
454.0033342776258
 30
0.0
 11
-10.71826020028325
 21
458.7227845419616
 31
0.0
  0
LINE
  5
74
330
1F
100
AcDbEntity
  8
0
100
AcDbLine
 10
-10.71826020028325
 20
458.7227845419616
 30
0.0
 11
-12.17918441406746
 21
463.2969680707543
 31
0.0
  0
LINE
  5
75
330
1F
100
AcDbEntity
  8
0
100
AcDbLine
 10
-12.17918441406746
 20
463.2969680707543
 30
0.0
 11
-14.19314654712115
 21
467.6560288686936
 31
0.0
  0
LINE
  5
76
330
1F
100
AcDbEntity
  8
0
100
AcDbLine
 10
-14.19314654712115
 20
467.6560288686936
 30
0.0
 11
-16.72938978165476
 21
471.7333962508173
 31
0.0
  0
LINE
  5
77
330
1F
100
AcDbEntity
  8
0
100
AcDbLine
 10
-16.72938978165476
 20
471.7333962508173
 30
0.0
 11
-19.74918112972092
 21
475.4668014963885
 31
0.0
  0
LINE
  5
78
330
1F
100
AcDbEntity
  8
0
100
AcDbLine
 10
-19.74918112972092
 20
475.4668014963885
 30
0.0
 11
-23.2064029554754
 21
478.7992288040763
 31
0.0
  0
LINE
  5
79
330
1F
100
AcDbEntity
  8
0
100
AcDbLine
 10
-23.2064029554754
 20
478.7992288040763
 30
0.0
 11
-27.04825727428895
 21
481.6797860256068
 31
0.0
  0
LINE
  5
7A
330
1F
100
AcDbEntity
  8
0
100
AcDbLine
 10
-27.04825727428895
 20
481.6797860256068
 30
0.0
 11
-31.21607207276307
 21
484.0644818802431
 31
0.0
  0
LINE
  5
7B
330
1F
100
AcDbEntity
  8
0
100
AcDbLine
 10
-31.21607207276307
 20
484.0644818802431
 30
0.0
 11
-35.64619733572317
 21
485.9168977806262
 31
0.0
  0
LINE
  5
7C
330
1F
100
AcDbEntity
  8
0
100
AcDbLine
 10
-35.64619733572317
 20
485.9168977806262
 30
0.0
 11
-40.27097709622866
 21
487.2087440099897
 31
0.0
  0
LINE
  5
7D
330
1F
100
AcDbEntity
  8
0
100
AcDbLine
 10
-9.535982663665315
 20
449.2106917569354
 30
0.0
 11
-9.535982663665315
 21
-485.1968882430602
 31
0.0
  0
LINE
  5
7E
330
1F
100
AcDbEntity
  8
0
100
AcDbLine
 10
-44.4316424459203
 20
408.5273652427502
 30
0.0
 11
-49.85848250744382
 21
407.8129081569376
 31
0.0
  0
LINE
  5
7F
330
1F
100
AcDbEntity
  8
0
100
AcDbLine
 10
-28.89078266366533
 20
428.7806081569381
 30
0.0
 11
-29.60523970904514
 21
423.3537680900908
 31
0.0
  0
LINE
  5
80
330
1F
100
AcDbEntity
  8
0
100
AcDbLine
 10
-29.60523970904514
 20
423.3537680900908
 30
0.0
 11
-31.69992177869732
 21
418.296758202034
 31
0.0
  0
LINE
  5
81
330
1F
100
AcDbEntity
  8
0
100
AcDbLine
 10
-31.69992177869732
 20
418.296758202034
 30
0.0
 11
-35.0320797525476
 21
413.954205356286
 31
0.0
  0
LINE
  5
82
330
1F
100
AcDbEntity
  8
0
100
AcDbLine
 10
-35.0320797525476
 20
413.954205356286
 30
0.0
 11
-39.37463257347086
 21
410.6220473500804
 31
0.0
  0
LINE
  5
83
330
1F
100
AcDbEntity
  8
0
100
AcDbLine
 10
-39.37463257347086
 20
410.6220473500804
 30
0.0
 11
-44.4316424459203
 21
408.5273652427502
 31
0.0
  0
LINE
  5
84
330
1F
100
AcDbEntity
  8
0
100
AcDbLine
 10
-49.85848250744382
 20
407.8129081569376
 30
0.0
 11
-55.28532257961339
 21
408.5273651618846
 31
0.0
  0
LINE
  5
85
330
1F
100
AcDbEntity
  8
0
100
AcDbLine
 10
-55.28532257961339
 20
408.5273651618846
 30
0.0
 11
-60.3423324832761
 21
410.6220471938587
 31
0.0
  0
LINE
  5
86
330
1F
100
AcDbEntity
  8
0
100
AcDbLine
 10
-60.3423324832761
 20
410.6220471938587
 30
0.0
 11
-64.68488535385244
 21
413.9542051353551
 31
0.0
  0
LINE
  5
87
330
1F
100
AcDbEntity
  8
0
100
AcDbLine
 10
-64.68488535385244
 20
413.9542051353551
 30
0.0
 11
-68.01704339241125
 21
418.29675793145
 31
0.0
  0
LINE
  5
88
330
1F
100
AcDbEntity
  8
0
100
AcDbLine
 10
-68.01704339241125
 20
418.29675793145
 30
0.0
 11
-70.11172553741943
 21
423.3537677882942
 31
0.0
  0
LINE
  5
89
330
1F
100
AcDbEntity
  8
0
100
AcDbLine
 10
-70.11172553741943
 20
423.3537677882942
 30
0.0
 11
-70.82618266366559
 21
428.7806081569381
 31
0.0
  0
LINE
  5
8A
330
1F
100
AcDbEntity
  8
0
100
AcDbLine
 10
-28.89078266366533
 20
449.2106917569354
 30
0.0
 11
-28.89078266366533
 21
428.7806081569381
 31
0.0
  0
LINE
  5
8B
330
1F
100
AcDbEntity
  8
0
100
AcDbLine
 10
-28.89078266366533
 20
449.2106917569354
 30
0.0
 11
-29.60523970904514
 21
454.6375318237816
 31
0.0
  0
LINE
  5
8C
330
1F
100
AcDbEntity
  8
0
100
AcDbLine
 10
-29.60523970904514
 20
454.6375318237816
 30
0.0
 11
-31.69992177869732
 21
459.6945417118374
 31
0.0
  0
LINE
  5
8D
330
1F
100
AcDbEntity
  8
0
100
AcDbLine
 10
-31.69992177869732
 20
459.6945417118374
 30
0.0
 11
-35.0320797525476
 21
464.0370945575886
 31
0.0
  0
LINE
  5
8E
330
1F
100
AcDbEntity
  8
0
100
AcDbLine
 10
-35.0320797525476
 20
464.0370945575886
 30
0.0
 11
-39.37463257347086
 21
467.3692525637928
 31
0.0
  0
LINE
  5
8F
330
1F
100
AcDbEntity
  8
0
100
AcDbLine
 10
-39.37463257347086
 20
467.3692525637928
 30
0.0
 11
-44.4316424459203
 21
469.4639346711237
 31
0.0
  0
LINE
  5
90
330
1F
100
AcDbEntity
  8
0
100
AcDbLine
 10
-44.4316424459203
 20
469.4639346711237
 30
0.0
 11
-49.85848250744382
 21
470.1783917569363
 31
0.0
  0
LINE
  5
91
330
1F
100
AcDbEntity
  8
0
100
AcDbLine
 10
-49.85848250744382
 20
470.1783917569363
 30
0.0
 11
-55.28532257961339
 21
469.4639347519893
 31
0.0
  0
LINE
  5
92
330
1F
100
AcDbEntity
  8
0
100
AcDbLine
 10
-55.28532257961339
 20
469.4639347519893
 30
0.0
 11
-60.3423324832761
 21
467.3692527200144
 31
0.0
  0
LINE
  5
93
330
1F
100
AcDbEntity
  8
0
100
AcDbLine
 10
-60.3423324832761
 20
467.3692527200144
 30
0.0
 11
-64.68488535385244
 21
464.0370947785195
 31
0.0
  0
LINE
  5
94
330
1F
100
AcDbEntity
  8
0
100
AcDbLine
 10
-64.68488535385244
 20
464.0370947785195
 30
0.0
 11
-68.01704339241125
 21
459.6945419824213
 31
0.0
  0
LINE
  5
95
330
1F
100
AcDbEntity
  8
0
100
AcDbLine
 10
-68.01704339241125
 20
459.6945419824213
 30
0.0
 11
-70.11172553741943
 21
454.6375321255782
 31
0.0
  0
LINE
  5
96
330
1F
100
AcDbEntity
  8
0
100
AcDbLine
 10
-70.11172553741943
 20
454.6375321255782
 30
0.0
 11
-70.82618266366559
 21
449.2106917569354
 31
0.0
  0
LINE
  5
97
330
1F
100
AcDbEntity
  8
0
100
AcDbLine
 10
-70.82618266366559
 20
449.2106917569354
 30
0.0
 11
-70.82618266366559
 21
428.7806081569381
 31
0.0
  0
LINE
  5
98
330
1F
100
AcDbEntity
  8
0
100
AcDbLine
 10
-203.0839826636654
 20
453.5109117569345
 30
0.0
 11
-154.6969826636654
 21
107.275891756939
 31
0.0
  0
LINE
  5
99
330
1F
100
AcDbEntity
  8
0
100
AcDbLine
 10
-140.9391281132468
 20
435.6636768069532
 30
0.0
 11
-140.6975424239541
 21
434.6448497602621
 31
0.0
  0
LINE
  5
9A
330
1F
100
AcDbEntity
  8
0
100
AcDbLine
 10
-141.1270614300141
 20
436.6937512046497
 30
0.0
 11
-140.9391281132468
 21
435.6636768069532
 31
0.0
  0
LINE
  5
9B
330
1F
100
AcDbEntity
  8
0
100
AcDbLine
 10
-141.2608272620973
 20
437.7322495910269
 30
0.0
 11
-141.1270614300141
 21
436.6937512046497
 31
0.0
  0
LINE
  5
9C
330
1F
100
AcDbEntity
  8
0
100
AcDbLine
 10
-141.3400589666489
 20
438.7763255141929
 30
0.0
 11
-141.2608272620973
 21
437.7322495910269
 31
0.0
  0
LINE
  5
9D
330
1F
100
AcDbEntity
  8
0
100
AcDbLine
 10
-141.364539375074
 20
439.8231172346148
 30
0.0
 11
-141.3400589666489
 21
438.7763255141929
 31
0.0
  0
LINE
  5
9E
330
1F
100
AcDbEntity
  8
0
100
AcDbLine
 10
-141.3342013882743
 20
440.8697555689491
 30
0.0
 11
-141.364539375074
 21
439.8231172346148
 31
0.0
  0
LINE
  5
9F
330
1F
100
AcDbEntity
  8
0
100
AcDbLine
 10
-141.2491281605637
 20
441.9133717542712
 30
0.0
 11
-141.3342013882743
 21
440.8697555689491
 31
0.0
  0
LINE
  5
A0
330
1F
100
AcDbEntity
  8
0
100
AcDbLine
 10
-141.109552871745
 20
442.95110531116
 30
0.0
 11
-141.2491281605637
 21
441.9133717542712
 31
0.0
  0
LINE
  5
A1
330
1F
100
AcDbEntity
  8
0
100
AcDbLine
 10
-140.9158580879841
 20
443.9801118840646
 30
0.0
 11
-141.109552871745
 21
442.95110531116
 31
0.0
  0
LINE
  5
A2
330
1F
100
AcDbEntity
  8
0
100
AcDbLine
 10
-140.6685747132191
 20
444.9975710374981
 30
0.0
 11
-140.9158580879841
 21
443.9801118840646
 31
0.0
  0
LINE
  5
A3
330
1F
100
AcDbEntity
  8
0
100
AcDbLine
 10
-140.3683805339917
 20
446.000693986642
 30
0.0
 11
-140.6685747132191
 21
444.9975710374981
 31
0.0
  0
LINE
  5
A4
330
1F
100
AcDbEntity
  8
0
100
AcDbLine
 10
-140.0160983616812
 20
446.986731241219
 30
0.0
 11
-140.3683805339917
 21
446.000693986642
 31
0.0
  0
LINE
  5
A5
330
1F
100
AcDbEntity
  8
0
100
AcDbLine
 10
-139.6126937772352
 20
447.9529801416525
 30
0.0
 11
-140.0160983616812
 21
446.986731241219
 31
0.0
  0
LINE
  5
A6
330
1F
100
AcDbEntity
  8
0
100
AcDbLine
 10
-139.1592724845789
 20
448.8967922668699
 30
0.0
 11
-139.6126937772352
 21
447.9529801416525
 31
0.0
  0
LINE
  5
A7
330
1F
100
AcDbEntity
  8
0
100
AcDbLine
 10
-138.657077279959
 20
449.8155806934386
 30
0.0
 11
-139.1592724845789
 21
448.8967922668699
 31
0.0
  0
LINE
  5
A8
330
1F
100
AcDbEntity
  8
0
100
AcDbLine
 10
-138.107484645524
 20
450.7068270861475
 30
0.0
 11
-138.657077279959
 21
449.8155806934386
 31
0.0
  0
LINE
  5
A9
330
1F
100
AcDbEntity
  8
0
100
AcDbLine
 10
-137.512000976483
 20
451.5680886005817
 30
0.0
 11
-138.107484645524
 21
450.7068270861475
 31
0.0
  0
LINE
  5
AA
330
1F
100
AcDbEntity
  8
0
100
AcDbLine
 10
-136.8722584521816
 20
452.3970045787976
 30
0.0
 11
-137.512000976483
 21
451.5680886005817
 31
0.0
  0
LINE
  5
AB
330
1F
100
AcDbEntity
  8
0
100
AcDbLine
 10
-136.1900105624107
 20
453.1913030197153
 30
0.0
 11
-136.8722584521816
 21
452.3970045787976
 31
0.0
  0
LINE
  5
AC
330
1F
100
AcDbEntity
  8
0
100
AcDbLine
 10
-135.4671273012138
 20
453.948806806519
 30
0.0
 11
-136.1900105624107
 21
453.1913030197153
 31
0.0
  0
LINE
  5
AD
330
1F
100
AcDbEntity
  8
0
100
AcDbLine
 10
-134.7055900413627
 20
454.6674396739829
 30
0.0
 11
-135.4671273012138
 21
453.948806806519
 31
0.0
  0
LINE
  5
AE
330
1F
100
AcDbEntity
  8
0
100
AcDbLine
 10
-133.9074861035532
 20
455.3452318993695
 30
0.0
 11
-134.7055900413627
 21
454.6674396739829
 31
0.0
  0
LINE
  5
AF
330
1F
100
AcDbEntity
  8
0
100
AcDbLine
 10
-133.075003035203
 20
455.9803257013003
 30
0.0
 11
-133.9074861035532
 21
455.3452318993695
 31
0.0
  0
LINE
  5
B0
330
1F
100
AcDbEntity
  8
0
100
AcDbLine
 10
-132.2104226145375
 20
456.5709803318103
 30
0.0
 11
-133.075003035203
 21
455.9803257013003
 31
0.0
  0
LINE
  5
B1
330
1F
100
AcDbEntity
  8
0
100
AcDbLine
 10
-131.3161145963932
 20
457.115576847612
 30
0.0
 11
-132.2104226145375
 21
456.5709803318103
 31
0.0
  0
LINE
  5
B2
330
1F
100
AcDbEntity
  8
0
100
AcDbLine
 10
-130.3945302168853
 20
457.6126225475116
 30
0.0
 11
-131.3161145963932
 21
457.115576847612
 31
0.0
  0
LINE
  5
B3
330
1F
100
AcDbEntity
  8
0
100
AcDbLine
 10
-129.4481954747397
 20
458.0607550637931
 30
0.0
 11
-130.3945302168853
 21
457.6126225475116
 31
0.0
  0
LINE
  5
B4
330
1F
100
AcDbEntity
  8
0
100
AcDbLine
 10
-128.4797042077059
 20
458.4587460963798
 30
0.0
 11
-129.4481954747397
 21
458.0607550637931
 31
0.0
  0
LINE
  5
B5
330
1F
100
AcDbEntity
  8
0
100
AcDbLine
 10
-127.4917109830269
 20
458.8055047795156
 30
0.0
 11
-128.4797042077059
 21
458.4587460963798
 31
0.0
  0
LINE
  5
B6
330
1F
100
AcDbEntity
  8
0
100
AcDbLine
 10
-126.4869238214582
 20
459.1000806717526
 30
0.0
 11
-127.4917109830269
 21
458.8055047795156
 31
0.0
  0
LINE
  5
B7
330
1F
100
AcDbEntity
  8
0
100
AcDbLine
 10
-125.4680967747668
 20
459.3416663610449
 30
0.0
 11
-126.4869238214582
 21
459.1000806717526
 31
0.0
  0
LINE
  5
B8
330
1F
100
AcDbEntity
  8
0
100
AcDbLine
 10
-124.4380223770702
 20
459.5295996778125
 30
0.0
 11
-125.4680967747668
 21
459.3416663610449
 31
0.0
  0
LINE
  5
B9
330
1F
100
AcDbEntity
  8
0
100
AcDbLine
 10
-123.3995239906931
 20
459.6633655098958
 30
0.0
 11
-124.4380223770702
 21
459.5295996778125
 31
0.0
  0
LINE
  5
BA
330
1F
100
AcDbEntity
  8
0
100
AcDbLine
 10
-122.3554480675271
 20
459.742597214447
 30
0.0
 11
-123.3995239906931
 21
459.6633655098958
 31
0.0
  0
LINE
  5
BB
330
1F
100
AcDbEntity
  8
0
100
AcDbLine
 10
-121.3086563471052
 20
459.7670776228718
 30
0.0
 11
-122.3554480675271
 21
459.742597214447
 31
0.0
  0
LINE
  5
BC
330
1F
100
AcDbEntity
  8
0
100
AcDbLine
 10
-120.2620180127709
 20
459.7367396360724
 30
0.0
 11
-121.3086563471052
 21
459.7670776228718
 31
0.0
  0
LINE
  5
BD
330
1F
100
AcDbEntity
  8
0
100
AcDbLine
 10
-119.218401827448
 20
459.6516664083621
 30
0.0
 11
-120.2620180127709
 21
459.7367396360724
 31
0.0
  0
LINE
  5
BE
330
1F
100
AcDbEntity
  8
0
100
AcDbLine
 10
-118.1806682705596
 20
459.5120911195435
 30
0.0
 11
-119.218401827448
 21
459.6516664083621
 31
0.0
  0
LINE
  5
BF
330
1F
100
AcDbEntity
  8
0
100
AcDbLine
 10
-117.1516616976533
 20
459.3183963357822
 30
0.0
 11
-118.1806682705596
 21
459.5120911195435
 31
0.0
  0
LINE
  5
C0
330
1F
100
AcDbEntity
  8
0
100
AcDbLine
 10
-116.1342025442198
 20
459.0711129610169
 30
0.0
 11
-117.1516616976533
 21
459.3183963357822
 31
0.0
  0
LINE
  5
C1
330
1F
100
AcDbEntity
  8
0
100
AcDbLine
 10
-115.1310795950758
 20
458.7709187817901
 30
0.0
 11
-116.1342025442198
 21
459.0711129610169
 31
0.0
  0
LINE
  5
C2
330
1F
100
AcDbEntity
  8
0
100
AcDbLine
 10
-114.1450423404992
 20
458.4186366094793
 30
0.0
 11
-115.1310795950758
 21
458.7709187817901
 31
0.0
  0
LINE
  5
C3
330
1F
100
AcDbEntity
  8
0
100
AcDbLine
 10
-113.1787934400657
 20
458.0152320250333
 30
0.0
 11
-114.1450423404992
 21
458.4186366094793
 31
0.0
  0
LINE
  5
C4
330
1F
100
AcDbEntity
  8
0
100
AcDbLine
 10
-112.2349813148487
 20
457.561810732377
 30
0.0
 11
-113.1787934400657
 21
458.0152320250333
 31
0.0
  0
LINE
  5
C5
330
1F
100
AcDbEntity
  8
0
100
AcDbLine
 10
-111.3161928882796
 20
457.0596155277575
 30
0.0
 11
-112.2349813148487
 21
457.561810732377
 31
0.0
  0
LINE
  5
C6
330
1F
100
AcDbEntity
  8
0
100
AcDbLine
 10
-110.424946495571
 20
456.5100228933218
 30
0.0
 11
-111.3161928882796
 21
457.0596155277575
 31
0.0
  0
LINE
  5
C7
330
1F
100
AcDbEntity
  8
0
100
AcDbLine
 10
-109.5636849811365
 20
455.9145392242814
 30
0.0
 11
-110.424946495571
 21
456.5100228933218
 31
0.0
  0
LINE
  5
C8
330
1F
100
AcDbEntity
  8
0
100
AcDbLine
 10
-108.7347690029205
 20
455.2747966999794
 30
0.0
 11
-109.5636849811365
 21
455.9145392242814
 31
0.0
  0
LINE
  5
C9
330
1F
100
AcDbEntity
  8
0
100
AcDbLine
 10
-107.9404705620028
 20
454.5925488102088
 30
0.0
 11
-108.7347690029205
 21
455.2747966999794
 31
0.0
  0
LINE
  5
CA
330
1F
100
AcDbEntity
  8
0
100
AcDbLine
 10
-107.1829667751991
 20
453.8696655490123
 30
0.0
 11
-107.9404705620028
 21
454.5925488102088
 31
0.0
  0
LINE
  5
CB
330
1F
100
AcDbEntity
  8
0
100
AcDbLine
 10
-106.4643339077349
 20
453.1081282891608
 30
0.0
 11
-107.1829667751991
 21
453.8696655490123
 31
0.0
  0
LINE
  5
CC
330
1F
100
AcDbEntity
  8
0
100
AcDbLine
 10
-105.7865416823491
 20
452.3100243513513
 30
0.0
 11
-106.4643339077349
 21
453.1081282891608
 31
0.0
  0
LINE
  5
CD
330
1F
100
AcDbEntity
  8
0
100
AcDbLine
 10
-105.1514478804179
 20
451.4775412830011
 30
0.0
 11
-105.7865416823491
 21
452.3100243513513
 31
0.0
  0
LINE
  5
CE
330
1F
100
AcDbEntity
  8
0
100
AcDbLine
 10
-104.5607932499083
 20
450.612960862336
 30
0.0
 11
-105.1514478804179
 21
451.4775412830011
 31
0.0
  0
LINE
  5
CF
330
1F
100
AcDbEntity
  8
0
100
AcDbLine
 10
-104.0161967341062
 20
449.7186528441913
 30
0.0
 11
-104.5607932499083
 21
450.612960862336
 31
0.0
  0
LINE
  5
D0
330
1F
100
AcDbEntity
  8
0
100
AcDbLine
 10
-103.5191510342069
 20
448.7970684646838
 30
0.0
 11
-104.0161967341062
 21
449.7186528441913
 31
0.0
  0
LINE
  5
D1
330
1F
100
AcDbEntity
  8
0
100
AcDbLine
 10
-103.0710185179251
 20
447.8507337225375
 30
0.0
 11
-103.5191510342069
 21
448.7970684646838
 31
0.0
  0
LINE
  5
D2
330
1F
100
AcDbEntity
  8
0
100
AcDbLine
 10
-102.6730274853384
 20
446.8822424555037
 30
0.0
 11
-103.0710185179251
 21
447.8507337225375
 31
0.0
  0
LINE
  5
D3
330
1F
100
AcDbEntity
  8
0
100
AcDbLine
 10
-102.3262688022026
 20
445.8942492308247
 30
0.0
 11
-102.6730274853384
 21
446.8822424555037
 31
0.0
  0
LINE
  5
D4
330
1F
100
AcDbEntity
  8
0
100
AcDbLine
 10
-102.031692909966
 20
444.8894620692556
 30
0.0
 11
-102.3262688022026
 21
445.8942492308247
 31
0.0
  0
LINE
  5
D5
330
1F
100
AcDbEntity
  8
0
100
AcDbLine
 10
-101.7901072206732
 20
443.870635022565
 30
0.0
 11
-102.031692909966
 21
444.8894620692556
 31
0.0
  0
LINE
  5
D6
330
1F
100
AcDbEntity
  8
0
100
AcDbLine
 10
-101.602173903906
 20
442.8405606248695
 30
0.0
 11
-101.7901072206732
 21
443.870635022565
 31
0.0
  0
LINE
  5
D7
330
1F
100
AcDbEntity
  8
0
100
AcDbLine
 10
-101.4684080718227
 20
441.8020622384926
 30
0.0
 11
-101.602173903906
 21
442.8405606248695
 31
0.0
  0
LINE
  5
D8
330
1F
100
AcDbEntity
  8
0
100
AcDbLine
 10
-101.3891763672712
 20
440.7579863153271
 30
0.0
 11
-101.4684080718227
 21
441.8020622384926
 31
0.0
  0
LINE
  5
D9
330
1F
100
AcDbEntity
  8
0
100
AcDbLine
 10
-101.364695958846
 20
439.7111945949051
 30
0.0
 11
-101.3891763672712
 21
440.7579863153271
 31
0.0
  0
LINE
  5
DA
330
1F
100
AcDbEntity
  8
0
100
AcDbLine
 10
-101.3950339456457
 20
438.6645562605708
 30
0.0
 11
-101.364695958846
 21
439.7111945949051
 31
0.0
  0
LINE
  5
DB
330
1F
100
AcDbEntity
  8
0
100
AcDbLine
 10
-101.4801071733564
 20
437.620940075248
 30
0.0
 11
-101.3950339456457
 21
438.6645562605708
 31
0.0
  0
LINE
  5
DC
330
1F
100
AcDbEntity
  8
0
100
AcDbLine
 10
-101.619682462175
 20
436.5832065183595
 30
0.0
 11
-101.4801071733564
 21
437.620940075248
 31
0.0
  0
LINE
  5
DD
330
1F
100
AcDbEntity
  8
0
100
AcDbLine
 10
-101.813377245936
 20
435.5541999454532
 30
0.0
 11
-101.619682462175
 21
436.5832065183595
 31
0.0
  0
LINE
  5
DE
330
1F
100
AcDbEntity
  8
0
100
AcDbLine
 10
-102.0606606207009
 20
434.5367407920197
 30
0.0
 11
-101.813377245936
 21
435.5541999454532
 31
0.0
  0
LINE
  5
DF
330
1F
100
AcDbEntity
  8
0
100
AcDbLine
 10
-102.3608547999284
 20
433.5336178428758
 30
0.0
 11
-102.0606606207009
 21
434.5367407920197
 31
0.0
  0
LINE
  5
E0
330
1F
100
AcDbEntity
  8
0
100
AcDbLine
 10
-102.7131369722388
 20
432.5475805882984
 30
0.0
 11
-102.3608547999284
 21
433.5336178428758
 31
0.0
  0
LINE
  5
E1
330
1F
100
AcDbEntity
  8
0
100
AcDbLine
 10
-103.1165415566849
 20
431.5813316878649
 30
0.0
 11
-102.7131369722388
 21
432.5475805882984
 31
0.0
  0
LINE
  5
E2
330
1F
100
AcDbEntity
  8
0
100
AcDbLine
 10
-103.5699628493412
 20
430.6375195626479
 30
0.0
 11
-103.1165415566849
 21
431.5813316878649
 31
0.0
  0
LINE
  5
E3
330
1F
100
AcDbEntity
  8
0
100
AcDbLine
 10
-104.072158053961
 20
429.7187311360788
 30
0.0
 11
-103.5699628493412
 21
430.6375195626479
 31
0.0
  0
LINE
  5
E4
330
1F
100
AcDbEntity
  8
0
100
AcDbLine
 10
-104.621750688396
 20
428.8274847433702
 30
0.0
 11
-104.072158053961
 21
429.7187311360788
 31
0.0
  0
LINE
  5
E5
330
1F
100
AcDbEntity
  8
0
100
AcDbLine
 10
-105.2172343574371
 20
427.9662232289357
 30
0.0
 11
-104.621750688396
 21
428.8274847433702
 31
0.0
  0
LINE
  5
E6
330
1F
100
AcDbEntity
  8
0
100
AcDbLine
 10
-105.8569768817384
 20
427.1373072507197
 30
0.0
 11
-105.2172343574371
 21
427.9662232289357
 31
0.0
  0
LINE
  5
E7
330
1F
100
AcDbEntity
  8
0
100
AcDbLine
 10
-106.5392247715094
 20
426.3430088098024
 30
0.0
 11
-105.8569768817384
 21
427.1373072507197
 31
0.0
  0
LINE
  5
E8
330
1F
100
AcDbEntity
  8
0
100
AcDbLine
 10
-107.2621080327062
 20
425.5855050229983
 30
0.0
 11
-106.5392247715094
 21
426.3430088098024
 31
0.0
  0
LINE
  5
E9
330
1F
100
AcDbEntity
  8
0
100
AcDbLine
 10
-108.0236452925574
 20
424.8668721555345
 30
0.0
 11
-107.2621080327062
 21
425.5855050229983
 31
0.0
  0
LINE
  5
EA
330
1F
100
AcDbEntity
  8
0
100
AcDbLine
 10
-108.8217492303668
 20
424.1890799301482
 30
0.0
 11
-108.0236452925574
 21
424.8668721555345
 31
0.0
  0
LINE
  5
EB
330
1F
100
AcDbEntity
  8
0
100
AcDbLine
 10
-109.6542322987171
 20
423.5539861282171
 30
0.0
 11
-108.8217492303668
 21
424.1890799301482
 31
0.0
  0
LINE
  5
EC
330
1F
100
AcDbEntity
  8
0
100
AcDbLine
 10
-110.5188127193825
 20
422.9633314977075
 30
0.0
 11
-109.6542322987171
 21
423.5539861282171
 31
0.0
  0
LINE
  5
ED
330
1F
100
AcDbEntity
  8
0
100
AcDbLine
 10
-111.4131207375269
 20
422.4187349819054
 30
0.0
 11
-110.5188127193825
 21
422.9633314977075
 31
0.0
  0
LINE
  5
EE
330
1F
100
AcDbEntity
  8
0
100
AcDbLine
 10
-112.3347051170347
 20
421.9216892820061
 30
0.0
 11
-111.4131207375269
 21
422.4187349819054
 31
0.0
  0
LINE
  5
EF
330
1F
100
AcDbEntity
  8
0
100
AcDbLine
 10
-113.2810398591803
 20
421.4735567657243
 30
0.0
 11
-112.3347051170347
 21
421.9216892820061
 31
0.0
  0
LINE
  5
F0
330
1F
100
AcDbEntity
  8
0
100
AcDbLine
 10
-114.2495311262142
 20
421.0755657331376
 30
0.0
 11
-113.2810398591803
 21
421.4735567657243
 31
0.0
  0
LINE
  5
F1
330
1F
100
AcDbEntity
  8
0
100
AcDbLine
 10
-115.2375243508931
 20
420.7288070500018
 30
0.0
 11
-114.2495311262142
 21
421.0755657331376
 31
0.0
  0
LINE
  5
F2
330
1F
100
AcDbEntity
  8
0
100
AcDbLine
 10
-116.2423115124618
 20
420.4342311577652
 30
0.0
 11
-115.2375243508931
 21
420.7288070500018
 31
0.0
  0
LINE
  5
F3
330
1F
100
AcDbEntity
  8
0
100
AcDbLine
 10
-117.2611385591532
 20
420.1926454684724
 30
0.0
 11
-116.2423115124618
 21
420.4342311577652
 31
0.0
  0
LINE
  5
F4
330
1F
100
AcDbEntity
  8
0
100
AcDbLine
 10
-118.2912129568498
 20
420.0047121517052
 30
0.0
 11
-117.2611385591532
 21
420.1926454684724
 31
0.0
  0
LINE
  5
F5
330
1F
100
AcDbEntity
  8
0
100
AcDbLine
 10
-119.329711343227
 20
419.8709463196219
 30
0.0
 11
-118.2912129568498
 21
420.0047121517052
 31
0.0
  0
LINE
  5
F6
330
1F
100
AcDbEntity
  8
0
100
AcDbLine
 10
-120.3737872663929
 20
419.7917146150704
 30
0.0
 11
-119.329711343227
 21
419.8709463196219
 31
0.0
  0
LINE
  5
F7
330
1F
100
AcDbEntity
  8
0
100
AcDbLine
 10
-121.4205789868149
 20
419.7672342066456
 30
0.0
 11
-120.3737872663929
 21
419.7917146150704
 31
0.0
  0
LINE
  5
F8
330
1F
100
AcDbEntity
  8
0
100
AcDbLine
 10
-122.4672173211491
 20
419.797572193445
 30
0.0
 11
-121.4205789868149
 21
419.7672342066456
 31
0.0
  0
LINE
  5
F9
330
1F
100
AcDbEntity
  8
0
100
AcDbLine
 10
-123.510833506472
 20
419.8826454211556
 30
0.0
 11
-122.4672173211491
 21
419.797572193445
 31
0.0
  0
LINE
  5
FA
330
1F
100
AcDbEntity
  8
0
100
AcDbLine
 10
-124.5485670633605
 20
420.0222207099742
 30
0.0
 11
-123.510833506472
 21
419.8826454211556
 31
0.0
  0
LINE
  5
FB
330
1F
100
AcDbEntity
  8
0
100
AcDbLine
 10
-125.5775736362668
 20
420.2159154937352
 30
0.0
 11
-124.5485670633605
 21
420.0222207099742
 31
0.0
  0
LINE
  5
FC
330
1F
100
AcDbEntity
  8
0
100
AcDbLine
 10
-126.5950327897003
 20
420.4631988685005
 30
0.0
 11
-125.5775736362668
 21
420.2159154937352
 31
0.0
  0
LINE
  5
FD
330
1F
100
AcDbEntity
  8
0
100
AcDbLine
 10
-127.5981557388442
 20
420.7633930477276
 30
0.0
 11
-126.5950327897003
 21
420.4631988685005
 31
0.0
  0
LINE
  5
FE
330
1F
100
AcDbEntity
  8
0
100
AcDbLine
 10
-128.5841929934209
 20
421.115675220038
 30
0.0
 11
-127.5981557388442
 21
420.7633930477276
 31
0.0
  0
LINE
  5
FF
330
1F
100
AcDbEntity
  8
0
100
AcDbLine
 10
-129.5504418938544
 20
421.5190798044841
 30
0.0
 11
-128.5841929934209
 21
421.115675220038
 31
0.0
  0
LINE
  5
100
330
1F
100
AcDbEntity
  8
0
100
AcDbLine
 10
-130.4942540190713
 20
421.9725010971404
 30
0.0
 11
-129.5504418938544
 21
421.5190798044841
 31
0.0
  0
LINE
  5
101
330
1F
100
AcDbEntity
  8
0
100
AcDbLine
 10
-131.4130424456405
 20
422.4746963017603
 30
0.0
 11
-130.4942540190713
 21
421.9725010971404
 31
0.0
  0
LINE
  5
102
330
1F
100
AcDbEntity
  8
0
100
AcDbLine
 10
-132.304288838349
 20
423.0242889361956
 30
0.0
 11
-131.4130424456405
 21
422.4746963017603
 31
0.0
  0
LINE
  5
103
330
1F
100
AcDbEntity
  8
0
100
AcDbLine
 10
-133.165550352784
 20
423.6197726052363
 30
0.0
 11
-132.304288838349
 21
423.0242889361956
 31
0.0
  0
LINE
  5
104
330
1F
100
AcDbEntity
  8
0
100
AcDbLine
 10
-133.9944663309995
 20
424.259515129538
 30
0.0
 11
-133.165550352784
 21
423.6197726052363
 31
0.0
  0
LINE
  5
105
330
1F
100
AcDbEntity
  8
0
100
AcDbLine
 10
-134.7887647719172
 20
424.9417630193086
 30
0.0
 11
-133.9944663309995
 21
424.259515129538
 31
0.0
  0
LINE
  5
106
330
1F
100
AcDbEntity
  8
0
100
AcDbLine
 10
-135.5462685587209
 20
425.6646462805055
 30
0.0
 11
-134.7887647719172
 21
424.9417630193086
 31
0.0
  0
LINE
  5
107
330
1F
100
AcDbEntity
  8
0
100
AcDbLine
 10
-136.2649014261852
 20
426.4261835403566
 30
0.0
 11
-135.5462685587209
 21
425.6646462805055
 31
0.0
  0
LINE
  5
108
330
1F
100
AcDbEntity
  8
0
100
AcDbLine
 10
-136.942693651571
 20
427.224287478166
 30
0.0
 11
-136.2649014261852
 21
426.4261835403566
 31
0.0
  0
LINE
  5
109
330
1F
100
AcDbEntity
  8
0
100
AcDbLine
 10
-137.5777874535021
 20
428.0567705465162
 30
0.0
 11
-136.942693651571
 21
427.224287478166
 31
0.0
  0
LINE
  5
10A
330
1F
100
AcDbEntity
  8
0
100
AcDbLine
 10
-138.1684420840118
 20
428.9213509671818
 30
0.0
 11
-137.5777874535021
 21
428.0567705465162
 31
0.0
  0
LINE
  5
10B
330
1F
100
AcDbEntity
  8
0
100
AcDbLine
 10
-138.7130385998138
 20
429.8156589853261
 30
0.0
 11
-138.1684420840118
 21
428.9213509671818
 31
0.0
  0
LINE
  5
10C
330
1F
100
AcDbEntity
  8
0
100
AcDbLine
 10
-139.2100842997131
 20
430.7372433648339
 30
0.0
 11
-138.7130385998138
 21
429.8156589853261
 31
0.0
  0
LINE
  5
10D
330
1F
100
AcDbEntity
  8
0
100
AcDbLine
 10
-139.658216815995
 20
431.6835781069796
 30
0.0
 11
-139.2100842997131
 21
430.7372433648339
 31
0.0
  0
LINE
  5
10E
330
1F
100
AcDbEntity
  8
0
100
AcDbLine
 10
-140.056207848582
 20
432.6520693740137
 30
0.0
 11
-139.658216815995
 21
431.6835781069796
 31
0.0
  0
LINE
  5
10F
330
1F
100
AcDbEntity
  8
0
100
AcDbLine
 10
-140.4029665317174
 20
433.6400625986931
 30
0.0
 11
-140.056207848582
 21
432.6520693740137
 31
0.0
  0
LINE
  5
110
330
1F
100
AcDbEntity
  8
0
100
AcDbLine
 10
-140.6975424239541
 20
434.6448497602621
 30
0.0
 11
-140.4029665317174
 21
433.6400625986931
 31
0.0
  0
LINE
  5
111
330
1F
100
AcDbEntity
  8
0
100
AcDbLine
 10
-84.3434259184594
 20
18.15840672057803
 30
0.0
 11
-83.29650321053083
 21
18.1403778558235
 31
0.0
  0
LINE
  5
112
330
1F
100
AcDbEntity
  8
0
100
AcDbLine
 10
-85.38797029732521
 20
18.23120257843224
 30
0.0
 11
-84.3434259184594
 21
18.15840672057803
 31
0.0
  0
LINE
  5
113
330
1F
100
AcDbEntity
  8
0
100
AcDbLine
 10
-86.42727332359121
 20
18.35856590099922
 30
0.0
 11
-85.38797029732521
 21
18.23120257843224
 31
0.0
  0
LINE
  5
114
330
1F
100
AcDbEntity
  8
0
100
AcDbLine
 10
-87.45848633990346
 20
18.54014759426544
 30
0.0
 11
-86.42727332359121
 21
18.35856590099922
 31
0.0
  0
LINE
  5
115
330
1F
100
AcDbEntity
  8
0
100
AcDbLine
 10
-88.47878286306263
 20
18.77544995543012
 30
0.0
 11
-87.45848633990346
 21
18.54014759426544
 31
0.0
  0
LINE
  5
116
330
1F
100
AcDbEntity
  8
0
100
AcDbLine
 10
-89.48536633121937
 20
19.06382803707743
 30
0.0
 11
-88.47878286306263
 21
18.77544995543012
 31
0.0
  0
LINE
  5
117
330
1F
100
AcDbEntity
  8
0
100
AcDbLine
 10
-90.47547776905382
 20
19.40449141493112
 30
0.0
 11
-89.48536633121937
 21
19.06382803707743
 31
0.0
  0
LINE
  5
118
330
1F
100
AcDbEntity
  8
0
100
AcDbLine
 10
-91.44640334993653
 20
19.79650635435111
 30
0.0
 11
-90.47547776905382
 21
19.40449141493112
 31
0.0
  0
LINE
  5
119
330
1F
100
AcDbEntity
  8
0
100
AcDbLine
 10
-92.39548183433858
 20
20.23879836963719
 30
0.0
 11
-91.44640334993653
 21
19.79650635435111
 31
0.0
  0
LINE
  5
11A
330
1F
100
AcDbEntity
  8
0
100
AcDbLine
 10
-93.3201118641041
 20
20.73015516911875
 30
0.0
 11
-92.39548183433858
 21
20.23879836963719
 31
0.0
  0
LINE
  5
11B
330
1F
100
AcDbEntity
  8
0
100
AcDbLine
 10
-94.21775909259173
 20
21.26922997796204
 30
0.0
 11
-93.3201118641041
 21
20.73015516911875
 31
0.0
  0
LINE
  5
11C
330
1F
100
AcDbEntity
  8
0
100
AcDbLine
 10
-95.08596313114269
 20
21.85454522958777
 30
0.0
 11
-94.21775909259173
 21
21.26922997796204
 31
0.0
  0
LINE
  5
11D
330
1F
100
AcDbEntity
  8
0
100
AcDbLine
 10
-95.9223442928355
 20
22.48449661557393
 30
0.0
 11
-95.08596313114269
 21
21.85454522958777
 31
0.0
  0
LINE
  5
11E
330
1F
100
AcDbEntity
  8
0
100
AcDbLine
 10
-96.72461011504225
 20
23.1573574829605
 30
0.0
 11
-95.9223442928355
 21
22.48449661557393
 31
0.0
  0
LINE
  5
11F
330
1F
100
AcDbEntity
  8
0
100
AcDbLine
 10
-97.49056164290877
 20
23.87128356687975
 30
0.0
 11
-96.72461011504225
 21
23.1573574829605
 31
0.0
  0
LINE
  5
120
330
1F
100
AcDbEntity
  8
0
100
AcDbLine
 10
-98.21809945653789
 20
24.62431804555906
 30
0.0
 11
-97.49056164290877
 21
23.87128356687975
 31
0.0
  0
LINE
  5
121
330
1F
100
AcDbEntity
  8
0
100
AcDbLine
 10
-98.9052294253532
 20
25.41439690383694
 30
0.0
 11
-98.21809945653789
 21
24.62431804555906
 31
0.0
  0
LINE
  5
122
330
1F
100
AcDbEntity
  8
0
100
AcDbLine
 10
-99.55006817387212
 20
26.23935459047882
 30
0.0
 11
-98.9052294253532
 21
25.41439690383694
 31
0.0
  0
LINE
  5
123
330
1F
100
AcDbEntity
  8
0
100
AcDbLine
 10
-100.1508482439067
 20
27.09692995380858
 30
0.0
 11
-99.55006817387212
 21
26.23935459047882
 31
0.0
  0
LINE
  5
124
330
1F
100
AcDbEntity
  8
0
100
AcDbLine
 10
-100.705922939045
 20
27.9847724393643
 30
0.0
 11
-100.1508482439067
 21
27.09692995380858
 31
0.0
  0
LINE
  5
125
330
1F
100
AcDbEntity
  8
0
100
AcDbLine
 10
-101.2137708381299
 20
28.90044853260682
 30
0.0
 11
-100.705922939045
 21
27.9847724393643
 31
0.0
  0
LINE
  5
126
330
1F
100
AcDbEntity
  8
0
100
AcDbLine
 10
-101.6729999653711
 20
29.84144842901162
 30
0.0
 11
-101.2137708381299
 21
28.90044853260682
 31
0.0
  0
LINE
  5
127
330
1F
100
AcDbEntity
  8
0
100
AcDbLine
 10
-102.0823516056505
 20
30.80519291327179
 30
0.0
 11
-101.6729999653711
 21
29.84144842901162
 31
0.0
  0
LINE
  5
128
330
1F
100
AcDbEntity
  8
0
100
AcDbLine
 10
-102.4407037545762
 20
31.78904042874403
 30
0.0
 11
-102.0823516056505
 21
30.80519291327179
 31
0.0
  0
LINE
  5
129
330
1F
100
AcDbEntity
  8
0
100
AcDbLine
 10
-102.7470741938165
 20
32.79029431777559
 30
0.0
 11
-102.4407037545762
 21
31.78904042874403
 31
0.0
  0
LINE
  5
12A
330
1F
100
AcDbEntity
  8
0
100
AcDbLine
 10
-103.0006231832935
 20
33.806210213052
 30
0.0
 11
-102.7470741938165
 21
32.79029431777559
 31
0.0
  0
LINE
  5
12B
330
1F
100
AcDbEntity
  8
0
100
AcDbLine
 10
-103.2006557628505
 20
34.83400355972066
 30
0.0
 11
-103.0006231832935
 21
33.806210213052
 31
0.0
  0
LINE
  5
12C
330
1F
100
AcDbEntity
  8
0
100
AcDbLine
 10
-103.3466236570913
 20
35.8708572476592
 30
0.0
 11
-103.2006557628505
 21
34.83400355972066
 31
0.0
  0
LINE
  5
12D
330
1F
100
AcDbEntity
  8
0
100
AcDbLine
 10
-103.438126778164
 20
36.91392933298056
 30
0.0
 11
-103.3466236570913
 21
35.8708572476592
 31
0.0
  0
LINE
  5
12E
330
1F
100
AcDbEntity
  8
0
100
AcDbLine
 10
-103.4749143223734
 20
37.96036082760005
 30
0.0
 11
-103.438126778164
 21
36.91392933298056
 31
0.0
  0
LINE
  5
12F
330
1F
100
AcDbEntity
  8
0
100
AcDbLine
 10
-103.4568854576185
 20
39.00728353552863
 30
0.0
 11
-103.4749143223734
 21
37.96036082760005
 31
0.0
  0
LINE
  5
130
330
1F
100
AcDbEntity
  8
0
100
AcDbLine
 10
-103.3840895997643
 20
40.05182791439444
 30
0.0
 11
-103.4568854576185
 21
39.00728353552863
 31
0.0
  0
LINE
  5
131
330
1F
100
AcDbEntity
  8
0
100
AcDbLine
 10
-103.2567262771973
 20
41.0911309406608
 30
0.0
 11
-103.3840895997643
 21
40.05182791439444
 31
0.0
  0
LINE
  5
132
330
1F
100
AcDbEntity
  8
0
100
AcDbLine
 10
-103.0751445839315
 20
42.12234395697304
 30
0.0
 11
-103.2567262771973
 21
41.0911309406608
 31
0.0
  0
LINE
  5
133
330
1F
100
AcDbEntity
  8
0
100
AcDbLine
 10
-102.8398422227668
 20
43.14264048013221
 30
0.0
 11
-103.0751445839315
 21
42.12234395697304
 31
0.0
  0
LINE
  5
134
330
1F
100
AcDbEntity
  8
0
100
AcDbLine
 10
-102.5514641411191
 20
44.14922394828894
 30
0.0
 11
-102.8398422227668
 21
43.14264048013221
 31
0.0
  0
LINE
  5
135
330
1F
100
AcDbEntity
  8
0
100
AcDbLine
 10
-102.2108007632658
 20
45.13933538612341
 30
0.0
 11
-102.5514641411191
 21
44.14922394828894
 31
0.0
  0
LINE
  5
136
330
1F
100
AcDbEntity
  8
0
100
AcDbLine
 10
-101.8187858238458
 20
46.11026096700611
 30
0.0
 11
-102.2108007632658
 21
45.13933538612341
 31
0.0
  0
LINE
  5
137
330
1F
100
AcDbEntity
  8
0
100
AcDbLine
 10
-101.3764938085597
 20
47.05933945140816
 30
0.0
 11
-101.8187858238458
 21
46.11026096700611
 31
0.0
  0
LINE
  5
138
330
1F
100
AcDbEntity
  8
0
100
AcDbLine
 10
-100.8851370090785
 20
47.98396948117369
 30
0.0
 11
-101.3764938085597
 21
47.05933945140816
 31
0.0
  0
LINE
  5
139
330
1F
100
AcDbEntity
  8
0
100
AcDbLine
 10
-100.3460622002349
 20
48.88161670966132
 30
0.0
 11
-100.8851370090785
 21
47.98396948117369
 31
0.0
  0
LINE
  5
13A
330
1F
100
AcDbEntity
  8
0
100
AcDbLine
 10
-99.76074694861023
 20
49.74982074821227
 30
0.0
 11
-100.3460622002349
 21
48.88161670966132
 31
0.0
  0
LINE
  5
13B
330
1F
100
AcDbEntity
  8
0
100
AcDbLine
 10
-99.1307955626237
 20
50.58620190990509
 30
0.0
 11
-99.76074694861023
 21
49.74982074821227
 31
0.0
  0
LINE
  5
13C
330
1F
100
AcDbEntity
  8
0
100
AcDbLine
 10
-98.45793469523713
 20
51.38846773211183
 30
0.0
 11
-99.1307955626237
 21
50.58620190990509
 31
0.0
  0
LINE
  5
13D
330
1F
100
AcDbEntity
  8
0
100
AcDbLine
 10
-97.74400861131825
 20
52.15441925997836
 30
0.0
 11
-98.45793469523713
 21
51.38846773211183
 31
0.0
  0
LINE
  5
13E
330
1F
100
AcDbEntity
  8
0
100
AcDbLine
 10
-96.99097413263857
 20
52.88195707360746
 30
0.0
 11
-97.74400861131825
 21
52.15441925997836
 31
0.0
  0
LINE
  5
13F
330
1F
100
AcDbEntity
  8
0
100
AcDbLine
 10
-96.20089527436141
 20
53.56908704242278
 30
0.0
 11
-96.99097413263857
 21
52.88195707360746
 31
0.0
  0
LINE
  5
140
330
1F
100
AcDbEntity
  8
0
100
AcDbLine
 10
-95.37593758771918
 20
54.21392579094135
 30
0.0
 11
-96.20089527436141
 21
53.56908704242278
 31
0.0
  0
LINE
  5
141
330
1F
100
AcDbEntity
  8
0
100
AcDbLine
 10
-94.51836222438942
 20
54.81470586097625
 30
0.0
 11
-95.37593758771918
 21
54.21392579094135
 31
0.0
  0
LINE
  5
142
330
1F
100
AcDbEntity
  8
0
100
AcDbLine
 10
-93.6305197388337
 20
55.36978055611418
 30
0.0
 11
-94.51836222438942
 21
54.81470586097625
 31
0.0
  0
LINE
  5
143
330
1F
100
AcDbEntity
  8
0
100
AcDbLine
 10
-92.71484364559117
 20
55.87762845519912
 30
0.0
 11
-93.6305197388337
 21
55.36978055611418
 31
0.0
  0
LINE
  5
144
330
1F
100
AcDbEntity
  8
0
100
AcDbLine
 10
-91.77384374918601
 20
56.33685758244064
 30
0.0
 11
-92.71484364559117
 21
55.87762845519912
 31
0.0
  0
LINE
  5
145
330
1F
100
AcDbEntity
  8
0
100
AcDbLine
 10
-90.81009926492621
 20
56.74620922272011
 30
0.0
 11
-91.77384374918601
 21
56.33685758244064
 31
0.0
  0
LINE
  5
146
330
1F
100
AcDbEntity
  8
0
100
AcDbLine
 10
-89.8262517494536
 20
57.10456137164579
 30
0.0
 11
-90.81009926492621
 21
56.74620922272011
 31
0.0
  0
LINE
  5
147
330
1F
100
AcDbEntity
  8
0
100
AcDbLine
 10
-88.82499786042241
 20
57.41093181088608
 30
0.0
 11
-89.8262517494536
 21
57.10456137164579
 31
0.0
  0
LINE
  5
148
330
1F
100
AcDbEntity
  8
0
100
AcDbLine
 10
-87.80908196514564
 20
57.66448080036277
 30
0.0
 11
-88.82499786042241
 21
57.41093181088608
 31
0.0
  0
LINE
  5
149
330
1F
100
AcDbEntity
  8
0
100
AcDbLine
 10
-86.78128861847662
 20
57.86451337991971
 30
0.0
 11
-87.80908196514564
 21
57.66448080036277
 31
0.0
  0
LINE
  5
14A
330
1F
100
AcDbEntity
  8
0
100
AcDbLine
 10
-85.74443493053808
 20
58.01048127416054
 30
0.0
 11
-86.78128861847662
 21
57.86451337991971
 31
0.0
  0
LINE
  5
14B
330
1F
100
AcDbEntity
  8
0
100
AcDbLine
 10
-84.7013628452178
 20
58.10198439523283
 30
0.0
 11
-85.74443493053808
 21
58.01048127416054
 31
0.0
  0
LINE
  5
14C
330
1F
100
AcDbEntity
  8
0
100
AcDbLine
 10
-83.65493135059795
 20
58.13877193944263
 30
0.0
 11
-84.7013628452178
 21
58.10198439523283
 31
0.0
  0
LINE
  5
14D
330
1F
100
AcDbEntity
  8
0
100
AcDbLine
 10
-82.60800864266936
 20
58.1207430746881
 30
0.0
 11
-83.65493135059795
 21
58.13877193944263
 31
0.0
  0
LINE
  5
14E
330
1F
100
AcDbEntity
  8
0
100
AcDbLine
 10
-81.56346426380357
 20
58.0479472168339
 30
0.0
 11
-82.60800864266936
 21
58.1207430746881
 31
0.0
  0
LINE
  5
14F
330
1F
100
AcDbEntity
  8
0
100
AcDbLine
 10
-80.52416123753756
 20
57.92058389426691
 30
0.0
 11
-81.56346426380357
 21
58.0479472168339
 31
0.0
  0
LINE
  5
150
330
1F
100
AcDbEntity
  8
0
100
AcDbLine
 10
-79.49294822122532
 20
57.73900220100069
 30
0.0
 11
-80.52416123753756
 21
57.92058389426691
 31
0.0
  0
LINE
  5
151
330
1F
100
AcDbEntity
  8
0
100
AcDbLine
 10
-78.47265169806614
 20
57.50369983983602
 30
0.0
 11
-79.49294822122532
 21
57.73900220100069
 31
0.0
  0
LINE
  5
152
330
1F
100
AcDbEntity
  8
0
100
AcDbLine
 10
-77.46606822990941
 20
57.21532175818871
 30
0.0
 11
-78.47265169806614
 21
57.50369983983602
 31
0.0
  0
LINE
  5
153
330
1F
100
AcDbEntity
  8
0
100
AcDbLine
 10
-76.47595679207495
 20
56.87465838033501
 30
0.0
 11
-77.46606822990941
 21
57.21532175818871
 31
0.0
  0
LINE
  5
154
330
1F
100
AcDbEntity
  8
0
100
AcDbLine
 10
-75.50503121119225
 20
56.48264344091503
 30
0.0
 11
-76.47595679207495
 21
56.87465838033501
 31
0.0
  0
LINE
  5
155
330
1F
100
AcDbEntity
  8
0
100
AcDbLine
 10
-74.5559527267902
 20
56.04035142562894
 30
0.0
 11
-75.50503121119225
 21
56.48264344091503
 31
0.0
  0
LINE
  5
156
330
1F
100
AcDbEntity
  8
0
100
AcDbLine
 10
-73.63132269702467
 20
55.54899462614738
 30
0.0
 11
-74.5559527267902
 21
56.04035142562894
 31
0.0
  0
LINE
  5
157
330
1F
100
AcDbEntity
  8
0
100
AcDbLine
 10
-72.73367546853704
 20
55.00991981730409
 30
0.0
 11
-73.63132269702467
 21
55.54899462614738
 31
0.0
  0
LINE
  5
158
330
1F
100
AcDbEntity
  8
0
100
AcDbLine
 10
-71.86547142998609
 20
54.42460456567981
 30
0.0
 11
-72.73367546853704
 21
55.00991981730409
 31
0.0
  0
LINE
  5
159
330
1F
100
AcDbEntity
  8
0
100
AcDbLine
 10
-71.02909026829327
 20
53.79465317969292
 30
0.0
 11
-71.86547142998609
 21
54.42460456567981
 31
0.0
  0
LINE
  5
15A
330
1F
100
AcDbEntity
  8
0
100
AcDbLine
 10
-70.22682444608652
 20
53.12179231230672
 30
0.0
 11
-71.02909026829327
 21
53.79465317969292
 31
0.0
  0
LINE
  5
15B
330
1F
100
AcDbEntity
  8
0
100
AcDbLine
 10
-69.46087291822
 20
52.40786622838783
 30
0.0
 11
-70.22682444608652
 21
53.12179231230672
 31
0.0
  0
LINE
  5
15C
330
1F
100
AcDbEntity
  8
0
100
AcDbLine
 10
-68.73333510459089
 20
51.65483174970815
 30
0.0
 11
-69.46087291822
 21
52.40786622838783
 31
0.0
  0
LINE
  5
15D
330
1F
100
AcDbEntity
  8
0
100
AcDbLine
 10
-68.04620513577558
 20
50.86475289143063
 30
0.0
 11
-68.73333510459089
 21
51.65483174970815
 31
0.0
  0
LINE
  5
15E
330
1F
100
AcDbEntity
  8
0
100
AcDbLine
 10
-67.40136638725666
 20
50.03979520478876
 30
0.0
 11
-68.04620513577558
 21
50.86475289143063
 31
0.0
  0
LINE
  5
15F
330
1F
100
AcDbEntity
  8
0
100
AcDbLine
 10
-66.80058631722211
 20
49.182219841459
 30
0.0
 11
-67.40136638725666
 21
50.03979520478876
 31
0.0
  0
LINE
  5
160
330
1F
100
AcDbEntity
  8
0
100
AcDbLine
 10
-66.24551162208381
 20
48.29437735590328
 30
0.0
 11
-66.80058631722211
 21
49.182219841459
 31
0.0
  0
LINE
  5
161
330
1F
100
AcDbEntity
  8
0
100
AcDbLine
 10
-65.73766372299887
 20
47.37870126266075
 30
0.0
 11
-66.24551162208381
 21
48.29437735590328
 31
0.0
  0
LINE
  5
162
330
1F
100
AcDbEntity
  8
0
100
AcDbLine
 10
-65.27843459575772
 20
46.4377013662556
 30
0.0
 11
-65.73766372299887
 21
47.37870126266075
 31
0.0
  0
LINE
  5
163
330
1F
100
AcDbEntity
  8
0
100
AcDbLine
 10
-64.86908295547825
 20
45.47395688199579
 30
0.0
 11
-65.27843459575772
 21
46.4377013662556
 31
0.0
  0
LINE
  5
164
330
1F
100
AcDbEntity
  8
0
100
AcDbLine
 10
-64.51073080655257
 20
44.49010936652319
 30
0.0
 11
-64.86908295547825
 21
45.47395688199579
 31
0.0
  0
LINE
  5
165
330
1F
100
AcDbEntity
  8
0
100
AcDbLine
 10
-64.20436036731228
 20
43.48885547749199
 30
0.0
 11
-64.51073080655257
 21
44.49010936652319
 31
0.0
  0
LINE
  5
166
330
1F
100
AcDbEntity
  8
0
100
AcDbLine
 10
-63.95081137783523
 20
42.47293958221522
 30
0.0
 11
-64.20436036731228
 21
43.48885547749199
 31
0.0
  0
LINE
  5
167
330
1F
100
AcDbEntity
  8
0
100
AcDbLine
 10
-63.75077879827828
 20
41.4451462355462
 30
0.0
 11
-63.95081137783523
 21
42.47293958221522
 31
0.0
  0
LINE
  5
168
330
1F
100
AcDbEntity
  8
0
100
AcDbLine
 10
-63.60481090403746
 20
40.40829254760765
 30
0.0
 11
-63.75077879827828
 21
41.4451462355462
 31
0.0
  0
LINE
  5
169
330
1F
100
AcDbEntity
  8
0
100
AcDbLine
 10
-63.5133077829648
 20
39.36522046228702
 30
0.0
 11
-63.60481090403746
 21
40.40829254760765
 31
0.0
  0
LINE
  5
16A
330
1F
100
AcDbEntity
  8
0
100
AcDbLine
 10
-63.47652023875536
 20
38.31878896766717
 30
0.0
 11
-63.5133077829648
 21
39.36522046228702
 31
0.0
  0
LINE
  5
16B
330
1F
100
AcDbEntity
  8
0
100
AcDbLine
 10
-63.49454910351026
 20
37.27186625973859
 30
0.0
 11
-63.47652023875536
 21
38.31878896766717
 31
0.0
  0
LINE
  5
16C
330
1F
100
AcDbEntity
  8
0
100
AcDbLine
 10
-63.56734496136446
 20
36.22732188087206
 30
0.0
 11
-63.49454910351026
 21
37.27186625973859
 31
0.0
  0
LINE
  5
16D
330
1F
100
AcDbEntity
  8
0
100
AcDbLine
 10
-63.69470828393145
 20
35.18801885460606
 30
0.0
 11
-63.56734496136446
 21
36.22732188087206
 31
0.0
  0
LINE
  5
16E
330
1F
100
AcDbEntity
  8
0
100
AcDbLine
 10
-63.8762899771973
 20
34.15680583829418
 30
0.0
 11
-63.69470828393145
 21
35.18801885460606
 31
0.0
  0
LINE
  5
16F
330
1F
100
AcDbEntity
  8
0
100
AcDbLine
 10
-64.11159233836197
 20
33.13650931513536
 30
0.0
 11
-63.8762899771973
 21
34.15680583829418
 31
0.0
  0
LINE
  5
170
330
1F
100
AcDbEntity
  8
0
100
AcDbLine
 10
-64.39997042000965
 20
32.12992584697864
 30
0.0
 11
-64.11159233836197
 21
33.13650931513536
 31
0.0
  0
LINE
  5
171
330
1F
100
AcDbEntity
  8
0
100
AcDbLine
 10
-64.74063379786298
 20
31.13981440914381
 30
0.0
 11
-64.39997042000965
 21
32.12992584697864
 31
0.0
  0
LINE
  5
172
330
1F
100
AcDbEntity
  8
0
100
AcDbLine
 10
-65.13264873728296
 20
30.1688888282611
 30
0.0
 11
-64.74063379786298
 21
31.13981440914381
 31
0.0
  0
LINE
  5
173
330
1F
100
AcDbEntity
  8
0
100
AcDbLine
 10
-65.57494075256906
 20
29.21981034385905
 30
0.0
 11
-65.13264873728296
 21
30.1688888282611
 31
0.0
  0
LINE
  5
174
330
1F
100
AcDbEntity
  8
0
100
AcDbLine
 10
-66.06629755205026
 20
28.29518031409353
 30
0.0
 11
-65.57494075256906
 21
29.21981034385905
 31
0.0
  0
LINE
  5
175
330
1F
100
AcDbEntity
  8
0
100
AcDbLine
 10
-66.6053723608939
 20
27.39753308560627
 30
0.0
 11
-66.06629755205026
 21
28.29518031409353
 31
0.0
  0
LINE
  5
176
330
1F
100
AcDbEntity
  8
0
100
AcDbLine
 10
-67.19068761251854
 20
26.52932904705494
 30
0.0
 11
-66.6053723608939
 21
27.39753308560627
 31
0.0
  0
LINE
  5
177
330
1F
100
AcDbEntity
  8
0
100
AcDbLine
 10
-67.82063899850507
 20
25.69294788536249
 30
0.0
 11
-67.19068761251854
 21
26.52932904705494
 31
0.0
  0
LINE
  5
178
330
1F
100
AcDbEntity
  8
0
100
AcDbLine
 10
-68.49349986589165
 20
24.89068206315574
 30
0.0
 11
-67.82063899850507
 21
25.69294788536249
 31
0.0
  0
LINE
  5
179
330
1F
100
AcDbEntity
  8
0
100
AcDbLine
 10
-69.20742594981053
 20
24.12473053528886
 30
0.0
 11
-68.49349986589165
 21
24.89068206315574
 31
0.0
  0
LINE
  5
17A
330
1F
100
AcDbEntity
  8
0
100
AcDbLine
 10
-69.96046042849021
 20
23.39719272165976
 30
0.0
 11
-69.20742594981053
 21
24.12473053528886
 31
0.0
  0
LINE
  5
17B
330
1F
100
AcDbEntity
  8
0
100
AcDbLine
 10
-70.75053928676736
 20
22.7100627528448
 30
0.0
 11
-69.96046042849021
 21
23.39719272165976
 31
0.0
  0
LINE
  5
17C
330
1F
100
AcDbEntity
  8
0
100
AcDbLine
 10
-71.5754969734096
 20
22.06522400432551
 30
0.0
 11
-70.75053928676736
 21
22.7100627528448
 31
0.0
  0
LINE
  5
17D
330
1F
100
AcDbEntity
  8
0
100
AcDbLine
 10
-72.43307233673936
 20
21.46444393429133
 30
0.0
 11
-71.5754969734096
 21
22.06522400432551
 31
0.0
  0
LINE
  5
17E
330
1F
100
AcDbEntity
  8
0
100
AcDbLine
 10
-73.32091482229508
 20
20.90936923915195
 30
0.0
 11
-72.43307233673936
 21
21.46444393429133
 31
0.0
  0
LINE
  5
17F
330
1F
100
AcDbEntity
  8
0
100
AcDbLine
 10
-74.2365909155376
 20
20.40152134006702
 30
0.0
 11
-73.32091482229508
 21
20.90936923915195
 31
0.0
  0
LINE
  5
180
330
1F
100
AcDbEntity
  8
0
100
AcDbLine
 10
-75.17759081194276
 20
19.9422922128255
 30
0.0
 11
-74.2365909155376
 21
20.40152134006702
 31
0.0
  0
LINE
  5
181
330
1F
100
AcDbEntity
  8
0
100
AcDbLine
 10
-76.14133529620257
 20
19.53294057254602
 30
0.0
 11
-75.17759081194276
 21
19.9422922128255
 31
0.0
  0
LINE
  5
182
330
1F
100
AcDbEntity
  8
0
100
AcDbLine
 10
-77.12518281167517
 20
19.17458842362035
 30
0.0
 11
-76.14133529620257
 21
19.53294057254602
 31
0.0
  0
LINE
  5
183
330
1F
100
AcDbEntity
  8
0
100
AcDbLine
 10
-78.12643670070636
 20
18.86821798438006
 30
0.0
 11
-77.12518281167517
 21
19.17458842362035
 31
0.0
  0
LINE
  5
184
330
1F
100
AcDbEntity
  8
0
100
AcDbLine
 10
-79.14235259598314
 20
18.61466899490337
 30
0.0
 11
-78.12643670070636
 21
18.86821798438006
 31
0.0
  0
LINE
  5
185
330
1F
100
AcDbEntity
  8
0
100
AcDbLine
 10
-80.17014594265216
 20
18.41463641534642
 30
0.0
 11
-79.14235259598314
 21
18.61466899490337
 31
0.0
  0
LINE
  5
186
330
1F
100
AcDbEntity
  8
0
100
AcDbLine
 10
-81.2069996305907
 20
18.26866852110559
 30
0.0
 11
-80.17014594265216
 21
18.41463641534642
 31
0.0
  0
LINE
  5
187
330
1F
100
AcDbEntity
  8
0
100
AcDbLine
 10
-82.25007171591098
 20
18.1771654000333
 30
0.0
 11
-81.2069996305907
 21
18.26866852110559
 31
0.0
  0
LINE
  5
188
330
1F
100
AcDbEntity
  8
0
100
AcDbLine
 10
-83.29650321053083
 20
18.1403778558235
 30
0.0
 11
-82.25007171591098
 21
18.1771654000333
 31
0.0
  0
LINE
  5
189
330
1F
100
AcDbEntity
  8
0
100
AcDbLine
 10
-86.65209981365129
 20
268.0662236417545
 30
0.0
 11
-87.51045988719018
 21
267.4665652552582
 31
0.0
  0
LINE
  5
18A
330
1F
100
AcDbEntity
  8
0
100
AcDbLine
 10
-87.51045988719018
 20
267.4665652552582
 30
0.0
 11
-88.39902730315639
 21
266.9126517749892
 31
0.0
  0
LINE
  5
18B
330
1F
100
AcDbEntity
  8
0
100
AcDbLine
 10
-88.39902730315639
 20
266.9126517749892
 30
0.0
 11
-89.31536656002685
 21
266.4060014392948
 31
0.0
  0
LINE
  5
18C
330
1F
100
AcDbEntity
  8
0
100
AcDbLine
 10
-89.31536656002685
 20
266.4060014392948
 30
0.0
 11
-90.25696603559213
 21
265.9480029415283
 31
0.0
  0
LINE
  5
18D
330
1F
100
AcDbEntity
  8
0
100
AcDbLine
 10
-90.25696603559213
 20
265.9480029415283
 30
0.0
 11
-91.22124487113925
 21
265.5399116237372
 31
0.0
  0
LINE
  5
18E
330
1F
100
AcDbEntity
  8
0
100
AcDbLine
 10
-91.22124487113925
 20
265.5399116237372
 30
0.0
 11
-92.20556004540671
 21
265.1828460358573
 31
0.0
  0
LINE
  5
18F
330
1F
100
AcDbEntity
  8
0
100
AcDbLine
 10
-92.20556004540671
 20
265.1828460358573
 30
0.0
 11
-93.20721361892015
 21
264.8777848698454
 31
0.0
  0
LINE
  5
190
330
1F
100
AcDbEntity
  8
0
100
AcDbLine
 10
-93.20721361892015
 20
264.8777848698454
 30
0.0
 11
-94.22346012885912
 21
264.6255642771533
 31
0.0
  0
LINE
  5
191
330
1F
100
AcDbEntity
  8
0
100
AcDbLine
 10
-94.22346012885912
 20
264.6255642771533
 30
0.0
 11
-95.25151411417798
 21
264.4268755768938
 31
0.0
  0
LINE
  5
192
330
1F
100
AcDbEntity
  8
0
100
AcDbLine
 10
-95.25151411417798
 20
264.4268755768938
 30
0.0
 11
-96.2885577503624
 21
264.2822633609838
 31
0.0
  0
LINE
  5
193
330
1F
100
AcDbEntity
  8
0
100
AcDbLine
 10
-96.2885577503624
 20
264.2822633609838
 30
0.0
 11
-97.33174857288927
 21
264.1921240014552
 31
0.0
  0
LINE
  5
194
330
1F
100
AcDbEntity
  8
0
100
AcDbLine
 10
-97.33174857288927
 20
264.1921240014552
 30
0.0
 11
-98.37822726822577
 21
264.1567045640267
 31
0.0
  0
LINE
  5
195
330
1F
100
AcDbEntity
  8
0
100
AcDbLine
 10
-98.37822726822577
 20
264.1567045640267
 30
0.0
 11
-99.42512551100769
 21
264.1761021309148
 31
0.0
  0
LINE
  5
196
330
1F
100
AcDbEntity
  8
0
100
AcDbLine
 10
-99.42512551100769
 20
264.1761021309148
 30
0.0
 11
-100.4695738259204
 21
264.2502635347363
 31
0.0
  0
LINE
  5
197
330
1F
100
AcDbEntity
  8
0
100
AcDbLine
 10
-100.4695738259204
 20
264.2502635347363
 30
0.0
 11
-101.5087094527315
 21
264.3789855042389
 31
0.0
  0
LINE
  5
198
330
1F
100
AcDbEntity
  8
0
100
AcDbLine
 10
-101.5087094527315
 20
264.3789855042389
 30
0.0
 11
-102.5396841929176
 21
264.5619152214513
 31
0.0
  0
LINE
  5
199
330
1F
100
AcDbEntity
  8
0
100
AcDbLine
 10
-102.5396841929176
 20
264.5619152214513
 30
0.0
 11
-103.5596722163775
 21
264.7985512887335
 31
0.0
  0
LINE
  5
19A
330
1F
100
AcDbEntity
  8
0
100
AcDbLine
 10
-103.5596722163775
 20
264.7985512887335
 30
0.0
 11
-104.5658778068382
 21
265.088245103074
 31
0.0
  0
LINE
  5
19B
330
1F
100
AcDbEntity
  8
0
100
AcDbLine
 10
-104.5658778068382
 20
265.088245103074
 30
0.0
 11
-105.5555430247159
 21
265.430202633864
 31
0.0
  0
LINE
  5
19C
330
1F
100
AcDbEntity
  8
0
100
AcDbLine
 10
-105.5555430247159
 20
265.430202633864
 30
0.0
 11
-106.5259552664394
 21
265.8234865992807
 31
0.0
  0
LINE
  5
19D
330
1F
100
AcDbEntity
  8
0
100
AcDbLine
 10
-106.5259552664394
 20
265.8234865992807
 30
0.0
 11
-107.4744546995068
 21
266.2670190353113
 31
0.0
  0
LINE
  5
19E
330
1F
100
AcDbEntity
  8
0
100
AcDbLine
 10
-107.4744546995068
 20
266.2670190353113
 30
0.0
 11
-108.3984415529016
 21
266.7595842503789
 31
0.0
  0
LINE
  5
19F
330
1F
100
AcDbEntity
  8
0
100
AcDbLine
 10
-108.3984415529016
 20
266.7595842503789
 30
0.0
 11
-109.2953832428842
 21
267.2998321574664
 31
0.0
  0
LINE
  5
1A0
330
1F
100
AcDbEntity
  8
0
100
AcDbLine
 10
-109.2953832428842
 20
267.2998321574664
 30
0.0
 11
-110.1628213146277
 21
267.8862819746126
 31
0.0
  0
LINE
  5
1A1
330
1F
100
AcDbEntity
  8
0
100
AcDbLine
 10
-110.1628213146277
 20
267.8862819746126
 30
0.0
 11
-110.9983781806723
 21
268.5173262836325
 31
0.0
  0
LINE
  5
1A2
330
1F
100
AcDbEntity
  8
0
100
AcDbLine
 10
-110.9983781806723
 20
268.5173262836325
 30
0.0
 11
-111.7997636377273
 21
269.1912354359387
 31
0.0
  0
LINE
  5
1A3
330
1F
100
AcDbEntity
  8
0
100
AcDbLine
 10
-111.7997636377273
 20
269.1912354359387
 30
0.0
 11
-112.5647811439586
 21
269.9061622933867
 31
0.0
  0
LINE
  5
1A4
330
1F
100
AcDbEntity
  8
0
100
AcDbLine
 10
-112.5647811439586
 20
269.9061622933867
 30
0.0
 11
-113.2913338395566
 21
270.6601472911549
 31
0.0
  0
LINE
  5
1A5
330
1F
100
AcDbEntity
  8
0
100
AcDbLine
 10
-113.2913338395566
 20
270.6601472911549
 30
0.0
 11
-113.9774302940859
 21
271.4511238087736
 31
0.0
  0
LINE
  5
1A6
330
1F
100
AcDbEntity
  8
0
100
AcDbLine
 10
-113.9774302940859
 20
271.4511238087736
 30
0.0
 11
-114.6211899648535
 21
272.276923834587
 31
0.0
  0
LINE
  5
1A7
330
1F
100
AcDbEntity
  8
0
100
AcDbLine
 10
-114.6211899648535
 20
272.276923834587
 30
0.0
 11
-115.2208483513499
 21
273.1352839081259
 31
0.0
  0
LINE
  5
1A8
330
1F
100
AcDbEntity
  8
0
100
AcDbLine
 10
-115.2208483513499
 20
273.1352839081259
 30
0.0
 11
-115.7747618316188
 21
274.0238513240925
 31
0.0
  0
LINE
  5
1A9
330
1F
100
AcDbEntity
  8
0
100
AcDbLine
 10
-115.7747618316188
 20
274.0238513240925
 30
0.0
 11
-116.2814121673132
 21
274.9401905809626
 31
0.0
  0
LINE
  5
1AA
330
1F
100
AcDbEntity
  8
0
100
AcDbLine
 10
-116.2814121673132
 20
274.9401905809626
 30
0.0
 11
-116.7394106650797
 21
275.8817900565279
 31
0.0
  0
LINE
  5
1AB
330
1F
100
AcDbEntity
  8
0
100
AcDbLine
 10
-116.7394106650797
 20
275.8817900565279
 30
0.0
 11
-117.1475019828708
 21
276.846068892075
 31
0.0
  0
LINE
  5
1AC
330
1F
100
AcDbEntity
  8
0
100
AcDbLine
 10
-117.1475019828708
 20
276.846068892075
 30
0.0
 11
-117.5045675707511
 21
277.8303840663424
 31
0.0
  0
LINE
  5
1AD
330
1F
100
AcDbEntity
  8
0
100
AcDbLine
 10
-117.5045675707511
 20
277.8303840663424
 30
0.0
 11
-117.8096287367627
 21
278.8320376398559
 31
0.0
  0
LINE
  5
1AE
330
1F
100
AcDbEntity
  8
0
100
AcDbLine
 10
-117.8096287367627
 20
278.8320376398559
 30
0.0
 11
-118.0618493294548
 21
279.8482841497949
 31
0.0
  0
LINE
  5
1AF
330
1F
100
AcDbEntity
  8
0
100
AcDbLine
 10
-118.0618493294548
 20
279.8482841497949
 30
0.0
 11
-118.2605380297142
 21
280.8763381351137
 31
0.0
  0
LINE
  5
1B0
330
1F
100
AcDbEntity
  8
0
100
AcDbLine
 10
-118.2605380297142
 20
280.8763381351137
 30
0.0
 11
-118.4051502456242
 21
281.9133817712981
 31
0.0
  0
LINE
  5
1B1
330
1F
100
AcDbEntity
  8
0
100
AcDbLine
 10
-118.4051502456242
 20
281.9133817712981
 30
0.0
 11
-118.4952896051528
 21
282.956572593825
 31
0.0
  0
LINE
  5
1B2
330
1F
100
AcDbEntity
  8
0
100
AcDbLine
 10
-118.4952896051528
 20
282.956572593825
 30
0.0
 11
-118.5307090425813
 21
284.0030512891615
 31
0.0
  0
LINE
  5
1B3
330
1F
100
AcDbEntity
  8
0
100
AcDbLine
 10
-118.5307090425813
 20
284.0030512891615
 30
0.0
 11
-118.5113114756935
 21
285.0499495319435
 31
0.0
  0
LINE
  5
1B4
330
1F
100
AcDbEntity
  8
0
100
AcDbLine
 10
-118.5113114756935
 20
285.0499495319435
 30
0.0
 11
-118.4371500718717
 21
286.0943978468562
 31
0.0
  0
LINE
  5
1B5
330
1F
100
AcDbEntity
  8
0
100
AcDbLine
 10
-118.4371500718717
 20
286.0943978468562
 30
0.0
 11
-118.3084281023692
 21
287.1335334736672
 31
0.0
  0
LINE
  5
1B6
330
1F
100
AcDbEntity
  8
0
100
AcDbLine
 10
-118.3084281023692
 20
287.1335334736672
 30
0.0
 11
-118.1254983851571
 21
288.1645082138533
 31
0.0
  0
LINE
  5
1B7
330
1F
100
AcDbEntity
  8
0
100
AcDbLine
 10
-118.1254983851571
 20
288.1645082138533
 30
0.0
 11
-117.8888623178745
 21
289.1844962373133
 31
0.0
  0
LINE
  5
1B8
330
1F
100
AcDbEntity
  8
0
100
AcDbLine
 10
-117.8888623178745
 20
289.1844962373133
 30
0.0
 11
-117.599168503534
 21
290.1907018277739
 31
0.0
  0
LINE
  5
1B9
330
1F
100
AcDbEntity
  8
0
100
AcDbLine
 10
-117.599168503534
 20
290.1907018277739
 30
0.0
 11
-117.257210972744
 21
291.1803670456516
 31
0.0
  0
LINE
  5
1BA
330
1F
100
AcDbEntity
  8
0
100
AcDbLine
 10
-117.257210972744
 20
291.1803670456516
 30
0.0
 11
-116.8639270073276
 21
292.1507792873751
 31
0.0
  0
LINE
  5
1BB
330
1F
100
AcDbEntity
  8
0
100
AcDbLine
 10
-116.8639270073276
 20
292.1507792873751
 30
0.0
 11
-116.4203945712967
 21
293.0992787204419
 31
0.0
  0
LINE
  5
1BC
330
1F
100
AcDbEntity
  8
0
100
AcDbLine
 10
-116.4203945712967
 20
293.0992787204419
 30
0.0
 11
-115.9278293562292
 21
294.0232655738366
 31
0.0
  0
LINE
  5
1BD
330
1F
100
AcDbEntity
  8
0
100
AcDbLine
 10
-115.9278293562292
 20
294.0232655738366
 30
0.0
 11
-115.3875814491416
 21
294.9202072638193
 31
0.0
  0
LINE
  5
1BE
330
1F
100
AcDbEntity
  8
0
100
AcDbLine
 10
-115.3875814491416
 20
294.9202072638193
 30
0.0
 11
-114.8011316319954
 21
295.7876453355627
 31
0.0
  0
LINE
  5
1BF
330
1F
100
AcDbEntity
  8
0
100
AcDbLine
 10
-114.8011316319954
 20
295.7876453355627
 30
0.0
 11
-114.1700873229755
 21
296.6232022016073
 31
0.0
  0
LINE
  5
1C0
330
1F
100
AcDbEntity
  8
0
100
AcDbLine
 10
-114.1700873229755
 20
296.6232022016073
 30
0.0
 11
-113.4961781706697
 21
297.424587658663
 31
0.0
  0
LINE
  5
1C1
330
1F
100
AcDbEntity
  8
0
100
AcDbLine
 10
-113.4961781706697
 20
297.424587658663
 30
0.0
 11
-112.7812513132213
 21
298.1896051648939
 31
0.0
  0
LINE
  5
1C2
330
1F
100
AcDbEntity
  8
0
100
AcDbLine
 10
-112.7812513132213
 20
298.1896051648939
 30
0.0
 11
-112.0272663154531
 21
298.9161578604924
 31
0.0
  0
LINE
  5
1C3
330
1F
100
AcDbEntity
  8
0
100
AcDbLine
 10
-112.0272663154531
 20
298.9161578604924
 30
0.0
 11
-111.2362897978348
 21
299.6022543150216
 31
0.0
  0
LINE
  5
1C4
330
1F
100
AcDbEntity
  8
0
100
AcDbLine
 10
-111.2362897978348
 20
299.6022543150216
 30
0.0
 11
-110.410489772021
 21
300.2460139857893
 31
0.0
  0
LINE
  5
1C5
330
1F
100
AcDbEntity
  8
0
100
AcDbLine
 10
-110.410489772021
 20
300.2460139857893
 30
0.0
 11
-109.5521296984821
 21
300.8456723722856
 31
0.0
  0
LINE
  5
1C6
330
1F
100
AcDbEntity
  8
0
100
AcDbLine
 10
-109.5521296984821
 20
300.8456723722856
 30
0.0
 11
-108.6635622825159
 21
301.3995858525545
 31
0.0
  0
LINE
  5
1C7
330
1F
100
AcDbEntity
  8
0
100
AcDbLine
 10
-108.6635622825159
 20
301.3995858525545
 30
0.0
 11
-107.7472230256454
 21
301.906236188249
 31
0.0
  0
LINE
  5
1C8
330
1F
100
AcDbEntity
  8
0
100
AcDbLine
 10
-107.7472230256454
 20
301.906236188249
 30
0.0
 11
-106.8056235500801
 21
302.3642346860154
 31
0.0
  0
LINE
  5
1C9
330
1F
100
AcDbEntity
  8
0
100
AcDbLine
 10
-106.8056235500801
 20
302.3642346860154
 30
0.0
 11
-105.841344714533
 21
302.7723260038066
 31
0.0
  0
LINE
  5
1CA
330
1F
100
AcDbEntity
  8
0
100
AcDbLine
 10
-105.841344714533
 20
302.7723260038066
 30
0.0
 11
-104.8570295402656
 21
303.1293915916865
 31
0.0
  0
LINE
  5
1CB
330
1F
100
AcDbEntity
  8
0
100
AcDbLine
 10
-104.8570295402656
 20
303.1293915916865
 30
0.0
 11
-103.8553759667521
 21
303.4344527576984
 31
0.0
  0
LINE
  5
1CC
330
1F
100
AcDbEntity
  8
0
100
AcDbLine
 10
-103.8553759667521
 20
303.4344527576984
 30
0.0
 11
-102.8391294568135
 21
303.6866733503905
 31
0.0
  0
LINE
  5
1CD
330
1F
100
AcDbEntity
  8
0
100
AcDbLine
 10
-102.8391294568135
 20
303.6866733503905
 30
0.0
 11
-101.8110754714943
 21
303.8853620506499
 31
0.0
  0
LINE
  5
1CE
330
1F
100
AcDbEntity
  8
0
100
AcDbLine
 10
-101.8110754714943
 20
303.8853620506499
 30
0.0
 11
-100.7740318353099
 21
304.02997426656
 31
0.0
  0
LINE
  5
1CF
330
1F
100
AcDbEntity
  8
0
100
AcDbLine
 10
-100.7740318353099
 20
304.02997426656
 30
0.0
 11
-99.73084101278299
 21
304.1201136260885
 31
0.0
  0
LINE
  5
1D0
330
1F
100
AcDbEntity
  8
0
100
AcDbLine
 10
-99.73084101278299
 20
304.1201136260885
 30
0.0
 11
-98.68436231744649
 21
304.1555330635171
 31
0.0
  0
LINE
  5
1D1
330
1F
100
AcDbEntity
  8
0
100
AcDbLine
 10
-98.68436231744649
 20
304.1555330635171
 30
0.0
 11
-97.63746407466458
 21
304.1361354966289
 31
0.0
  0
LINE
  5
1D2
330
1F
100
AcDbEntity
  8
0
100
AcDbLine
 10
-97.63746407466458
 20
304.1361354966289
 30
0.0
 11
-96.59301575975185
 21
304.0619740928075
 31
0.0
  0
LINE
  5
1D3
330
1F
100
AcDbEntity
  8
0
100
AcDbLine
 10
-96.59301575975185
 20
304.0619740928075
 30
0.0
 11
-95.55388013294079
 21
303.9332521233049
 31
0.0
  0
LINE
  5
1D4
330
1F
100
AcDbEntity
  8
0
100
AcDbLine
 10
-95.55388013294079
 20
303.9332521233049
 30
0.0
 11
-94.52290539275468
 21
303.7503224060924
 31
0.0
  0
LINE
  5
1D5
330
1F
100
AcDbEntity
  8
0
100
AcDbLine
 10
-94.52290539275468
 20
303.7503224060924
 30
0.0
 11
-93.50291736929475
 21
303.5136863388103
 31
0.0
  0
LINE
  5
1D6
330
1F
100
AcDbEntity
  8
0
100
AcDbLine
 10
-93.50291736929475
 20
303.5136863388103
 30
0.0
 11
-92.49671177883407
 21
303.2239925244697
 31
0.0
  0
LINE
  5
1D7
330
1F
100
AcDbEntity
  8
0
100
AcDbLine
 10
-92.49671177883407
 20
303.2239925244697
 30
0.0
 11
-91.50704656095641
 21
302.8820349936798
 31
0.0
  0
LINE
  5
1D8
330
1F
100
AcDbEntity
  8
0
100
AcDbLine
 10
-91.50704656095641
 20
302.8820349936798
 30
0.0
 11
-90.5366343192329
 21
302.488751028263
 31
0.0
  0
LINE
  5
1D9
330
1F
100
AcDbEntity
  8
0
100
AcDbLine
 10
-90.5366343192329
 20
302.488751028263
 30
0.0
 11
-89.58813488616543
 21
302.0452185922325
 31
0.0
  0
LINE
  5
1DA
330
1F
100
AcDbEntity
  8
0
100
AcDbLine
 10
-89.58813488616543
 20
302.0452185922325
 30
0.0
 11
-88.66414803277065
 21
301.5526533771649
 31
0.0
  0
LINE
  5
1DB
330
1F
100
AcDbEntity
  8
0
100
AcDbLine
 10
-88.66414803277065
 20
301.5526533771649
 30
0.0
 11
-87.76720634278803
 21
301.0124054700774
 31
0.0
  0
LINE
  5
1DC
330
1F
100
AcDbEntity
  8
0
100
AcDbLine
 10
-87.76720634278803
 20
301.0124054700774
 30
0.0
 11
-86.89976827104455
 21
300.4259556529312
 31
0.0
  0
LINE
  5
1DD
330
1F
100
AcDbEntity
  8
0
100
AcDbLine
 10
-86.89976827104455
 20
300.4259556529312
 30
0.0
 11
-86.06421140499998
 21
299.7949113439112
 31
0.0
  0
LINE
  5
1DE
330
1F
100
AcDbEntity
  8
0
100
AcDbLine
 10
-86.06421140499998
 20
299.7949113439112
 30
0.0
 11
-85.26282594794498
 21
299.121002191605
 31
0.0
  0
LINE
  5
1DF
330
1F
100
AcDbEntity
  8
0
100
AcDbLine
 10
-85.26282594794498
 20
299.121002191605
 30
0.0
 11
-84.49780844171372
 21
298.406075334157
 31
0.0
  0
LINE
  5
1E0
330
1F
100
AcDbEntity
  8
0
100
AcDbLine
 10
-84.49780844171372
 20
298.406075334157
 30
0.0
 11
-83.77125574611564
 21
297.6520903363888
 31
0.0
  0
LINE
  5
1E1
330
1F
100
AcDbEntity
  8
0
100
AcDbLine
 10
-83.77125574611564
 20
297.6520903363888
 30
0.0
 11
-83.08515929158636
 21
296.8611138187695
 31
0.0
  0
LINE
  5
1E2
330
1F
100
AcDbEntity
  8
0
100
AcDbLine
 10
-83.08515929158636
 20
296.8611138187695
 30
0.0
 11
-82.44139962081873
 21
296.035313792956
 31
0.0
  0
LINE
  5
1E3
330
1F
100
AcDbEntity
  8
0
100
AcDbLine
 10
-82.44139962081873
 20
296.035313792956
 30
0.0
 11
-81.8417412343224
 21
295.1769537194171
 31
0.0
  0
LINE
  5
1E4
330
1F
100
AcDbEntity
  8
0
100
AcDbLine
 10
-81.8417412343224
 20
295.1769537194171
 30
0.0
 11
-81.28782775405347
 21
294.2883863034505
 31
0.0
  0
LINE
  5
1E5
330
1F
100
AcDbEntity
  8
0
100
AcDbLine
 10
-81.28782775405347
 20
294.2883863034505
 30
0.0
 11
-80.78117741835905
 21
293.3720470465805
 31
0.0
  0
LINE
  5
1E6
330
1F
100
AcDbEntity
  8
0
100
AcDbLine
 10
-80.78117741835905
 20
293.3720470465805
 30
0.0
 11
-80.32317892059255
 21
292.4304475710152
 31
0.0
  0
LINE
  5
1E7
330
1F
100
AcDbEntity
  8
0
100
AcDbLine
 10
-80.32317892059255
 20
292.4304475710152
 30
0.0
 11
-79.91508760280142
 21
291.4661687354688
 31
0.0
  0
LINE
  5
1E8
330
1F
100
AcDbEntity
  8
0
100
AcDbLine
 10
-79.91508760280142
 20
291.4661687354688
 30
0.0
 11
-79.55802201492116
 21
290.4818535612013
 31
0.0
  0
LINE
  5
1E9
330
1F
100
AcDbEntity
  8
0
100
AcDbLine
 10
-79.55802201492116
 20
290.4818535612013
 30
0.0
 11
-79.2529608489096
 21
289.4801999876879
 31
0.0
  0
LINE
  5
1EA
330
1F
100
AcDbEntity
  8
0
100
AcDbLine
 10
-79.2529608489096
 20
289.4801999876879
 30
0.0
 11
-79.00074025621751
 21
288.4639534777489
 31
0.0
  0
LINE
  5
1EB
330
1F
100
AcDbEntity
  8
0
100
AcDbLine
 10
-79.00074025621751
 20
288.4639534777489
 30
0.0
 11
-78.80205155595812
 21
287.4358994924301
 31
0.0
  0
LINE
  5
1EC
330
1F
100
AcDbEntity
  8
0
100
AcDbLine
 10
-78.80205155595812
 20
287.4358994924301
 30
0.0
 11
-78.65743934004807
 21
286.3988558562456
 31
0.0
  0
LINE
  5
1ED
330
1F
100
AcDbEntity
  8
0
100
AcDbLine
 10
-78.65743934004807
 20
286.3988558562456
 30
0.0
 11
-78.56729998051948
 21
285.3556650337188
 31
0.0
  0
LINE
  5
1EE
330
1F
100
AcDbEntity
  8
0
100
AcDbLine
 10
-78.56729998051948
 20
285.3556650337188
 30
0.0
 11
-78.53188054309092
 21
284.3091863383822
 31
0.0
  0
LINE
  5
1EF
330
1F
100
AcDbEntity
  8
0
100
AcDbLine
 10
-78.53188054309092
 20
284.3091863383822
 30
0.0
 11
-78.55127810997874
 21
283.2622880956003
 31
0.0
  0
LINE
  5
1F0
330
1F
100
AcDbEntity
  8
0
100
AcDbLine
 10
-78.55127810997874
 20
283.2622880956003
 30
0.0
 11
-78.62543951380054
 21
282.2178397806876
 31
0.0
  0
LINE
  5
1F1
330
1F
100
AcDbEntity
  8
0
100
AcDbLine
 10
-78.62543951380054
 20
282.2178397806876
 30
0.0
 11
-78.75416148330311
 21
281.1787041538765
 31
0.0
  0
LINE
  5
1F2
330
1F
100
AcDbEntity
  8
0
100
AcDbLine
 10
-78.75416148330311
 20
281.1787041538765
 30
0.0
 11
-78.9370912005152
 21
280.1477294136905
 31
0.0
  0
LINE
  5
1F3
330
1F
100
AcDbEntity
  8
0
100
AcDbLine
 10
-78.9370912005152
 20
280.1477294136905
 30
0.0
 11
-79.17372726779773
 21
279.1277413902305
 31
0.0
  0
LINE
  5
1F4
330
1F
100
AcDbEntity
  8
0
100
AcDbLine
 10
-79.17372726779773
 20
279.1277413902305
 30
0.0
 11
-79.46342108213827
 21
278.1215357997698
 31
0.0
  0
LINE
  5
1F5
330
1F
100
AcDbEntity
  8
0
100
AcDbLine
 10
-79.46342108213827
 20
278.1215357997698
 30
0.0
 11
-79.80537861292822
 21
277.1318705818921
 31
0.0
  0
LINE
  5
1F6
330
1F
100
AcDbEntity
  8
0
100
AcDbLine
 10
-79.80537861292822
 20
277.1318705818921
 30
0.0
 11
-80.19866257834464
 21
276.1614583401687
 31
0.0
  0
LINE
  5
1F7
330
1F
100
AcDbEntity
  8
0
100
AcDbLine
 10
-80.19866257834464
 20
276.1614583401687
 30
0.0
 11
-80.64219501437553
 21
275.2129589071012
 31
0.0
  0
LINE
  5
1F8
330
1F
100
AcDbEntity
  8
0
100
AcDbLine
 10
-80.64219501437553
 20
275.2129589071012
 30
0.0
 11
-81.1347602294431
 21
274.2889720537064
 31
0.0
  0
LINE
  5
1F9
330
1F
100
AcDbEntity
  8
0
100
AcDbLine
 10
-81.1347602294431
 20
274.2889720537064
 30
0.0
 11
-81.67500813653061
 21
273.3920303637238
 31
0.0
  0
LINE
  5
1FA
330
1F
100
AcDbEntity
  8
0
100
AcDbLine
 10
-81.67500813653061
 20
273.3920303637238
 30
0.0
 11
-82.26145795367684
 21
272.5245922919803
 31
0.0
  0
LINE
  5
1FB
330
1F
100
AcDbEntity
  8
0
100
AcDbLine
 10
-82.26145795367684
 20
272.5245922919803
 30
0.0
 11
-82.89250226269677
 21
271.6890354259357
 31
0.0
  0
LINE
  5
1FC
330
1F
100
AcDbEntity
  8
0
100
AcDbLine
 10
-82.89250226269677
 20
271.6890354259357
 30
0.0
 11
-83.56641141500262
 21
270.8876499688807
 31
0.0
  0
LINE
  5
1FD
330
1F
100
AcDbEntity
  8
0
100
AcDbLine
 10
-83.56641141500262
 20
270.8876499688807
 30
0.0
 11
-84.28133827245098
 21
270.1226324626498
 31
0.0
  0
LINE
  5
1FE
330
1F
100
AcDbEntity
  8
0
100
AcDbLine
 10
-84.28133827245098
 20
270.1226324626498
 30
0.0
 11
-85.03532327021921
 21
269.3960797670514
 31
0.0
  0
LINE
  5
1FF
330
1F
100
AcDbEntity
  8
0
100
AcDbLine
 10
-85.03532327021921
 20
269.3960797670514
 30
0.0
 11
-85.82629978783747
 21
268.7099833125221
 31
0.0
  0
LINE
  5
200
330
1F
100
AcDbEntity
  8
0
100
AcDbLine
 10
-85.82629978783747
 20
268.7099833125221
 30
0.0
 11
-86.65209981365129
 21
268.0662236417545
 31
0.0
  0
ENDSEC
  0
SECTION
  2
OBJECTS
  0
DICTIONARY
  5
C
330
0
100
AcDbDictionary
  3
ACAD_GROUP
350
D
  3
ACAD_LAYOUT
350
1A
  3
ACAD_MATERIAL
350
43
  3
ACAD_MLEADERSTYLE
350
5B
  3
ACAD_MLINESTYLE
350
17
  3
ACAD_PLOTSETTINGS
350
19
  3
ACAD_SCALELIST
350
47
  3
ACAD_VISUALSTYLE
350
2A
  3
ACDBHEADERROUNDTRIPXREC
350
201
  3
ACDBVARIABLEDICTIONARY
350
222
  3
DWGPROPS
350
229
  0
DICTIONARY
  5
22A
330
8
100
AcDbDictionary
280
     1
  3
ACAD_XREC_ROUNDTRIP
360
22B
  0
DICTIONARY
  5
D
102
{ACAD_REACTORS
330
C
102
}
330
C
100
AcDbDictionary
  0
DICTIONARY
  5
1A
102
{ACAD_REACTORS
330
C
102
}
330
C
100
AcDbDictionary
  0
DICTIONARY
  5
43
102
{ACAD_REACTORS
330
C
102
}
330
C
100
AcDbDictionary
  3
BYBLOCK
350
45
  3
BYLAYER
350
44
  3
GLOBAL
350
46
  0
DICTIONARY
  5
5B
102
{ACAD_REACTORS
330
C
102
}
330
C
100
AcDbDictionary
  3
STANDARD
350
5C
  0
DICTIONARY
  5
17
102
{ACAD_REACTORS
330
C
102
}
330
C
100
AcDbDictionary
  3
STANDARD
350
18
  0
DICTIONARY
  5
19
102
{ACAD_REACTORS
330
C
102
}
330
C
100
AcDbDictionary
  0
DICTIONARY
  5
47
102
{ACAD_REACTORS
330
C
102
}
330
C
100
AcDbDictionary
  3
A0
350
48
  3
A1
350
49
  3
A2
350
4A
  3
A3
350
4B
  3
A4
350
4C
  3
A5
350
4D
  3
A6
350
4E
  3
A7
350
4F
  3
A8
350
50
  3
A9
350
51
  3
B1
350
52
  3
B2
350
53
  3
B3
350
54
  3
B4
350
55
  3
B5
350
56
  3
B6
350
57
  3
B7
350
58
  0
DICTIONARY
  5
2A
102
{ACAD_REACTORS
330
C
102
}
330
C
100
AcDbDictionary
  3
2DWIREFRAME
350
2F
  3
BASIC
350
32
  3
BRIGHTEN
350
36
  3
COLORCHANGE
350
3A
  3
CONCEPTUAL
350
34
  3
DIM
350
35
  3
EDGECOLOROFF
350
3D
  3
FACEPATTERN
350
39
  3
FLAT
350
2B
  3
FLATWITHEDGES
350
2C
  3
GOURAUD
350
2D
  3
GOURAUDWITHEDGES
350
2E
  3
HIDDEN
350
31
  3
JITTEROFF
350
3B
  3
LINEPATTERN
350
38
  3
OVERHANGOFF
350
3C
  3
REALISTIC
350
33
  3
SHADED
350
42
  3
SHADED_WITH_EDGES
350
41
  3
SHADES_OF_GRAY
350
3E
  3
SKETCHY
350
3F
  3
THICKEN
350
37
  3
WIREFRAME
350
30
  3
X-RAY
350
40
  0
DICTIONARY
  5
201
102
{ACAD_REACTORS
330
C
102
}
330
C
100
AcDbDictionary
  3
CEPSNID
350
20B
  3
CEPSNTYPE
350
20A
  3
DIMSTYLEDATA
350
221
  3
FINGERPRINTGUID
350
20C
  3
HYPERLINKBASE
350
204
  3
INSUNITS
350
209
  3
LAYOUTDICT
350
206
  3
LWETCUNION
350
208
  3
PLOTSETDICT
350
207
  3
PSVPSCALE
350
20E
  3
PUCSBASE
350
211
  3
PUCSORGBACK
350
217
  3
PUCSORGBOTTOM
350
213
  3
PUCSORGFRONT
350
216
  3
PUCSORGLEFT
350
214
  3
PUCSORGRIGHT
350
215
  3
PUCSORGTOP
350
212
  3
PUCSORTHOREF
350
20F
  3
PUCSORTHOVIEW
350
210
  3
STYLESHEET
350
205
  3
TSTACKALIGN
350
202
  3
TSTACKSIZE
350
203
  3
UCSBASE
350
21A
  3
UCSORGBACK
350
220
  3
UCSORGBOTTOM
350
21C
  3
UCSORGFRONT
350
21F
  3
UCSORGLEFT
350
21D
  3
UCSORGRIGHT
350
21E
  3
UCSORGTOP
350
21B
  3
UCSORTHOREF
350
218
  3
UCSORTHOVIEW
350
219
  3
VERSIONGUID
350
20D
  0
DICTIONARY
  5
222
102
{ACAD_REACTORS
330
C
102
}
330
C
100
AcDbDictionary
  3
CANNOSCALE
350
22C
  3
CMLEADERSTYLE
350
224
  3
CTABLESTYLE
350
223
  3
DIMASSOC
350
227
  3
HIDETEXT
350
228
  3
MSLTSCALE
350
22D
  0
XRECORD
  5
229
102
{ACAD_REACTORS
330
C
102
}
330
C
100
AcDbXrecord
  1
DWGPROPS COOKIE
  2

  3

  4

  6

  7

  8
user
  9

300
=
301
=
302
=
303
=
304
=
305
=
306
=
307
=
308
=
309
=
 40
0.0
 41
2460674.305360706
 42
2460674.30536331
  1

 90
        0
  0
XRECORD
  5
22B
102
{ACAD_REACTORS
330
22A
102
}
330
22A
100
AcDbXrecord
102
VTR_0.000_0.000_1.000_1.000_VISUALSTYLE
340
2F
102
VTR_0.000_0.000_1.000_1.000_GRIDDISPLAY
 70
     3
102
VTR_0.000_0.000_1.000_1.000_GRIDMAJOR
 70
     5
102
VTR_0.000_0.000_1.000_1.000_DEFAULTLIGHTING
280
     1
102
VTR_0.000_0.000_1.000_1.000_DEFAULTLIGHTINGTYPE
 70
     1
102
VTR_0.000_0.000_1.000_1.000_BRIGHTNESS
141
0.0
102
VTR_0.000_0.000_1.000_1.000_CONTRAST
142
0.0
  0
MATERIAL
  5
45
102
{ACAD_REACTORS
330
43
102
}
102
{ACAD_XDICTIONARY
360
230
102
}
330
43
100
AcDbMaterial
  1
BYBLOCK
  0
MATERIAL
  5
44
102
{ACAD_REACTORS
330
43
102
}
102
{ACAD_XDICTIONARY
360
22E
102
}
330
43
100
AcDbMaterial
  1
BYLAYER
  0
MATERIAL
  5
46
102
{ACAD_REACTORS
330
43
102
}
102
{ACAD_XDICTIONARY
360
232
102
}
330
43
100
AcDbMaterial
  1
GLOBAL
  0
ACAD_PROXY_OBJECT
  5
5C
102
{ACAD_REACTORS
330
5B
102
}
330
5B
100
AcDbProxyObject
 90
      499
 91
      505
 93
      610
310
40901902A4063FBFFFFFE056BD1B81E855B9FC0AD7A3703D0AD73F4214DD185B99185C9900AD7A3703D0AC73F90141901A02B5E8DC0F42B1CFC02B5E8DC0F42B1CFE5764000000000000300FC0
340
14
340
0
340
11
340
0
 94
        0
1001
ACAD_MLEADERVER
1070
     2
  0
MLINESTYLE
  5
18
102
{ACAD_REACTORS
330
17
102
}
330
17
100
AcDbMlineStyle
  2
Standard
 70
     0
  3

 62
   256
 51
90.0
 52
90.0
 71
     2
 49
0.5
 62
   256
  6
BYLAYER
 49
-0.5
 62
   256
  6
BYLAYER
  0
ACAD_PROXY_OBJECT
  5
48
102
{ACAD_REACTORS
330
47
102
}
330
47
100
AcDbProxyObject
 90
      499
 91
      503
 93
       41
310
903313A31580
  0
ACAD_PROXY_OBJECT
  5
49
102
{ACAD_REACTORS
330
47
102
}
330
47
100
AcDbProxyObject
 90
      499
 91
      503
 93
      257
310
90E312F31323822203D2031272D3022000000000000200FC000000000000284000
  0
ACAD_PROXY_OBJECT
  5
4A
102
{ACAD_REACTORS
330
47
102
}
330
47
100
AcDbProxyObject
 90
      499
 91
      503
 93
      249
310
90D312F363422203D2031272D3022000000000000240FC000000000000284000
  0
ACAD_PROXY_OBJECT
  5
4B
102
{ACAD_REACTORS
330
47
102
}
330
47
100
AcDbProxyObject
 90
      499
 91
      503
 93
      249
310
90D312F333222203D2031272D3022000000000000280FC000000000000284000
  0
ACAD_PROXY_OBJECT
  5
4C
102
{ACAD_REACTORS
330
47
102
}
330
47
100
AcDbProxyObject
 90
      499
 91
      503
 93
      249
310
90D312F313622203D2031272D30220000000000002C0FC000000000000284000
  0
ACAD_PROXY_OBJECT
  5
4D
102
{ACAD_REACTORS
330
47
102
}
330
47
100
AcDbProxyObject
 90
      499
 91
      503
 93
      249
310
90D332F333222203D2031272D30220000000000002E0FC000000000000284000
  0
ACAD_PROXY_OBJECT
  5
4E
102
{ACAD_REACTORS
330
47
102
}
330
47
100
AcDbProxyObject
 90
      499
 91
      503
 93
      241
310
90C312F3822203D2031272D3022000000000000300FC000000000000284000
  0
ACAD_PROXY_OBJECT
  5
4F
102
{ACAD_REACTORS
330
47
102
}
330
47
100
AcDbProxyObject
 90
      499
 91
      503
 93
      249
310
90D332F313622203D2031272D3022000000000000320FC000000000000284000
  0
ACAD_PROXY_OBJECT
  5
50
102
{ACAD_REACTORS
330
47
102
}
330
47
100
AcDbProxyObject
 90
      499
 91
      503
 93
      241
310
90C312F3422203D2031272D3022000000000000340FC000000000000284000
  0
ACAD_PROXY_OBJECT
  5
51
102
{ACAD_REACTORS
330
47
102
}
330
47
100
AcDbProxyObject
 90
      499
 91
      503
 93
      241
310
90C332F3822203D2031272D3022000000000000360FC000000000000284000
  0
ACAD_PROXY_OBJECT
  5
52
102
{ACAD_REACTORS
330
47
102
}
330
47
100
AcDbProxyObject
 90
      499
 91
      503
 93
      241
310
90C312F3222203D2031272D3022000000000000380FC000000000000284000
  0
ACAD_PROXY_OBJECT
  5
53
102
{ACAD_REACTORS
330
47
102
}
330
47
100
AcDbProxyObject
 90
      499
 91
      503
 93
      241
310
90C332F3422203D2031272D30220000000000003A0FC000000000000284000
  0
ACAD_PROXY_OBJECT
  5
54
102
{ACAD_REACTORS
330
47
102
}
330
47
100
AcDbProxyObject
 90
      499
 91
      503
 93
      161
310
90A3122203D2031272D30224000000000000284000
  0
ACAD_PROXY_OBJECT
  5
55
102
{ACAD_REACTORS
330
47
102
}
330
47
100
AcDbProxyObject
 90
      499
 91
      503
 93
      257
310
90E312D312F3222203D2031272D30220000000000003E0FC000000000000284000
  0
ACAD_PROXY_OBJECT
  5
56
102
{ACAD_REACTORS
330
47
102
}
330
47
100
AcDbProxyObject
 90
      499
 91
      503
 93
      225
310
90A3322203D2031272D302200000000000002100000000000000284000
  0
ACAD_PROXY_OBJECT
  5
57
102
{ACAD_REACTORS
330
47
102
}
330
47
100
AcDbProxyObject
 90
      499
 91
      503
 93
      225
310
90A3622203D2031272D302200000000000006100000000000000284000
  0
ACAD_PROXY_OBJECT
  5
58
102
{ACAD_REACTORS
330
47
102
}
330
47
100
AcDbProxyObject
 90
      499
 91
      503
 93
      249
310
90D31272D3022203D2031272D30220000000000000A100000000000000284000
  0
ACAD_PROXY_OBJECT
  5
2F
102
{ACAD_REACTORS
330
2A
102
}
330
2A
100
AcDbProxyObject
 90
      499
 91
      501
 93
      436
310
42CC9915DA5C99599C985B595049028333333333333E33F0000000000000F90107901411070040501600405405064090741402480A0340
1001
ACAD
1000
AcDbSavedByObjectVersion
1070
     0
  0
ACAD_PROXY_OBJECT
  5
32
102
{ACAD_REACTORS
330
2A
102
}
330
2A
100
AcDbProxyObject
 90
      499
 91
      501
 93
      388
310
4150985CDA58D07406404333333333333E33F0000000000000F90107A41107004050150841D405064090741402480A0350
1001
ACAD
1000
AcDbSavedByObjectVersion
1070
     0
  0
ACAD_PROXY_OBJECT
  5
36
102
{ACAD_REACTORS
330
2A
102
}
330
2A
100
AcDbProxyObject
 90
      499
 91
      501
 93
      428
310
42109C9A59DA1D195B90C409028333333333333E33F0000000000000F9010790141107004050150841D405064090741402480A029950
1001
ACAD
1000
AcDbSavedByObjectVersion
1070
     0
  0
ACAD_PROXY_OBJECT
  5
3A
102
{ACAD_REACTORS
330
2A
102
}
330
2A
100
AcDbProxyObject
 90
      499
 91
      501
 93
      452
310
42D0DBDB1BDC90DA185B99D95104090240C333333333333E33F0000000000000F90108901411070040501508421405064090741402480A0350
1001
ACAD
1000
AcDbSavedByObjectVersion
1070
     0
  0
ACAD_PROXY_OBJECT
  5
34
102
{ACAD_REACTORS
330
2A
102
}
330
2A
100
AcDbProxyObject
 90
      499
 91
      501
 93
      500
310
4290DBDB98D95C1D1D585B10940D028333333333333E33F0000000000000F90107902409070040501000000000018199010841D405064090740C02480A0340
1001
ACAD
1000
AcDbSavedByObjectVersion
1070
     0
  0
ACAD_PROXY_OBJECT
  5
35
102
{ACAD_REACTORS
330
2A
102
}
330
2A
100
AcDbProxyObject
 90
      499
 91
      501
 93
      412
310
40D11A5B50B409028333333333333E33F0000000000000F9010790141107004050150841D405064090741402480A02677FFFFFD0
1001
ACAD
1000
AcDbSavedByObjectVersion
1070
     0
  0
ACAD_PROXY_OBJECT
  5
3D
102
{ACAD_REACTORS
330
2A
102
}
330
2A
100
AcDbProxyObject
 90
      499
 91
      501
 93
      452
310
43115919D950DBDB1BDC93D999916409028333333333333E33F0000000000000F9010790141107004050150841D405064090741402480A0350
1001
ACAD
1000
AcDbSavedByObjectVersion
1070
     0
  0
ACAD_PROXY_OBJECT
  5
39
102
{ACAD_REACTORS
330
2A
102
}
330
2A
100
AcDbProxyObject
 90
      499
 91
      501
 93
      444
310
42D19858D95C185D1D195C9B90F409028333333333333E33F0000000000000F9010790141107004050150841D405064090741402480A0350
1001
ACAD
1000
AcDbSavedByObjectVersion
1070
     0
  0
ACAD_PROXY_OBJECT
  5
2B
102
{ACAD_REACTORS
330
2A
102
}
330
2A
100
AcDbProxyObject
 90
      499
 91
      501
 93
      380
310
41119B185D240901404333333333333E33F0000000000000F9010740A907004050150841D405064090741402480A1B50
1001
ACAD
1000
AcDbSavedByObjectVersion
1070
     0
  0
ACAD_PROXY_OBJECT
  5
2C
102
{ACAD_REACTORS
330
2A
102
}
330
2A
100
AcDbProxyObject
 90
      499
 91
      501
 93
      468
310
43519B185D15DA5D1A115919D95CD0140901404333333333333E33F0000000000000F90107409019070040501600405405064090741402480A1B50
1001
ACAD
1000
AcDbSavedByObjectVersion
1070
     0
  0
ACAD_PROXY_OBJECT
  5
2D
102
{ACAD_REACTORS
330
2A
102
}
330
2A
100
AcDbProxyObject
 90
      499
 91
      501
 93
      404
310
41D1DBDD5C985D5910240902404333333333333E33F0000000000000F9010740A9070040501641D405064090741402480A1B50
1001
ACAD
1000
AcDbSavedByObjectVersion
1070
     0
  0
ACAD_PROXY_OBJECT
  5
2E
102
{ACAD_REACTORS
330
2A
102
}
330
2A
100
AcDbProxyObject
 90
      499
 91
      501
 93
      492
310
4411DBDD5C985D5915DA5D1A115919D95CD0340902404333333333333E33F0000000000000F90107409019070040501600405405064090741402480A1B50
1001
ACAD
1000
AcDbSavedByObjectVersion
1070
     0
  0
ACAD_PROXY_OBJECT
  5
31
102
{ACAD_REACTORS
330
2A
102
}
330
2A
100
AcDbProxyObject
 90
      499
 91
      501
 93
      476
310
41921A5919195B90640502408333333333333E33F0000000000000F901079024090700405020000000000001110200405405064090740C02480A0340
1001
ACAD
1000
AcDbSavedByObjectVersion
1070
     0
  0
ACAD_PROXY_OBJECT
  5
3B
102
{ACAD_REACTORS
330
2A
102
}
330
2A
100
AcDbProxyObject
 90
      499
 91
      501
 93
      428
310
42529A5D1D195C93D999914409028333333333333E33F0000000000000F9010790141107004050150A41D405064090741402480A0350
1001
ACAD
1000
AcDbSavedByObjectVersion
1070
     0
  0
ACAD_PROXY_OBJECT
  5
38
102
{ACAD_REACTORS
330
2A
102
}
330
2A
100
AcDbProxyObject
 90
      499
 91
      501
 93
      444
310
42D31A5B995C185D1D195C9B90E409028333333333333E33F0000000000000F9010790141107004050750841D405064090741402483A0350
1001
ACAD
1000
AcDbSavedByObjectVersion
1070
     0
  0
ACAD_PROXY_OBJECT
  5
3C
102
{ACAD_REACTORS
330
2A
102
}
330
2A
100
AcDbProxyObject
 90
      499
 91
      501
 93
      444
310
42D3DD995C9A185B99D3D999915409028333333333333E33F0000000000000F9010790141107004050150941D405064090741402480A0350
1001
ACAD
1000
AcDbSavedByObjectVersion
1070
     0
  0
ACAD_PROXY_OBJECT
  5
33
102
{ACAD_REACTORS
330
2A
102
}
330
2A
100
AcDbProxyObject
 90
      499
 91
      501
 93
      428
310
425499585B1A5CDD1A58D08409038333333333333E33F0000000000000F9010740A907004050150800405405064090740C02480A1B40
1001
ACAD
1000
AcDbSavedByObjectVersion
1070
     0
  0
ACAD_PROXY_OBJECT
  5
42
102
{ACAD_REACTORS
330
2A
102
}
330
2A
100
AcDbProxyObject
 90
      499
 91
      501
 93
      420
310
4194DA1859195911B40902404333333333333E33F0000000000000F9010740A41107004050150800405405064090840C02480A0B40
1001
ACAD
1000
AcDbSavedByObjectVersion
1070
     0
  0
ACAD_PROXY_OBJECT
  5
41
102
{ACAD_REACTORS
330
2A
102
}
330
2A
100
AcDbProxyObject
 90
      499
 91
      501
 93
      516
310
4454DA18591959081DDA5D1A08195919D95CD1A40902404333333333333E33F0000000000000F901074090142907004050250800405405064090740C02480A0B40
1001
ACAD
1000
AcDbSavedByObjectVersion
1070
     0
  0
ACAD_PROXY_OBJECT
  5
3E
102
{ACAD_REACTORS
330
2A
102
}
330
2A
100
AcDbProxyObject
 90
      499
 91
      501
 93
      532
310
4394DA1859195CC81BD98811DC985E5174090240C333333333333E33F0000000000000F901079024090741D01000000000000111010841D405064090740C02480A0340
1001
ACAD
1000
AcDbSavedByObjectVersion
1070
     0
  0
ACAD_PROXY_OBJECT
  5
3F
102
{ACAD_REACTORS
330
2A
102
}
330
2A
100
AcDbProxyObject
 90
      499
 91
      501
 93
      476
310
41D4DAD95D18DA1E51840502408333333333333E33F0000000000000F901079024090741D01000000000000111010B41D405064090741802480A0340
1001
ACAD
1000
AcDbSavedByObjectVersion
1070
     0
  0
ACAD_PROXY_OBJECT
  5
37
102
{ACAD_REACTORS
330
2A
102
}
330
2A
100
AcDbProxyObject
 90
      499
 91
      501
 93
      412
310
41D51A1A58DAD95B90D409028333333333333E33F0000000000000F9010790141107004050150C41D405064090741402480A0350
1001
ACAD
1000
AcDbSavedByObjectVersion
1070
     0
  0
ACAD_PROXY_OBJECT
  5
30
102
{ACAD_REACTORS
330
2A
102
}
330
2A
100
AcDbProxyObject
 90
      499
 91
      501
 93
      420
310
4255DA5C99599C985B595059028333333333333E33F0000000000000F90107901411070040501600405405064090740C02480A0340
1001
ACAD
1000
AcDbSavedByObjectVersion
1070
     0
  0
ACAD_PROXY_OBJECT
  5
40
102
{ACAD_REACTORS
330
2A
102
}
330
2A
100
AcDbProxyObject
 90
      499
 91
      501
 93
      404
310
41560B54985E51940902404000000000000E03F0000000000000F9010740501907004050150841D405064090740C02480A1B40
1001
ACAD
1000
AcDbSavedByObjectVersion
1070
     0
  0
XRECORD
  5
20B
102
{ACAD_REACTORS
330
201
102
}
330
201
100
AcDbXrecord
340
0
  0
XRECORD
  5
20A
102
{ACAD_REACTORS
330
201
102
}
330
201
100
AcDbXrecord
 90
        0
  0
XRECORD
  5
221
102
{ACAD_REACTORS
330
201
102
}
330
201
100
AcDbXrecord
1000
DSTYLE
1002
{
1070
   171
 70
     2
1070
   143
 40
25.4
1070
   274
 70
     2
1070
    41
 40
0.18
1070
   141
 40
0.09
1070
   271
 70
     4
1070
    43
 40
0.38
1070
   278
 70
    46
1070
    44
 40
0.18
1070
    42
 40
0.0625
1070
   147
 40
0.09
1070
    77
 70
     0
1070
   272
 70
     4
1070
    73
 70
     1
1070
   172
 70
     0
1070
    74
 70
     1
1070
   283
 70
     1
1070
   340
340
11
1070
   140
 40
0.18
1070
   284
 70
     0
1070
    78
 70
     0
1002
}
  0
XRECORD
  5
20C
102
{ACAD_REACTORS
330
201
102
}
330
201
100
AcDbXrecord
  1
{350d9068-c09a-974c-9dbf-90763ab0e4fe}
  0
XRECORD
  5
204
102
{ACAD_REACTORS
330
201
102
}
330
201
100
AcDbXrecord
  1

  0
XRECORD
  5
209
102
{ACAD_REACTORS
330
201
102
}
330
201
100
AcDbXrecord
 90
        4
  0
XRECORD
  5
206
102
{ACAD_REACTORS
330
201
102
}
330
201
100
AcDbXrecord
340
1A
  0
XRECORD
  5
208
102
{ACAD_REACTORS
330
201
102
}
330
201
100
AcDbXrecord
 90
    10781
  0
XRECORD
  5
207
102
{ACAD_REACTORS
330
201
102
}
330
201
100
AcDbXrecord
340
19
  0
XRECORD
  5
20E
102
{ACAD_REACTORS
330
201
102
}
330
201
100
AcDbXrecord
 40
0.0
  0
XRECORD
  5
211
102
{ACAD_REACTORS
330
201
102
}
330
201
100
AcDbXrecord
340
0
  0
XRECORD
  5
217
102
{ACAD_REACTORS
330
201
102
}
330
201
100
AcDbXrecord
 10
0.0
 20
0.0
 30
0.0
  0
XRECORD
  5
213
102
{ACAD_REACTORS
330
201
102
}
330
201
100
AcDbXrecord
 10
0.0
 20
0.0
 30
0.0
  0
XRECORD
  5
216
102
{ACAD_REACTORS
330
201
102
}
330
201
100
AcDbXrecord
 10
0.0
 20
0.0
 30
0.0
  0
XRECORD
  5
214
102
{ACAD_REACTORS
330
201
102
}
330
201
100
AcDbXrecord
 10
0.0
 20
0.0
 30
0.0
  0
XRECORD
  5
215
102
{ACAD_REACTORS
330
201
102
}
330
201
100
AcDbXrecord
 10
0.0
 20
0.0
 30
0.0
  0
XRECORD
  5
212
102
{ACAD_REACTORS
330
201
102
}
330
201
100
AcDbXrecord
 10
0.0
 20
0.0
 30
0.0
  0
XRECORD
  5
20F
102
{ACAD_REACTORS
330
201
102
}
330
201
100
AcDbXrecord
340
0
  0
XRECORD
  5
210
102
{ACAD_REACTORS
330
201
102
}
330
201
100
AcDbXrecord
 70
     0
  0
XRECORD
  5
205
102
{ACAD_REACTORS
330
201
102
}
330
201
100
AcDbXrecord
  1

  0
XRECORD
  5
202
102
{ACAD_REACTORS
330
201
102
}
330
201
100
AcDbXrecord
 90
        1
  0
XRECORD
  5
203
102
{ACAD_REACTORS
330
201
102
}
330
201
100
AcDbXrecord
 90
       70
  0
XRECORD
  5
21A
102
{ACAD_REACTORS
330
201
102
}
330
201
100
AcDbXrecord
340
0
  0
XRECORD
  5
220
102
{ACAD_REACTORS
330
201
102
}
330
201
100
AcDbXrecord
 10
0.0
 20
0.0
 30
0.0
  0
XRECORD
  5
21C
102
{ACAD_REACTORS
330
201
102
}
330
201
100
AcDbXrecord
 10
0.0
 20
0.0
 30
0.0
  0
XRECORD
  5
21F
102
{ACAD_REACTORS
330
201
102
}
330
201
100
AcDbXrecord
 10
0.0
 20
0.0
 30
0.0
  0
XRECORD
  5
21D
102
{ACAD_REACTORS
330
201
102
}
330
201
100
AcDbXrecord
 10
0.0
 20
0.0
 30
0.0
  0
XRECORD
  5
21E
102
{ACAD_REACTORS
330
201
102
}
330
201
100
AcDbXrecord
 10
0.0
 20
0.0
 30
0.0
  0
XRECORD
  5
21B
102
{ACAD_REACTORS
330
201
102
}
330
201
100
AcDbXrecord
 10
0.0
 20
0.0
 30
0.0
  0
XRECORD
  5
218
102
{ACAD_REACTORS
330
201
102
}
330
201
100
AcDbXrecord
340
0
  0
XRECORD
  5
219
102
{ACAD_REACTORS
330
201
102
}
330
201
100
AcDbXrecord
 70
     0
  0
XRECORD
  5
20D
102
{ACAD_REACTORS
330
201
102
}
330
201
100
AcDbXrecord
  1
{FAEB1C32-E019-11D5-929B-00C0DF256EC4}
  0
DICTIONARYVAR
  5
22C
102
{ACAD_REACTORS
330
222
102
}
330
222
100
DictionaryVariables
280
     0
  1
1:1
  0
DICTIONARYVAR
  5
224
102
{ACAD_REACTORS
330
222
102
}
330
222
100
DictionaryVariables
280
     0
  1
Standard
  0
DICTIONARYVAR
  5
223
102
{ACAD_REACTORS
330
222
102
}
330
222
100
DictionaryVariables
280
     0
  1
Standard
  0
DICTIONARYVAR
  5
227
102
{ACAD_REACTORS
330
222
102
}
330
222
100
DictionaryVariables
280
     0
  1
2
  0
DICTIONARYVAR
  5
228
102
{ACAD_REACTORS
330
222
102
}
330
222
100
DictionaryVariables
280
     0
  1
1
  0
DICTIONARYVAR
  5
22D
102
{ACAD_REACTORS
330
222
102
}
330
222
100
DictionaryVariables
280
     0
  1
1
  0
DICTIONARY
  5
230
330
45
100
AcDbDictionary
280
     1
  3
ACAD_XREC_ROUNDTRIP
360
231
  0
DICTIONARY
  5
22E
330
44
100
AcDbDictionary
280
     1
  3
ACAD_XREC_ROUNDTRIP
360
22F
  0
DICTIONARY
  5
232
330
46
100
AcDbDictionary
280
     1
  3
ACAD_XREC_ROUNDTRIP
360
233
  0
XRECORD
  5
231
102
{ACAD_REACTORS
330
230
102
}
330
230
100
AcDbXrecord
102
MATERIAL
148
0.0
149
0.0
149
0.0
 93
        0
 94
      127
282
     0
 72
     1
 77
     1
171
     1
175
     1
179
     1
273
     0
  0
XRECORD
  5
22F
102
{ACAD_REACTORS
330
22E
102
}
330
22E
100
AcDbXrecord
102
MATERIAL
148
0.0
149
0.0
149
0.0
 93
        0
 94
      127
282
     0
 72
     1
 77
     1
171
     1
175
     1
179
     1
273
     0
  0
XRECORD
  5
233
102
{ACAD_REACTORS
330
232
102
}
330
232
100
AcDbXrecord
102
MATERIAL
148
0.0
149
0.0
149
0.0
 93
        0
 94
      127
282
     0
 72
     1
 77
     1
171
     1
175
     1
179
     1
273
     0
  0
ENDSEC
  0
EOF
